G04 #@! TF.GenerationSoftware,KiCad,Pcbnew,(5.0.1-3-g963ef8bb5)*
G04 #@! TF.CreationDate,2018-11-04T18:49:05+08:00*
G04 #@! TF.ProjectId,SteinerVCF,537465696E65725643462E6B69636164,rev?*
G04 #@! TF.SameCoordinates,PX8d9ee20PY6422c40*
G04 #@! TF.FileFunction,Legend,Bot*
G04 #@! TF.FilePolarity,Positive*
%FSLAX46Y46*%
G04 Gerber Fmt 4.6, Leading zero omitted, Abs format (unit mm)*
G04 Created by KiCad (PCBNEW (5.0.1-3-g963ef8bb5)) date 2018 November 04, Sunday 18:49:05*
%MOMM*%
%LPD*%
G01*
G04 APERTURE LIST*
%ADD10C,0.250000*%
%ADD11C,0.400000*%
%ADD12C,0.300000*%
%ADD13C,0.120000*%
%ADD14C,0.150000*%
%ADD15C,0.125000*%
G04 APERTURE END LIST*
D10*
X1761904Y45648572D02*
X1000000Y45648572D01*
X1380952Y45267620D02*
X1380952Y46029524D01*
X0Y45267620D02*
X571428Y45267620D01*
X285714Y45267620D02*
X285714Y46267620D01*
X380952Y46124762D01*
X476190Y46029524D01*
X571428Y45981905D01*
X-380953Y46172381D02*
X-428572Y46220000D01*
X-523810Y46267620D01*
X-761905Y46267620D01*
X-857143Y46220000D01*
X-904762Y46172381D01*
X-952381Y46077143D01*
X-952381Y45981905D01*
X-904762Y45839048D01*
X-333334Y45267620D01*
X-952381Y45267620D01*
X-1238096Y46267620D02*
X-1571429Y45267620D01*
X-1904762Y46267620D01*
X2015904Y29138572D02*
X1254000Y29138572D01*
X254000Y28757620D02*
X825428Y28757620D01*
X539714Y28757620D02*
X539714Y29757620D01*
X634952Y29614762D01*
X730190Y29519524D01*
X825428Y29471905D01*
X-126953Y29662381D02*
X-174572Y29710000D01*
X-269810Y29757620D01*
X-507905Y29757620D01*
X-603143Y29710000D01*
X-650762Y29662381D01*
X-698381Y29567143D01*
X-698381Y29471905D01*
X-650762Y29329048D01*
X-79334Y28757620D01*
X-698381Y28757620D01*
X-984096Y29757620D02*
X-1317429Y28757620D01*
X-1650762Y29757620D01*
D11*
X2286000Y30734000D02*
X-2286000Y30734000D01*
D10*
X16595380Y36564358D02*
X15595380Y36564358D01*
X16309666Y36064358D01*
X15595380Y35564358D01*
X16595380Y35564358D01*
X16595380Y34207215D02*
X16071571Y34207215D01*
X15976333Y34278643D01*
X15928714Y34421500D01*
X15928714Y34707215D01*
X15976333Y34850072D01*
X16547761Y34207215D02*
X16595380Y34350072D01*
X16595380Y34707215D01*
X16547761Y34850072D01*
X16452523Y34921500D01*
X16357285Y34921500D01*
X16262047Y34850072D01*
X16214428Y34707215D01*
X16214428Y34350072D01*
X16166809Y34207215D01*
X16595380Y33492929D02*
X15928714Y33492929D01*
X16119190Y33492929D02*
X16023952Y33421500D01*
X15976333Y33350072D01*
X15928714Y33207215D01*
X15928714Y33064358D01*
X16595380Y31921500D02*
X16071571Y31921500D01*
X15976333Y31992929D01*
X15928714Y32135786D01*
X15928714Y32421500D01*
X15976333Y32564358D01*
X16547761Y31921500D02*
X16595380Y32064358D01*
X16595380Y32421500D01*
X16547761Y32564358D01*
X16452523Y32635786D01*
X16357285Y32635786D01*
X16262047Y32564358D01*
X16214428Y32421500D01*
X16214428Y32064358D01*
X16166809Y31921500D01*
X15928714Y31207215D02*
X16595380Y31207215D01*
X16023952Y31207215D02*
X15976333Y31135786D01*
X15928714Y30992929D01*
X15928714Y30778643D01*
X15976333Y30635786D01*
X16071571Y30564358D01*
X16595380Y30564358D01*
X15928714Y29207215D02*
X16738238Y29207215D01*
X16833476Y29278643D01*
X16881095Y29350072D01*
X16928714Y29492929D01*
X16928714Y29707215D01*
X16881095Y29850072D01*
X16547761Y29207215D02*
X16595380Y29350072D01*
X16595380Y29635786D01*
X16547761Y29778643D01*
X16500142Y29850072D01*
X16404904Y29921500D01*
X16119190Y29921500D01*
X16023952Y29850072D01*
X15976333Y29778643D01*
X15928714Y29635786D01*
X15928714Y29350072D01*
X15976333Y29207215D01*
X16595380Y28492929D02*
X15928714Y28492929D01*
X15595380Y28492929D02*
X15643000Y28564358D01*
X15690619Y28492929D01*
X15643000Y28421500D01*
X15595380Y28492929D01*
X15690619Y28492929D01*
X16547761Y27850072D02*
X16595380Y27707215D01*
X16595380Y27421500D01*
X16547761Y27278643D01*
X16452523Y27207215D01*
X16404904Y27207215D01*
X16309666Y27278643D01*
X16262047Y27421500D01*
X16262047Y27635786D01*
X16214428Y27778643D01*
X16119190Y27850072D01*
X16071571Y27850072D01*
X15976333Y27778643D01*
X15928714Y27635786D01*
X15928714Y27421500D01*
X15976333Y27278643D01*
X15928714Y26778643D02*
X15928714Y26207215D01*
X15595380Y26564358D02*
X16452523Y26564358D01*
X16547761Y26492929D01*
X16595380Y26350072D01*
X16595380Y26207215D01*
X16595380Y25492929D02*
X16547761Y25635786D01*
X16500142Y25707215D01*
X16404904Y25778643D01*
X16119190Y25778643D01*
X16023952Y25707215D01*
X15976333Y25635786D01*
X15928714Y25492929D01*
X15928714Y25278643D01*
X15976333Y25135786D01*
X16023952Y25064358D01*
X16119190Y24992929D01*
X16404904Y24992929D01*
X16500142Y25064358D01*
X16547761Y25135786D01*
X16595380Y25278643D01*
X16595380Y25492929D01*
X17440619Y36635786D02*
X17393000Y36564358D01*
X17345380Y36421500D01*
X17345380Y36064358D01*
X17393000Y35921500D01*
X17440619Y35850072D01*
X17535857Y35778643D01*
X17631095Y35778643D01*
X17773952Y35850072D01*
X18345380Y36707215D01*
X18345380Y35778643D01*
X17345380Y34850072D02*
X17345380Y34707215D01*
X17393000Y34564358D01*
X17440619Y34492929D01*
X17535857Y34421500D01*
X17726333Y34350072D01*
X17964428Y34350072D01*
X18154904Y34421500D01*
X18250142Y34492929D01*
X18297761Y34564358D01*
X18345380Y34707215D01*
X18345380Y34850072D01*
X18297761Y34992929D01*
X18250142Y35064358D01*
X18154904Y35135786D01*
X17964428Y35207215D01*
X17726333Y35207215D01*
X17535857Y35135786D01*
X17440619Y35064358D01*
X17393000Y34992929D01*
X17345380Y34850072D01*
X18345380Y32921500D02*
X18345380Y33778643D01*
X18345380Y33350072D02*
X17345380Y33350072D01*
X17488238Y33492929D01*
X17583476Y33635786D01*
X17631095Y33778643D01*
X17773952Y32064358D02*
X17726333Y32207215D01*
X17678714Y32278643D01*
X17583476Y32350072D01*
X17535857Y32350072D01*
X17440619Y32278643D01*
X17393000Y32207215D01*
X17345380Y32064358D01*
X17345380Y31778643D01*
X17393000Y31635786D01*
X17440619Y31564358D01*
X17535857Y31492929D01*
X17583476Y31492929D01*
X17678714Y31564358D01*
X17726333Y31635786D01*
X17773952Y31778643D01*
X17773952Y32064358D01*
X17821571Y32207215D01*
X17869190Y32278643D01*
X17964428Y32350072D01*
X18154904Y32350072D01*
X18250142Y32278643D01*
X18297761Y32207215D01*
X18345380Y32064358D01*
X18345380Y31778643D01*
X18297761Y31635786D01*
X18250142Y31564358D01*
X18154904Y31492929D01*
X17964428Y31492929D01*
X17869190Y31564358D01*
X17821571Y31635786D01*
X17773952Y31778643D01*
X-17581620Y45398286D02*
X-18057810Y45898286D01*
X-17581620Y46255429D02*
X-18581620Y46255429D01*
X-18581620Y45684000D01*
X-18534000Y45541143D01*
X-18486381Y45469715D01*
X-18391143Y45398286D01*
X-18248286Y45398286D01*
X-18153048Y45469715D01*
X-18105429Y45541143D01*
X-18057810Y45684000D01*
X-18057810Y46255429D01*
X-17629239Y44184000D02*
X-17581620Y44326858D01*
X-17581620Y44612572D01*
X-17629239Y44755429D01*
X-17724477Y44826858D01*
X-18105429Y44826858D01*
X-18200667Y44755429D01*
X-18248286Y44612572D01*
X-18248286Y44326858D01*
X-18200667Y44184000D01*
X-18105429Y44112572D01*
X-18010191Y44112572D01*
X-17914953Y44826858D01*
X-18248286Y43612572D02*
X-17581620Y43255429D01*
X-18248286Y42898286D01*
X-17867334Y41255429D02*
X-17867334Y40541143D01*
X-17581620Y41398286D02*
X-18581620Y40898286D01*
X-17581620Y40398286D01*
D12*
X14685333Y-9209428D02*
X14685333Y-11114190D01*
X15256761Y-8828476D02*
X13256761Y-10161809D01*
X15256761Y-11495142D01*
X13923428Y-14542761D02*
X15256761Y-14542761D01*
X13923428Y-12828476D02*
X14971047Y-12828476D01*
X15161523Y-13018952D01*
X15256761Y-13399904D01*
X15256761Y-13971333D01*
X15161523Y-14352285D01*
X15066285Y-14542761D01*
X13923428Y-18161809D02*
X15542476Y-18161809D01*
X15732952Y-17971333D01*
X15828190Y-17780857D01*
X15923428Y-17399904D01*
X15923428Y-16828476D01*
X15828190Y-16447523D01*
X15161523Y-18161809D02*
X15256761Y-17780857D01*
X15256761Y-17018952D01*
X15161523Y-16638000D01*
X15066285Y-16447523D01*
X14875809Y-16257047D01*
X14304380Y-16257047D01*
X14113904Y-16447523D01*
X14018666Y-16638000D01*
X13923428Y-17018952D01*
X13923428Y-17780857D01*
X14018666Y-18161809D01*
X15256761Y-20066571D02*
X13923428Y-20066571D01*
X14113904Y-20066571D02*
X14018666Y-20257047D01*
X13923428Y-20638000D01*
X13923428Y-21209428D01*
X14018666Y-21590380D01*
X14209142Y-21780857D01*
X15256761Y-21780857D01*
X14209142Y-21780857D02*
X14018666Y-21971333D01*
X13923428Y-22352285D01*
X13923428Y-22923714D01*
X14018666Y-23304666D01*
X14209142Y-23495142D01*
X15256761Y-23495142D01*
X15161523Y-26923714D02*
X15256761Y-26542761D01*
X15256761Y-25780857D01*
X15161523Y-25399904D01*
X14971047Y-25209428D01*
X14209142Y-25209428D01*
X14018666Y-25399904D01*
X13923428Y-25780857D01*
X13923428Y-26542761D01*
X14018666Y-26923714D01*
X14209142Y-27114190D01*
X14399619Y-27114190D01*
X14590095Y-25209428D01*
X13923428Y-28828476D02*
X15256761Y-28828476D01*
X14113904Y-28828476D02*
X14018666Y-29018952D01*
X13923428Y-29399904D01*
X13923428Y-29971333D01*
X14018666Y-30352285D01*
X14209142Y-30542761D01*
X15256761Y-30542761D01*
X13923428Y-31876095D02*
X13923428Y-33399904D01*
X13256761Y-32447523D02*
X14971047Y-32447523D01*
X15161523Y-32638000D01*
X15256761Y-33018952D01*
X15256761Y-33399904D01*
X15161523Y-36257047D02*
X15256761Y-35876095D01*
X15256761Y-35114190D01*
X15161523Y-34733238D01*
X14971047Y-34542761D01*
X14209142Y-34542761D01*
X14018666Y-34733238D01*
X13923428Y-35114190D01*
X13923428Y-35876095D01*
X14018666Y-36257047D01*
X14209142Y-36447523D01*
X14399619Y-36447523D01*
X14590095Y-34542761D01*
X15256761Y-39876095D02*
X13256761Y-39876095D01*
X15161523Y-39876095D02*
X15256761Y-39495142D01*
X15256761Y-38733238D01*
X15161523Y-38352285D01*
X15066285Y-38161809D01*
X14875809Y-37971333D01*
X14304380Y-37971333D01*
X14113904Y-38161809D01*
X14018666Y-38352285D01*
X13923428Y-38733238D01*
X13923428Y-39495142D01*
X14018666Y-39876095D01*
X18461523Y-7971333D02*
X18556761Y-8542761D01*
X18556761Y-9495142D01*
X18461523Y-9876095D01*
X18366285Y-10066571D01*
X18175809Y-10257047D01*
X17985333Y-10257047D01*
X17794857Y-10066571D01*
X17699619Y-9876095D01*
X17604380Y-9495142D01*
X17509142Y-8733238D01*
X17413904Y-8352285D01*
X17318666Y-8161809D01*
X17128190Y-7971333D01*
X16937714Y-7971333D01*
X16747238Y-8161809D01*
X16652000Y-8352285D01*
X16556761Y-8733238D01*
X16556761Y-9685619D01*
X16652000Y-10257047D01*
X17223428Y-11399904D02*
X17223428Y-12923714D01*
X16556761Y-11971333D02*
X18271047Y-11971333D01*
X18461523Y-12161809D01*
X18556761Y-12542761D01*
X18556761Y-12923714D01*
X18461523Y-15780857D02*
X18556761Y-15399904D01*
X18556761Y-14638000D01*
X18461523Y-14257047D01*
X18271047Y-14066571D01*
X17509142Y-14066571D01*
X17318666Y-14257047D01*
X17223428Y-14638000D01*
X17223428Y-15399904D01*
X17318666Y-15780857D01*
X17509142Y-15971333D01*
X17699619Y-15971333D01*
X17890095Y-14066571D01*
X18556761Y-17685619D02*
X17223428Y-17685619D01*
X16556761Y-17685619D02*
X16652000Y-17495142D01*
X16747238Y-17685619D01*
X16652000Y-17876095D01*
X16556761Y-17685619D01*
X16747238Y-17685619D01*
X17223428Y-19590380D02*
X18556761Y-19590380D01*
X17413904Y-19590380D02*
X17318666Y-19780857D01*
X17223428Y-20161809D01*
X17223428Y-20733238D01*
X17318666Y-21114190D01*
X17509142Y-21304666D01*
X18556761Y-21304666D01*
X18461523Y-24733238D02*
X18556761Y-24352285D01*
X18556761Y-23590380D01*
X18461523Y-23209428D01*
X18271047Y-23018952D01*
X17509142Y-23018952D01*
X17318666Y-23209428D01*
X17223428Y-23590380D01*
X17223428Y-24352285D01*
X17318666Y-24733238D01*
X17509142Y-24923714D01*
X17699619Y-24923714D01*
X17890095Y-23018952D01*
X18556761Y-26638000D02*
X17223428Y-26638000D01*
X17604380Y-26638000D02*
X17413904Y-26828476D01*
X17318666Y-27018952D01*
X17223428Y-27399904D01*
X17223428Y-27780857D01*
X16556761Y-31590380D02*
X18556761Y-32923714D01*
X16556761Y-34257047D01*
X18366285Y-37876095D02*
X18461523Y-37685619D01*
X18556761Y-37114190D01*
X18556761Y-36733238D01*
X18461523Y-36161809D01*
X18271047Y-35780857D01*
X18080571Y-35590380D01*
X17699619Y-35399904D01*
X17413904Y-35399904D01*
X17032952Y-35590380D01*
X16842476Y-35780857D01*
X16652000Y-36161809D01*
X16556761Y-36733238D01*
X16556761Y-37114190D01*
X16652000Y-37685619D01*
X16747238Y-37876095D01*
X17509142Y-40923714D02*
X17509142Y-39590380D01*
X18556761Y-39590380D02*
X16556761Y-39590380D01*
X16556761Y-41495142D01*
D13*
G04 #@! TO.C,C12*
X-12980000Y-19024000D02*
X-14180000Y-19024000D01*
X-17500000Y-19024000D02*
X-16300000Y-19024000D01*
X-17500000Y-15568437D02*
X-17500000Y-19024000D01*
X-12980000Y-15568437D02*
X-12980000Y-19024000D01*
X-14044437Y-14504000D02*
X-14180000Y-14504000D01*
X-16435563Y-14504000D02*
X-16300000Y-14504000D01*
X-16435563Y-14504000D02*
X-17500000Y-15568437D01*
X-14044437Y-14504000D02*
X-12980000Y-15568437D01*
X-16800000Y-13764000D02*
X-16800000Y-14264000D01*
X-17050000Y-14014000D02*
X-16550000Y-14014000D01*
G04 #@! TO.C,C14*
X-11970000Y43390000D02*
X-11470000Y43390000D01*
X-11720000Y43640000D02*
X-11720000Y43140000D01*
X-8964437Y42900000D02*
X-7900000Y41835563D01*
X-11355563Y42900000D02*
X-12420000Y41835563D01*
X-11355563Y42900000D02*
X-11220000Y42900000D01*
X-8964437Y42900000D02*
X-9100000Y42900000D01*
X-7900000Y41835563D02*
X-7900000Y38380000D01*
X-12420000Y41835563D02*
X-12420000Y38380000D01*
X-12420000Y38380000D02*
X-11220000Y38380000D01*
X-7900000Y38380000D02*
X-9100000Y38380000D01*
G04 #@! TO.C,C13*
X12420000Y38380000D02*
X11220000Y38380000D01*
X7900000Y38380000D02*
X9100000Y38380000D01*
X7900000Y41835563D02*
X7900000Y38380000D01*
X12420000Y41835563D02*
X12420000Y38380000D01*
X11355563Y42900000D02*
X11220000Y42900000D01*
X8964437Y42900000D02*
X9100000Y42900000D01*
X8964437Y42900000D02*
X7900000Y41835563D01*
X11355563Y42900000D02*
X12420000Y41835563D01*
X8600000Y43640000D02*
X8600000Y43140000D01*
X8350000Y43390000D02*
X8850000Y43390000D01*
G04 #@! TO.C,C6*
X-12401250Y29951750D02*
X-11613750Y29951750D01*
X-12007500Y30345500D02*
X-12007500Y29558000D01*
X-7814437Y29318000D02*
X-6750000Y28253563D01*
X-12505563Y29318000D02*
X-13570000Y28253563D01*
X-12505563Y29318000D02*
X-11220000Y29318000D01*
X-7814437Y29318000D02*
X-9100000Y29318000D01*
X-6750000Y28253563D02*
X-6750000Y22498000D01*
X-13570000Y28253563D02*
X-13570000Y22498000D01*
X-13570000Y22498000D02*
X-11220000Y22498000D01*
X-6750000Y22498000D02*
X-9100000Y22498000D01*
G04 #@! TO.C,C7*
X13570000Y22498000D02*
X11220000Y22498000D01*
X6750000Y22498000D02*
X9100000Y22498000D01*
X6750000Y28253563D02*
X6750000Y22498000D01*
X13570000Y28253563D02*
X13570000Y22498000D01*
X12505563Y29318000D02*
X11220000Y29318000D01*
X7814437Y29318000D02*
X9100000Y29318000D01*
X7814437Y29318000D02*
X6750000Y28253563D01*
X12505563Y29318000D02*
X13570000Y28253563D01*
X8312500Y30345500D02*
X8312500Y29558000D01*
X7918750Y29951750D02*
X8706250Y29951750D01*
G04 #@! TO.C,C16*
X7110000Y-41310779D02*
X7110000Y-40985221D01*
X8130000Y-41310779D02*
X8130000Y-40985221D01*
G04 #@! TO.C,C15*
X-7110000Y-41310779D02*
X-7110000Y-40985221D01*
X-8130000Y-41310779D02*
X-8130000Y-40985221D01*
G04 #@! TO.C,C10*
X5078000Y-37754779D02*
X5078000Y-37429221D01*
X6098000Y-37754779D02*
X6098000Y-37429221D01*
G04 #@! TO.C,C11*
X-6098000Y-37429221D02*
X-6098000Y-37754779D01*
X-5078000Y-37429221D02*
X-5078000Y-37754779D01*
G04 #@! TO.C,C4*
X-5894000Y-5338578D02*
X-5894000Y-4821422D01*
X-7314000Y-5338578D02*
X-7314000Y-4821422D01*
G04 #@! TO.C,C5*
X4266000Y-21077422D02*
X4266000Y-21594578D01*
X2846000Y-21077422D02*
X2846000Y-21594578D01*
G04 #@! TO.C,C9*
X7314000Y-5338578D02*
X7314000Y-4821422D01*
X5894000Y-5338578D02*
X5894000Y-4821422D01*
G04 #@! TO.C,C2*
X-13880000Y-24797936D02*
X-13880000Y-26002064D01*
X-16600000Y-24797936D02*
X-16600000Y-26002064D01*
G04 #@! TO.C,C3*
X-13880000Y-8730064D02*
X-13880000Y-7525936D01*
X-16600000Y-8730064D02*
X-16600000Y-7525936D01*
G04 #@! TO.C,C8*
X-602064Y-25564000D02*
X602064Y-25564000D01*
X-602064Y-28284000D02*
X602064Y-28284000D01*
G04 #@! TO.C,C1*
X-16600000Y94064D02*
X-16600000Y-1110064D01*
X-13880000Y94064D02*
X-13880000Y-1110064D01*
G04 #@! TO.C,J7*
X-2600000Y44510000D02*
X2600000Y44510000D01*
X-2600000Y34290000D02*
X-2600000Y44510000D01*
X2600000Y31690000D02*
X2600000Y44510000D01*
X-2600000Y34290000D02*
X0Y34290000D01*
X0Y34290000D02*
X0Y31690000D01*
X0Y31690000D02*
X2600000Y31690000D01*
X-2600000Y33020000D02*
X-2600000Y31690000D01*
X-2600000Y31690000D02*
X-1270000Y31690000D01*
G04 #@! TO.C,D1*
X-4556000Y2758000D02*
X-4556000Y-1142000D01*
X-2556000Y2758000D02*
X-2556000Y-1142000D01*
X-4556000Y2758000D02*
X-2556000Y2758000D01*
G04 #@! TO.C,D2*
X-4556000Y-2830000D02*
X-2556000Y-2830000D01*
X-2556000Y-2830000D02*
X-2556000Y-6730000D01*
X-4556000Y-2830000D02*
X-4556000Y-6730000D01*
G04 #@! TO.C,D3*
X-4556000Y-8418000D02*
X-4556000Y-12318000D01*
X-2556000Y-8418000D02*
X-2556000Y-12318000D01*
X-4556000Y-8418000D02*
X-2556000Y-8418000D01*
G04 #@! TO.C,D4*
X-4556000Y-14006000D02*
X-2556000Y-14006000D01*
X-2556000Y-14006000D02*
X-2556000Y-17906000D01*
X-4556000Y-14006000D02*
X-4556000Y-17906000D01*
G04 #@! TO.C,D5*
X4525683Y-18506000D02*
X4525683Y-14606000D01*
X2525683Y-18506000D02*
X2525683Y-14606000D01*
X4525683Y-18506000D02*
X2525683Y-18506000D01*
G04 #@! TO.C,D6*
X4556000Y-12918000D02*
X2556000Y-12918000D01*
X2556000Y-12918000D02*
X2556000Y-9018000D01*
X4556000Y-12918000D02*
X4556000Y-9018000D01*
G04 #@! TO.C,D7*
X4556000Y-7330000D02*
X4556000Y-3430000D01*
X2556000Y-7330000D02*
X2556000Y-3430000D01*
X4556000Y-7330000D02*
X2556000Y-7330000D01*
G04 #@! TO.C,D8*
X4556000Y-1742000D02*
X2556000Y-1742000D01*
X2556000Y-1742000D02*
X2556000Y2158000D01*
X4556000Y-1742000D02*
X4556000Y2158000D01*
G04 #@! TO.C,D9*
X-17764000Y-38390000D02*
X-17764000Y-42290000D01*
X-15764000Y-38390000D02*
X-15764000Y-42290000D01*
X-17764000Y-38390000D02*
X-15764000Y-38390000D01*
G04 #@! TO.C,D10*
X-12716000Y-42890000D02*
X-14716000Y-42890000D01*
X-14716000Y-42890000D02*
X-14716000Y-38990000D01*
X-12716000Y-42890000D02*
X-12716000Y-38990000D01*
D14*
G04 #@! TO.C,U1*
X2075000Y-32126000D02*
X2075000Y-32151000D01*
X-2075000Y-32126000D02*
X-2075000Y-32241000D01*
X-2075000Y-41026000D02*
X-2075000Y-40911000D01*
X2075000Y-41026000D02*
X2075000Y-40911000D01*
X2075000Y-32126000D02*
X-2075000Y-32126000D01*
X2075000Y-41026000D02*
X-2075000Y-41026000D01*
X2075000Y-32151000D02*
X3450000Y-32151000D01*
D13*
G04 #@! TO.C,Q1*
X-1976000Y4828000D02*
X-1976000Y6288000D01*
X-5136000Y4828000D02*
X-5136000Y6988000D01*
X-5136000Y4828000D02*
X-4206000Y4828000D01*
X-1976000Y4828000D02*
X-2906000Y4828000D01*
G04 #@! TO.C,Q2*
X5136000Y4828000D02*
X4206000Y4828000D01*
X1976000Y4828000D02*
X2906000Y4828000D01*
X1976000Y4828000D02*
X1976000Y6988000D01*
X5136000Y4828000D02*
X5136000Y6288000D01*
G04 #@! TO.C,RV4*
X18913000Y-4885000D02*
X18913000Y4885000D01*
X13843000Y-4885000D02*
X13843000Y4885000D01*
X18913000Y-4885000D02*
X13843000Y-4885000D01*
X18913000Y4885000D02*
X13843000Y4885000D01*
G04 #@! TO.C,R2*
X-10670000Y8798779D02*
X-10670000Y8473221D01*
X-9650000Y8798779D02*
X-9650000Y8473221D01*
G04 #@! TO.C,R3*
X10670000Y8798779D02*
X10670000Y8473221D01*
X9650000Y8798779D02*
X9650000Y8473221D01*
G04 #@! TO.C,R4*
X-15746000Y36413221D02*
X-15746000Y36738779D01*
X-16766000Y36413221D02*
X-16766000Y36738779D01*
G04 #@! TO.C,R5*
X-9142000Y-45557221D02*
X-9142000Y-45882779D01*
X-10162000Y-45557221D02*
X-10162000Y-45882779D01*
G04 #@! TO.C,R6*
X-7110000Y-30642779D02*
X-7110000Y-30317221D01*
X-8130000Y-30642779D02*
X-8130000Y-30317221D01*
G04 #@! TO.C,R7*
X-10670000Y-14132779D02*
X-10670000Y-13807221D01*
X-9650000Y-14132779D02*
X-9650000Y-13807221D01*
G04 #@! TO.C,R8*
X-5590000Y9814779D02*
X-5590000Y9489221D01*
X-4570000Y9814779D02*
X-4570000Y9489221D01*
G04 #@! TO.C,R9*
X13210000Y8798779D02*
X13210000Y8473221D01*
X12190000Y8798779D02*
X12190000Y8473221D01*
G04 #@! TO.C,R10*
X3050000Y13553221D02*
X3050000Y13878779D01*
X2030000Y13553221D02*
X2030000Y13878779D01*
G04 #@! TO.C,R11*
X4570000Y9489221D02*
X4570000Y9814779D01*
X5590000Y9489221D02*
X5590000Y9814779D01*
G04 #@! TO.C,R12*
X-3046000Y-21498779D02*
X-3046000Y-21173221D01*
X-4066000Y-21498779D02*
X-4066000Y-21173221D01*
G04 #@! TO.C,R13*
X-3050000Y9489221D02*
X-3050000Y9814779D01*
X-2030000Y9489221D02*
X-2030000Y9814779D01*
G04 #@! TO.C,R14*
X-2030000Y13553221D02*
X-2030000Y13878779D01*
X-3050000Y13553221D02*
X-3050000Y13878779D01*
G04 #@! TO.C,R1*
X-14226000Y36413221D02*
X-14226000Y36738779D01*
X-13206000Y36413221D02*
X-13206000Y36738779D01*
G04 #@! TO.C,R16*
X7110000Y-30317221D02*
X7110000Y-30642779D01*
X8130000Y-30317221D02*
X8130000Y-30642779D01*
G04 #@! TO.C,R17*
X5078000Y-30642779D02*
X5078000Y-30317221D01*
X6098000Y-30642779D02*
X6098000Y-30317221D01*
G04 #@! TO.C,R18*
X-7110000Y-34198779D02*
X-7110000Y-33873221D01*
X-8130000Y-34198779D02*
X-8130000Y-33873221D01*
G04 #@! TO.C,R19*
X-5078000Y-33873221D02*
X-5078000Y-34198779D01*
X-6098000Y-33873221D02*
X-6098000Y-34198779D01*
G04 #@! TO.C,R20*
X6098000Y-34198779D02*
X6098000Y-33873221D01*
X5078000Y-34198779D02*
X5078000Y-33873221D01*
G04 #@! TO.C,R21*
X8130000Y-33873221D02*
X8130000Y-34198779D01*
X7110000Y-33873221D02*
X7110000Y-34198779D01*
G04 #@! TO.C,R22*
X-6098000Y-30317221D02*
X-6098000Y-30642779D01*
X-5078000Y-30317221D02*
X-5078000Y-30642779D01*
G04 #@! TO.C,R23*
X-16258000Y-34198779D02*
X-16258000Y-33873221D01*
X-15238000Y-34198779D02*
X-15238000Y-33873221D01*
G04 #@! TO.C,R24*
X-7110000Y-37754779D02*
X-7110000Y-37429221D01*
X-8130000Y-37754779D02*
X-8130000Y-37429221D01*
G04 #@! TO.C,R25*
X-5078000Y-41310779D02*
X-5078000Y-40985221D01*
X-6098000Y-41310779D02*
X-6098000Y-40985221D01*
G04 #@! TO.C,R26*
X-9142000Y-41310779D02*
X-9142000Y-40985221D01*
X-10162000Y-41310779D02*
X-10162000Y-40985221D01*
G04 #@! TO.C,R27*
X7110000Y-37754779D02*
X7110000Y-37429221D01*
X8130000Y-37754779D02*
X8130000Y-37429221D01*
G04 #@! TO.C,R28*
X6098000Y-41310779D02*
X6098000Y-40985221D01*
X5078000Y-41310779D02*
X5078000Y-40985221D01*
G04 #@! TO.C,R29*
X9142000Y-41310779D02*
X9142000Y-40985221D01*
X10162000Y-41310779D02*
X10162000Y-40985221D01*
G04 #@! TO.C,R15*
X2030000Y9814779D02*
X2030000Y9489221D01*
X3050000Y9814779D02*
X3050000Y9489221D01*
G04 #@! TO.C,C12*
D15*
X-18172143Y-16121142D02*
X-18136429Y-16073523D01*
X-18100715Y-15930666D01*
X-18100715Y-15835428D01*
X-18136429Y-15692571D01*
X-18207858Y-15597333D01*
X-18279286Y-15549714D01*
X-18422143Y-15502095D01*
X-18529286Y-15502095D01*
X-18672143Y-15549714D01*
X-18743572Y-15597333D01*
X-18815000Y-15692571D01*
X-18850715Y-15835428D01*
X-18850715Y-15930666D01*
X-18815000Y-16073523D01*
X-18779286Y-16121142D01*
X-18100715Y-17073523D02*
X-18100715Y-16502095D01*
X-18100715Y-16787809D02*
X-18850715Y-16787809D01*
X-18743572Y-16692571D01*
X-18672143Y-16597333D01*
X-18636429Y-16502095D01*
X-18779286Y-17454476D02*
X-18815000Y-17502095D01*
X-18850715Y-17597333D01*
X-18850715Y-17835428D01*
X-18815000Y-17930666D01*
X-18779286Y-17978285D01*
X-18707858Y-18025904D01*
X-18636429Y-18025904D01*
X-18529286Y-17978285D01*
X-18100715Y-17406857D01*
X-18100715Y-18025904D01*
G04 #@! TO.C,C14*
X-13194143Y44330858D02*
X-13158429Y44378477D01*
X-13122715Y44521334D01*
X-13122715Y44616572D01*
X-13158429Y44759429D01*
X-13229858Y44854667D01*
X-13301286Y44902286D01*
X-13444143Y44949905D01*
X-13551286Y44949905D01*
X-13694143Y44902286D01*
X-13765572Y44854667D01*
X-13837000Y44759429D01*
X-13872715Y44616572D01*
X-13872715Y44521334D01*
X-13837000Y44378477D01*
X-13801286Y44330858D01*
X-13122715Y43378477D02*
X-13122715Y43949905D01*
X-13122715Y43664191D02*
X-13872715Y43664191D01*
X-13765572Y43759429D01*
X-13694143Y43854667D01*
X-13658429Y43949905D01*
X-13622715Y42521334D02*
X-13122715Y42521334D01*
X-13908429Y42759429D02*
X-13372715Y42997524D01*
X-13372715Y42378477D01*
G04 #@! TO.C,C13*
X7125857Y44330858D02*
X7161571Y44378477D01*
X7197285Y44521334D01*
X7197285Y44616572D01*
X7161571Y44759429D01*
X7090142Y44854667D01*
X7018714Y44902286D01*
X6875857Y44949905D01*
X6768714Y44949905D01*
X6625857Y44902286D01*
X6554428Y44854667D01*
X6483000Y44759429D01*
X6447285Y44616572D01*
X6447285Y44521334D01*
X6483000Y44378477D01*
X6518714Y44330858D01*
X7197285Y43378477D02*
X7197285Y43949905D01*
X7197285Y43664191D02*
X6447285Y43664191D01*
X6554428Y43759429D01*
X6625857Y43854667D01*
X6661571Y43949905D01*
X6447285Y43045143D02*
X6447285Y42426096D01*
X6733000Y42759429D01*
X6733000Y42616572D01*
X6768714Y42521334D01*
X6804428Y42473715D01*
X6875857Y42426096D01*
X7054428Y42426096D01*
X7125857Y42473715D01*
X7161571Y42521334D01*
X7197285Y42616572D01*
X7197285Y42902286D01*
X7161571Y42997524D01*
X7125857Y43045143D01*
G04 #@! TO.C,C6*
X-14242143Y26074667D02*
X-14206429Y26122286D01*
X-14170715Y26265143D01*
X-14170715Y26360381D01*
X-14206429Y26503239D01*
X-14277858Y26598477D01*
X-14349286Y26646096D01*
X-14492143Y26693715D01*
X-14599286Y26693715D01*
X-14742143Y26646096D01*
X-14813572Y26598477D01*
X-14885000Y26503239D01*
X-14920715Y26360381D01*
X-14920715Y26265143D01*
X-14885000Y26122286D01*
X-14849286Y26074667D01*
X-14920715Y25217524D02*
X-14920715Y25408000D01*
X-14885000Y25503239D01*
X-14849286Y25550858D01*
X-14742143Y25646096D01*
X-14599286Y25693715D01*
X-14313572Y25693715D01*
X-14242143Y25646096D01*
X-14206429Y25598477D01*
X-14170715Y25503239D01*
X-14170715Y25312762D01*
X-14206429Y25217524D01*
X-14242143Y25169905D01*
X-14313572Y25122286D01*
X-14492143Y25122286D01*
X-14563572Y25169905D01*
X-14599286Y25217524D01*
X-14635000Y25312762D01*
X-14635000Y25503239D01*
X-14599286Y25598477D01*
X-14563572Y25646096D01*
X-14492143Y25693715D01*
G04 #@! TO.C,C7*
X6077857Y26074667D02*
X6113571Y26122286D01*
X6149285Y26265143D01*
X6149285Y26360381D01*
X6113571Y26503239D01*
X6042142Y26598477D01*
X5970714Y26646096D01*
X5827857Y26693715D01*
X5720714Y26693715D01*
X5577857Y26646096D01*
X5506428Y26598477D01*
X5435000Y26503239D01*
X5399285Y26360381D01*
X5399285Y26265143D01*
X5435000Y26122286D01*
X5470714Y26074667D01*
X5399285Y25741334D02*
X5399285Y25074667D01*
X6149285Y25503239D01*
G04 #@! TO.C,C16*
X6871857Y-40505142D02*
X6907571Y-40457523D01*
X6943285Y-40314666D01*
X6943285Y-40219428D01*
X6907571Y-40076571D01*
X6836142Y-39981333D01*
X6764714Y-39933714D01*
X6621857Y-39886095D01*
X6514714Y-39886095D01*
X6371857Y-39933714D01*
X6300428Y-39981333D01*
X6229000Y-40076571D01*
X6193285Y-40219428D01*
X6193285Y-40314666D01*
X6229000Y-40457523D01*
X6264714Y-40505142D01*
X6943285Y-41457523D02*
X6943285Y-40886095D01*
X6943285Y-41171809D02*
X6193285Y-41171809D01*
X6300428Y-41076571D01*
X6371857Y-40981333D01*
X6407571Y-40886095D01*
X6193285Y-42314666D02*
X6193285Y-42124190D01*
X6229000Y-42028952D01*
X6264714Y-41981333D01*
X6371857Y-41886095D01*
X6514714Y-41838476D01*
X6800428Y-41838476D01*
X6871857Y-41886095D01*
X6907571Y-41933714D01*
X6943285Y-42028952D01*
X6943285Y-42219428D01*
X6907571Y-42314666D01*
X6871857Y-42362285D01*
X6800428Y-42409904D01*
X6621857Y-42409904D01*
X6550428Y-42362285D01*
X6514714Y-42314666D01*
X6479000Y-42219428D01*
X6479000Y-42028952D01*
X6514714Y-41933714D01*
X6550428Y-41886095D01*
X6621857Y-41838476D01*
G04 #@! TO.C,C15*
X-8368143Y-40505142D02*
X-8332429Y-40457523D01*
X-8296715Y-40314666D01*
X-8296715Y-40219428D01*
X-8332429Y-40076571D01*
X-8403858Y-39981333D01*
X-8475286Y-39933714D01*
X-8618143Y-39886095D01*
X-8725286Y-39886095D01*
X-8868143Y-39933714D01*
X-8939572Y-39981333D01*
X-9011000Y-40076571D01*
X-9046715Y-40219428D01*
X-9046715Y-40314666D01*
X-9011000Y-40457523D01*
X-8975286Y-40505142D01*
X-8296715Y-41457523D02*
X-8296715Y-40886095D01*
X-8296715Y-41171809D02*
X-9046715Y-41171809D01*
X-8939572Y-41076571D01*
X-8868143Y-40981333D01*
X-8832429Y-40886095D01*
X-9046715Y-42362285D02*
X-9046715Y-41886095D01*
X-8689572Y-41838476D01*
X-8725286Y-41886095D01*
X-8761000Y-41981333D01*
X-8761000Y-42219428D01*
X-8725286Y-42314666D01*
X-8689572Y-42362285D01*
X-8618143Y-42409904D01*
X-8439572Y-42409904D01*
X-8368143Y-42362285D01*
X-8332429Y-42314666D01*
X-8296715Y-42219428D01*
X-8296715Y-41981333D01*
X-8332429Y-41886095D01*
X-8368143Y-41838476D01*
G04 #@! TO.C,C10*
X4585857Y-36949142D02*
X4621571Y-36901523D01*
X4657285Y-36758666D01*
X4657285Y-36663428D01*
X4621571Y-36520571D01*
X4550142Y-36425333D01*
X4478714Y-36377714D01*
X4335857Y-36330095D01*
X4228714Y-36330095D01*
X4085857Y-36377714D01*
X4014428Y-36425333D01*
X3943000Y-36520571D01*
X3907285Y-36663428D01*
X3907285Y-36758666D01*
X3943000Y-36901523D01*
X3978714Y-36949142D01*
X4657285Y-37901523D02*
X4657285Y-37330095D01*
X4657285Y-37615809D02*
X3907285Y-37615809D01*
X4014428Y-37520571D01*
X4085857Y-37425333D01*
X4121571Y-37330095D01*
X3907285Y-38520571D02*
X3907285Y-38615809D01*
X3943000Y-38711047D01*
X3978714Y-38758666D01*
X4050142Y-38806285D01*
X4193000Y-38853904D01*
X4371571Y-38853904D01*
X4514428Y-38806285D01*
X4585857Y-38758666D01*
X4621571Y-38711047D01*
X4657285Y-38615809D01*
X4657285Y-38520571D01*
X4621571Y-38425333D01*
X4585857Y-38377714D01*
X4514428Y-38330095D01*
X4371571Y-38282476D01*
X4193000Y-38282476D01*
X4050142Y-38330095D01*
X3978714Y-38377714D01*
X3943000Y-38425333D01*
X3907285Y-38520571D01*
G04 #@! TO.C,C11*
X-6336143Y-36949142D02*
X-6300429Y-36901523D01*
X-6264715Y-36758666D01*
X-6264715Y-36663428D01*
X-6300429Y-36520571D01*
X-6371858Y-36425333D01*
X-6443286Y-36377714D01*
X-6586143Y-36330095D01*
X-6693286Y-36330095D01*
X-6836143Y-36377714D01*
X-6907572Y-36425333D01*
X-6979000Y-36520571D01*
X-7014715Y-36663428D01*
X-7014715Y-36758666D01*
X-6979000Y-36901523D01*
X-6943286Y-36949142D01*
X-6264715Y-37901523D02*
X-6264715Y-37330095D01*
X-6264715Y-37615809D02*
X-7014715Y-37615809D01*
X-6907572Y-37520571D01*
X-6836143Y-37425333D01*
X-6800429Y-37330095D01*
X-6264715Y-38853904D02*
X-6264715Y-38282476D01*
X-6264715Y-38568190D02*
X-7014715Y-38568190D01*
X-6907572Y-38472952D01*
X-6836143Y-38377714D01*
X-6800429Y-38282476D01*
G04 #@! TO.C,C4*
X-7860143Y-4913333D02*
X-7824429Y-4865714D01*
X-7788715Y-4722857D01*
X-7788715Y-4627619D01*
X-7824429Y-4484761D01*
X-7895858Y-4389523D01*
X-7967286Y-4341904D01*
X-8110143Y-4294285D01*
X-8217286Y-4294285D01*
X-8360143Y-4341904D01*
X-8431572Y-4389523D01*
X-8503000Y-4484761D01*
X-8538715Y-4627619D01*
X-8538715Y-4722857D01*
X-8503000Y-4865714D01*
X-8467286Y-4913333D01*
X-8288715Y-5770476D02*
X-7788715Y-5770476D01*
X-8574429Y-5532380D02*
X-8038715Y-5294285D01*
X-8038715Y-5913333D01*
G04 #@! TO.C,C5*
X2173857Y-21169333D02*
X2209571Y-21121714D01*
X2245285Y-20978857D01*
X2245285Y-20883619D01*
X2209571Y-20740761D01*
X2138142Y-20645523D01*
X2066714Y-20597904D01*
X1923857Y-20550285D01*
X1816714Y-20550285D01*
X1673857Y-20597904D01*
X1602428Y-20645523D01*
X1531000Y-20740761D01*
X1495285Y-20883619D01*
X1495285Y-20978857D01*
X1531000Y-21121714D01*
X1566714Y-21169333D01*
X1495285Y-22074095D02*
X1495285Y-21597904D01*
X1852428Y-21550285D01*
X1816714Y-21597904D01*
X1781000Y-21693142D01*
X1781000Y-21931238D01*
X1816714Y-22026476D01*
X1852428Y-22074095D01*
X1923857Y-22121714D01*
X2102428Y-22121714D01*
X2173857Y-22074095D01*
X2209571Y-22026476D01*
X2245285Y-21931238D01*
X2245285Y-21693142D01*
X2209571Y-21597904D01*
X2173857Y-21550285D01*
G04 #@! TO.C,C9*
X5601857Y-4913333D02*
X5637571Y-4865714D01*
X5673285Y-4722857D01*
X5673285Y-4627619D01*
X5637571Y-4484761D01*
X5566142Y-4389523D01*
X5494714Y-4341904D01*
X5351857Y-4294285D01*
X5244714Y-4294285D01*
X5101857Y-4341904D01*
X5030428Y-4389523D01*
X4959000Y-4484761D01*
X4923285Y-4627619D01*
X4923285Y-4722857D01*
X4959000Y-4865714D01*
X4994714Y-4913333D01*
X5673285Y-5389523D02*
X5673285Y-5580000D01*
X5637571Y-5675238D01*
X5601857Y-5722857D01*
X5494714Y-5818095D01*
X5351857Y-5865714D01*
X5066142Y-5865714D01*
X4994714Y-5818095D01*
X4959000Y-5770476D01*
X4923285Y-5675238D01*
X4923285Y-5484761D01*
X4959000Y-5389523D01*
X4994714Y-5341904D01*
X5066142Y-5294285D01*
X5244714Y-5294285D01*
X5316142Y-5341904D01*
X5351857Y-5389523D01*
X5387571Y-5484761D01*
X5387571Y-5675238D01*
X5351857Y-5770476D01*
X5316142Y-5818095D01*
X5244714Y-5865714D01*
G04 #@! TO.C,C2*
X-17252143Y-25233333D02*
X-17216429Y-25185714D01*
X-17180715Y-25042857D01*
X-17180715Y-24947619D01*
X-17216429Y-24804761D01*
X-17287858Y-24709523D01*
X-17359286Y-24661904D01*
X-17502143Y-24614285D01*
X-17609286Y-24614285D01*
X-17752143Y-24661904D01*
X-17823572Y-24709523D01*
X-17895000Y-24804761D01*
X-17930715Y-24947619D01*
X-17930715Y-25042857D01*
X-17895000Y-25185714D01*
X-17859286Y-25233333D01*
X-17859286Y-25614285D02*
X-17895000Y-25661904D01*
X-17930715Y-25757142D01*
X-17930715Y-25995238D01*
X-17895000Y-26090476D01*
X-17859286Y-26138095D01*
X-17787858Y-26185714D01*
X-17716429Y-26185714D01*
X-17609286Y-26138095D01*
X-17180715Y-25566666D01*
X-17180715Y-26185714D01*
G04 #@! TO.C,C3*
X-17258143Y-7961333D02*
X-17222429Y-7913714D01*
X-17186715Y-7770857D01*
X-17186715Y-7675619D01*
X-17222429Y-7532761D01*
X-17293858Y-7437523D01*
X-17365286Y-7389904D01*
X-17508143Y-7342285D01*
X-17615286Y-7342285D01*
X-17758143Y-7389904D01*
X-17829572Y-7437523D01*
X-17901000Y-7532761D01*
X-17936715Y-7675619D01*
X-17936715Y-7770857D01*
X-17901000Y-7913714D01*
X-17865286Y-7961333D01*
X-17936715Y-8294666D02*
X-17936715Y-8913714D01*
X-17651000Y-8580380D01*
X-17651000Y-8723238D01*
X-17615286Y-8818476D01*
X-17579572Y-8866095D01*
X-17508143Y-8913714D01*
X-17329572Y-8913714D01*
X-17258143Y-8866095D01*
X-17222429Y-8818476D01*
X-17186715Y-8723238D01*
X-17186715Y-8437523D01*
X-17222429Y-8342285D01*
X-17258143Y-8294666D01*
G04 #@! TO.C,C8*
X-3034143Y-26757333D02*
X-2998429Y-26709714D01*
X-2962715Y-26566857D01*
X-2962715Y-26471619D01*
X-2998429Y-26328761D01*
X-3069858Y-26233523D01*
X-3141286Y-26185904D01*
X-3284143Y-26138285D01*
X-3391286Y-26138285D01*
X-3534143Y-26185904D01*
X-3605572Y-26233523D01*
X-3677000Y-26328761D01*
X-3712715Y-26471619D01*
X-3712715Y-26566857D01*
X-3677000Y-26709714D01*
X-3641286Y-26757333D01*
X-3391286Y-27328761D02*
X-3427000Y-27233523D01*
X-3462715Y-27185904D01*
X-3534143Y-27138285D01*
X-3569858Y-27138285D01*
X-3641286Y-27185904D01*
X-3677000Y-27233523D01*
X-3712715Y-27328761D01*
X-3712715Y-27519238D01*
X-3677000Y-27614476D01*
X-3641286Y-27662095D01*
X-3569858Y-27709714D01*
X-3534143Y-27709714D01*
X-3462715Y-27662095D01*
X-3427000Y-27614476D01*
X-3391286Y-27519238D01*
X-3391286Y-27328761D01*
X-3355572Y-27233523D01*
X-3319858Y-27185904D01*
X-3248429Y-27138285D01*
X-3105572Y-27138285D01*
X-3034143Y-27185904D01*
X-2998429Y-27233523D01*
X-2962715Y-27328761D01*
X-2962715Y-27519238D01*
X-2998429Y-27614476D01*
X-3034143Y-27662095D01*
X-3105572Y-27709714D01*
X-3248429Y-27709714D01*
X-3319858Y-27662095D01*
X-3355572Y-27614476D01*
X-3391286Y-27519238D01*
G04 #@! TO.C,C1*
X-17252143Y-341333D02*
X-17216429Y-293714D01*
X-17180715Y-150857D01*
X-17180715Y-55619D01*
X-17216429Y87239D01*
X-17287858Y182477D01*
X-17359286Y230096D01*
X-17502143Y277715D01*
X-17609286Y277715D01*
X-17752143Y230096D01*
X-17823572Y182477D01*
X-17895000Y87239D01*
X-17930715Y-55619D01*
X-17930715Y-150857D01*
X-17895000Y-293714D01*
X-17859286Y-341333D01*
X-17180715Y-1293714D02*
X-17180715Y-722285D01*
X-17180715Y-1008000D02*
X-17930715Y-1008000D01*
X-17823572Y-912761D01*
X-17752143Y-817523D01*
X-17716429Y-722285D01*
G04 #@! TO.C,J7*
X-4220715Y37163334D02*
X-3685000Y37163334D01*
X-3577858Y37210953D01*
X-3506429Y37306191D01*
X-3470715Y37449048D01*
X-3470715Y37544286D01*
X-4220715Y36782381D02*
X-4220715Y36115715D01*
X-3470715Y36544286D01*
G04 #@! TO.C,D1*
X-5216715Y1246096D02*
X-5966715Y1246096D01*
X-5966715Y1008000D01*
X-5931000Y865143D01*
X-5859572Y769905D01*
X-5788143Y722286D01*
X-5645286Y674667D01*
X-5538143Y674667D01*
X-5395286Y722286D01*
X-5323858Y769905D01*
X-5252429Y865143D01*
X-5216715Y1008000D01*
X-5216715Y1246096D01*
X-5216715Y-277714D02*
X-5216715Y293715D01*
X-5216715Y8000D02*
X-5966715Y8000D01*
X-5859572Y103239D01*
X-5788143Y198477D01*
X-5752429Y293715D01*
G04 #@! TO.C,D2*
X-4994715Y-4341904D02*
X-5744715Y-4341904D01*
X-5744715Y-4580000D01*
X-5709000Y-4722857D01*
X-5637572Y-4818095D01*
X-5566143Y-4865714D01*
X-5423286Y-4913333D01*
X-5316143Y-4913333D01*
X-5173286Y-4865714D01*
X-5101858Y-4818095D01*
X-5030429Y-4722857D01*
X-4994715Y-4580000D01*
X-4994715Y-4341904D01*
X-5673286Y-5294285D02*
X-5709000Y-5341904D01*
X-5744715Y-5437142D01*
X-5744715Y-5675238D01*
X-5709000Y-5770476D01*
X-5673286Y-5818095D01*
X-5601858Y-5865714D01*
X-5530429Y-5865714D01*
X-5423286Y-5818095D01*
X-4994715Y-5246666D01*
X-4994715Y-5865714D01*
G04 #@! TO.C,D3*
X-5216715Y-9929904D02*
X-5966715Y-9929904D01*
X-5966715Y-10168000D01*
X-5931000Y-10310857D01*
X-5859572Y-10406095D01*
X-5788143Y-10453714D01*
X-5645286Y-10501333D01*
X-5538143Y-10501333D01*
X-5395286Y-10453714D01*
X-5323858Y-10406095D01*
X-5252429Y-10310857D01*
X-5216715Y-10168000D01*
X-5216715Y-9929904D01*
X-5966715Y-10834666D02*
X-5966715Y-11453714D01*
X-5681000Y-11120380D01*
X-5681000Y-11263238D01*
X-5645286Y-11358476D01*
X-5609572Y-11406095D01*
X-5538143Y-11453714D01*
X-5359572Y-11453714D01*
X-5288143Y-11406095D01*
X-5252429Y-11358476D01*
X-5216715Y-11263238D01*
X-5216715Y-10977523D01*
X-5252429Y-10882285D01*
X-5288143Y-10834666D01*
G04 #@! TO.C,D4*
X-5216715Y-15517904D02*
X-5966715Y-15517904D01*
X-5966715Y-15756000D01*
X-5931000Y-15898857D01*
X-5859572Y-15994095D01*
X-5788143Y-16041714D01*
X-5645286Y-16089333D01*
X-5538143Y-16089333D01*
X-5395286Y-16041714D01*
X-5323858Y-15994095D01*
X-5252429Y-15898857D01*
X-5216715Y-15756000D01*
X-5216715Y-15517904D01*
X-5716715Y-16946476D02*
X-5216715Y-16946476D01*
X-6002429Y-16708380D02*
X-5466715Y-16470285D01*
X-5466715Y-17089333D01*
G04 #@! TO.C,D5*
X1800968Y-15517904D02*
X1050968Y-15517904D01*
X1050968Y-15756000D01*
X1086683Y-15898857D01*
X1158111Y-15994095D01*
X1229540Y-16041714D01*
X1372397Y-16089333D01*
X1479540Y-16089333D01*
X1622397Y-16041714D01*
X1693825Y-15994095D01*
X1765254Y-15898857D01*
X1800968Y-15756000D01*
X1800968Y-15517904D01*
X1050968Y-16994095D02*
X1050968Y-16517904D01*
X1408111Y-16470285D01*
X1372397Y-16517904D01*
X1336683Y-16613142D01*
X1336683Y-16851238D01*
X1372397Y-16946476D01*
X1408111Y-16994095D01*
X1479540Y-17041714D01*
X1658111Y-17041714D01*
X1729540Y-16994095D01*
X1765254Y-16946476D01*
X1800968Y-16851238D01*
X1800968Y-16613142D01*
X1765254Y-16517904D01*
X1729540Y-16470285D01*
G04 #@! TO.C,D6*
X1831285Y-9929904D02*
X1081285Y-9929904D01*
X1081285Y-10168000D01*
X1117000Y-10310857D01*
X1188428Y-10406095D01*
X1259857Y-10453714D01*
X1402714Y-10501333D01*
X1509857Y-10501333D01*
X1652714Y-10453714D01*
X1724142Y-10406095D01*
X1795571Y-10310857D01*
X1831285Y-10168000D01*
X1831285Y-9929904D01*
X1081285Y-11358476D02*
X1081285Y-11168000D01*
X1117000Y-11072761D01*
X1152714Y-11025142D01*
X1259857Y-10929904D01*
X1402714Y-10882285D01*
X1688428Y-10882285D01*
X1759857Y-10929904D01*
X1795571Y-10977523D01*
X1831285Y-11072761D01*
X1831285Y-11263238D01*
X1795571Y-11358476D01*
X1759857Y-11406095D01*
X1688428Y-11453714D01*
X1509857Y-11453714D01*
X1438428Y-11406095D01*
X1402714Y-11358476D01*
X1367000Y-11263238D01*
X1367000Y-11072761D01*
X1402714Y-10977523D01*
X1438428Y-10929904D01*
X1509857Y-10882285D01*
G04 #@! TO.C,D7*
X1831285Y-4341904D02*
X1081285Y-4341904D01*
X1081285Y-4580000D01*
X1117000Y-4722857D01*
X1188428Y-4818095D01*
X1259857Y-4865714D01*
X1402714Y-4913333D01*
X1509857Y-4913333D01*
X1652714Y-4865714D01*
X1724142Y-4818095D01*
X1795571Y-4722857D01*
X1831285Y-4580000D01*
X1831285Y-4341904D01*
X1081285Y-5246666D02*
X1081285Y-5913333D01*
X1831285Y-5484761D01*
G04 #@! TO.C,D8*
X1831285Y1246096D02*
X1081285Y1246096D01*
X1081285Y1008000D01*
X1117000Y865143D01*
X1188428Y769905D01*
X1259857Y722286D01*
X1402714Y674667D01*
X1509857Y674667D01*
X1652714Y722286D01*
X1724142Y769905D01*
X1795571Y865143D01*
X1831285Y1008000D01*
X1831285Y1246096D01*
X1402714Y103239D02*
X1367000Y198477D01*
X1331285Y246096D01*
X1259857Y293715D01*
X1224142Y293715D01*
X1152714Y246096D01*
X1117000Y198477D01*
X1081285Y103239D01*
X1081285Y-87238D01*
X1117000Y-182476D01*
X1152714Y-230095D01*
X1224142Y-277714D01*
X1259857Y-277714D01*
X1331285Y-230095D01*
X1367000Y-182476D01*
X1402714Y-87238D01*
X1402714Y103239D01*
X1438428Y198477D01*
X1474142Y246096D01*
X1545571Y293715D01*
X1688428Y293715D01*
X1759857Y246096D01*
X1795571Y198477D01*
X1831285Y103239D01*
X1831285Y-87238D01*
X1795571Y-182476D01*
X1759857Y-230095D01*
X1688428Y-277714D01*
X1545571Y-277714D01*
X1474142Y-230095D01*
X1438428Y-182476D01*
X1402714Y-87238D01*
G04 #@! TO.C,D9*
X-17948715Y-39901904D02*
X-18698715Y-39901904D01*
X-18698715Y-40140000D01*
X-18663000Y-40282857D01*
X-18591572Y-40378095D01*
X-18520143Y-40425714D01*
X-18377286Y-40473333D01*
X-18270143Y-40473333D01*
X-18127286Y-40425714D01*
X-18055858Y-40378095D01*
X-17984429Y-40282857D01*
X-17948715Y-40140000D01*
X-17948715Y-39901904D01*
X-17948715Y-40949523D02*
X-17948715Y-41140000D01*
X-17984429Y-41235238D01*
X-18020143Y-41282857D01*
X-18127286Y-41378095D01*
X-18270143Y-41425714D01*
X-18555858Y-41425714D01*
X-18627286Y-41378095D01*
X-18663000Y-41330476D01*
X-18698715Y-41235238D01*
X-18698715Y-41044761D01*
X-18663000Y-40949523D01*
X-18627286Y-40901904D01*
X-18555858Y-40854285D01*
X-18377286Y-40854285D01*
X-18305858Y-40901904D01*
X-18270143Y-40949523D01*
X-18234429Y-41044761D01*
X-18234429Y-41235238D01*
X-18270143Y-41330476D01*
X-18305858Y-41378095D01*
X-18377286Y-41425714D01*
G04 #@! TO.C,D10*
X-14900715Y-39425714D02*
X-15650715Y-39425714D01*
X-15650715Y-39663809D01*
X-15615000Y-39806666D01*
X-15543572Y-39901904D01*
X-15472143Y-39949523D01*
X-15329286Y-39997142D01*
X-15222143Y-39997142D01*
X-15079286Y-39949523D01*
X-15007858Y-39901904D01*
X-14936429Y-39806666D01*
X-14900715Y-39663809D01*
X-14900715Y-39425714D01*
X-14900715Y-40949523D02*
X-14900715Y-40378095D01*
X-14900715Y-40663809D02*
X-15650715Y-40663809D01*
X-15543572Y-40568571D01*
X-15472143Y-40473333D01*
X-15436429Y-40378095D01*
X-15650715Y-41568571D02*
X-15650715Y-41663809D01*
X-15615000Y-41759047D01*
X-15579286Y-41806666D01*
X-15507858Y-41854285D01*
X-15365000Y-41901904D01*
X-15186429Y-41901904D01*
X-15043572Y-41854285D01*
X-14972143Y-41806666D01*
X-14936429Y-41759047D01*
X-14900715Y-41663809D01*
X-14900715Y-41568571D01*
X-14936429Y-41473333D01*
X-14972143Y-41425714D01*
X-15043572Y-41378095D01*
X-15186429Y-41330476D01*
X-15365000Y-41330476D01*
X-15507858Y-41378095D01*
X-15579286Y-41425714D01*
X-15615000Y-41473333D01*
X-15650715Y-41568571D01*
G04 #@! TO.C,U1*
X761904Y-30790285D02*
X761904Y-31397428D01*
X714285Y-31468857D01*
X666666Y-31504571D01*
X571428Y-31540285D01*
X380952Y-31540285D01*
X285714Y-31504571D01*
X238095Y-31468857D01*
X190476Y-31397428D01*
X190476Y-30790285D01*
X-809524Y-31540285D02*
X-238096Y-31540285D01*
X-523810Y-31540285D02*
X-523810Y-30790285D01*
X-428572Y-30897428D01*
X-333334Y-30968857D01*
X-238096Y-31004571D01*
G04 #@! TO.C,Q1*
X-5645286Y5683239D02*
X-5681000Y5778477D01*
X-5752429Y5873715D01*
X-5859572Y6016572D01*
X-5895286Y6111810D01*
X-5895286Y6207048D01*
X-5716715Y6159429D02*
X-5752429Y6254667D01*
X-5823858Y6349905D01*
X-5966715Y6397524D01*
X-6216715Y6397524D01*
X-6359572Y6349905D01*
X-6431000Y6254667D01*
X-6466715Y6159429D01*
X-6466715Y5968953D01*
X-6431000Y5873715D01*
X-6359572Y5778477D01*
X-6216715Y5730858D01*
X-5966715Y5730858D01*
X-5823858Y5778477D01*
X-5752429Y5873715D01*
X-5716715Y5968953D01*
X-5716715Y6159429D01*
X-5716715Y4778477D02*
X-5716715Y5349905D01*
X-5716715Y5064191D02*
X-6466715Y5064191D01*
X-6359572Y5159429D01*
X-6288143Y5254667D01*
X-6252429Y5349905D01*
G04 #@! TO.C,Q2*
X1466714Y5683239D02*
X1431000Y5778477D01*
X1359571Y5873715D01*
X1252428Y6016572D01*
X1216714Y6111810D01*
X1216714Y6207048D01*
X1395285Y6159429D02*
X1359571Y6254667D01*
X1288142Y6349905D01*
X1145285Y6397524D01*
X895285Y6397524D01*
X752428Y6349905D01*
X681000Y6254667D01*
X645285Y6159429D01*
X645285Y5968953D01*
X681000Y5873715D01*
X752428Y5778477D01*
X895285Y5730858D01*
X1145285Y5730858D01*
X1288142Y5778477D01*
X1359571Y5873715D01*
X1395285Y5968953D01*
X1395285Y6159429D01*
X716714Y5349905D02*
X681000Y5302286D01*
X645285Y5207048D01*
X645285Y4968953D01*
X681000Y4873715D01*
X716714Y4826096D01*
X788142Y4778477D01*
X859571Y4778477D01*
X966714Y4826096D01*
X1395285Y5397524D01*
X1395285Y4778477D01*
G04 #@! TO.C,RV4*
X13293285Y595239D02*
X12936142Y928572D01*
X13293285Y1166667D02*
X12543285Y1166667D01*
X12543285Y785715D01*
X12579000Y690477D01*
X12614714Y642858D01*
X12686142Y595239D01*
X12793285Y595239D01*
X12864714Y642858D01*
X12900428Y690477D01*
X12936142Y785715D01*
X12936142Y1166667D01*
X12543285Y309524D02*
X13293285Y-23809D01*
X12543285Y-357142D01*
X12793285Y-1119047D02*
X13293285Y-1119047D01*
X12507571Y-880952D02*
X13043285Y-642857D01*
X13043285Y-1261904D01*
G04 #@! TO.C,R2*
X-11250715Y8802667D02*
X-11607858Y9136000D01*
X-11250715Y9374096D02*
X-12000715Y9374096D01*
X-12000715Y8993143D01*
X-11965000Y8897905D01*
X-11929286Y8850286D01*
X-11857858Y8802667D01*
X-11750715Y8802667D01*
X-11679286Y8850286D01*
X-11643572Y8897905D01*
X-11607858Y8993143D01*
X-11607858Y9374096D01*
X-11929286Y8421715D02*
X-11965000Y8374096D01*
X-12000715Y8278858D01*
X-12000715Y8040762D01*
X-11965000Y7945524D01*
X-11929286Y7897905D01*
X-11857858Y7850286D01*
X-11786429Y7850286D01*
X-11679286Y7897905D01*
X-11250715Y8469334D01*
X-11250715Y7850286D01*
G04 #@! TO.C,R3*
X9069285Y8802667D02*
X8712142Y9136000D01*
X9069285Y9374096D02*
X8319285Y9374096D01*
X8319285Y8993143D01*
X8355000Y8897905D01*
X8390714Y8850286D01*
X8462142Y8802667D01*
X8569285Y8802667D01*
X8640714Y8850286D01*
X8676428Y8897905D01*
X8712142Y8993143D01*
X8712142Y9374096D01*
X8319285Y8469334D02*
X8319285Y7850286D01*
X8605000Y8183620D01*
X8605000Y8040762D01*
X8640714Y7945524D01*
X8676428Y7897905D01*
X8747857Y7850286D01*
X8926428Y7850286D01*
X8997857Y7897905D01*
X9033571Y7945524D01*
X9069285Y8040762D01*
X9069285Y8326477D01*
X9033571Y8421715D01*
X8997857Y8469334D01*
G04 #@! TO.C,R4*
X-17186715Y36742667D02*
X-17543858Y37076000D01*
X-17186715Y37314096D02*
X-17936715Y37314096D01*
X-17936715Y36933143D01*
X-17901000Y36837905D01*
X-17865286Y36790286D01*
X-17793858Y36742667D01*
X-17686715Y36742667D01*
X-17615286Y36790286D01*
X-17579572Y36837905D01*
X-17543858Y36933143D01*
X-17543858Y37314096D01*
X-17686715Y35885524D02*
X-17186715Y35885524D01*
X-17972429Y36123620D02*
X-17436715Y36361715D01*
X-17436715Y35742667D01*
G04 #@! TO.C,R5*
X-10742715Y-45553333D02*
X-11099858Y-45220000D01*
X-10742715Y-44981904D02*
X-11492715Y-44981904D01*
X-11492715Y-45362857D01*
X-11457000Y-45458095D01*
X-11421286Y-45505714D01*
X-11349858Y-45553333D01*
X-11242715Y-45553333D01*
X-11171286Y-45505714D01*
X-11135572Y-45458095D01*
X-11099858Y-45362857D01*
X-11099858Y-44981904D01*
X-11492715Y-46458095D02*
X-11492715Y-45981904D01*
X-11135572Y-45934285D01*
X-11171286Y-45981904D01*
X-11207000Y-46077142D01*
X-11207000Y-46315238D01*
X-11171286Y-46410476D01*
X-11135572Y-46458095D01*
X-11064143Y-46505714D01*
X-10885572Y-46505714D01*
X-10814143Y-46458095D01*
X-10778429Y-46410476D01*
X-10742715Y-46315238D01*
X-10742715Y-46077142D01*
X-10778429Y-45981904D01*
X-10814143Y-45934285D01*
G04 #@! TO.C,R6*
X-8296715Y-30313333D02*
X-8653858Y-29980000D01*
X-8296715Y-29741904D02*
X-9046715Y-29741904D01*
X-9046715Y-30122857D01*
X-9011000Y-30218095D01*
X-8975286Y-30265714D01*
X-8903858Y-30313333D01*
X-8796715Y-30313333D01*
X-8725286Y-30265714D01*
X-8689572Y-30218095D01*
X-8653858Y-30122857D01*
X-8653858Y-29741904D01*
X-9046715Y-31170476D02*
X-9046715Y-30980000D01*
X-9011000Y-30884761D01*
X-8975286Y-30837142D01*
X-8868143Y-30741904D01*
X-8725286Y-30694285D01*
X-8439572Y-30694285D01*
X-8368143Y-30741904D01*
X-8332429Y-30789523D01*
X-8296715Y-30884761D01*
X-8296715Y-31075238D01*
X-8332429Y-31170476D01*
X-8368143Y-31218095D01*
X-8439572Y-31265714D01*
X-8618143Y-31265714D01*
X-8689572Y-31218095D01*
X-8725286Y-31170476D01*
X-8761000Y-31075238D01*
X-8761000Y-30884761D01*
X-8725286Y-30789523D01*
X-8689572Y-30741904D01*
X-8618143Y-30694285D01*
G04 #@! TO.C,R7*
X-11090715Y-13803333D02*
X-11447858Y-13470000D01*
X-11090715Y-13231904D02*
X-11840715Y-13231904D01*
X-11840715Y-13612857D01*
X-11805000Y-13708095D01*
X-11769286Y-13755714D01*
X-11697858Y-13803333D01*
X-11590715Y-13803333D01*
X-11519286Y-13755714D01*
X-11483572Y-13708095D01*
X-11447858Y-13612857D01*
X-11447858Y-13231904D01*
X-11840715Y-14136666D02*
X-11840715Y-14803333D01*
X-11090715Y-14374761D01*
G04 #@! TO.C,R8*
X-6170715Y9818667D02*
X-6527858Y10152000D01*
X-6170715Y10390096D02*
X-6920715Y10390096D01*
X-6920715Y10009143D01*
X-6885000Y9913905D01*
X-6849286Y9866286D01*
X-6777858Y9818667D01*
X-6670715Y9818667D01*
X-6599286Y9866286D01*
X-6563572Y9913905D01*
X-6527858Y10009143D01*
X-6527858Y10390096D01*
X-6599286Y9247239D02*
X-6635000Y9342477D01*
X-6670715Y9390096D01*
X-6742143Y9437715D01*
X-6777858Y9437715D01*
X-6849286Y9390096D01*
X-6885000Y9342477D01*
X-6920715Y9247239D01*
X-6920715Y9056762D01*
X-6885000Y8961524D01*
X-6849286Y8913905D01*
X-6777858Y8866286D01*
X-6742143Y8866286D01*
X-6670715Y8913905D01*
X-6635000Y8961524D01*
X-6599286Y9056762D01*
X-6599286Y9247239D01*
X-6563572Y9342477D01*
X-6527858Y9390096D01*
X-6456429Y9437715D01*
X-6313572Y9437715D01*
X-6242143Y9390096D01*
X-6206429Y9342477D01*
X-6170715Y9247239D01*
X-6170715Y9056762D01*
X-6206429Y8961524D01*
X-6242143Y8913905D01*
X-6313572Y8866286D01*
X-6456429Y8866286D01*
X-6527858Y8913905D01*
X-6563572Y8961524D01*
X-6599286Y9056762D01*
G04 #@! TO.C,R9*
X11769285Y8802667D02*
X11412142Y9136000D01*
X11769285Y9374096D02*
X11019285Y9374096D01*
X11019285Y8993143D01*
X11055000Y8897905D01*
X11090714Y8850286D01*
X11162142Y8802667D01*
X11269285Y8802667D01*
X11340714Y8850286D01*
X11376428Y8897905D01*
X11412142Y8993143D01*
X11412142Y9374096D01*
X11769285Y8326477D02*
X11769285Y8136000D01*
X11733571Y8040762D01*
X11697857Y7993143D01*
X11590714Y7897905D01*
X11447857Y7850286D01*
X11162142Y7850286D01*
X11090714Y7897905D01*
X11055000Y7945524D01*
X11019285Y8040762D01*
X11019285Y8231239D01*
X11055000Y8326477D01*
X11090714Y8374096D01*
X11162142Y8421715D01*
X11340714Y8421715D01*
X11412142Y8374096D01*
X11447857Y8326477D01*
X11483571Y8231239D01*
X11483571Y8040762D01*
X11447857Y7945524D01*
X11412142Y7897905D01*
X11340714Y7850286D01*
G04 #@! TO.C,R10*
X1609285Y14358858D02*
X1252142Y14692191D01*
X1609285Y14930286D02*
X859285Y14930286D01*
X859285Y14549334D01*
X895000Y14454096D01*
X930714Y14406477D01*
X1002142Y14358858D01*
X1109285Y14358858D01*
X1180714Y14406477D01*
X1216428Y14454096D01*
X1252142Y14549334D01*
X1252142Y14930286D01*
X1609285Y13406477D02*
X1609285Y13977905D01*
X1609285Y13692191D02*
X859285Y13692191D01*
X966428Y13787429D01*
X1037857Y13882667D01*
X1073571Y13977905D01*
X859285Y12787429D02*
X859285Y12692191D01*
X895000Y12596953D01*
X930714Y12549334D01*
X1002142Y12501715D01*
X1145000Y12454096D01*
X1323571Y12454096D01*
X1466428Y12501715D01*
X1537857Y12549334D01*
X1573571Y12596953D01*
X1609285Y12692191D01*
X1609285Y12787429D01*
X1573571Y12882667D01*
X1537857Y12930286D01*
X1466428Y12977905D01*
X1323571Y13025524D01*
X1145000Y13025524D01*
X1002142Y12977905D01*
X930714Y12930286D01*
X895000Y12882667D01*
X859285Y12787429D01*
G04 #@! TO.C,R11*
X4149285Y10294858D02*
X3792142Y10628191D01*
X4149285Y10866286D02*
X3399285Y10866286D01*
X3399285Y10485334D01*
X3435000Y10390096D01*
X3470714Y10342477D01*
X3542142Y10294858D01*
X3649285Y10294858D01*
X3720714Y10342477D01*
X3756428Y10390096D01*
X3792142Y10485334D01*
X3792142Y10866286D01*
X4149285Y9342477D02*
X4149285Y9913905D01*
X4149285Y9628191D02*
X3399285Y9628191D01*
X3506428Y9723429D01*
X3577857Y9818667D01*
X3613571Y9913905D01*
X4149285Y8390096D02*
X4149285Y8961524D01*
X4149285Y8675810D02*
X3399285Y8675810D01*
X3506428Y8771048D01*
X3577857Y8866286D01*
X3613571Y8961524D01*
G04 #@! TO.C,R12*
X-4486715Y-20693142D02*
X-4843858Y-20359809D01*
X-4486715Y-20121714D02*
X-5236715Y-20121714D01*
X-5236715Y-20502666D01*
X-5201000Y-20597904D01*
X-5165286Y-20645523D01*
X-5093858Y-20693142D01*
X-4986715Y-20693142D01*
X-4915286Y-20645523D01*
X-4879572Y-20597904D01*
X-4843858Y-20502666D01*
X-4843858Y-20121714D01*
X-4486715Y-21645523D02*
X-4486715Y-21074095D01*
X-4486715Y-21359809D02*
X-5236715Y-21359809D01*
X-5129572Y-21264571D01*
X-5058143Y-21169333D01*
X-5022429Y-21074095D01*
X-5165286Y-22026476D02*
X-5201000Y-22074095D01*
X-5236715Y-22169333D01*
X-5236715Y-22407428D01*
X-5201000Y-22502666D01*
X-5165286Y-22550285D01*
X-5093858Y-22597904D01*
X-5022429Y-22597904D01*
X-4915286Y-22550285D01*
X-4486715Y-21978857D01*
X-4486715Y-22597904D01*
G04 #@! TO.C,R13*
X-3470715Y10294858D02*
X-3827858Y10628191D01*
X-3470715Y10866286D02*
X-4220715Y10866286D01*
X-4220715Y10485334D01*
X-4185000Y10390096D01*
X-4149286Y10342477D01*
X-4077858Y10294858D01*
X-3970715Y10294858D01*
X-3899286Y10342477D01*
X-3863572Y10390096D01*
X-3827858Y10485334D01*
X-3827858Y10866286D01*
X-3470715Y9342477D02*
X-3470715Y9913905D01*
X-3470715Y9628191D02*
X-4220715Y9628191D01*
X-4113572Y9723429D01*
X-4042143Y9818667D01*
X-4006429Y9913905D01*
X-4220715Y9009143D02*
X-4220715Y8390096D01*
X-3935000Y8723429D01*
X-3935000Y8580572D01*
X-3899286Y8485334D01*
X-3863572Y8437715D01*
X-3792143Y8390096D01*
X-3613572Y8390096D01*
X-3542143Y8437715D01*
X-3506429Y8485334D01*
X-3470715Y8580572D01*
X-3470715Y8866286D01*
X-3506429Y8961524D01*
X-3542143Y9009143D01*
G04 #@! TO.C,R14*
X-3470715Y14358858D02*
X-3827858Y14692191D01*
X-3470715Y14930286D02*
X-4220715Y14930286D01*
X-4220715Y14549334D01*
X-4185000Y14454096D01*
X-4149286Y14406477D01*
X-4077858Y14358858D01*
X-3970715Y14358858D01*
X-3899286Y14406477D01*
X-3863572Y14454096D01*
X-3827858Y14549334D01*
X-3827858Y14930286D01*
X-3470715Y13406477D02*
X-3470715Y13977905D01*
X-3470715Y13692191D02*
X-4220715Y13692191D01*
X-4113572Y13787429D01*
X-4042143Y13882667D01*
X-4006429Y13977905D01*
X-3970715Y12549334D02*
X-3470715Y12549334D01*
X-4256429Y12787429D02*
X-3720715Y13025524D01*
X-3720715Y12406477D01*
G04 #@! TO.C,R1*
X-14646715Y36742667D02*
X-15003858Y37076000D01*
X-14646715Y37314096D02*
X-15396715Y37314096D01*
X-15396715Y36933143D01*
X-15361000Y36837905D01*
X-15325286Y36790286D01*
X-15253858Y36742667D01*
X-15146715Y36742667D01*
X-15075286Y36790286D01*
X-15039572Y36837905D01*
X-15003858Y36933143D01*
X-15003858Y37314096D01*
X-14646715Y35790286D02*
X-14646715Y36361715D01*
X-14646715Y36076000D02*
X-15396715Y36076000D01*
X-15289572Y36171239D01*
X-15218143Y36266477D01*
X-15182429Y36361715D01*
G04 #@! TO.C,R16*
X6943285Y-29837142D02*
X6586142Y-29503809D01*
X6943285Y-29265714D02*
X6193285Y-29265714D01*
X6193285Y-29646666D01*
X6229000Y-29741904D01*
X6264714Y-29789523D01*
X6336142Y-29837142D01*
X6443285Y-29837142D01*
X6514714Y-29789523D01*
X6550428Y-29741904D01*
X6586142Y-29646666D01*
X6586142Y-29265714D01*
X6943285Y-30789523D02*
X6943285Y-30218095D01*
X6943285Y-30503809D02*
X6193285Y-30503809D01*
X6300428Y-30408571D01*
X6371857Y-30313333D01*
X6407571Y-30218095D01*
X6193285Y-31646666D02*
X6193285Y-31456190D01*
X6229000Y-31360952D01*
X6264714Y-31313333D01*
X6371857Y-31218095D01*
X6514714Y-31170476D01*
X6800428Y-31170476D01*
X6871857Y-31218095D01*
X6907571Y-31265714D01*
X6943285Y-31360952D01*
X6943285Y-31551428D01*
X6907571Y-31646666D01*
X6871857Y-31694285D01*
X6800428Y-31741904D01*
X6621857Y-31741904D01*
X6550428Y-31694285D01*
X6514714Y-31646666D01*
X6479000Y-31551428D01*
X6479000Y-31360952D01*
X6514714Y-31265714D01*
X6550428Y-31218095D01*
X6621857Y-31170476D01*
G04 #@! TO.C,R17*
X4657285Y-29837142D02*
X4300142Y-29503809D01*
X4657285Y-29265714D02*
X3907285Y-29265714D01*
X3907285Y-29646666D01*
X3943000Y-29741904D01*
X3978714Y-29789523D01*
X4050142Y-29837142D01*
X4157285Y-29837142D01*
X4228714Y-29789523D01*
X4264428Y-29741904D01*
X4300142Y-29646666D01*
X4300142Y-29265714D01*
X4657285Y-30789523D02*
X4657285Y-30218095D01*
X4657285Y-30503809D02*
X3907285Y-30503809D01*
X4014428Y-30408571D01*
X4085857Y-30313333D01*
X4121571Y-30218095D01*
X3907285Y-31122857D02*
X3907285Y-31789523D01*
X4657285Y-31360952D01*
G04 #@! TO.C,R18*
X-8296715Y-33393142D02*
X-8653858Y-33059809D01*
X-8296715Y-32821714D02*
X-9046715Y-32821714D01*
X-9046715Y-33202666D01*
X-9011000Y-33297904D01*
X-8975286Y-33345523D01*
X-8903858Y-33393142D01*
X-8796715Y-33393142D01*
X-8725286Y-33345523D01*
X-8689572Y-33297904D01*
X-8653858Y-33202666D01*
X-8653858Y-32821714D01*
X-8296715Y-34345523D02*
X-8296715Y-33774095D01*
X-8296715Y-34059809D02*
X-9046715Y-34059809D01*
X-8939572Y-33964571D01*
X-8868143Y-33869333D01*
X-8832429Y-33774095D01*
X-8725286Y-34916952D02*
X-8761000Y-34821714D01*
X-8796715Y-34774095D01*
X-8868143Y-34726476D01*
X-8903858Y-34726476D01*
X-8975286Y-34774095D01*
X-9011000Y-34821714D01*
X-9046715Y-34916952D01*
X-9046715Y-35107428D01*
X-9011000Y-35202666D01*
X-8975286Y-35250285D01*
X-8903858Y-35297904D01*
X-8868143Y-35297904D01*
X-8796715Y-35250285D01*
X-8761000Y-35202666D01*
X-8725286Y-35107428D01*
X-8725286Y-34916952D01*
X-8689572Y-34821714D01*
X-8653858Y-34774095D01*
X-8582429Y-34726476D01*
X-8439572Y-34726476D01*
X-8368143Y-34774095D01*
X-8332429Y-34821714D01*
X-8296715Y-34916952D01*
X-8296715Y-35107428D01*
X-8332429Y-35202666D01*
X-8368143Y-35250285D01*
X-8439572Y-35297904D01*
X-8582429Y-35297904D01*
X-8653858Y-35250285D01*
X-8689572Y-35202666D01*
X-8725286Y-35107428D01*
G04 #@! TO.C,R19*
X-6264715Y-33393142D02*
X-6621858Y-33059809D01*
X-6264715Y-32821714D02*
X-7014715Y-32821714D01*
X-7014715Y-33202666D01*
X-6979000Y-33297904D01*
X-6943286Y-33345523D01*
X-6871858Y-33393142D01*
X-6764715Y-33393142D01*
X-6693286Y-33345523D01*
X-6657572Y-33297904D01*
X-6621858Y-33202666D01*
X-6621858Y-32821714D01*
X-6264715Y-34345523D02*
X-6264715Y-33774095D01*
X-6264715Y-34059809D02*
X-7014715Y-34059809D01*
X-6907572Y-33964571D01*
X-6836143Y-33869333D01*
X-6800429Y-33774095D01*
X-6264715Y-34821714D02*
X-6264715Y-35012190D01*
X-6300429Y-35107428D01*
X-6336143Y-35155047D01*
X-6443286Y-35250285D01*
X-6586143Y-35297904D01*
X-6871858Y-35297904D01*
X-6943286Y-35250285D01*
X-6979000Y-35202666D01*
X-7014715Y-35107428D01*
X-7014715Y-34916952D01*
X-6979000Y-34821714D01*
X-6943286Y-34774095D01*
X-6871858Y-34726476D01*
X-6693286Y-34726476D01*
X-6621858Y-34774095D01*
X-6586143Y-34821714D01*
X-6550429Y-34916952D01*
X-6550429Y-35107428D01*
X-6586143Y-35202666D01*
X-6621858Y-35250285D01*
X-6693286Y-35297904D01*
G04 #@! TO.C,R20*
X4657285Y-33393142D02*
X4300142Y-33059809D01*
X4657285Y-32821714D02*
X3907285Y-32821714D01*
X3907285Y-33202666D01*
X3943000Y-33297904D01*
X3978714Y-33345523D01*
X4050142Y-33393142D01*
X4157285Y-33393142D01*
X4228714Y-33345523D01*
X4264428Y-33297904D01*
X4300142Y-33202666D01*
X4300142Y-32821714D01*
X3978714Y-33774095D02*
X3943000Y-33821714D01*
X3907285Y-33916952D01*
X3907285Y-34155047D01*
X3943000Y-34250285D01*
X3978714Y-34297904D01*
X4050142Y-34345523D01*
X4121571Y-34345523D01*
X4228714Y-34297904D01*
X4657285Y-33726476D01*
X4657285Y-34345523D01*
X3907285Y-34964571D02*
X3907285Y-35059809D01*
X3943000Y-35155047D01*
X3978714Y-35202666D01*
X4050142Y-35250285D01*
X4193000Y-35297904D01*
X4371571Y-35297904D01*
X4514428Y-35250285D01*
X4585857Y-35202666D01*
X4621571Y-35155047D01*
X4657285Y-35059809D01*
X4657285Y-34964571D01*
X4621571Y-34869333D01*
X4585857Y-34821714D01*
X4514428Y-34774095D01*
X4371571Y-34726476D01*
X4193000Y-34726476D01*
X4050142Y-34774095D01*
X3978714Y-34821714D01*
X3943000Y-34869333D01*
X3907285Y-34964571D01*
G04 #@! TO.C,R21*
X6943285Y-33393142D02*
X6586142Y-33059809D01*
X6943285Y-32821714D02*
X6193285Y-32821714D01*
X6193285Y-33202666D01*
X6229000Y-33297904D01*
X6264714Y-33345523D01*
X6336142Y-33393142D01*
X6443285Y-33393142D01*
X6514714Y-33345523D01*
X6550428Y-33297904D01*
X6586142Y-33202666D01*
X6586142Y-32821714D01*
X6264714Y-33774095D02*
X6229000Y-33821714D01*
X6193285Y-33916952D01*
X6193285Y-34155047D01*
X6229000Y-34250285D01*
X6264714Y-34297904D01*
X6336142Y-34345523D01*
X6407571Y-34345523D01*
X6514714Y-34297904D01*
X6943285Y-33726476D01*
X6943285Y-34345523D01*
X6943285Y-35297904D02*
X6943285Y-34726476D01*
X6943285Y-35012190D02*
X6193285Y-35012190D01*
X6300428Y-34916952D01*
X6371857Y-34821714D01*
X6407571Y-34726476D01*
G04 #@! TO.C,R22*
X-6264715Y-29837142D02*
X-6621858Y-29503809D01*
X-6264715Y-29265714D02*
X-7014715Y-29265714D01*
X-7014715Y-29646666D01*
X-6979000Y-29741904D01*
X-6943286Y-29789523D01*
X-6871858Y-29837142D01*
X-6764715Y-29837142D01*
X-6693286Y-29789523D01*
X-6657572Y-29741904D01*
X-6621858Y-29646666D01*
X-6621858Y-29265714D01*
X-6943286Y-30218095D02*
X-6979000Y-30265714D01*
X-7014715Y-30360952D01*
X-7014715Y-30599047D01*
X-6979000Y-30694285D01*
X-6943286Y-30741904D01*
X-6871858Y-30789523D01*
X-6800429Y-30789523D01*
X-6693286Y-30741904D01*
X-6264715Y-30170476D01*
X-6264715Y-30789523D01*
X-6943286Y-31170476D02*
X-6979000Y-31218095D01*
X-7014715Y-31313333D01*
X-7014715Y-31551428D01*
X-6979000Y-31646666D01*
X-6943286Y-31694285D01*
X-6871858Y-31741904D01*
X-6800429Y-31741904D01*
X-6693286Y-31694285D01*
X-6264715Y-31122857D01*
X-6264715Y-31741904D01*
G04 #@! TO.C,R23*
X-16678715Y-33393142D02*
X-17035858Y-33059809D01*
X-16678715Y-32821714D02*
X-17428715Y-32821714D01*
X-17428715Y-33202666D01*
X-17393000Y-33297904D01*
X-17357286Y-33345523D01*
X-17285858Y-33393142D01*
X-17178715Y-33393142D01*
X-17107286Y-33345523D01*
X-17071572Y-33297904D01*
X-17035858Y-33202666D01*
X-17035858Y-32821714D01*
X-17357286Y-33774095D02*
X-17393000Y-33821714D01*
X-17428715Y-33916952D01*
X-17428715Y-34155047D01*
X-17393000Y-34250285D01*
X-17357286Y-34297904D01*
X-17285858Y-34345523D01*
X-17214429Y-34345523D01*
X-17107286Y-34297904D01*
X-16678715Y-33726476D01*
X-16678715Y-34345523D01*
X-17428715Y-34678857D02*
X-17428715Y-35297904D01*
X-17143000Y-34964571D01*
X-17143000Y-35107428D01*
X-17107286Y-35202666D01*
X-17071572Y-35250285D01*
X-17000143Y-35297904D01*
X-16821572Y-35297904D01*
X-16750143Y-35250285D01*
X-16714429Y-35202666D01*
X-16678715Y-35107428D01*
X-16678715Y-34821714D01*
X-16714429Y-34726476D01*
X-16750143Y-34678857D01*
G04 #@! TO.C,R24*
X-8296715Y-36949142D02*
X-8653858Y-36615809D01*
X-8296715Y-36377714D02*
X-9046715Y-36377714D01*
X-9046715Y-36758666D01*
X-9011000Y-36853904D01*
X-8975286Y-36901523D01*
X-8903858Y-36949142D01*
X-8796715Y-36949142D01*
X-8725286Y-36901523D01*
X-8689572Y-36853904D01*
X-8653858Y-36758666D01*
X-8653858Y-36377714D01*
X-8975286Y-37330095D02*
X-9011000Y-37377714D01*
X-9046715Y-37472952D01*
X-9046715Y-37711047D01*
X-9011000Y-37806285D01*
X-8975286Y-37853904D01*
X-8903858Y-37901523D01*
X-8832429Y-37901523D01*
X-8725286Y-37853904D01*
X-8296715Y-37282476D01*
X-8296715Y-37901523D01*
X-8796715Y-38758666D02*
X-8296715Y-38758666D01*
X-9082429Y-38520571D02*
X-8546715Y-38282476D01*
X-8546715Y-38901523D01*
G04 #@! TO.C,R25*
X-6264715Y-40505142D02*
X-6621858Y-40171809D01*
X-6264715Y-39933714D02*
X-7014715Y-39933714D01*
X-7014715Y-40314666D01*
X-6979000Y-40409904D01*
X-6943286Y-40457523D01*
X-6871858Y-40505142D01*
X-6764715Y-40505142D01*
X-6693286Y-40457523D01*
X-6657572Y-40409904D01*
X-6621858Y-40314666D01*
X-6621858Y-39933714D01*
X-6943286Y-40886095D02*
X-6979000Y-40933714D01*
X-7014715Y-41028952D01*
X-7014715Y-41267047D01*
X-6979000Y-41362285D01*
X-6943286Y-41409904D01*
X-6871858Y-41457523D01*
X-6800429Y-41457523D01*
X-6693286Y-41409904D01*
X-6264715Y-40838476D01*
X-6264715Y-41457523D01*
X-7014715Y-42362285D02*
X-7014715Y-41886095D01*
X-6657572Y-41838476D01*
X-6693286Y-41886095D01*
X-6729000Y-41981333D01*
X-6729000Y-42219428D01*
X-6693286Y-42314666D01*
X-6657572Y-42362285D01*
X-6586143Y-42409904D01*
X-6407572Y-42409904D01*
X-6336143Y-42362285D01*
X-6300429Y-42314666D01*
X-6264715Y-42219428D01*
X-6264715Y-41981333D01*
X-6300429Y-41886095D01*
X-6336143Y-41838476D01*
G04 #@! TO.C,R26*
X-10582715Y-40505142D02*
X-10939858Y-40171809D01*
X-10582715Y-39933714D02*
X-11332715Y-39933714D01*
X-11332715Y-40314666D01*
X-11297000Y-40409904D01*
X-11261286Y-40457523D01*
X-11189858Y-40505142D01*
X-11082715Y-40505142D01*
X-11011286Y-40457523D01*
X-10975572Y-40409904D01*
X-10939858Y-40314666D01*
X-10939858Y-39933714D01*
X-11261286Y-40886095D02*
X-11297000Y-40933714D01*
X-11332715Y-41028952D01*
X-11332715Y-41267047D01*
X-11297000Y-41362285D01*
X-11261286Y-41409904D01*
X-11189858Y-41457523D01*
X-11118429Y-41457523D01*
X-11011286Y-41409904D01*
X-10582715Y-40838476D01*
X-10582715Y-41457523D01*
X-11332715Y-42314666D02*
X-11332715Y-42124190D01*
X-11297000Y-42028952D01*
X-11261286Y-41981333D01*
X-11154143Y-41886095D01*
X-11011286Y-41838476D01*
X-10725572Y-41838476D01*
X-10654143Y-41886095D01*
X-10618429Y-41933714D01*
X-10582715Y-42028952D01*
X-10582715Y-42219428D01*
X-10618429Y-42314666D01*
X-10654143Y-42362285D01*
X-10725572Y-42409904D01*
X-10904143Y-42409904D01*
X-10975572Y-42362285D01*
X-11011286Y-42314666D01*
X-11047000Y-42219428D01*
X-11047000Y-42028952D01*
X-11011286Y-41933714D01*
X-10975572Y-41886095D01*
X-10904143Y-41838476D01*
G04 #@! TO.C,R27*
X6943285Y-36949142D02*
X6586142Y-36615809D01*
X6943285Y-36377714D02*
X6193285Y-36377714D01*
X6193285Y-36758666D01*
X6229000Y-36853904D01*
X6264714Y-36901523D01*
X6336142Y-36949142D01*
X6443285Y-36949142D01*
X6514714Y-36901523D01*
X6550428Y-36853904D01*
X6586142Y-36758666D01*
X6586142Y-36377714D01*
X6264714Y-37330095D02*
X6229000Y-37377714D01*
X6193285Y-37472952D01*
X6193285Y-37711047D01*
X6229000Y-37806285D01*
X6264714Y-37853904D01*
X6336142Y-37901523D01*
X6407571Y-37901523D01*
X6514714Y-37853904D01*
X6943285Y-37282476D01*
X6943285Y-37901523D01*
X6193285Y-38234857D02*
X6193285Y-38901523D01*
X6943285Y-38472952D01*
G04 #@! TO.C,R28*
X4657285Y-40505142D02*
X4300142Y-40171809D01*
X4657285Y-39933714D02*
X3907285Y-39933714D01*
X3907285Y-40314666D01*
X3943000Y-40409904D01*
X3978714Y-40457523D01*
X4050142Y-40505142D01*
X4157285Y-40505142D01*
X4228714Y-40457523D01*
X4264428Y-40409904D01*
X4300142Y-40314666D01*
X4300142Y-39933714D01*
X3978714Y-40886095D02*
X3943000Y-40933714D01*
X3907285Y-41028952D01*
X3907285Y-41267047D01*
X3943000Y-41362285D01*
X3978714Y-41409904D01*
X4050142Y-41457523D01*
X4121571Y-41457523D01*
X4228714Y-41409904D01*
X4657285Y-40838476D01*
X4657285Y-41457523D01*
X4228714Y-42028952D02*
X4193000Y-41933714D01*
X4157285Y-41886095D01*
X4085857Y-41838476D01*
X4050142Y-41838476D01*
X3978714Y-41886095D01*
X3943000Y-41933714D01*
X3907285Y-42028952D01*
X3907285Y-42219428D01*
X3943000Y-42314666D01*
X3978714Y-42362285D01*
X4050142Y-42409904D01*
X4085857Y-42409904D01*
X4157285Y-42362285D01*
X4193000Y-42314666D01*
X4228714Y-42219428D01*
X4228714Y-42028952D01*
X4264428Y-41933714D01*
X4300142Y-41886095D01*
X4371571Y-41838476D01*
X4514428Y-41838476D01*
X4585857Y-41886095D01*
X4621571Y-41933714D01*
X4657285Y-42028952D01*
X4657285Y-42219428D01*
X4621571Y-42314666D01*
X4585857Y-42362285D01*
X4514428Y-42409904D01*
X4371571Y-42409904D01*
X4300142Y-42362285D01*
X4264428Y-42314666D01*
X4228714Y-42219428D01*
G04 #@! TO.C,R29*
X8975285Y-40505142D02*
X8618142Y-40171809D01*
X8975285Y-39933714D02*
X8225285Y-39933714D01*
X8225285Y-40314666D01*
X8261000Y-40409904D01*
X8296714Y-40457523D01*
X8368142Y-40505142D01*
X8475285Y-40505142D01*
X8546714Y-40457523D01*
X8582428Y-40409904D01*
X8618142Y-40314666D01*
X8618142Y-39933714D01*
X8296714Y-40886095D02*
X8261000Y-40933714D01*
X8225285Y-41028952D01*
X8225285Y-41267047D01*
X8261000Y-41362285D01*
X8296714Y-41409904D01*
X8368142Y-41457523D01*
X8439571Y-41457523D01*
X8546714Y-41409904D01*
X8975285Y-40838476D01*
X8975285Y-41457523D01*
X8975285Y-41933714D02*
X8975285Y-42124190D01*
X8939571Y-42219428D01*
X8903857Y-42267047D01*
X8796714Y-42362285D01*
X8653857Y-42409904D01*
X8368142Y-42409904D01*
X8296714Y-42362285D01*
X8261000Y-42314666D01*
X8225285Y-42219428D01*
X8225285Y-42028952D01*
X8261000Y-41933714D01*
X8296714Y-41886095D01*
X8368142Y-41838476D01*
X8546714Y-41838476D01*
X8618142Y-41886095D01*
X8653857Y-41933714D01*
X8689571Y-42028952D01*
X8689571Y-42219428D01*
X8653857Y-42314666D01*
X8618142Y-42362285D01*
X8546714Y-42409904D01*
G04 #@! TO.C,R15*
X1449285Y10294858D02*
X1092142Y10628191D01*
X1449285Y10866286D02*
X699285Y10866286D01*
X699285Y10485334D01*
X735000Y10390096D01*
X770714Y10342477D01*
X842142Y10294858D01*
X949285Y10294858D01*
X1020714Y10342477D01*
X1056428Y10390096D01*
X1092142Y10485334D01*
X1092142Y10866286D01*
X1449285Y9342477D02*
X1449285Y9913905D01*
X1449285Y9628191D02*
X699285Y9628191D01*
X806428Y9723429D01*
X877857Y9818667D01*
X913571Y9913905D01*
X699285Y8437715D02*
X699285Y8913905D01*
X1056428Y8961524D01*
X1020714Y8913905D01*
X985000Y8818667D01*
X985000Y8580572D01*
X1020714Y8485334D01*
X1056428Y8437715D01*
X1127857Y8390096D01*
X1306428Y8390096D01*
X1377857Y8437715D01*
X1413571Y8485334D01*
X1449285Y8580572D01*
X1449285Y8818667D01*
X1413571Y8913905D01*
X1377857Y8961524D01*
G04 #@! TD*
M02*
