M48
;DRILL file {KiCad (5.0.1-3-g963ef8bb5)} date 2018 November 04, Sunday 18:35:03
;FORMAT={-:-/ absolute / inch / decimal}
FMAT,2
INCH,TZ
T1C0.0157
T2C0.0197
T3C0.0236
T4C0.0315
T5C0.0394
%
G90
G05
M72
T1
X-0.598Y-1.596
X-0.54Y1.18
X-0.483Y-1.126
X-0.39Y0.044
X-0.306Y1.708
X-0.266Y-1.279
X-0.24Y1.18
X-0.217Y0.489
X-0.179Y-0.778
X-0.15Y0.45
X-0.14Y-0.92
X-0.14Y-1.17
X-0.08Y0.02
X-0.08Y-0.2
X-0.08Y-0.71
X-0.08Y-0.97
X-0.07Y0.18
X-0.06Y-1.22
X0.003Y-1.494
X0.02Y-0.89
X0.07Y0.18
X0.08Y0.45
X0.08Y0.02
X0.08Y-0.2
X0.08Y-0.71
X0.08Y-0.82
X0.088Y0.297
X0.14Y-0.92
X0.16Y-1.22
X0.17Y-0.97
X0.1802Y-1.1702
X0.277Y0.125
X0.301Y0.403
X0.34Y0.7
X0.371Y-1.174
X0.4Y1.447
X0.46Y0.7
X0.56Y0.227
T4
X0.645Y0.1
X0.645Y0.
X0.645Y-0.1
T5
X0.4016Y1.3047
X0.4984Y1.3047
X-0.05Y1.7
X-0.05Y1.6
X0.05Y1.7
X0.05Y1.6
X0.3016Y0.5047
X0.4016Y0.5047
X0.4984Y0.5047
X-0.4984Y1.3047
X-0.3984Y1.3047
X-0.3016Y1.3047
X-0.4984Y0.5047
X-0.3984Y0.5047
X-0.3016Y0.5047
X0.3016Y1.3047
X-0.05Y1.5
X-0.05Y1.4
X-0.05Y1.3
X0.05Y1.5
X0.05Y1.4
X0.05Y1.3
T2
X0.3783Y0.1937G85X0.4217Y0.1937
G05
X-0.2063Y-1.7783G85X-0.2063Y-1.8217
G05
X0.3783Y-1.0063G85X0.4217Y-1.0063
G05
X0.2063Y-1.8217G85X0.2063Y-1.7783
G05
X-0.4217Y-1.0063G85X-0.3783Y-1.0063
G05
X0.3783Y-0.4063G85X0.4217Y-0.4063
G05
X-0.4217Y0.1937G85X-0.3783Y0.1937
G05
X-0.4217Y-0.4063G85X-0.3783Y-0.4063
G05
T3
X-0.4197Y-0.1331G85X-0.3803Y-0.1331
G05
X-0.4157Y-0.2551G85X-0.3843Y-0.2551
G05
X0.3803Y-0.1331G85X0.4197Y-0.1331
G05
X0.3843Y-0.2551G85X0.4157Y-0.2551
G05
X-0.4197Y-0.7331G85X-0.3803Y-0.7331
G05
X-0.4157Y-0.8551G85X-0.3843Y-0.8551
G05
X-0.6551Y-1.7843G85X-0.6551Y-1.8157
G05
X-0.5331Y-1.7803G85X-0.5331Y-1.8197
G05
X0.3803Y-1.3331G85X0.4197Y-1.3331
G05
X0.3843Y-1.4551G85X0.4157Y-1.4551
G05
X0.5331Y-1.8197G85X0.5331Y-1.7803
G05
X0.6551Y-1.8157G85X0.6551Y-1.7843
G05
X-0.4197Y-1.3331G85X-0.3803Y-1.3331
G05
X-0.4157Y-1.4551G85X-0.3843Y-1.4551
G05
X0.3803Y-0.7331G85X0.4197Y-0.7331
G05
X0.3843Y-0.8551G85X0.4157Y-0.8551
G05
T0
M30
