G04 #@! TF.GenerationSoftware,KiCad,Pcbnew,(5.0.1-3-g963ef8bb5)*
G04 #@! TF.CreationDate,2018-11-04T18:49:05+08:00*
G04 #@! TF.ProjectId,SteinerVCF,537465696E65725643462E6B69636164,rev?*
G04 #@! TF.SameCoordinates,PX8d9ee20PY6422c40*
G04 #@! TF.FileFunction,Soldermask,Top*
G04 #@! TF.FilePolarity,Negative*
%FSLAX46Y46*%
G04 Gerber Fmt 4.6, Leading zero omitted, Abs format (unit mm)*
G04 Created by KiCad (PCBNEW (5.0.1-3-g963ef8bb5)) date 2018 November 04, Sunday 18:49:05*
%MOMM*%
%LPD*%
G01*
G04 APERTURE LIST*
%ADD10C,0.100000*%
G04 APERTURE END LIST*
D10*
G36*
X-13373179Y-44381313D02*
X-13373176Y-44381314D01*
X-13373175Y-44381314D01*
X-13212761Y-44429975D01*
X-13212759Y-44429976D01*
X-13212756Y-44429977D01*
X-13064922Y-44508995D01*
X-12935341Y-44615341D01*
X-12828995Y-44744922D01*
X-12749977Y-44892756D01*
X-12749977Y-44892757D01*
X-12749975Y-44892761D01*
X-12713508Y-45012977D01*
X-12701313Y-45053179D01*
X-12689000Y-45178197D01*
X-12689000Y-46261804D01*
X-12701313Y-46386821D01*
X-12701314Y-46386824D01*
X-12701314Y-46386825D01*
X-12719640Y-46447239D01*
X-12749977Y-46547244D01*
X-12828995Y-46695078D01*
X-12935341Y-46824659D01*
X-13064922Y-46931005D01*
X-13212757Y-47010023D01*
X-13212760Y-47010024D01*
X-13212762Y-47010025D01*
X-13373176Y-47058686D01*
X-13373177Y-47058686D01*
X-13373180Y-47058687D01*
X-13540000Y-47075117D01*
X-13706821Y-47058687D01*
X-13706824Y-47058686D01*
X-13706825Y-47058686D01*
X-13867239Y-47010025D01*
X-13867241Y-47010024D01*
X-13867244Y-47010023D01*
X-14015078Y-46931005D01*
X-14144659Y-46824659D01*
X-14251005Y-46695078D01*
X-14330023Y-46547243D01*
X-14360357Y-46447244D01*
X-14378686Y-46386824D01*
X-14378686Y-46386823D01*
X-14378687Y-46386820D01*
X-14391000Y-46261803D01*
X-14390999Y-45178196D01*
X-14378686Y-45053179D01*
X-14366491Y-45012977D01*
X-14330024Y-44892761D01*
X-14330022Y-44892757D01*
X-14330022Y-44892756D01*
X-14251004Y-44744922D01*
X-14144658Y-44615341D01*
X-14015077Y-44508995D01*
X-13867243Y-44429977D01*
X-13867240Y-44429976D01*
X-13867238Y-44429975D01*
X-13706824Y-44381314D01*
X-13706823Y-44381314D01*
X-13706820Y-44381313D01*
X-13540000Y-44364883D01*
X-13373179Y-44381313D01*
X-13373179Y-44381313D01*
G37*
G36*
X13706820Y-44381313D02*
X13706823Y-44381314D01*
X13706824Y-44381314D01*
X13867238Y-44429975D01*
X13867240Y-44429976D01*
X13867243Y-44429977D01*
X14015078Y-44508995D01*
X14144659Y-44615341D01*
X14251005Y-44744922D01*
X14330023Y-44892756D01*
X14330023Y-44892757D01*
X14330025Y-44892761D01*
X14366492Y-45012977D01*
X14378687Y-45053179D01*
X14391000Y-45178196D01*
X14391000Y-46261803D01*
X14378687Y-46386821D01*
X14378686Y-46386824D01*
X14378686Y-46386825D01*
X14360360Y-46447239D01*
X14330023Y-46547244D01*
X14251005Y-46695078D01*
X14144659Y-46824659D01*
X14015078Y-46931005D01*
X13867244Y-47010023D01*
X13867241Y-47010024D01*
X13867239Y-47010025D01*
X13706825Y-47058686D01*
X13706824Y-47058686D01*
X13706821Y-47058687D01*
X13540000Y-47075117D01*
X13373180Y-47058687D01*
X13373177Y-47058686D01*
X13373176Y-47058686D01*
X13212762Y-47010025D01*
X13212760Y-47010024D01*
X13212757Y-47010023D01*
X13064923Y-46931005D01*
X12935342Y-46824659D01*
X12828996Y-46695078D01*
X12749978Y-46547244D01*
X12719642Y-46447239D01*
X12701315Y-46386825D01*
X12701315Y-46386824D01*
X12701314Y-46386821D01*
X12689001Y-46261804D01*
X12689000Y-45178197D01*
X12701313Y-45053180D01*
X12701314Y-45053176D01*
X12749975Y-44892762D01*
X12749976Y-44892760D01*
X12749977Y-44892757D01*
X12828995Y-44744922D01*
X12935341Y-44615341D01*
X13064922Y-44508995D01*
X13212756Y-44429977D01*
X13212759Y-44429976D01*
X13212761Y-44429975D01*
X13373175Y-44381314D01*
X13373176Y-44381314D01*
X13373179Y-44381313D01*
X13540000Y-44364883D01*
X13706820Y-44381313D01*
X13706820Y-44381313D01*
G37*
G36*
X5397024Y-44380590D02*
X5548011Y-44426392D01*
X5687161Y-44500768D01*
X5722750Y-44529975D01*
X5809133Y-44600867D01*
X5809134Y-44600869D01*
X5809136Y-44600870D01*
X5909230Y-44722835D01*
X5983608Y-44861988D01*
X6029410Y-45012975D01*
X6041000Y-45130654D01*
X6041000Y-46309346D01*
X6029410Y-46427025D01*
X5983608Y-46578012D01*
X5909230Y-46717165D01*
X5809133Y-46839133D01*
X5687165Y-46939230D01*
X5548012Y-47013608D01*
X5397025Y-47059410D01*
X5240000Y-47074875D01*
X5082976Y-47059410D01*
X4931989Y-47013608D01*
X4792836Y-46939230D01*
X4670868Y-46839133D01*
X4570771Y-46717165D01*
X4496393Y-46578012D01*
X4450591Y-46427025D01*
X4439001Y-46309346D01*
X4439000Y-45130655D01*
X4450590Y-45012976D01*
X4496392Y-44861989D01*
X4570768Y-44722839D01*
X4670865Y-44600870D01*
X4670867Y-44600867D01*
X4670869Y-44600866D01*
X4670870Y-44600864D01*
X4792835Y-44500770D01*
X4931988Y-44426392D01*
X5082975Y-44380590D01*
X5240000Y-44365125D01*
X5397024Y-44380590D01*
X5397024Y-44380590D01*
G37*
G36*
X-5082975Y-44380590D02*
X-4931988Y-44426392D01*
X-4792835Y-44500770D01*
X-4670867Y-44600867D01*
X-4570770Y-44722835D01*
X-4496392Y-44861988D01*
X-4450590Y-45012975D01*
X-4439000Y-45130654D01*
X-4439000Y-46309346D01*
X-4450590Y-46427025D01*
X-4496392Y-46578012D01*
X-4570770Y-46717165D01*
X-4670864Y-46839130D01*
X-4670866Y-46839131D01*
X-4670867Y-46839133D01*
X-4670871Y-46839136D01*
X-4792839Y-46939232D01*
X-4931989Y-47013608D01*
X-5082976Y-47059410D01*
X-5240000Y-47074875D01*
X-5397025Y-47059410D01*
X-5548012Y-47013608D01*
X-5687165Y-46939230D01*
X-5809130Y-46839136D01*
X-5809131Y-46839134D01*
X-5809133Y-46839133D01*
X-5859181Y-46778148D01*
X-5909232Y-46717161D01*
X-5983608Y-46578011D01*
X-6029410Y-46427024D01*
X-6041000Y-46309345D01*
X-6040999Y-45130654D01*
X-6029409Y-45012975D01*
X-5983607Y-44861988D01*
X-5909229Y-44722835D01*
X-5809132Y-44600867D01*
X-5687164Y-44500770D01*
X-5548011Y-44426392D01*
X-5397024Y-44380590D01*
X-5240000Y-44365125D01*
X-5082975Y-44380590D01*
X-5082975Y-44380590D01*
G37*
G36*
X16806820Y-44481313D02*
X16806823Y-44481314D01*
X16806824Y-44481314D01*
X16967238Y-44529975D01*
X16967240Y-44529976D01*
X16967243Y-44529977D01*
X17115078Y-44608995D01*
X17244659Y-44715341D01*
X17351005Y-44844922D01*
X17430023Y-44992756D01*
X17430023Y-44992757D01*
X17430025Y-44992761D01*
X17471855Y-45130656D01*
X17478687Y-45153179D01*
X17491000Y-45278196D01*
X17491000Y-46161803D01*
X17478687Y-46286820D01*
X17478686Y-46286822D01*
X17478686Y-46286825D01*
X17430025Y-46447238D01*
X17430023Y-46447244D01*
X17351005Y-46595078D01*
X17244659Y-46724659D01*
X17115078Y-46831005D01*
X16967244Y-46910023D01*
X16967241Y-46910024D01*
X16967239Y-46910025D01*
X16806825Y-46958686D01*
X16806824Y-46958686D01*
X16806821Y-46958687D01*
X16640000Y-46975117D01*
X16473180Y-46958687D01*
X16473177Y-46958686D01*
X16473176Y-46958686D01*
X16312762Y-46910025D01*
X16312760Y-46910024D01*
X16312757Y-46910023D01*
X16164923Y-46831005D01*
X16035342Y-46724659D01*
X15928996Y-46595078D01*
X15849978Y-46447244D01*
X15843845Y-46427025D01*
X15801315Y-46286825D01*
X15801315Y-46286824D01*
X15801314Y-46286821D01*
X15789000Y-46161803D01*
X15789000Y-45278197D01*
X15801313Y-45153180D01*
X15801314Y-45153176D01*
X15849975Y-44992762D01*
X15849976Y-44992760D01*
X15849977Y-44992757D01*
X15928995Y-44844922D01*
X16035341Y-44715341D01*
X16164922Y-44608995D01*
X16312756Y-44529977D01*
X16312759Y-44529976D01*
X16312761Y-44529975D01*
X16473175Y-44481314D01*
X16473176Y-44481314D01*
X16473179Y-44481313D01*
X16640000Y-44464883D01*
X16806820Y-44481313D01*
X16806820Y-44481313D01*
G37*
G36*
X-16473179Y-44481313D02*
X-16473176Y-44481314D01*
X-16473175Y-44481314D01*
X-16312761Y-44529975D01*
X-16312759Y-44529976D01*
X-16312756Y-44529977D01*
X-16164922Y-44608995D01*
X-16035341Y-44715341D01*
X-15928995Y-44844922D01*
X-15849977Y-44992756D01*
X-15849977Y-44992757D01*
X-15849975Y-44992761D01*
X-15801314Y-45153175D01*
X-15801314Y-45153176D01*
X-15801313Y-45153180D01*
X-15789000Y-45278197D01*
X-15789000Y-46161804D01*
X-15801313Y-46286821D01*
X-15801314Y-46286824D01*
X-15801314Y-46286825D01*
X-15843843Y-46427025D01*
X-15849977Y-46447244D01*
X-15928995Y-46595078D01*
X-16035341Y-46724659D01*
X-16164922Y-46831005D01*
X-16312757Y-46910023D01*
X-16312760Y-46910024D01*
X-16312762Y-46910025D01*
X-16473176Y-46958686D01*
X-16473177Y-46958686D01*
X-16473180Y-46958687D01*
X-16640000Y-46975117D01*
X-16806821Y-46958687D01*
X-16806824Y-46958686D01*
X-16806825Y-46958686D01*
X-16967239Y-46910025D01*
X-16967241Y-46910024D01*
X-16967244Y-46910023D01*
X-17115078Y-46831005D01*
X-17244659Y-46724659D01*
X-17351005Y-46595078D01*
X-17430023Y-46447243D01*
X-17436156Y-46427025D01*
X-17478686Y-46286824D01*
X-17478686Y-46286823D01*
X-17478687Y-46286820D01*
X-17491000Y-46161803D01*
X-17491000Y-45278197D01*
X-17478686Y-45153179D01*
X-17471854Y-45130656D01*
X-17430024Y-44992761D01*
X-17430022Y-44992757D01*
X-17430022Y-44992756D01*
X-17351004Y-44844922D01*
X-17244658Y-44715341D01*
X-17115077Y-44608995D01*
X-16967243Y-44529977D01*
X-16967240Y-44529976D01*
X-16967238Y-44529975D01*
X-16806824Y-44481314D01*
X-16806823Y-44481314D01*
X-16806820Y-44481313D01*
X-16640000Y-44464883D01*
X-16473179Y-44481313D01*
X-16473179Y-44481313D01*
G37*
G36*
X10726821Y-36121313D02*
X10726824Y-36121314D01*
X10726825Y-36121314D01*
X10887239Y-36169975D01*
X10887241Y-36169976D01*
X10887244Y-36169977D01*
X11035078Y-36248995D01*
X11164659Y-36355341D01*
X11271005Y-36484922D01*
X11350023Y-36632756D01*
X11398687Y-36793179D01*
X11415117Y-36960000D01*
X11398687Y-37126821D01*
X11350023Y-37287244D01*
X11271005Y-37435078D01*
X11164659Y-37564659D01*
X11035078Y-37671005D01*
X10887244Y-37750023D01*
X10887241Y-37750024D01*
X10887239Y-37750025D01*
X10726825Y-37798686D01*
X10726824Y-37798686D01*
X10726821Y-37798687D01*
X10601804Y-37811000D01*
X9718196Y-37811000D01*
X9593179Y-37798687D01*
X9593176Y-37798686D01*
X9593175Y-37798686D01*
X9432761Y-37750025D01*
X9432759Y-37750024D01*
X9432756Y-37750023D01*
X9284922Y-37671005D01*
X9155341Y-37564659D01*
X9048995Y-37435078D01*
X8969977Y-37287244D01*
X8921313Y-37126821D01*
X8904883Y-36960000D01*
X8921313Y-36793179D01*
X8969977Y-36632756D01*
X9048995Y-36484922D01*
X9155341Y-36355341D01*
X9284922Y-36248995D01*
X9432756Y-36169977D01*
X9432759Y-36169976D01*
X9432761Y-36169975D01*
X9593175Y-36121314D01*
X9593176Y-36121314D01*
X9593179Y-36121313D01*
X9718196Y-36109000D01*
X10601804Y-36109000D01*
X10726821Y-36121313D01*
X10726821Y-36121313D01*
G37*
G36*
X-9593179Y-36121313D02*
X-9593176Y-36121314D01*
X-9593175Y-36121314D01*
X-9432761Y-36169975D01*
X-9432759Y-36169976D01*
X-9432756Y-36169977D01*
X-9284922Y-36248995D01*
X-9155341Y-36355341D01*
X-9048995Y-36484922D01*
X-8969977Y-36632756D01*
X-8921313Y-36793179D01*
X-8904883Y-36960000D01*
X-8921313Y-37126821D01*
X-8969977Y-37287244D01*
X-9048995Y-37435078D01*
X-9155341Y-37564659D01*
X-9284922Y-37671005D01*
X-9432756Y-37750023D01*
X-9432759Y-37750024D01*
X-9432761Y-37750025D01*
X-9593175Y-37798686D01*
X-9593176Y-37798686D01*
X-9593179Y-37798687D01*
X-9718196Y-37811000D01*
X-10601804Y-37811000D01*
X-10726821Y-37798687D01*
X-10726824Y-37798686D01*
X-10726825Y-37798686D01*
X-10887239Y-37750025D01*
X-10887241Y-37750024D01*
X-10887244Y-37750023D01*
X-11035078Y-37671005D01*
X-11164659Y-37564659D01*
X-11271005Y-37435078D01*
X-11350023Y-37287244D01*
X-11398687Y-37126821D01*
X-11415117Y-36960000D01*
X-11398687Y-36793179D01*
X-11350023Y-36632756D01*
X-11271005Y-36484922D01*
X-11164659Y-36355341D01*
X-11035078Y-36248995D01*
X-10887244Y-36169977D01*
X-10887241Y-36169976D01*
X-10887239Y-36169975D01*
X-10726825Y-36121314D01*
X-10726824Y-36121314D01*
X-10726821Y-36121313D01*
X-10601804Y-36109000D01*
X-9718196Y-36109000D01*
X-9593179Y-36121313D01*
X-9593179Y-36121313D01*
G37*
G36*
X-9493179Y-33021313D02*
X-9493176Y-33021314D01*
X-9493175Y-33021314D01*
X-9332761Y-33069975D01*
X-9332759Y-33069976D01*
X-9332756Y-33069977D01*
X-9184922Y-33148995D01*
X-9055341Y-33255341D01*
X-8948995Y-33384922D01*
X-8869977Y-33532756D01*
X-8821313Y-33693179D01*
X-8804883Y-33860000D01*
X-8821313Y-34026821D01*
X-8869977Y-34187244D01*
X-8948995Y-34335078D01*
X-9055341Y-34464659D01*
X-9184922Y-34571005D01*
X-9332756Y-34650023D01*
X-9332759Y-34650024D01*
X-9332761Y-34650025D01*
X-9493175Y-34698686D01*
X-9493176Y-34698686D01*
X-9493179Y-34698687D01*
X-9618196Y-34711000D01*
X-10701804Y-34711000D01*
X-10826821Y-34698687D01*
X-10826824Y-34698686D01*
X-10826825Y-34698686D01*
X-10987239Y-34650025D01*
X-10987241Y-34650024D01*
X-10987244Y-34650023D01*
X-11135078Y-34571005D01*
X-11264659Y-34464659D01*
X-11371005Y-34335078D01*
X-11450023Y-34187244D01*
X-11498687Y-34026821D01*
X-11515117Y-33860000D01*
X-11498687Y-33693179D01*
X-11450023Y-33532756D01*
X-11371005Y-33384922D01*
X-11264659Y-33255341D01*
X-11135078Y-33148995D01*
X-10987244Y-33069977D01*
X-10987241Y-33069976D01*
X-10987239Y-33069975D01*
X-10826825Y-33021314D01*
X-10826824Y-33021314D01*
X-10826821Y-33021313D01*
X-10701804Y-33009000D01*
X-9618196Y-33009000D01*
X-9493179Y-33021313D01*
X-9493179Y-33021313D01*
G37*
G36*
X10826821Y-33021313D02*
X10826824Y-33021314D01*
X10826825Y-33021314D01*
X10987239Y-33069975D01*
X10987241Y-33069976D01*
X10987244Y-33069977D01*
X11135078Y-33148995D01*
X11264659Y-33255341D01*
X11371005Y-33384922D01*
X11450023Y-33532756D01*
X11498687Y-33693179D01*
X11515117Y-33860000D01*
X11498687Y-34026821D01*
X11450023Y-34187244D01*
X11371005Y-34335078D01*
X11264659Y-34464659D01*
X11135078Y-34571005D01*
X10987244Y-34650023D01*
X10987241Y-34650024D01*
X10987239Y-34650025D01*
X10826825Y-34698686D01*
X10826824Y-34698686D01*
X10826821Y-34698687D01*
X10701804Y-34711000D01*
X9618196Y-34711000D01*
X9493179Y-34698687D01*
X9493176Y-34698686D01*
X9493175Y-34698686D01*
X9332761Y-34650025D01*
X9332759Y-34650024D01*
X9332756Y-34650023D01*
X9184922Y-34571005D01*
X9055341Y-34464659D01*
X8948995Y-34335078D01*
X8869977Y-34187244D01*
X8821313Y-34026821D01*
X8804883Y-33860000D01*
X8821313Y-33693179D01*
X8869977Y-33532756D01*
X8948995Y-33384922D01*
X9055341Y-33255341D01*
X9184922Y-33148995D01*
X9332756Y-33069977D01*
X9332759Y-33069976D01*
X9332761Y-33069975D01*
X9493175Y-33021314D01*
X9493176Y-33021314D01*
X9493179Y-33021313D01*
X9618196Y-33009000D01*
X10701804Y-33009000D01*
X10826821Y-33021313D01*
X10826821Y-33021313D01*
G37*
G36*
X10867025Y-24770590D02*
X11018012Y-24816392D01*
X11157165Y-24890770D01*
X11279133Y-24990867D01*
X11379230Y-25112835D01*
X11453608Y-25251988D01*
X11499410Y-25402975D01*
X11514875Y-25560000D01*
X11499410Y-25717025D01*
X11453608Y-25868012D01*
X11379230Y-26007165D01*
X11279133Y-26129133D01*
X11157165Y-26229230D01*
X11018012Y-26303608D01*
X10867025Y-26349410D01*
X10749346Y-26361000D01*
X9570654Y-26361000D01*
X9452975Y-26349410D01*
X9301988Y-26303608D01*
X9162835Y-26229230D01*
X9040867Y-26129133D01*
X8940770Y-26007165D01*
X8866392Y-25868012D01*
X8820590Y-25717025D01*
X8805125Y-25560000D01*
X8820590Y-25402975D01*
X8866392Y-25251988D01*
X8940770Y-25112835D01*
X9040867Y-24990867D01*
X9162835Y-24890770D01*
X9301988Y-24816392D01*
X9452975Y-24770590D01*
X9570654Y-24759000D01*
X10749346Y-24759000D01*
X10867025Y-24770590D01*
X10867025Y-24770590D01*
G37*
G36*
X-9452975Y-24770590D02*
X-9301988Y-24816392D01*
X-9162835Y-24890770D01*
X-9040867Y-24990867D01*
X-8940770Y-25112835D01*
X-8866392Y-25251988D01*
X-8820590Y-25402975D01*
X-8805125Y-25560000D01*
X-8820590Y-25717025D01*
X-8866392Y-25868012D01*
X-8940770Y-26007165D01*
X-9040867Y-26129133D01*
X-9162835Y-26229230D01*
X-9301988Y-26303608D01*
X-9452975Y-26349410D01*
X-9570654Y-26361000D01*
X-10749346Y-26361000D01*
X-10867025Y-26349410D01*
X-11018012Y-26303608D01*
X-11157165Y-26229230D01*
X-11279133Y-26129133D01*
X-11379230Y-26007165D01*
X-11453608Y-25868012D01*
X-11499410Y-25717025D01*
X-11514875Y-25560000D01*
X-11499410Y-25402975D01*
X-11453608Y-25251988D01*
X-11379230Y-25112835D01*
X-11279133Y-24990867D01*
X-11157165Y-24890770D01*
X-11018012Y-24816392D01*
X-10867025Y-24770590D01*
X-10749346Y-24759000D01*
X-9570654Y-24759000D01*
X-9452975Y-24770590D01*
X-9452975Y-24770590D01*
G37*
G36*
X-9593179Y-20881313D02*
X-9593176Y-20881314D01*
X-9593175Y-20881314D01*
X-9432761Y-20929975D01*
X-9432759Y-20929976D01*
X-9432756Y-20929977D01*
X-9284922Y-21008995D01*
X-9155341Y-21115341D01*
X-9048995Y-21244922D01*
X-8969977Y-21392756D01*
X-8921313Y-21553179D01*
X-8904883Y-21720000D01*
X-8921313Y-21886821D01*
X-8969977Y-22047244D01*
X-9048995Y-22195078D01*
X-9155341Y-22324659D01*
X-9284922Y-22431005D01*
X-9432756Y-22510023D01*
X-9432759Y-22510024D01*
X-9432761Y-22510025D01*
X-9593175Y-22558686D01*
X-9593176Y-22558686D01*
X-9593179Y-22558687D01*
X-9718196Y-22571000D01*
X-10601804Y-22571000D01*
X-10726821Y-22558687D01*
X-10726824Y-22558686D01*
X-10726825Y-22558686D01*
X-10887239Y-22510025D01*
X-10887241Y-22510024D01*
X-10887244Y-22510023D01*
X-11035078Y-22431005D01*
X-11164659Y-22324659D01*
X-11271005Y-22195078D01*
X-11350023Y-22047244D01*
X-11398687Y-21886821D01*
X-11415117Y-21720000D01*
X-11398687Y-21553179D01*
X-11350023Y-21392756D01*
X-11271005Y-21244922D01*
X-11164659Y-21115341D01*
X-11035078Y-21008995D01*
X-10887244Y-20929977D01*
X-10887241Y-20929976D01*
X-10887239Y-20929975D01*
X-10726825Y-20881314D01*
X-10726824Y-20881314D01*
X-10726821Y-20881313D01*
X-10601804Y-20869000D01*
X-9718196Y-20869000D01*
X-9593179Y-20881313D01*
X-9593179Y-20881313D01*
G37*
G36*
X10726821Y-20881313D02*
X10726824Y-20881314D01*
X10726825Y-20881314D01*
X10887239Y-20929975D01*
X10887241Y-20929976D01*
X10887244Y-20929977D01*
X11035078Y-21008995D01*
X11164659Y-21115341D01*
X11271005Y-21244922D01*
X11350023Y-21392756D01*
X11398687Y-21553179D01*
X11415117Y-21720000D01*
X11398687Y-21886821D01*
X11350023Y-22047244D01*
X11271005Y-22195078D01*
X11164659Y-22324659D01*
X11035078Y-22431005D01*
X10887244Y-22510023D01*
X10887241Y-22510024D01*
X10887239Y-22510025D01*
X10726825Y-22558686D01*
X10726824Y-22558686D01*
X10726821Y-22558687D01*
X10601804Y-22571000D01*
X9718196Y-22571000D01*
X9593179Y-22558687D01*
X9593176Y-22558686D01*
X9593175Y-22558686D01*
X9432761Y-22510025D01*
X9432759Y-22510024D01*
X9432756Y-22510023D01*
X9284922Y-22431005D01*
X9155341Y-22324659D01*
X9048995Y-22195078D01*
X8969977Y-22047244D01*
X8921313Y-21886821D01*
X8904883Y-21720000D01*
X8921313Y-21553179D01*
X8969977Y-21392756D01*
X9048995Y-21244922D01*
X9155341Y-21115341D01*
X9284922Y-21008995D01*
X9432756Y-20929977D01*
X9432759Y-20929976D01*
X9432761Y-20929975D01*
X9593175Y-20881314D01*
X9593176Y-20881314D01*
X9593179Y-20881313D01*
X9718196Y-20869000D01*
X10601804Y-20869000D01*
X10726821Y-20881313D01*
X10726821Y-20881313D01*
G37*
G36*
X-9493179Y-17781313D02*
X-9493176Y-17781314D01*
X-9493175Y-17781314D01*
X-9332761Y-17829975D01*
X-9332759Y-17829976D01*
X-9332756Y-17829977D01*
X-9184922Y-17908995D01*
X-9055341Y-18015341D01*
X-8948995Y-18144922D01*
X-8869977Y-18292756D01*
X-8821313Y-18453179D01*
X-8804883Y-18620000D01*
X-8821313Y-18786821D01*
X-8869977Y-18947244D01*
X-8948995Y-19095078D01*
X-9055341Y-19224659D01*
X-9184922Y-19331005D01*
X-9332756Y-19410023D01*
X-9332759Y-19410024D01*
X-9332761Y-19410025D01*
X-9493175Y-19458686D01*
X-9493176Y-19458686D01*
X-9493179Y-19458687D01*
X-9618196Y-19471000D01*
X-10701804Y-19471000D01*
X-10826821Y-19458687D01*
X-10826824Y-19458686D01*
X-10826825Y-19458686D01*
X-10987239Y-19410025D01*
X-10987241Y-19410024D01*
X-10987244Y-19410023D01*
X-11135078Y-19331005D01*
X-11264659Y-19224659D01*
X-11371005Y-19095078D01*
X-11450023Y-18947244D01*
X-11498687Y-18786821D01*
X-11515117Y-18620000D01*
X-11498687Y-18453179D01*
X-11450023Y-18292756D01*
X-11371005Y-18144922D01*
X-11264659Y-18015341D01*
X-11135078Y-17908995D01*
X-10987244Y-17829977D01*
X-10987241Y-17829976D01*
X-10987239Y-17829975D01*
X-10826825Y-17781314D01*
X-10826824Y-17781314D01*
X-10826821Y-17781313D01*
X-10701804Y-17769000D01*
X-9618196Y-17769000D01*
X-9493179Y-17781313D01*
X-9493179Y-17781313D01*
G37*
G36*
X10826821Y-17781313D02*
X10826824Y-17781314D01*
X10826825Y-17781314D01*
X10987239Y-17829975D01*
X10987241Y-17829976D01*
X10987244Y-17829977D01*
X11135078Y-17908995D01*
X11264659Y-18015341D01*
X11371005Y-18144922D01*
X11450023Y-18292756D01*
X11498687Y-18453179D01*
X11515117Y-18620000D01*
X11498687Y-18786821D01*
X11450023Y-18947244D01*
X11371005Y-19095078D01*
X11264659Y-19224659D01*
X11135078Y-19331005D01*
X10987244Y-19410023D01*
X10987241Y-19410024D01*
X10987239Y-19410025D01*
X10826825Y-19458686D01*
X10826824Y-19458686D01*
X10826821Y-19458687D01*
X10701804Y-19471000D01*
X9618196Y-19471000D01*
X9493179Y-19458687D01*
X9493176Y-19458686D01*
X9493175Y-19458686D01*
X9332761Y-19410025D01*
X9332759Y-19410024D01*
X9332756Y-19410023D01*
X9184922Y-19331005D01*
X9055341Y-19224659D01*
X8948995Y-19095078D01*
X8869977Y-18947244D01*
X8821313Y-18786821D01*
X8804883Y-18620000D01*
X8821313Y-18453179D01*
X8869977Y-18292756D01*
X8948995Y-18144922D01*
X9055341Y-18015341D01*
X9184922Y-17908995D01*
X9332756Y-17829977D01*
X9332759Y-17829976D01*
X9332761Y-17829975D01*
X9493175Y-17781314D01*
X9493176Y-17781314D01*
X9493179Y-17781313D01*
X9618196Y-17769000D01*
X10701804Y-17769000D01*
X10826821Y-17781313D01*
X10826821Y-17781313D01*
G37*
G36*
X-9452975Y-9530590D02*
X-9301988Y-9576392D01*
X-9162835Y-9650770D01*
X-9040867Y-9750867D01*
X-8940770Y-9872835D01*
X-8866392Y-10011988D01*
X-8820590Y-10162975D01*
X-8805125Y-10320000D01*
X-8820590Y-10477025D01*
X-8866392Y-10628012D01*
X-8940770Y-10767165D01*
X-9040867Y-10889133D01*
X-9162835Y-10989230D01*
X-9301988Y-11063608D01*
X-9452975Y-11109410D01*
X-9570654Y-11121000D01*
X-10749346Y-11121000D01*
X-10867025Y-11109410D01*
X-11018012Y-11063608D01*
X-11157165Y-10989230D01*
X-11279133Y-10889133D01*
X-11379230Y-10767165D01*
X-11453608Y-10628012D01*
X-11499410Y-10477025D01*
X-11514875Y-10320000D01*
X-11499410Y-10162975D01*
X-11453608Y-10011988D01*
X-11379230Y-9872835D01*
X-11279133Y-9750867D01*
X-11157165Y-9650770D01*
X-11018012Y-9576392D01*
X-10867025Y-9530590D01*
X-10749346Y-9519000D01*
X-9570654Y-9519000D01*
X-9452975Y-9530590D01*
X-9452975Y-9530590D01*
G37*
G36*
X10867025Y-9530590D02*
X11018012Y-9576392D01*
X11157165Y-9650770D01*
X11279133Y-9750867D01*
X11379230Y-9872835D01*
X11453608Y-10011988D01*
X11499410Y-10162975D01*
X11514875Y-10320000D01*
X11499410Y-10477025D01*
X11453608Y-10628012D01*
X11379230Y-10767165D01*
X11279133Y-10889133D01*
X11157165Y-10989230D01*
X11018012Y-11063608D01*
X10867025Y-11109410D01*
X10749346Y-11121000D01*
X9570654Y-11121000D01*
X9452975Y-11109410D01*
X9301988Y-11063608D01*
X9162835Y-10989230D01*
X9040867Y-10889133D01*
X8940770Y-10767165D01*
X8866392Y-10628012D01*
X8820590Y-10477025D01*
X8805125Y-10320000D01*
X8820590Y-10162975D01*
X8866392Y-10011988D01*
X8940770Y-9872835D01*
X9040867Y-9750867D01*
X9162835Y-9650770D01*
X9301988Y-9576392D01*
X9452975Y-9530590D01*
X9570654Y-9519000D01*
X10749346Y-9519000D01*
X10867025Y-9530590D01*
X10867025Y-9530590D01*
G37*
G36*
X10726821Y-5641313D02*
X10726824Y-5641314D01*
X10726825Y-5641314D01*
X10887239Y-5689975D01*
X10887241Y-5689976D01*
X10887244Y-5689977D01*
X11035078Y-5768995D01*
X11164659Y-5875341D01*
X11271005Y-6004922D01*
X11350023Y-6152756D01*
X11398687Y-6313179D01*
X11415117Y-6480000D01*
X11398687Y-6646821D01*
X11350023Y-6807244D01*
X11271005Y-6955078D01*
X11164659Y-7084659D01*
X11035078Y-7191005D01*
X10887244Y-7270023D01*
X10887241Y-7270024D01*
X10887239Y-7270025D01*
X10726825Y-7318686D01*
X10726824Y-7318686D01*
X10726821Y-7318687D01*
X10601804Y-7331000D01*
X9718196Y-7331000D01*
X9593179Y-7318687D01*
X9593176Y-7318686D01*
X9593175Y-7318686D01*
X9432761Y-7270025D01*
X9432759Y-7270024D01*
X9432756Y-7270023D01*
X9284922Y-7191005D01*
X9155341Y-7084659D01*
X9048995Y-6955078D01*
X8969977Y-6807244D01*
X8921313Y-6646821D01*
X8904883Y-6480000D01*
X8921313Y-6313179D01*
X8969977Y-6152756D01*
X9048995Y-6004922D01*
X9155341Y-5875341D01*
X9284922Y-5768995D01*
X9432756Y-5689977D01*
X9432759Y-5689976D01*
X9432761Y-5689975D01*
X9593175Y-5641314D01*
X9593176Y-5641314D01*
X9593179Y-5641313D01*
X9718196Y-5629000D01*
X10601804Y-5629000D01*
X10726821Y-5641313D01*
X10726821Y-5641313D01*
G37*
G36*
X-9593179Y-5641313D02*
X-9593176Y-5641314D01*
X-9593175Y-5641314D01*
X-9432761Y-5689975D01*
X-9432759Y-5689976D01*
X-9432756Y-5689977D01*
X-9284922Y-5768995D01*
X-9155341Y-5875341D01*
X-9048995Y-6004922D01*
X-8969977Y-6152756D01*
X-8921313Y-6313179D01*
X-8904883Y-6480000D01*
X-8921313Y-6646821D01*
X-8969977Y-6807244D01*
X-9048995Y-6955078D01*
X-9155341Y-7084659D01*
X-9284922Y-7191005D01*
X-9432756Y-7270023D01*
X-9432759Y-7270024D01*
X-9432761Y-7270025D01*
X-9593175Y-7318686D01*
X-9593176Y-7318686D01*
X-9593179Y-7318687D01*
X-9718196Y-7331000D01*
X-10601804Y-7331000D01*
X-10726821Y-7318687D01*
X-10726824Y-7318686D01*
X-10726825Y-7318686D01*
X-10887239Y-7270025D01*
X-10887241Y-7270024D01*
X-10887244Y-7270023D01*
X-11035078Y-7191005D01*
X-11164659Y-7084659D01*
X-11271005Y-6955078D01*
X-11350023Y-6807244D01*
X-11398687Y-6646821D01*
X-11415117Y-6480000D01*
X-11398687Y-6313179D01*
X-11350023Y-6152756D01*
X-11271005Y-6004922D01*
X-11164659Y-5875341D01*
X-11035078Y-5768995D01*
X-10887244Y-5689977D01*
X-10887241Y-5689976D01*
X-10887239Y-5689975D01*
X-10726825Y-5641314D01*
X-10726824Y-5641314D01*
X-10726821Y-5641313D01*
X-10601804Y-5629000D01*
X-9718196Y-5629000D01*
X-9593179Y-5641313D01*
X-9593179Y-5641313D01*
G37*
G36*
X10826821Y-2541313D02*
X10826824Y-2541314D01*
X10826825Y-2541314D01*
X10987239Y-2589975D01*
X10987241Y-2589976D01*
X10987244Y-2589977D01*
X11135078Y-2668995D01*
X11264659Y-2775341D01*
X11371005Y-2904922D01*
X11450023Y-3052756D01*
X11498687Y-3213179D01*
X11515117Y-3380000D01*
X11498687Y-3546821D01*
X11450023Y-3707244D01*
X11371005Y-3855078D01*
X11264659Y-3984659D01*
X11135078Y-4091005D01*
X10987244Y-4170023D01*
X10987241Y-4170024D01*
X10987239Y-4170025D01*
X10826825Y-4218686D01*
X10826824Y-4218686D01*
X10826821Y-4218687D01*
X10701804Y-4231000D01*
X9618196Y-4231000D01*
X9493179Y-4218687D01*
X9493176Y-4218686D01*
X9493175Y-4218686D01*
X9332761Y-4170025D01*
X9332759Y-4170024D01*
X9332756Y-4170023D01*
X9184922Y-4091005D01*
X9055341Y-3984659D01*
X8948995Y-3855078D01*
X8869977Y-3707244D01*
X8821313Y-3546821D01*
X8804883Y-3380000D01*
X8821313Y-3213179D01*
X8869977Y-3052756D01*
X8948995Y-2904922D01*
X9055341Y-2775341D01*
X9184922Y-2668995D01*
X9332756Y-2589977D01*
X9332759Y-2589976D01*
X9332761Y-2589975D01*
X9493175Y-2541314D01*
X9493176Y-2541314D01*
X9493179Y-2541313D01*
X9618196Y-2529000D01*
X10701804Y-2529000D01*
X10826821Y-2541313D01*
X10826821Y-2541313D01*
G37*
G36*
X-9493179Y-2541313D02*
X-9493176Y-2541314D01*
X-9493175Y-2541314D01*
X-9332761Y-2589975D01*
X-9332759Y-2589976D01*
X-9332756Y-2589977D01*
X-9184922Y-2668995D01*
X-9055341Y-2775341D01*
X-8948995Y-2904922D01*
X-8869977Y-3052756D01*
X-8821313Y-3213179D01*
X-8804883Y-3380000D01*
X-8821313Y-3546821D01*
X-8869977Y-3707244D01*
X-8948995Y-3855078D01*
X-9055341Y-3984659D01*
X-9184922Y-4091005D01*
X-9332756Y-4170023D01*
X-9332759Y-4170024D01*
X-9332761Y-4170025D01*
X-9493175Y-4218686D01*
X-9493176Y-4218686D01*
X-9493179Y-4218687D01*
X-9618196Y-4231000D01*
X-10701804Y-4231000D01*
X-10826821Y-4218687D01*
X-10826824Y-4218686D01*
X-10826825Y-4218686D01*
X-10987239Y-4170025D01*
X-10987241Y-4170024D01*
X-10987244Y-4170023D01*
X-11135078Y-4091005D01*
X-11264659Y-3984659D01*
X-11371005Y-3855078D01*
X-11450023Y-3707244D01*
X-11498687Y-3546821D01*
X-11515117Y-3380000D01*
X-11498687Y-3213179D01*
X-11450023Y-3052756D01*
X-11371005Y-2904922D01*
X-11264659Y-2775341D01*
X-11135078Y-2668995D01*
X-10987244Y-2589977D01*
X-10987241Y-2589976D01*
X-10987239Y-2589975D01*
X-10826825Y-2541314D01*
X-10826824Y-2541314D01*
X-10826821Y-2541313D01*
X-10701804Y-2529000D01*
X-9618196Y-2529000D01*
X-9493179Y-2541313D01*
X-9493179Y-2541313D01*
G37*
G36*
X16508589Y-1778876D02*
X16607893Y-1798629D01*
X16748206Y-1856748D01*
X16874484Y-1941125D01*
X16981875Y-2048516D01*
X17066252Y-2174794D01*
X17124371Y-2315107D01*
X17154000Y-2464063D01*
X17154000Y-2615937D01*
X17124371Y-2764893D01*
X17066252Y-2905206D01*
X16981875Y-3031484D01*
X16874484Y-3138875D01*
X16748206Y-3223252D01*
X16607893Y-3281371D01*
X16508589Y-3301124D01*
X16458938Y-3311000D01*
X16307062Y-3311000D01*
X16257411Y-3301124D01*
X16158107Y-3281371D01*
X16017794Y-3223252D01*
X15891516Y-3138875D01*
X15784125Y-3031484D01*
X15699748Y-2905206D01*
X15641629Y-2764893D01*
X15612000Y-2615937D01*
X15612000Y-2464063D01*
X15641629Y-2315107D01*
X15699748Y-2174794D01*
X15784125Y-2048516D01*
X15891516Y-1941125D01*
X16017794Y-1856748D01*
X16158107Y-1798629D01*
X16257411Y-1778876D01*
X16307062Y-1769000D01*
X16458938Y-1769000D01*
X16508589Y-1778876D01*
X16508589Y-1778876D01*
G37*
G36*
X16508589Y761124D02*
X16607893Y741371D01*
X16748206Y683252D01*
X16874484Y598875D01*
X16981875Y491484D01*
X17066252Y365206D01*
X17124371Y224893D01*
X17154000Y75937D01*
X17154000Y-75937D01*
X17124371Y-224893D01*
X17066252Y-365206D01*
X16981875Y-491484D01*
X16874484Y-598875D01*
X16748206Y-683252D01*
X16607893Y-741371D01*
X16508589Y-761124D01*
X16458938Y-771000D01*
X16307062Y-771000D01*
X16257411Y-761124D01*
X16158107Y-741371D01*
X16017794Y-683252D01*
X15891516Y-598875D01*
X15784125Y-491484D01*
X15699748Y-365206D01*
X15641629Y-224893D01*
X15612000Y-75937D01*
X15612000Y75937D01*
X15641629Y224893D01*
X15699748Y365206D01*
X15784125Y491484D01*
X15891516Y598875D01*
X16017794Y683252D01*
X16158107Y741371D01*
X16257411Y761124D01*
X16307062Y771000D01*
X16458938Y771000D01*
X16508589Y761124D01*
X16508589Y761124D01*
G37*
G36*
X16508589Y3301124D02*
X16607893Y3281371D01*
X16748206Y3223252D01*
X16874484Y3138875D01*
X16981875Y3031484D01*
X17066252Y2905206D01*
X17124371Y2764893D01*
X17154000Y2615937D01*
X17154000Y2464063D01*
X17124371Y2315107D01*
X17066252Y2174794D01*
X16981875Y2048516D01*
X16874484Y1941125D01*
X16748206Y1856748D01*
X16607893Y1798629D01*
X16508589Y1778876D01*
X16458938Y1769000D01*
X16307062Y1769000D01*
X16257411Y1778876D01*
X16158107Y1798629D01*
X16017794Y1856748D01*
X15891516Y1941125D01*
X15784125Y2048516D01*
X15699748Y2174794D01*
X15641629Y2315107D01*
X15612000Y2464063D01*
X15612000Y2615937D01*
X15641629Y2764893D01*
X15699748Y2905206D01*
X15784125Y3031484D01*
X15891516Y3138875D01*
X16017794Y3223252D01*
X16158107Y3281371D01*
X16257411Y3301124D01*
X16307062Y3311000D01*
X16458938Y3311000D01*
X16508589Y3301124D01*
X16508589Y3301124D01*
G37*
G36*
X10867025Y5709410D02*
X11018012Y5663608D01*
X11157165Y5589230D01*
X11279133Y5489133D01*
X11379230Y5367165D01*
X11453608Y5228012D01*
X11499410Y5077025D01*
X11514875Y4920000D01*
X11499410Y4762975D01*
X11453608Y4611988D01*
X11379230Y4472835D01*
X11279133Y4350867D01*
X11157165Y4250770D01*
X11018012Y4176392D01*
X10867025Y4130590D01*
X10749346Y4119000D01*
X9570654Y4119000D01*
X9452975Y4130590D01*
X9301988Y4176392D01*
X9162835Y4250770D01*
X9040867Y4350867D01*
X8940770Y4472835D01*
X8866392Y4611988D01*
X8820590Y4762975D01*
X8805125Y4920000D01*
X8820590Y5077025D01*
X8866392Y5228012D01*
X8940770Y5367165D01*
X9040867Y5489133D01*
X9162835Y5589230D01*
X9301988Y5663608D01*
X9452975Y5709410D01*
X9570654Y5721000D01*
X10749346Y5721000D01*
X10867025Y5709410D01*
X10867025Y5709410D01*
G37*
G36*
X-9452975Y5709410D02*
X-9301988Y5663608D01*
X-9162835Y5589230D01*
X-9040867Y5489133D01*
X-8940770Y5367165D01*
X-8866392Y5228012D01*
X-8820590Y5077025D01*
X-8805125Y4920000D01*
X-8820590Y4762975D01*
X-8866392Y4611988D01*
X-8940770Y4472835D01*
X-9040867Y4350867D01*
X-9162835Y4250770D01*
X-9301988Y4176392D01*
X-9452975Y4130590D01*
X-9570654Y4119000D01*
X-10749346Y4119000D01*
X-10867025Y4130590D01*
X-11018012Y4176392D01*
X-11157165Y4250770D01*
X-11279133Y4350867D01*
X-11379230Y4472835D01*
X-11453608Y4611988D01*
X-11499410Y4762975D01*
X-11514875Y4920000D01*
X-11499410Y5077025D01*
X-11453608Y5228012D01*
X-11379230Y5367165D01*
X-11279133Y5489133D01*
X-11157165Y5589230D01*
X-11018012Y5663608D01*
X-10867025Y5709410D01*
X-10749346Y5721000D01*
X-9570654Y5721000D01*
X-9452975Y5709410D01*
X-9452975Y5709410D01*
G37*
G36*
X10477396Y13734444D02*
X10650466Y13662756D01*
X10806230Y13558678D01*
X10938688Y13426220D01*
X11042766Y13270456D01*
X11114454Y13097386D01*
X11151000Y12913657D01*
X11151000Y12726323D01*
X11114454Y12542594D01*
X11042766Y12369524D01*
X10938688Y12213760D01*
X10806230Y12081302D01*
X10650466Y11977224D01*
X10477396Y11905536D01*
X10293667Y11868990D01*
X10106333Y11868990D01*
X9922604Y11905536D01*
X9749534Y11977224D01*
X9593770Y12081302D01*
X9461312Y12213760D01*
X9357234Y12369524D01*
X9285546Y12542594D01*
X9249000Y12726323D01*
X9249000Y12913657D01*
X9285546Y13097386D01*
X9357234Y13270456D01*
X9461312Y13426220D01*
X9593770Y13558678D01*
X9749534Y13662756D01*
X9922604Y13734444D01*
X10106333Y13770990D01*
X10293667Y13770990D01*
X10477396Y13734444D01*
X10477396Y13734444D01*
G37*
G36*
X12937396Y13734444D02*
X13110466Y13662756D01*
X13266230Y13558678D01*
X13398688Y13426220D01*
X13502766Y13270456D01*
X13574454Y13097386D01*
X13611000Y12913657D01*
X13611000Y12726323D01*
X13574454Y12542594D01*
X13502766Y12369524D01*
X13398688Y12213760D01*
X13266230Y12081302D01*
X13110466Y11977224D01*
X12937396Y11905536D01*
X12753667Y11868990D01*
X12566333Y11868990D01*
X12382604Y11905536D01*
X12209534Y11977224D01*
X12053770Y12081302D01*
X11921312Y12213760D01*
X11817234Y12369524D01*
X11745546Y12542594D01*
X11709000Y12726323D01*
X11709000Y12913657D01*
X11745546Y13097386D01*
X11817234Y13270456D01*
X11921312Y13426220D01*
X12053770Y13558678D01*
X12209534Y13662756D01*
X12382604Y13734444D01*
X12566333Y13770990D01*
X12753667Y13770990D01*
X12937396Y13734444D01*
X12937396Y13734444D01*
G37*
G36*
X7937396Y13734444D02*
X8110466Y13662756D01*
X8266230Y13558678D01*
X8398688Y13426220D01*
X8502766Y13270456D01*
X8574454Y13097386D01*
X8611000Y12913657D01*
X8611000Y12726323D01*
X8574454Y12542594D01*
X8502766Y12369524D01*
X8398688Y12213760D01*
X8266230Y12081302D01*
X8110466Y11977224D01*
X7937396Y11905536D01*
X7753667Y11868990D01*
X7566333Y11868990D01*
X7382604Y11905536D01*
X7209534Y11977224D01*
X7053770Y12081302D01*
X6921312Y12213760D01*
X6817234Y12369524D01*
X6745546Y12542594D01*
X6709000Y12726323D01*
X6709000Y12913657D01*
X6745546Y13097386D01*
X6817234Y13270456D01*
X6921312Y13426220D01*
X7053770Y13558678D01*
X7209534Y13662756D01*
X7382604Y13734444D01*
X7566333Y13770990D01*
X7753667Y13770990D01*
X7937396Y13734444D01*
X7937396Y13734444D01*
G37*
G36*
X-7382604Y13734444D02*
X-7209534Y13662756D01*
X-7053770Y13558678D01*
X-6921312Y13426220D01*
X-6817234Y13270456D01*
X-6745546Y13097386D01*
X-6709000Y12913657D01*
X-6709000Y12726323D01*
X-6745546Y12542594D01*
X-6817234Y12369524D01*
X-6921312Y12213760D01*
X-7053770Y12081302D01*
X-7209534Y11977224D01*
X-7382604Y11905536D01*
X-7566333Y11868990D01*
X-7753667Y11868990D01*
X-7937396Y11905536D01*
X-8110466Y11977224D01*
X-8266230Y12081302D01*
X-8398688Y12213760D01*
X-8502766Y12369524D01*
X-8574454Y12542594D01*
X-8611000Y12726323D01*
X-8611000Y12913657D01*
X-8574454Y13097386D01*
X-8502766Y13270456D01*
X-8398688Y13426220D01*
X-8266230Y13558678D01*
X-8110466Y13662756D01*
X-7937396Y13734444D01*
X-7753667Y13770990D01*
X-7566333Y13770990D01*
X-7382604Y13734444D01*
X-7382604Y13734444D01*
G37*
G36*
X-9842604Y13734444D02*
X-9669534Y13662756D01*
X-9513770Y13558678D01*
X-9381312Y13426220D01*
X-9277234Y13270456D01*
X-9205546Y13097386D01*
X-9169000Y12913657D01*
X-9169000Y12726323D01*
X-9205546Y12542594D01*
X-9277234Y12369524D01*
X-9381312Y12213760D01*
X-9513770Y12081302D01*
X-9669534Y11977224D01*
X-9842604Y11905536D01*
X-10026333Y11868990D01*
X-10213667Y11868990D01*
X-10397396Y11905536D01*
X-10570466Y11977224D01*
X-10726230Y12081302D01*
X-10858688Y12213760D01*
X-10962766Y12369524D01*
X-11034454Y12542594D01*
X-11071000Y12726323D01*
X-11071000Y12913657D01*
X-11034454Y13097386D01*
X-10962766Y13270456D01*
X-10858688Y13426220D01*
X-10726230Y13558678D01*
X-10570466Y13662756D01*
X-10397396Y13734444D01*
X-10213667Y13770990D01*
X-10026333Y13770990D01*
X-9842604Y13734444D01*
X-9842604Y13734444D01*
G37*
G36*
X-12382604Y13734444D02*
X-12209534Y13662756D01*
X-12053770Y13558678D01*
X-11921312Y13426220D01*
X-11817234Y13270456D01*
X-11745546Y13097386D01*
X-11709000Y12913657D01*
X-11709000Y12726323D01*
X-11745546Y12542594D01*
X-11817234Y12369524D01*
X-11921312Y12213760D01*
X-12053770Y12081302D01*
X-12209534Y11977224D01*
X-12382604Y11905536D01*
X-12566333Y11868990D01*
X-12753667Y11868990D01*
X-12937396Y11905536D01*
X-13110466Y11977224D01*
X-13266230Y12081302D01*
X-13398688Y12213760D01*
X-13502766Y12369524D01*
X-13574454Y12542594D01*
X-13611000Y12726323D01*
X-13611000Y12913657D01*
X-13574454Y13097386D01*
X-13502766Y13270456D01*
X-13398688Y13426220D01*
X-13266230Y13558678D01*
X-13110466Y13662756D01*
X-12937396Y13734444D01*
X-12753667Y13770990D01*
X-12566333Y13770990D01*
X-12382604Y13734444D01*
X-12382604Y13734444D01*
G37*
G36*
X15484180Y21464338D02*
X15585635Y21454346D01*
X15802600Y21388530D01*
X15802602Y21388529D01*
X15802605Y21388528D01*
X16002556Y21281653D01*
X16177818Y21137818D01*
X16321653Y20962556D01*
X16428528Y20762605D01*
X16428529Y20762602D01*
X16428530Y20762600D01*
X16494346Y20545635D01*
X16516569Y20320000D01*
X16494346Y20094365D01*
X16428530Y19877400D01*
X16428528Y19877395D01*
X16321653Y19677444D01*
X16177818Y19502182D01*
X16002556Y19358347D01*
X15802605Y19251472D01*
X15802602Y19251471D01*
X15802600Y19251470D01*
X15585635Y19185654D01*
X15484180Y19175662D01*
X15416545Y19169000D01*
X14503455Y19169000D01*
X14435820Y19175662D01*
X14334365Y19185654D01*
X14117400Y19251470D01*
X14117398Y19251471D01*
X14117395Y19251472D01*
X13917444Y19358347D01*
X13742182Y19502182D01*
X13598347Y19677444D01*
X13491472Y19877395D01*
X13491470Y19877400D01*
X13425654Y20094365D01*
X13403431Y20320000D01*
X13425654Y20545635D01*
X13491470Y20762600D01*
X13491471Y20762602D01*
X13491472Y20762605D01*
X13598347Y20962556D01*
X13742182Y21137818D01*
X13917444Y21281653D01*
X14117395Y21388528D01*
X14117398Y21388529D01*
X14117400Y21388530D01*
X14334365Y21454346D01*
X14435820Y21464338D01*
X14503455Y21471000D01*
X15416545Y21471000D01*
X15484180Y21464338D01*
X15484180Y21464338D01*
G37*
G36*
X5884180Y21464338D02*
X5985635Y21454346D01*
X6202600Y21388530D01*
X6202602Y21388529D01*
X6202605Y21388528D01*
X6402556Y21281653D01*
X6577818Y21137818D01*
X6721653Y20962556D01*
X6828528Y20762605D01*
X6828529Y20762602D01*
X6828530Y20762600D01*
X6894346Y20545635D01*
X6916569Y20320000D01*
X6894346Y20094365D01*
X6828530Y19877400D01*
X6828528Y19877395D01*
X6721653Y19677444D01*
X6577818Y19502182D01*
X6402556Y19358347D01*
X6202605Y19251472D01*
X6202602Y19251471D01*
X6202600Y19251470D01*
X5985635Y19185654D01*
X5884180Y19175662D01*
X5816545Y19169000D01*
X4903455Y19169000D01*
X4835820Y19175662D01*
X4734365Y19185654D01*
X4517400Y19251470D01*
X4517398Y19251471D01*
X4517395Y19251472D01*
X4317444Y19358347D01*
X4142182Y19502182D01*
X3998347Y19677444D01*
X3891472Y19877395D01*
X3891470Y19877400D01*
X3825654Y20094365D01*
X3803431Y20320000D01*
X3825654Y20545635D01*
X3891470Y20762600D01*
X3891471Y20762602D01*
X3891472Y20762605D01*
X3998347Y20962556D01*
X4142182Y21137818D01*
X4317444Y21281653D01*
X4517395Y21388528D01*
X4517398Y21388529D01*
X4517400Y21388530D01*
X4734365Y21454346D01*
X4835820Y21464338D01*
X4903455Y21471000D01*
X5816545Y21471000D01*
X5884180Y21464338D01*
X5884180Y21464338D01*
G37*
G36*
X-4835820Y21464338D02*
X-4734365Y21454346D01*
X-4517400Y21388530D01*
X-4517398Y21388529D01*
X-4517395Y21388528D01*
X-4317444Y21281653D01*
X-4142182Y21137818D01*
X-3998347Y20962556D01*
X-3891472Y20762605D01*
X-3891471Y20762602D01*
X-3891470Y20762600D01*
X-3825654Y20545635D01*
X-3803431Y20320000D01*
X-3825654Y20094365D01*
X-3891470Y19877400D01*
X-3891472Y19877395D01*
X-3998347Y19677444D01*
X-4142182Y19502182D01*
X-4317444Y19358347D01*
X-4517395Y19251472D01*
X-4517398Y19251471D01*
X-4517400Y19251470D01*
X-4734365Y19185654D01*
X-4835820Y19175662D01*
X-4903455Y19169000D01*
X-5816545Y19169000D01*
X-5884180Y19175662D01*
X-5985635Y19185654D01*
X-6202600Y19251470D01*
X-6202602Y19251471D01*
X-6202605Y19251472D01*
X-6402556Y19358347D01*
X-6577818Y19502182D01*
X-6721653Y19677444D01*
X-6828528Y19877395D01*
X-6828530Y19877400D01*
X-6894346Y20094365D01*
X-6916569Y20320000D01*
X-6894346Y20545635D01*
X-6828530Y20762600D01*
X-6828529Y20762602D01*
X-6828528Y20762605D01*
X-6721653Y20962556D01*
X-6577818Y21137818D01*
X-6402556Y21281653D01*
X-6202605Y21388528D01*
X-6202602Y21388529D01*
X-6202600Y21388530D01*
X-5985635Y21454346D01*
X-5884180Y21464338D01*
X-5816545Y21471000D01*
X-4903455Y21471000D01*
X-4835820Y21464338D01*
X-4835820Y21464338D01*
G37*
G36*
X-14435820Y21464338D02*
X-14334365Y21454346D01*
X-14117400Y21388530D01*
X-14117398Y21388529D01*
X-14117395Y21388528D01*
X-13917444Y21281653D01*
X-13742182Y21137818D01*
X-13598347Y20962556D01*
X-13491472Y20762605D01*
X-13491471Y20762602D01*
X-13491470Y20762600D01*
X-13425654Y20545635D01*
X-13403431Y20320000D01*
X-13425654Y20094365D01*
X-13491470Y19877400D01*
X-13491472Y19877395D01*
X-13598347Y19677444D01*
X-13742182Y19502182D01*
X-13917444Y19358347D01*
X-14117395Y19251472D01*
X-14117398Y19251471D01*
X-14117400Y19251470D01*
X-14334365Y19185654D01*
X-14435820Y19175662D01*
X-14503455Y19169000D01*
X-15416545Y19169000D01*
X-15484180Y19175662D01*
X-15585635Y19185654D01*
X-15802600Y19251470D01*
X-15802602Y19251471D01*
X-15802605Y19251472D01*
X-16002556Y19358347D01*
X-16177818Y19502182D01*
X-16321653Y19677444D01*
X-16428528Y19877395D01*
X-16428530Y19877400D01*
X-16494346Y20094365D01*
X-16516569Y20320000D01*
X-16494346Y20545635D01*
X-16428530Y20762600D01*
X-16428529Y20762602D01*
X-16428528Y20762605D01*
X-16321653Y20962556D01*
X-16177818Y21137818D01*
X-16002556Y21281653D01*
X-15802605Y21388528D01*
X-15802602Y21388529D01*
X-15802600Y21388530D01*
X-15585635Y21454346D01*
X-15484180Y21464338D01*
X-15416545Y21471000D01*
X-14503455Y21471000D01*
X-14435820Y21464338D01*
X-14435820Y21464338D01*
G37*
G36*
X-369000Y32119000D02*
X-2171000Y32119000D01*
X-2171000Y33921000D01*
X-369000Y33921000D01*
X-369000Y32119000D01*
X-369000Y32119000D01*
G37*
G36*
X1380442Y33914482D02*
X1446627Y33907963D01*
X1543160Y33878680D01*
X1616467Y33856443D01*
X1755087Y33782348D01*
X1772991Y33772778D01*
X1805352Y33746220D01*
X1910186Y33660186D01*
X1967410Y33590457D01*
X2022778Y33522991D01*
X2022779Y33522989D01*
X2106443Y33366467D01*
X2106443Y33366466D01*
X2157963Y33196627D01*
X2175359Y33020000D01*
X2157963Y32843373D01*
X2123616Y32730147D01*
X2106443Y32673533D01*
X2032348Y32534913D01*
X2022778Y32517009D01*
X1993448Y32481271D01*
X1910186Y32379814D01*
X1809550Y32297225D01*
X1772991Y32267222D01*
X1772989Y32267221D01*
X1616467Y32183557D01*
X1559853Y32166384D01*
X1446627Y32132037D01*
X1380442Y32125518D01*
X1314260Y32119000D01*
X1225740Y32119000D01*
X1159558Y32125518D01*
X1093373Y32132037D01*
X980147Y32166384D01*
X923533Y32183557D01*
X767011Y32267221D01*
X767009Y32267222D01*
X730450Y32297225D01*
X629814Y32379814D01*
X546552Y32481271D01*
X517222Y32517009D01*
X507652Y32534913D01*
X433557Y32673533D01*
X416384Y32730147D01*
X382037Y32843373D01*
X364641Y33020000D01*
X382037Y33196627D01*
X433557Y33366466D01*
X433557Y33366467D01*
X517221Y33522989D01*
X517222Y33522991D01*
X572590Y33590457D01*
X629814Y33660186D01*
X734648Y33746220D01*
X767009Y33772778D01*
X784913Y33782348D01*
X923533Y33856443D01*
X996840Y33878680D01*
X1093373Y33907963D01*
X1159558Y33914482D01*
X1225740Y33921000D01*
X1314260Y33921000D01*
X1380442Y33914482D01*
X1380442Y33914482D01*
G37*
G36*
X-7382604Y34054444D02*
X-7209534Y33982756D01*
X-7053770Y33878678D01*
X-6921312Y33746220D01*
X-6817234Y33590456D01*
X-6745546Y33417386D01*
X-6709000Y33233657D01*
X-6709000Y33046323D01*
X-6745546Y32862594D01*
X-6817234Y32689524D01*
X-6921312Y32533760D01*
X-7053770Y32401302D01*
X-7209534Y32297224D01*
X-7382604Y32225536D01*
X-7566333Y32188990D01*
X-7753667Y32188990D01*
X-7937396Y32225536D01*
X-8110466Y32297224D01*
X-8266230Y32401302D01*
X-8398688Y32533760D01*
X-8502766Y32689524D01*
X-8574454Y32862594D01*
X-8611000Y33046323D01*
X-8611000Y33233657D01*
X-8574454Y33417386D01*
X-8502766Y33590456D01*
X-8398688Y33746220D01*
X-8266230Y33878678D01*
X-8110466Y33982756D01*
X-7937396Y34054444D01*
X-7753667Y34090990D01*
X-7566333Y34090990D01*
X-7382604Y34054444D01*
X-7382604Y34054444D01*
G37*
G36*
X-9842604Y34054444D02*
X-9669534Y33982756D01*
X-9513770Y33878678D01*
X-9381312Y33746220D01*
X-9277234Y33590456D01*
X-9205546Y33417386D01*
X-9169000Y33233657D01*
X-9169000Y33046323D01*
X-9205546Y32862594D01*
X-9277234Y32689524D01*
X-9381312Y32533760D01*
X-9513770Y32401302D01*
X-9669534Y32297224D01*
X-9842604Y32225536D01*
X-10026333Y32188990D01*
X-10213667Y32188990D01*
X-10397396Y32225536D01*
X-10570466Y32297224D01*
X-10726230Y32401302D01*
X-10858688Y32533760D01*
X-10962766Y32689524D01*
X-11034454Y32862594D01*
X-11071000Y33046323D01*
X-11071000Y33233657D01*
X-11034454Y33417386D01*
X-10962766Y33590456D01*
X-10858688Y33746220D01*
X-10726230Y33878678D01*
X-10570466Y33982756D01*
X-10397396Y34054444D01*
X-10213667Y34090990D01*
X-10026333Y34090990D01*
X-9842604Y34054444D01*
X-9842604Y34054444D01*
G37*
G36*
X-12382604Y34054444D02*
X-12209534Y33982756D01*
X-12053770Y33878678D01*
X-11921312Y33746220D01*
X-11817234Y33590456D01*
X-11745546Y33417386D01*
X-11709000Y33233657D01*
X-11709000Y33046323D01*
X-11745546Y32862594D01*
X-11817234Y32689524D01*
X-11921312Y32533760D01*
X-12053770Y32401302D01*
X-12209534Y32297224D01*
X-12382604Y32225536D01*
X-12566333Y32188990D01*
X-12753667Y32188990D01*
X-12937396Y32225536D01*
X-13110466Y32297224D01*
X-13266230Y32401302D01*
X-13398688Y32533760D01*
X-13502766Y32689524D01*
X-13574454Y32862594D01*
X-13611000Y33046323D01*
X-13611000Y33233657D01*
X-13574454Y33417386D01*
X-13502766Y33590456D01*
X-13398688Y33746220D01*
X-13266230Y33878678D01*
X-13110466Y33982756D01*
X-12937396Y34054444D01*
X-12753667Y34090990D01*
X-12566333Y34090990D01*
X-12382604Y34054444D01*
X-12382604Y34054444D01*
G37*
G36*
X12937396Y34054444D02*
X13110466Y33982756D01*
X13266230Y33878678D01*
X13398688Y33746220D01*
X13502766Y33590456D01*
X13574454Y33417386D01*
X13611000Y33233657D01*
X13611000Y33046323D01*
X13574454Y32862594D01*
X13502766Y32689524D01*
X13398688Y32533760D01*
X13266230Y32401302D01*
X13110466Y32297224D01*
X12937396Y32225536D01*
X12753667Y32188990D01*
X12566333Y32188990D01*
X12382604Y32225536D01*
X12209534Y32297224D01*
X12053770Y32401302D01*
X11921312Y32533760D01*
X11817234Y32689524D01*
X11745546Y32862594D01*
X11709000Y33046323D01*
X11709000Y33233657D01*
X11745546Y33417386D01*
X11817234Y33590456D01*
X11921312Y33746220D01*
X12053770Y33878678D01*
X12209534Y33982756D01*
X12382604Y34054444D01*
X12566333Y34090990D01*
X12753667Y34090990D01*
X12937396Y34054444D01*
X12937396Y34054444D01*
G37*
G36*
X10477396Y34054444D02*
X10650466Y33982756D01*
X10806230Y33878678D01*
X10938688Y33746220D01*
X11042766Y33590456D01*
X11114454Y33417386D01*
X11151000Y33233657D01*
X11151000Y33046323D01*
X11114454Y32862594D01*
X11042766Y32689524D01*
X10938688Y32533760D01*
X10806230Y32401302D01*
X10650466Y32297224D01*
X10477396Y32225536D01*
X10293667Y32188990D01*
X10106333Y32188990D01*
X9922604Y32225536D01*
X9749534Y32297224D01*
X9593770Y32401302D01*
X9461312Y32533760D01*
X9357234Y32689524D01*
X9285546Y32862594D01*
X9249000Y33046323D01*
X9249000Y33233657D01*
X9285546Y33417386D01*
X9357234Y33590456D01*
X9461312Y33746220D01*
X9593770Y33878678D01*
X9749534Y33982756D01*
X9922604Y34054444D01*
X10106333Y34090990D01*
X10293667Y34090990D01*
X10477396Y34054444D01*
X10477396Y34054444D01*
G37*
G36*
X7937396Y34054444D02*
X8110466Y33982756D01*
X8266230Y33878678D01*
X8398688Y33746220D01*
X8502766Y33590456D01*
X8574454Y33417386D01*
X8611000Y33233657D01*
X8611000Y33046323D01*
X8574454Y32862594D01*
X8502766Y32689524D01*
X8398688Y32533760D01*
X8266230Y32401302D01*
X8110466Y32297224D01*
X7937396Y32225536D01*
X7753667Y32188990D01*
X7566333Y32188990D01*
X7382604Y32225536D01*
X7209534Y32297224D01*
X7053770Y32401302D01*
X6921312Y32533760D01*
X6817234Y32689524D01*
X6745546Y32862594D01*
X6709000Y33046323D01*
X6709000Y33233657D01*
X6745546Y33417386D01*
X6817234Y33590456D01*
X6921312Y33746220D01*
X7053770Y33878678D01*
X7209534Y33982756D01*
X7382604Y34054444D01*
X7566333Y34090990D01*
X7753667Y34090990D01*
X7937396Y34054444D01*
X7937396Y34054444D01*
G37*
G36*
X1380443Y36454481D02*
X1446627Y36447963D01*
X1559853Y36413616D01*
X1616467Y36396443D01*
X1755087Y36322348D01*
X1772991Y36312778D01*
X1808729Y36283448D01*
X1910186Y36200186D01*
X1993448Y36098729D01*
X2022778Y36062991D01*
X2022779Y36062989D01*
X2106443Y35906467D01*
X2106443Y35906466D01*
X2157963Y35736627D01*
X2175359Y35560000D01*
X2157963Y35383373D01*
X2123616Y35270147D01*
X2106443Y35213533D01*
X2032348Y35074913D01*
X2022778Y35057009D01*
X1993448Y35021271D01*
X1910186Y34919814D01*
X1808729Y34836552D01*
X1772991Y34807222D01*
X1772989Y34807221D01*
X1616467Y34723557D01*
X1559853Y34706384D01*
X1446627Y34672037D01*
X1380443Y34665519D01*
X1314260Y34659000D01*
X1225740Y34659000D01*
X1159557Y34665519D01*
X1093373Y34672037D01*
X980147Y34706384D01*
X923533Y34723557D01*
X767011Y34807221D01*
X767009Y34807222D01*
X731271Y34836552D01*
X629814Y34919814D01*
X546552Y35021271D01*
X517222Y35057009D01*
X507652Y35074913D01*
X433557Y35213533D01*
X416384Y35270147D01*
X382037Y35383373D01*
X364641Y35560000D01*
X382037Y35736627D01*
X433557Y35906466D01*
X433557Y35906467D01*
X517221Y36062989D01*
X517222Y36062991D01*
X546552Y36098729D01*
X629814Y36200186D01*
X731271Y36283448D01*
X767009Y36312778D01*
X784913Y36322348D01*
X923533Y36396443D01*
X980147Y36413616D01*
X1093373Y36447963D01*
X1159557Y36454481D01*
X1225740Y36461000D01*
X1314260Y36461000D01*
X1380443Y36454481D01*
X1380443Y36454481D01*
G37*
G36*
X-1159557Y36454481D02*
X-1093373Y36447963D01*
X-980147Y36413616D01*
X-923533Y36396443D01*
X-784913Y36322348D01*
X-767009Y36312778D01*
X-731271Y36283448D01*
X-629814Y36200186D01*
X-546552Y36098729D01*
X-517222Y36062991D01*
X-517221Y36062989D01*
X-433557Y35906467D01*
X-433557Y35906466D01*
X-382037Y35736627D01*
X-364641Y35560000D01*
X-382037Y35383373D01*
X-416384Y35270147D01*
X-433557Y35213533D01*
X-507652Y35074913D01*
X-517222Y35057009D01*
X-546552Y35021271D01*
X-629814Y34919814D01*
X-731271Y34836552D01*
X-767009Y34807222D01*
X-767011Y34807221D01*
X-923533Y34723557D01*
X-980147Y34706384D01*
X-1093373Y34672037D01*
X-1159557Y34665519D01*
X-1225740Y34659000D01*
X-1314260Y34659000D01*
X-1380443Y34665519D01*
X-1446627Y34672037D01*
X-1559853Y34706384D01*
X-1616467Y34723557D01*
X-1772989Y34807221D01*
X-1772991Y34807222D01*
X-1808729Y34836552D01*
X-1910186Y34919814D01*
X-1993448Y35021271D01*
X-2022778Y35057009D01*
X-2032348Y35074913D01*
X-2106443Y35213533D01*
X-2123616Y35270147D01*
X-2157963Y35383373D01*
X-2175359Y35560000D01*
X-2157963Y35736627D01*
X-2106443Y35906466D01*
X-2106443Y35906467D01*
X-2022779Y36062989D01*
X-2022778Y36062991D01*
X-1993448Y36098729D01*
X-1910186Y36200186D01*
X-1808729Y36283448D01*
X-1772991Y36312778D01*
X-1755087Y36322348D01*
X-1616467Y36396443D01*
X-1559853Y36413616D01*
X-1446627Y36447963D01*
X-1380443Y36454481D01*
X-1314260Y36461000D01*
X-1225740Y36461000D01*
X-1159557Y36454481D01*
X-1159557Y36454481D01*
G37*
G36*
X1380442Y38994482D02*
X1446627Y38987963D01*
X1559853Y38953616D01*
X1616467Y38936443D01*
X1755087Y38862348D01*
X1772991Y38852778D01*
X1808729Y38823448D01*
X1910186Y38740186D01*
X1993448Y38638729D01*
X2022778Y38602991D01*
X2022779Y38602989D01*
X2106443Y38446467D01*
X2106443Y38446466D01*
X2157963Y38276627D01*
X2175359Y38100000D01*
X2157963Y37923373D01*
X2123616Y37810147D01*
X2106443Y37753533D01*
X2032348Y37614913D01*
X2022778Y37597009D01*
X1993448Y37561271D01*
X1910186Y37459814D01*
X1808729Y37376552D01*
X1772991Y37347222D01*
X1772989Y37347221D01*
X1616467Y37263557D01*
X1559853Y37246384D01*
X1446627Y37212037D01*
X1380443Y37205519D01*
X1314260Y37199000D01*
X1225740Y37199000D01*
X1159557Y37205519D01*
X1093373Y37212037D01*
X980147Y37246384D01*
X923533Y37263557D01*
X767011Y37347221D01*
X767009Y37347222D01*
X731271Y37376552D01*
X629814Y37459814D01*
X546552Y37561271D01*
X517222Y37597009D01*
X507652Y37614913D01*
X433557Y37753533D01*
X416384Y37810147D01*
X382037Y37923373D01*
X364641Y38100000D01*
X382037Y38276627D01*
X433557Y38446466D01*
X433557Y38446467D01*
X517221Y38602989D01*
X517222Y38602991D01*
X546552Y38638729D01*
X629814Y38740186D01*
X731271Y38823448D01*
X767009Y38852778D01*
X784913Y38862348D01*
X923533Y38936443D01*
X980147Y38953616D01*
X1093373Y38987963D01*
X1159558Y38994482D01*
X1225740Y39001000D01*
X1314260Y39001000D01*
X1380442Y38994482D01*
X1380442Y38994482D01*
G37*
G36*
X-1159558Y38994482D02*
X-1093373Y38987963D01*
X-980147Y38953616D01*
X-923533Y38936443D01*
X-784913Y38862348D01*
X-767009Y38852778D01*
X-731271Y38823448D01*
X-629814Y38740186D01*
X-546552Y38638729D01*
X-517222Y38602991D01*
X-517221Y38602989D01*
X-433557Y38446467D01*
X-433557Y38446466D01*
X-382037Y38276627D01*
X-364641Y38100000D01*
X-382037Y37923373D01*
X-416384Y37810147D01*
X-433557Y37753533D01*
X-507652Y37614913D01*
X-517222Y37597009D01*
X-546552Y37561271D01*
X-629814Y37459814D01*
X-731271Y37376552D01*
X-767009Y37347222D01*
X-767011Y37347221D01*
X-923533Y37263557D01*
X-980147Y37246384D01*
X-1093373Y37212037D01*
X-1159557Y37205519D01*
X-1225740Y37199000D01*
X-1314260Y37199000D01*
X-1380443Y37205519D01*
X-1446627Y37212037D01*
X-1559853Y37246384D01*
X-1616467Y37263557D01*
X-1772989Y37347221D01*
X-1772991Y37347222D01*
X-1808729Y37376552D01*
X-1910186Y37459814D01*
X-1993448Y37561271D01*
X-2022778Y37597009D01*
X-2032348Y37614913D01*
X-2106443Y37753533D01*
X-2123616Y37810147D01*
X-2157963Y37923373D01*
X-2175359Y38100000D01*
X-2157963Y38276627D01*
X-2106443Y38446466D01*
X-2106443Y38446467D01*
X-2022779Y38602989D01*
X-2022778Y38602991D01*
X-1993448Y38638729D01*
X-1910186Y38740186D01*
X-1808729Y38823448D01*
X-1772991Y38852778D01*
X-1755087Y38862348D01*
X-1616467Y38936443D01*
X-1559853Y38953616D01*
X-1446627Y38987963D01*
X-1380442Y38994482D01*
X-1314260Y39001000D01*
X-1225740Y39001000D01*
X-1159558Y38994482D01*
X-1159558Y38994482D01*
G37*
G36*
X5884180Y41784338D02*
X5985635Y41774346D01*
X6202600Y41708530D01*
X6202602Y41708529D01*
X6202605Y41708528D01*
X6402556Y41601653D01*
X6577818Y41457818D01*
X6721653Y41282556D01*
X6828528Y41082605D01*
X6828529Y41082602D01*
X6828530Y41082600D01*
X6894346Y40865635D01*
X6916569Y40640000D01*
X6894346Y40414365D01*
X6828530Y40197400D01*
X6828528Y40197395D01*
X6721653Y39997444D01*
X6577818Y39822182D01*
X6402556Y39678347D01*
X6202605Y39571472D01*
X6202602Y39571471D01*
X6202600Y39571470D01*
X5985635Y39505654D01*
X5884180Y39495662D01*
X5816545Y39489000D01*
X4903455Y39489000D01*
X4835820Y39495662D01*
X4734365Y39505654D01*
X4517400Y39571470D01*
X4517398Y39571471D01*
X4517395Y39571472D01*
X4317444Y39678347D01*
X4142182Y39822182D01*
X3998347Y39997444D01*
X3891472Y40197395D01*
X3891470Y40197400D01*
X3825654Y40414365D01*
X3803431Y40640000D01*
X3825654Y40865635D01*
X3891470Y41082600D01*
X3891471Y41082602D01*
X3891472Y41082605D01*
X3998347Y41282556D01*
X4142182Y41457818D01*
X4317444Y41601653D01*
X4517395Y41708528D01*
X4517398Y41708529D01*
X4517400Y41708530D01*
X4734365Y41774346D01*
X4835820Y41784338D01*
X4903455Y41791000D01*
X5816545Y41791000D01*
X5884180Y41784338D01*
X5884180Y41784338D01*
G37*
G36*
X15484180Y41784338D02*
X15585635Y41774346D01*
X15802600Y41708530D01*
X15802602Y41708529D01*
X15802605Y41708528D01*
X16002556Y41601653D01*
X16177818Y41457818D01*
X16321653Y41282556D01*
X16428528Y41082605D01*
X16428529Y41082602D01*
X16428530Y41082600D01*
X16494346Y40865635D01*
X16516569Y40640000D01*
X16494346Y40414365D01*
X16428530Y40197400D01*
X16428528Y40197395D01*
X16321653Y39997444D01*
X16177818Y39822182D01*
X16002556Y39678347D01*
X15802605Y39571472D01*
X15802602Y39571471D01*
X15802600Y39571470D01*
X15585635Y39505654D01*
X15484180Y39495662D01*
X15416545Y39489000D01*
X14503455Y39489000D01*
X14435820Y39495662D01*
X14334365Y39505654D01*
X14117400Y39571470D01*
X14117398Y39571471D01*
X14117395Y39571472D01*
X13917444Y39678347D01*
X13742182Y39822182D01*
X13598347Y39997444D01*
X13491472Y40197395D01*
X13491470Y40197400D01*
X13425654Y40414365D01*
X13403431Y40640000D01*
X13425654Y40865635D01*
X13491470Y41082600D01*
X13491471Y41082602D01*
X13491472Y41082605D01*
X13598347Y41282556D01*
X13742182Y41457818D01*
X13917444Y41601653D01*
X14117395Y41708528D01*
X14117398Y41708529D01*
X14117400Y41708530D01*
X14334365Y41774346D01*
X14435820Y41784338D01*
X14503455Y41791000D01*
X15416545Y41791000D01*
X15484180Y41784338D01*
X15484180Y41784338D01*
G37*
G36*
X-14435820Y41784338D02*
X-14334365Y41774346D01*
X-14117400Y41708530D01*
X-14117398Y41708529D01*
X-14117395Y41708528D01*
X-13917444Y41601653D01*
X-13742182Y41457818D01*
X-13598347Y41282556D01*
X-13491472Y41082605D01*
X-13491471Y41082602D01*
X-13491470Y41082600D01*
X-13425654Y40865635D01*
X-13403431Y40640000D01*
X-13425654Y40414365D01*
X-13491470Y40197400D01*
X-13491472Y40197395D01*
X-13598347Y39997444D01*
X-13742182Y39822182D01*
X-13917444Y39678347D01*
X-14117395Y39571472D01*
X-14117398Y39571471D01*
X-14117400Y39571470D01*
X-14334365Y39505654D01*
X-14435820Y39495662D01*
X-14503455Y39489000D01*
X-15416545Y39489000D01*
X-15484180Y39495662D01*
X-15585635Y39505654D01*
X-15802600Y39571470D01*
X-15802602Y39571471D01*
X-15802605Y39571472D01*
X-16002556Y39678347D01*
X-16177818Y39822182D01*
X-16321653Y39997444D01*
X-16428528Y40197395D01*
X-16428530Y40197400D01*
X-16494346Y40414365D01*
X-16516569Y40640000D01*
X-16494346Y40865635D01*
X-16428530Y41082600D01*
X-16428529Y41082602D01*
X-16428528Y41082605D01*
X-16321653Y41282556D01*
X-16177818Y41457818D01*
X-16002556Y41601653D01*
X-15802605Y41708528D01*
X-15802602Y41708529D01*
X-15802600Y41708530D01*
X-15585635Y41774346D01*
X-15484180Y41784338D01*
X-15416545Y41791000D01*
X-14503455Y41791000D01*
X-14435820Y41784338D01*
X-14435820Y41784338D01*
G37*
G36*
X-4835820Y41784338D02*
X-4734365Y41774346D01*
X-4517400Y41708530D01*
X-4517398Y41708529D01*
X-4517395Y41708528D01*
X-4317444Y41601653D01*
X-4142182Y41457818D01*
X-3998347Y41282556D01*
X-3891472Y41082605D01*
X-3891471Y41082602D01*
X-3891470Y41082600D01*
X-3825654Y40865635D01*
X-3803431Y40640000D01*
X-3825654Y40414365D01*
X-3891470Y40197400D01*
X-3891472Y40197395D01*
X-3998347Y39997444D01*
X-4142182Y39822182D01*
X-4317444Y39678347D01*
X-4517395Y39571472D01*
X-4517398Y39571471D01*
X-4517400Y39571470D01*
X-4734365Y39505654D01*
X-4835820Y39495662D01*
X-4903455Y39489000D01*
X-5816545Y39489000D01*
X-5884180Y39495662D01*
X-5985635Y39505654D01*
X-6202600Y39571470D01*
X-6202602Y39571471D01*
X-6202605Y39571472D01*
X-6402556Y39678347D01*
X-6577818Y39822182D01*
X-6721653Y39997444D01*
X-6828528Y40197395D01*
X-6828530Y40197400D01*
X-6894346Y40414365D01*
X-6916569Y40640000D01*
X-6894346Y40865635D01*
X-6828530Y41082600D01*
X-6828529Y41082602D01*
X-6828528Y41082605D01*
X-6721653Y41282556D01*
X-6577818Y41457818D01*
X-6402556Y41601653D01*
X-6202605Y41708528D01*
X-6202602Y41708529D01*
X-6202600Y41708530D01*
X-5985635Y41774346D01*
X-5884180Y41784338D01*
X-5816545Y41791000D01*
X-4903455Y41791000D01*
X-4835820Y41784338D01*
X-4835820Y41784338D01*
G37*
G36*
X-1159557Y41534481D02*
X-1093373Y41527963D01*
X-980147Y41493616D01*
X-923533Y41476443D01*
X-888689Y41457818D01*
X-767009Y41392778D01*
X-731271Y41363448D01*
X-629814Y41280186D01*
X-546552Y41178729D01*
X-517222Y41142991D01*
X-517221Y41142989D01*
X-433557Y40986467D01*
X-433557Y40986466D01*
X-382037Y40816627D01*
X-364641Y40640000D01*
X-382037Y40463373D01*
X-416384Y40350147D01*
X-433557Y40293533D01*
X-484942Y40197400D01*
X-517222Y40137009D01*
X-546552Y40101271D01*
X-629814Y39999814D01*
X-731271Y39916552D01*
X-767009Y39887222D01*
X-767011Y39887221D01*
X-923533Y39803557D01*
X-980147Y39786384D01*
X-1093373Y39752037D01*
X-1159558Y39745518D01*
X-1225740Y39739000D01*
X-1314260Y39739000D01*
X-1380442Y39745518D01*
X-1446627Y39752037D01*
X-1559853Y39786384D01*
X-1616467Y39803557D01*
X-1772989Y39887221D01*
X-1772991Y39887222D01*
X-1808729Y39916552D01*
X-1910186Y39999814D01*
X-1993448Y40101271D01*
X-2022778Y40137009D01*
X-2055058Y40197400D01*
X-2106443Y40293533D01*
X-2123616Y40350147D01*
X-2157963Y40463373D01*
X-2175359Y40640000D01*
X-2157963Y40816627D01*
X-2106443Y40986466D01*
X-2106443Y40986467D01*
X-2022779Y41142989D01*
X-2022778Y41142991D01*
X-1993448Y41178729D01*
X-1910186Y41280186D01*
X-1808729Y41363448D01*
X-1772991Y41392778D01*
X-1651311Y41457818D01*
X-1616467Y41476443D01*
X-1559853Y41493616D01*
X-1446627Y41527963D01*
X-1380443Y41534481D01*
X-1314260Y41541000D01*
X-1225740Y41541000D01*
X-1159557Y41534481D01*
X-1159557Y41534481D01*
G37*
G36*
X1380443Y41534481D02*
X1446627Y41527963D01*
X1559853Y41493616D01*
X1616467Y41476443D01*
X1651311Y41457818D01*
X1772991Y41392778D01*
X1808729Y41363448D01*
X1910186Y41280186D01*
X1993448Y41178729D01*
X2022778Y41142991D01*
X2022779Y41142989D01*
X2106443Y40986467D01*
X2106443Y40986466D01*
X2157963Y40816627D01*
X2175359Y40640000D01*
X2157963Y40463373D01*
X2123616Y40350147D01*
X2106443Y40293533D01*
X2055058Y40197400D01*
X2022778Y40137009D01*
X1993448Y40101271D01*
X1910186Y39999814D01*
X1808729Y39916552D01*
X1772991Y39887222D01*
X1772989Y39887221D01*
X1616467Y39803557D01*
X1559853Y39786384D01*
X1446627Y39752037D01*
X1380442Y39745518D01*
X1314260Y39739000D01*
X1225740Y39739000D01*
X1159558Y39745518D01*
X1093373Y39752037D01*
X980147Y39786384D01*
X923533Y39803557D01*
X767011Y39887221D01*
X767009Y39887222D01*
X731271Y39916552D01*
X629814Y39999814D01*
X546552Y40101271D01*
X517222Y40137009D01*
X484942Y40197400D01*
X433557Y40293533D01*
X416384Y40350147D01*
X382037Y40463373D01*
X364641Y40640000D01*
X382037Y40816627D01*
X433557Y40986466D01*
X433557Y40986467D01*
X517221Y41142989D01*
X517222Y41142991D01*
X546552Y41178729D01*
X629814Y41280186D01*
X731271Y41363448D01*
X767009Y41392778D01*
X888689Y41457818D01*
X923533Y41476443D01*
X980147Y41493616D01*
X1093373Y41527963D01*
X1159557Y41534481D01*
X1225740Y41541000D01*
X1314260Y41541000D01*
X1380443Y41534481D01*
X1380443Y41534481D01*
G37*
G36*
X-1159558Y44074482D02*
X-1093373Y44067963D01*
X-980147Y44033616D01*
X-923533Y44016443D01*
X-784913Y43942348D01*
X-767009Y43932778D01*
X-731271Y43903448D01*
X-629814Y43820186D01*
X-546552Y43718729D01*
X-517222Y43682991D01*
X-517221Y43682989D01*
X-433557Y43526467D01*
X-433557Y43526466D01*
X-382037Y43356627D01*
X-364641Y43180000D01*
X-382037Y43003373D01*
X-416384Y42890147D01*
X-433557Y42833533D01*
X-507652Y42694913D01*
X-517222Y42677009D01*
X-546552Y42641271D01*
X-629814Y42539814D01*
X-731271Y42456552D01*
X-767009Y42427222D01*
X-767011Y42427221D01*
X-923533Y42343557D01*
X-980147Y42326384D01*
X-1093373Y42292037D01*
X-1159558Y42285518D01*
X-1225740Y42279000D01*
X-1314260Y42279000D01*
X-1380442Y42285518D01*
X-1446627Y42292037D01*
X-1559853Y42326384D01*
X-1616467Y42343557D01*
X-1772989Y42427221D01*
X-1772991Y42427222D01*
X-1808729Y42456552D01*
X-1910186Y42539814D01*
X-1993448Y42641271D01*
X-2022778Y42677009D01*
X-2032348Y42694913D01*
X-2106443Y42833533D01*
X-2123616Y42890147D01*
X-2157963Y43003373D01*
X-2175359Y43180000D01*
X-2157963Y43356627D01*
X-2106443Y43526466D01*
X-2106443Y43526467D01*
X-2022779Y43682989D01*
X-2022778Y43682991D01*
X-1993448Y43718729D01*
X-1910186Y43820186D01*
X-1808729Y43903448D01*
X-1772991Y43932778D01*
X-1755087Y43942348D01*
X-1616467Y44016443D01*
X-1559853Y44033616D01*
X-1446627Y44067963D01*
X-1380442Y44074482D01*
X-1314260Y44081000D01*
X-1225740Y44081000D01*
X-1159558Y44074482D01*
X-1159558Y44074482D01*
G37*
G36*
X1380442Y44074482D02*
X1446627Y44067963D01*
X1559853Y44033616D01*
X1616467Y44016443D01*
X1755087Y43942348D01*
X1772991Y43932778D01*
X1808729Y43903448D01*
X1910186Y43820186D01*
X1993448Y43718729D01*
X2022778Y43682991D01*
X2022779Y43682989D01*
X2106443Y43526467D01*
X2106443Y43526466D01*
X2157963Y43356627D01*
X2175359Y43180000D01*
X2157963Y43003373D01*
X2123616Y42890147D01*
X2106443Y42833533D01*
X2032348Y42694913D01*
X2022778Y42677009D01*
X1993448Y42641271D01*
X1910186Y42539814D01*
X1808729Y42456552D01*
X1772991Y42427222D01*
X1772989Y42427221D01*
X1616467Y42343557D01*
X1559853Y42326384D01*
X1446627Y42292037D01*
X1380442Y42285518D01*
X1314260Y42279000D01*
X1225740Y42279000D01*
X1159558Y42285518D01*
X1093373Y42292037D01*
X980147Y42326384D01*
X923533Y42343557D01*
X767011Y42427221D01*
X767009Y42427222D01*
X731271Y42456552D01*
X629814Y42539814D01*
X546552Y42641271D01*
X517222Y42677009D01*
X507652Y42694913D01*
X433557Y42833533D01*
X416384Y42890147D01*
X382037Y43003373D01*
X364641Y43180000D01*
X382037Y43356627D01*
X433557Y43526466D01*
X433557Y43526467D01*
X517221Y43682989D01*
X517222Y43682991D01*
X546552Y43718729D01*
X629814Y43820186D01*
X731271Y43903448D01*
X767009Y43932778D01*
X784913Y43942348D01*
X923533Y44016443D01*
X980147Y44033616D01*
X1093373Y44067963D01*
X1159558Y44074482D01*
X1225740Y44081000D01*
X1314260Y44081000D01*
X1380442Y44074482D01*
X1380442Y44074482D01*
G37*
M02*
