G04 #@! TF.GenerationSoftware,KiCad,Pcbnew,(5.0.1-3-g963ef8bb5)*
G04 #@! TF.CreationDate,2018-11-04T18:49:05+08:00*
G04 #@! TF.ProjectId,SteinerVCF,537465696E65725643462E6B69636164,rev?*
G04 #@! TF.SameCoordinates,PX8d9ee20PY6422c40*
G04 #@! TF.FileFunction,Soldermask,Bot*
G04 #@! TF.FilePolarity,Negative*
%FSLAX46Y46*%
G04 Gerber Fmt 4.6, Leading zero omitted, Abs format (unit mm)*
G04 Created by KiCad (PCBNEW (5.0.1-3-g963ef8bb5)) date 2018 November 04, Sunday 18:49:05*
%MOMM*%
%LPD*%
G01*
G04 APERTURE LIST*
%ADD10C,0.100000*%
G04 APERTURE END LIST*
D10*
G36*
X-13373179Y-44381313D02*
X-13373176Y-44381314D01*
X-13373175Y-44381314D01*
X-13212761Y-44429975D01*
X-13212759Y-44429976D01*
X-13212756Y-44429977D01*
X-13064922Y-44508995D01*
X-12935341Y-44615341D01*
X-12828995Y-44744922D01*
X-12749977Y-44892756D01*
X-12749977Y-44892757D01*
X-12749975Y-44892761D01*
X-12713508Y-45012977D01*
X-12701313Y-45053179D01*
X-12689000Y-45178197D01*
X-12689000Y-46261804D01*
X-12701313Y-46386821D01*
X-12701314Y-46386824D01*
X-12701314Y-46386825D01*
X-12719640Y-46447239D01*
X-12749977Y-46547244D01*
X-12828995Y-46695078D01*
X-12935341Y-46824659D01*
X-13064922Y-46931005D01*
X-13212757Y-47010023D01*
X-13212760Y-47010024D01*
X-13212762Y-47010025D01*
X-13373176Y-47058686D01*
X-13373177Y-47058686D01*
X-13373180Y-47058687D01*
X-13540000Y-47075117D01*
X-13706821Y-47058687D01*
X-13706824Y-47058686D01*
X-13706825Y-47058686D01*
X-13867239Y-47010025D01*
X-13867241Y-47010024D01*
X-13867244Y-47010023D01*
X-14015078Y-46931005D01*
X-14144659Y-46824659D01*
X-14251005Y-46695078D01*
X-14330023Y-46547243D01*
X-14360357Y-46447244D01*
X-14378686Y-46386824D01*
X-14378686Y-46386823D01*
X-14378687Y-46386820D01*
X-14391000Y-46261803D01*
X-14390999Y-45178196D01*
X-14378686Y-45053179D01*
X-14366491Y-45012977D01*
X-14330024Y-44892761D01*
X-14330022Y-44892757D01*
X-14330022Y-44892756D01*
X-14251004Y-44744922D01*
X-14144658Y-44615341D01*
X-14015077Y-44508995D01*
X-13867243Y-44429977D01*
X-13867240Y-44429976D01*
X-13867238Y-44429975D01*
X-13706824Y-44381314D01*
X-13706823Y-44381314D01*
X-13706820Y-44381313D01*
X-13540000Y-44364883D01*
X-13373179Y-44381313D01*
X-13373179Y-44381313D01*
G37*
G36*
X13706820Y-44381313D02*
X13706823Y-44381314D01*
X13706824Y-44381314D01*
X13867238Y-44429975D01*
X13867240Y-44429976D01*
X13867243Y-44429977D01*
X14015078Y-44508995D01*
X14144659Y-44615341D01*
X14251005Y-44744922D01*
X14330023Y-44892756D01*
X14330023Y-44892757D01*
X14330025Y-44892761D01*
X14366492Y-45012977D01*
X14378687Y-45053179D01*
X14391000Y-45178196D01*
X14391000Y-46261803D01*
X14378687Y-46386821D01*
X14378686Y-46386824D01*
X14378686Y-46386825D01*
X14360360Y-46447239D01*
X14330023Y-46547244D01*
X14251005Y-46695078D01*
X14144659Y-46824659D01*
X14015078Y-46931005D01*
X13867244Y-47010023D01*
X13867241Y-47010024D01*
X13867239Y-47010025D01*
X13706825Y-47058686D01*
X13706824Y-47058686D01*
X13706821Y-47058687D01*
X13540000Y-47075117D01*
X13373180Y-47058687D01*
X13373177Y-47058686D01*
X13373176Y-47058686D01*
X13212762Y-47010025D01*
X13212760Y-47010024D01*
X13212757Y-47010023D01*
X13064923Y-46931005D01*
X12935342Y-46824659D01*
X12828996Y-46695078D01*
X12749978Y-46547244D01*
X12719642Y-46447239D01*
X12701315Y-46386825D01*
X12701315Y-46386824D01*
X12701314Y-46386821D01*
X12689001Y-46261804D01*
X12689000Y-45178197D01*
X12701313Y-45053180D01*
X12701314Y-45053176D01*
X12749975Y-44892762D01*
X12749976Y-44892760D01*
X12749977Y-44892757D01*
X12828995Y-44744922D01*
X12935341Y-44615341D01*
X13064922Y-44508995D01*
X13212756Y-44429977D01*
X13212759Y-44429976D01*
X13212761Y-44429975D01*
X13373175Y-44381314D01*
X13373176Y-44381314D01*
X13373179Y-44381313D01*
X13540000Y-44364883D01*
X13706820Y-44381313D01*
X13706820Y-44381313D01*
G37*
G36*
X-5082975Y-44380590D02*
X-4931988Y-44426392D01*
X-4792835Y-44500770D01*
X-4670867Y-44600867D01*
X-4570770Y-44722835D01*
X-4496392Y-44861988D01*
X-4450590Y-45012975D01*
X-4439000Y-45130654D01*
X-4439000Y-46309346D01*
X-4450590Y-46427025D01*
X-4496392Y-46578012D01*
X-4570770Y-46717165D01*
X-4670864Y-46839130D01*
X-4670866Y-46839131D01*
X-4670867Y-46839133D01*
X-4725013Y-46883569D01*
X-4792839Y-46939232D01*
X-4931989Y-47013608D01*
X-5082976Y-47059410D01*
X-5240000Y-47074875D01*
X-5397025Y-47059410D01*
X-5548012Y-47013608D01*
X-5687165Y-46939230D01*
X-5809130Y-46839136D01*
X-5809131Y-46839134D01*
X-5809133Y-46839133D01*
X-5859181Y-46778148D01*
X-5909232Y-46717161D01*
X-5983608Y-46578011D01*
X-6029410Y-46427024D01*
X-6041000Y-46309345D01*
X-6040999Y-45130654D01*
X-6029409Y-45012975D01*
X-5983607Y-44861988D01*
X-5909229Y-44722835D01*
X-5809132Y-44600867D01*
X-5687164Y-44500770D01*
X-5548011Y-44426392D01*
X-5397024Y-44380590D01*
X-5240000Y-44365125D01*
X-5082975Y-44380590D01*
X-5082975Y-44380590D01*
G37*
G36*
X5397024Y-44380590D02*
X5548011Y-44426392D01*
X5687161Y-44500768D01*
X5722750Y-44529975D01*
X5809133Y-44600867D01*
X5809134Y-44600869D01*
X5809136Y-44600870D01*
X5909230Y-44722835D01*
X5983608Y-44861988D01*
X6029410Y-45012975D01*
X6041000Y-45130654D01*
X6041000Y-46309346D01*
X6029410Y-46427025D01*
X5983608Y-46578012D01*
X5909230Y-46717165D01*
X5809133Y-46839133D01*
X5687165Y-46939230D01*
X5548012Y-47013608D01*
X5397025Y-47059410D01*
X5240000Y-47074875D01*
X5082976Y-47059410D01*
X4931989Y-47013608D01*
X4792836Y-46939230D01*
X4670868Y-46839133D01*
X4570771Y-46717165D01*
X4496393Y-46578012D01*
X4450591Y-46427025D01*
X4439001Y-46309346D01*
X4439000Y-45130655D01*
X4450590Y-45012976D01*
X4496392Y-44861989D01*
X4570768Y-44722839D01*
X4638260Y-44640599D01*
X4670867Y-44600867D01*
X4670869Y-44600866D01*
X4670870Y-44600864D01*
X4792835Y-44500770D01*
X4931988Y-44426392D01*
X5082975Y-44380590D01*
X5240000Y-44365125D01*
X5397024Y-44380590D01*
X5397024Y-44380590D01*
G37*
G36*
X-9272409Y-46023085D02*
X-9238431Y-46033393D01*
X-9207113Y-46050133D01*
X-9179661Y-46072661D01*
X-9157133Y-46100113D01*
X-9140393Y-46131431D01*
X-9130085Y-46165409D01*
X-9126000Y-46206890D01*
X-9126000Y-46808110D01*
X-9130085Y-46849591D01*
X-9140393Y-46883569D01*
X-9157133Y-46914887D01*
X-9179661Y-46942339D01*
X-9207113Y-46964867D01*
X-9238431Y-46981607D01*
X-9272409Y-46991915D01*
X-9313890Y-46996000D01*
X-9990110Y-46996000D01*
X-10031591Y-46991915D01*
X-10065569Y-46981607D01*
X-10096887Y-46964867D01*
X-10124339Y-46942339D01*
X-10146867Y-46914887D01*
X-10163607Y-46883569D01*
X-10173915Y-46849591D01*
X-10178000Y-46808110D01*
X-10178000Y-46206890D01*
X-10173915Y-46165409D01*
X-10163607Y-46131431D01*
X-10146867Y-46100113D01*
X-10124339Y-46072661D01*
X-10096887Y-46050133D01*
X-10065569Y-46033393D01*
X-10031591Y-46023085D01*
X-9990110Y-46019000D01*
X-9313890Y-46019000D01*
X-9272409Y-46023085D01*
X-9272409Y-46023085D01*
G37*
G36*
X-16473179Y-44481313D02*
X-16473176Y-44481314D01*
X-16473175Y-44481314D01*
X-16312761Y-44529975D01*
X-16312759Y-44529976D01*
X-16312756Y-44529977D01*
X-16164922Y-44608995D01*
X-16035341Y-44715341D01*
X-15928995Y-44844922D01*
X-15849977Y-44992756D01*
X-15849977Y-44992757D01*
X-15849975Y-44992761D01*
X-15801314Y-45153175D01*
X-15801314Y-45153176D01*
X-15801313Y-45153180D01*
X-15789000Y-45278197D01*
X-15789000Y-46161804D01*
X-15801313Y-46286821D01*
X-15801314Y-46286824D01*
X-15801314Y-46286825D01*
X-15843843Y-46427025D01*
X-15849977Y-46447244D01*
X-15928995Y-46595078D01*
X-16035341Y-46724659D01*
X-16164922Y-46831005D01*
X-16312757Y-46910023D01*
X-16312760Y-46910024D01*
X-16312762Y-46910025D01*
X-16473176Y-46958686D01*
X-16473177Y-46958686D01*
X-16473180Y-46958687D01*
X-16640000Y-46975117D01*
X-16806821Y-46958687D01*
X-16806824Y-46958686D01*
X-16806825Y-46958686D01*
X-16967239Y-46910025D01*
X-16967241Y-46910024D01*
X-16967244Y-46910023D01*
X-17115078Y-46831005D01*
X-17244659Y-46724659D01*
X-17351005Y-46595078D01*
X-17430023Y-46447243D01*
X-17436156Y-46427025D01*
X-17478686Y-46286824D01*
X-17478686Y-46286823D01*
X-17478687Y-46286820D01*
X-17491000Y-46161803D01*
X-17491000Y-45278197D01*
X-17478686Y-45153179D01*
X-17471854Y-45130656D01*
X-17430024Y-44992761D01*
X-17430022Y-44992757D01*
X-17430022Y-44992756D01*
X-17351004Y-44844922D01*
X-17244658Y-44715341D01*
X-17115077Y-44608995D01*
X-16967243Y-44529977D01*
X-16967240Y-44529976D01*
X-16967238Y-44529975D01*
X-16806824Y-44481314D01*
X-16806823Y-44481314D01*
X-16806820Y-44481313D01*
X-16640000Y-44464883D01*
X-16473179Y-44481313D01*
X-16473179Y-44481313D01*
G37*
G36*
X16806820Y-44481313D02*
X16806823Y-44481314D01*
X16806824Y-44481314D01*
X16967238Y-44529975D01*
X16967240Y-44529976D01*
X16967243Y-44529977D01*
X17115078Y-44608995D01*
X17244659Y-44715341D01*
X17351005Y-44844922D01*
X17430023Y-44992756D01*
X17430023Y-44992757D01*
X17430025Y-44992761D01*
X17471855Y-45130656D01*
X17478687Y-45153179D01*
X17491000Y-45278196D01*
X17491000Y-46161803D01*
X17478687Y-46286820D01*
X17478686Y-46286822D01*
X17478686Y-46286825D01*
X17430025Y-46447238D01*
X17430023Y-46447244D01*
X17351005Y-46595078D01*
X17244659Y-46724659D01*
X17115078Y-46831005D01*
X16967244Y-46910023D01*
X16967241Y-46910024D01*
X16967239Y-46910025D01*
X16806825Y-46958686D01*
X16806824Y-46958686D01*
X16806821Y-46958687D01*
X16640000Y-46975117D01*
X16473180Y-46958687D01*
X16473177Y-46958686D01*
X16473176Y-46958686D01*
X16312762Y-46910025D01*
X16312760Y-46910024D01*
X16312757Y-46910023D01*
X16164923Y-46831005D01*
X16035342Y-46724659D01*
X15928996Y-46595078D01*
X15849978Y-46447244D01*
X15843845Y-46427025D01*
X15801315Y-46286825D01*
X15801315Y-46286824D01*
X15801314Y-46286821D01*
X15789000Y-46161803D01*
X15789000Y-45278197D01*
X15801313Y-45153180D01*
X15801314Y-45153176D01*
X15849975Y-44992762D01*
X15849976Y-44992760D01*
X15849977Y-44992757D01*
X15928995Y-44844922D01*
X16035341Y-44715341D01*
X16164922Y-44608995D01*
X16312756Y-44529977D01*
X16312759Y-44529976D01*
X16312761Y-44529975D01*
X16473175Y-44481314D01*
X16473176Y-44481314D01*
X16473179Y-44481313D01*
X16640000Y-44464883D01*
X16806820Y-44481313D01*
X16806820Y-44481313D01*
G37*
G36*
X-9272409Y-44448085D02*
X-9238431Y-44458393D01*
X-9207113Y-44475133D01*
X-9179661Y-44497661D01*
X-9157133Y-44525113D01*
X-9140393Y-44556431D01*
X-9130085Y-44590409D01*
X-9126000Y-44631890D01*
X-9126000Y-45233110D01*
X-9130085Y-45274591D01*
X-9140393Y-45308569D01*
X-9157133Y-45339887D01*
X-9179661Y-45367339D01*
X-9207113Y-45389867D01*
X-9238431Y-45406607D01*
X-9272409Y-45416915D01*
X-9313890Y-45421000D01*
X-9990110Y-45421000D01*
X-10031591Y-45416915D01*
X-10065569Y-45406607D01*
X-10096887Y-45389867D01*
X-10124339Y-45367339D01*
X-10146867Y-45339887D01*
X-10163607Y-45308569D01*
X-10173915Y-45274591D01*
X-10178000Y-45233110D01*
X-10178000Y-44631890D01*
X-10173915Y-44590409D01*
X-10163607Y-44556431D01*
X-10146867Y-44525113D01*
X-10124339Y-44497661D01*
X-10096887Y-44475133D01*
X-10065569Y-44458393D01*
X-10031591Y-44448085D01*
X-9990110Y-44444000D01*
X-9313890Y-44444000D01*
X-9272409Y-44448085D01*
X-9272409Y-44448085D01*
G37*
G36*
X-13065000Y-42791000D02*
X-14367000Y-42791000D01*
X-14367000Y-41789000D01*
X-13065000Y-41789000D01*
X-13065000Y-42791000D01*
X-13065000Y-42791000D01*
G37*
G36*
X-16113000Y-42791000D02*
X-17415000Y-42791000D01*
X-17415000Y-41789000D01*
X-16113000Y-41789000D01*
X-16113000Y-42791000D01*
X-16113000Y-42791000D01*
G37*
G36*
X10031591Y-41451085D02*
X10065569Y-41461393D01*
X10096887Y-41478133D01*
X10124339Y-41500661D01*
X10146867Y-41528113D01*
X10163607Y-41559431D01*
X10173915Y-41593409D01*
X10178000Y-41634890D01*
X10178000Y-42236110D01*
X10173915Y-42277591D01*
X10163607Y-42311569D01*
X10146867Y-42342887D01*
X10124339Y-42370339D01*
X10096887Y-42392867D01*
X10065569Y-42409607D01*
X10031591Y-42419915D01*
X9990110Y-42424000D01*
X9313890Y-42424000D01*
X9272409Y-42419915D01*
X9238431Y-42409607D01*
X9207113Y-42392867D01*
X9179661Y-42370339D01*
X9157133Y-42342887D01*
X9140393Y-42311569D01*
X9130085Y-42277591D01*
X9126000Y-42236110D01*
X9126000Y-41634890D01*
X9130085Y-41593409D01*
X9140393Y-41559431D01*
X9157133Y-41528113D01*
X9179661Y-41500661D01*
X9207113Y-41478133D01*
X9238431Y-41461393D01*
X9272409Y-41451085D01*
X9313890Y-41447000D01*
X9990110Y-41447000D01*
X10031591Y-41451085D01*
X10031591Y-41451085D01*
G37*
G36*
X5967591Y-41451085D02*
X6001569Y-41461393D01*
X6032887Y-41478133D01*
X6060339Y-41500661D01*
X6082867Y-41528113D01*
X6099607Y-41559431D01*
X6109915Y-41593409D01*
X6114000Y-41634890D01*
X6114000Y-42236110D01*
X6109915Y-42277591D01*
X6099607Y-42311569D01*
X6082867Y-42342887D01*
X6060339Y-42370339D01*
X6032887Y-42392867D01*
X6001569Y-42409607D01*
X5967591Y-42419915D01*
X5926110Y-42424000D01*
X5249890Y-42424000D01*
X5208409Y-42419915D01*
X5174431Y-42409607D01*
X5143113Y-42392867D01*
X5115661Y-42370339D01*
X5093133Y-42342887D01*
X5076393Y-42311569D01*
X5066085Y-42277591D01*
X5062000Y-42236110D01*
X5062000Y-41634890D01*
X5066085Y-41593409D01*
X5076393Y-41559431D01*
X5093133Y-41528113D01*
X5115661Y-41500661D01*
X5143113Y-41478133D01*
X5174431Y-41461393D01*
X5208409Y-41451085D01*
X5249890Y-41447000D01*
X5926110Y-41447000D01*
X5967591Y-41451085D01*
X5967591Y-41451085D01*
G37*
G36*
X-9272409Y-41451085D02*
X-9238431Y-41461393D01*
X-9207113Y-41478133D01*
X-9179661Y-41500661D01*
X-9157133Y-41528113D01*
X-9140393Y-41559431D01*
X-9130085Y-41593409D01*
X-9126000Y-41634890D01*
X-9126000Y-42236110D01*
X-9130085Y-42277591D01*
X-9140393Y-42311569D01*
X-9157133Y-42342887D01*
X-9179661Y-42370339D01*
X-9207113Y-42392867D01*
X-9238431Y-42409607D01*
X-9272409Y-42419915D01*
X-9313890Y-42424000D01*
X-9990110Y-42424000D01*
X-10031591Y-42419915D01*
X-10065569Y-42409607D01*
X-10096887Y-42392867D01*
X-10124339Y-42370339D01*
X-10146867Y-42342887D01*
X-10163607Y-42311569D01*
X-10173915Y-42277591D01*
X-10178000Y-42236110D01*
X-10178000Y-41634890D01*
X-10173915Y-41593409D01*
X-10163607Y-41559431D01*
X-10146867Y-41528113D01*
X-10124339Y-41500661D01*
X-10096887Y-41478133D01*
X-10065569Y-41461393D01*
X-10031591Y-41451085D01*
X-9990110Y-41447000D01*
X-9313890Y-41447000D01*
X-9272409Y-41451085D01*
X-9272409Y-41451085D01*
G37*
G36*
X-5208409Y-41451085D02*
X-5174431Y-41461393D01*
X-5143113Y-41478133D01*
X-5115661Y-41500661D01*
X-5093133Y-41528113D01*
X-5076393Y-41559431D01*
X-5066085Y-41593409D01*
X-5062000Y-41634890D01*
X-5062000Y-42236110D01*
X-5066085Y-42277591D01*
X-5076393Y-42311569D01*
X-5093133Y-42342887D01*
X-5115661Y-42370339D01*
X-5143113Y-42392867D01*
X-5174431Y-42409607D01*
X-5208409Y-42419915D01*
X-5249890Y-42424000D01*
X-5926110Y-42424000D01*
X-5967591Y-42419915D01*
X-6001569Y-42409607D01*
X-6032887Y-42392867D01*
X-6060339Y-42370339D01*
X-6082867Y-42342887D01*
X-6099607Y-42311569D01*
X-6109915Y-42277591D01*
X-6114000Y-42236110D01*
X-6114000Y-41634890D01*
X-6109915Y-41593409D01*
X-6099607Y-41559431D01*
X-6082867Y-41528113D01*
X-6060339Y-41500661D01*
X-6032887Y-41478133D01*
X-6001569Y-41461393D01*
X-5967591Y-41451085D01*
X-5926110Y-41447000D01*
X-5249890Y-41447000D01*
X-5208409Y-41451085D01*
X-5208409Y-41451085D01*
G37*
G36*
X-7240409Y-41451085D02*
X-7206431Y-41461393D01*
X-7175113Y-41478133D01*
X-7147661Y-41500661D01*
X-7125133Y-41528113D01*
X-7108393Y-41559431D01*
X-7098085Y-41593409D01*
X-7094000Y-41634890D01*
X-7094000Y-42236110D01*
X-7098085Y-42277591D01*
X-7108393Y-42311569D01*
X-7125133Y-42342887D01*
X-7147661Y-42370339D01*
X-7175113Y-42392867D01*
X-7206431Y-42409607D01*
X-7240409Y-42419915D01*
X-7281890Y-42424000D01*
X-7958110Y-42424000D01*
X-7999591Y-42419915D01*
X-8033569Y-42409607D01*
X-8064887Y-42392867D01*
X-8092339Y-42370339D01*
X-8114867Y-42342887D01*
X-8131607Y-42311569D01*
X-8141915Y-42277591D01*
X-8146000Y-42236110D01*
X-8146000Y-41634890D01*
X-8141915Y-41593409D01*
X-8131607Y-41559431D01*
X-8114867Y-41528113D01*
X-8092339Y-41500661D01*
X-8064887Y-41478133D01*
X-8033569Y-41461393D01*
X-7999591Y-41451085D01*
X-7958110Y-41447000D01*
X-7281890Y-41447000D01*
X-7240409Y-41451085D01*
X-7240409Y-41451085D01*
G37*
G36*
X7999591Y-41451085D02*
X8033569Y-41461393D01*
X8064887Y-41478133D01*
X8092339Y-41500661D01*
X8114867Y-41528113D01*
X8131607Y-41559431D01*
X8141915Y-41593409D01*
X8146000Y-41634890D01*
X8146000Y-42236110D01*
X8141915Y-42277591D01*
X8131607Y-42311569D01*
X8114867Y-42342887D01*
X8092339Y-42370339D01*
X8064887Y-42392867D01*
X8033569Y-42409607D01*
X7999591Y-42419915D01*
X7958110Y-42424000D01*
X7281890Y-42424000D01*
X7240409Y-42419915D01*
X7206431Y-42409607D01*
X7175113Y-42392867D01*
X7147661Y-42370339D01*
X7125133Y-42342887D01*
X7108393Y-42311569D01*
X7098085Y-42277591D01*
X7094000Y-42236110D01*
X7094000Y-41634890D01*
X7098085Y-41593409D01*
X7108393Y-41559431D01*
X7125133Y-41528113D01*
X7147661Y-41500661D01*
X7175113Y-41478133D01*
X7206431Y-41461393D01*
X7240409Y-41451085D01*
X7281890Y-41447000D01*
X7958110Y-41447000D01*
X7999591Y-41451085D01*
X7999591Y-41451085D01*
G37*
G36*
X-9272409Y-39876085D02*
X-9238431Y-39886393D01*
X-9207113Y-39903133D01*
X-9179661Y-39925661D01*
X-9157133Y-39953113D01*
X-9140393Y-39984431D01*
X-9130085Y-40018409D01*
X-9126000Y-40059890D01*
X-9126000Y-40661110D01*
X-9130085Y-40702591D01*
X-9140393Y-40736569D01*
X-9157133Y-40767887D01*
X-9179661Y-40795339D01*
X-9207113Y-40817867D01*
X-9238431Y-40834607D01*
X-9272409Y-40844915D01*
X-9313890Y-40849000D01*
X-9990110Y-40849000D01*
X-10031591Y-40844915D01*
X-10065569Y-40834607D01*
X-10096887Y-40817867D01*
X-10124339Y-40795339D01*
X-10146867Y-40767887D01*
X-10163607Y-40736569D01*
X-10173915Y-40702591D01*
X-10178000Y-40661110D01*
X-10178000Y-40059890D01*
X-10173915Y-40018409D01*
X-10163607Y-39984431D01*
X-10146867Y-39953113D01*
X-10124339Y-39925661D01*
X-10096887Y-39903133D01*
X-10065569Y-39886393D01*
X-10031591Y-39876085D01*
X-9990110Y-39872000D01*
X-9313890Y-39872000D01*
X-9272409Y-39876085D01*
X-9272409Y-39876085D01*
G37*
G36*
X10031591Y-39876085D02*
X10065569Y-39886393D01*
X10096887Y-39903133D01*
X10124339Y-39925661D01*
X10146867Y-39953113D01*
X10163607Y-39984431D01*
X10173915Y-40018409D01*
X10178000Y-40059890D01*
X10178000Y-40661110D01*
X10173915Y-40702591D01*
X10163607Y-40736569D01*
X10146867Y-40767887D01*
X10124339Y-40795339D01*
X10096887Y-40817867D01*
X10065569Y-40834607D01*
X10031591Y-40844915D01*
X9990110Y-40849000D01*
X9313890Y-40849000D01*
X9272409Y-40844915D01*
X9238431Y-40834607D01*
X9207113Y-40817867D01*
X9179661Y-40795339D01*
X9157133Y-40767887D01*
X9140393Y-40736569D01*
X9130085Y-40702591D01*
X9126000Y-40661110D01*
X9126000Y-40059890D01*
X9130085Y-40018409D01*
X9140393Y-39984431D01*
X9157133Y-39953113D01*
X9179661Y-39925661D01*
X9207113Y-39903133D01*
X9238431Y-39886393D01*
X9272409Y-39876085D01*
X9313890Y-39872000D01*
X9990110Y-39872000D01*
X10031591Y-39876085D01*
X10031591Y-39876085D01*
G37*
G36*
X5967591Y-39876085D02*
X6001569Y-39886393D01*
X6032887Y-39903133D01*
X6060339Y-39925661D01*
X6082867Y-39953113D01*
X6099607Y-39984431D01*
X6109915Y-40018409D01*
X6114000Y-40059890D01*
X6114000Y-40661110D01*
X6109915Y-40702591D01*
X6099607Y-40736569D01*
X6082867Y-40767887D01*
X6060339Y-40795339D01*
X6032887Y-40817867D01*
X6001569Y-40834607D01*
X5967591Y-40844915D01*
X5926110Y-40849000D01*
X5249890Y-40849000D01*
X5208409Y-40844915D01*
X5174431Y-40834607D01*
X5143113Y-40817867D01*
X5115661Y-40795339D01*
X5093133Y-40767887D01*
X5076393Y-40736569D01*
X5066085Y-40702591D01*
X5062000Y-40661110D01*
X5062000Y-40059890D01*
X5066085Y-40018409D01*
X5076393Y-39984431D01*
X5093133Y-39953113D01*
X5115661Y-39925661D01*
X5143113Y-39903133D01*
X5174431Y-39886393D01*
X5208409Y-39876085D01*
X5249890Y-39872000D01*
X5926110Y-39872000D01*
X5967591Y-39876085D01*
X5967591Y-39876085D01*
G37*
G36*
X7999591Y-39876085D02*
X8033569Y-39886393D01*
X8064887Y-39903133D01*
X8092339Y-39925661D01*
X8114867Y-39953113D01*
X8131607Y-39984431D01*
X8141915Y-40018409D01*
X8146000Y-40059890D01*
X8146000Y-40661110D01*
X8141915Y-40702591D01*
X8131607Y-40736569D01*
X8114867Y-40767887D01*
X8092339Y-40795339D01*
X8064887Y-40817867D01*
X8033569Y-40834607D01*
X7999591Y-40844915D01*
X7958110Y-40849000D01*
X7281890Y-40849000D01*
X7240409Y-40844915D01*
X7206431Y-40834607D01*
X7175113Y-40817867D01*
X7147661Y-40795339D01*
X7125133Y-40767887D01*
X7108393Y-40736569D01*
X7098085Y-40702591D01*
X7094000Y-40661110D01*
X7094000Y-40059890D01*
X7098085Y-40018409D01*
X7108393Y-39984431D01*
X7125133Y-39953113D01*
X7147661Y-39925661D01*
X7175113Y-39903133D01*
X7206431Y-39886393D01*
X7240409Y-39876085D01*
X7281890Y-39872000D01*
X7958110Y-39872000D01*
X7999591Y-39876085D01*
X7999591Y-39876085D01*
G37*
G36*
X-5208409Y-39876085D02*
X-5174431Y-39886393D01*
X-5143113Y-39903133D01*
X-5115661Y-39925661D01*
X-5093133Y-39953113D01*
X-5076393Y-39984431D01*
X-5066085Y-40018409D01*
X-5062000Y-40059890D01*
X-5062000Y-40661110D01*
X-5066085Y-40702591D01*
X-5076393Y-40736569D01*
X-5093133Y-40767887D01*
X-5115661Y-40795339D01*
X-5143113Y-40817867D01*
X-5174431Y-40834607D01*
X-5208409Y-40844915D01*
X-5249890Y-40849000D01*
X-5926110Y-40849000D01*
X-5967591Y-40844915D01*
X-6001569Y-40834607D01*
X-6032887Y-40817867D01*
X-6060339Y-40795339D01*
X-6082867Y-40767887D01*
X-6099607Y-40736569D01*
X-6109915Y-40702591D01*
X-6114000Y-40661110D01*
X-6114000Y-40059890D01*
X-6109915Y-40018409D01*
X-6099607Y-39984431D01*
X-6082867Y-39953113D01*
X-6060339Y-39925661D01*
X-6032887Y-39903133D01*
X-6001569Y-39886393D01*
X-5967591Y-39876085D01*
X-5926110Y-39872000D01*
X-5249890Y-39872000D01*
X-5208409Y-39876085D01*
X-5208409Y-39876085D01*
G37*
G36*
X-7240409Y-39876085D02*
X-7206431Y-39886393D01*
X-7175113Y-39903133D01*
X-7147661Y-39925661D01*
X-7125133Y-39953113D01*
X-7108393Y-39984431D01*
X-7098085Y-40018409D01*
X-7094000Y-40059890D01*
X-7094000Y-40661110D01*
X-7098085Y-40702591D01*
X-7108393Y-40736569D01*
X-7125133Y-40767887D01*
X-7147661Y-40795339D01*
X-7175113Y-40817867D01*
X-7206431Y-40834607D01*
X-7240409Y-40844915D01*
X-7281890Y-40849000D01*
X-7958110Y-40849000D01*
X-7999591Y-40844915D01*
X-8033569Y-40834607D01*
X-8064887Y-40817867D01*
X-8092339Y-40795339D01*
X-8114867Y-40767887D01*
X-8131607Y-40736569D01*
X-8141915Y-40702591D01*
X-8146000Y-40661110D01*
X-8146000Y-40059890D01*
X-8141915Y-40018409D01*
X-8131607Y-39984431D01*
X-8114867Y-39953113D01*
X-8092339Y-39925661D01*
X-8064887Y-39903133D01*
X-8033569Y-39886393D01*
X-7999591Y-39876085D01*
X-7958110Y-39872000D01*
X-7281890Y-39872000D01*
X-7240409Y-39876085D01*
X-7240409Y-39876085D01*
G37*
G36*
X3501000Y-40737000D02*
X1899000Y-40737000D01*
X1899000Y-40035000D01*
X3501000Y-40035000D01*
X3501000Y-40737000D01*
X3501000Y-40737000D01*
G37*
G36*
X-1899000Y-40737000D02*
X-3501000Y-40737000D01*
X-3501000Y-40035000D01*
X-1899000Y-40035000D01*
X-1899000Y-40737000D01*
X-1899000Y-40737000D01*
G37*
G36*
X-13065000Y-39491000D02*
X-14367000Y-39491000D01*
X-14367000Y-38489000D01*
X-13065000Y-38489000D01*
X-13065000Y-39491000D01*
X-13065000Y-39491000D01*
G37*
G36*
X-16113000Y-39491000D02*
X-17415000Y-39491000D01*
X-17415000Y-38489000D01*
X-16113000Y-38489000D01*
X-16113000Y-39491000D01*
X-16113000Y-39491000D01*
G37*
G36*
X-1899000Y-39467000D02*
X-3501000Y-39467000D01*
X-3501000Y-38765000D01*
X-1899000Y-38765000D01*
X-1899000Y-39467000D01*
X-1899000Y-39467000D01*
G37*
G36*
X3501000Y-39467000D02*
X1899000Y-39467000D01*
X1899000Y-38765000D01*
X3501000Y-38765000D01*
X3501000Y-39467000D01*
X3501000Y-39467000D01*
G37*
G36*
X7999591Y-37895085D02*
X8033569Y-37905393D01*
X8064887Y-37922133D01*
X8092339Y-37944661D01*
X8114867Y-37972113D01*
X8131607Y-38003431D01*
X8141915Y-38037409D01*
X8146000Y-38078890D01*
X8146000Y-38680110D01*
X8141915Y-38721591D01*
X8131607Y-38755569D01*
X8114867Y-38786887D01*
X8092339Y-38814339D01*
X8064887Y-38836867D01*
X8033569Y-38853607D01*
X7999591Y-38863915D01*
X7958110Y-38868000D01*
X7281890Y-38868000D01*
X7240409Y-38863915D01*
X7206431Y-38853607D01*
X7175113Y-38836867D01*
X7147661Y-38814339D01*
X7125133Y-38786887D01*
X7108393Y-38755569D01*
X7098085Y-38721591D01*
X7094000Y-38680110D01*
X7094000Y-38078890D01*
X7098085Y-38037409D01*
X7108393Y-38003431D01*
X7125133Y-37972113D01*
X7147661Y-37944661D01*
X7175113Y-37922133D01*
X7206431Y-37905393D01*
X7240409Y-37895085D01*
X7281890Y-37891000D01*
X7958110Y-37891000D01*
X7999591Y-37895085D01*
X7999591Y-37895085D01*
G37*
G36*
X5967591Y-37895085D02*
X6001569Y-37905393D01*
X6032887Y-37922133D01*
X6060339Y-37944661D01*
X6082867Y-37972113D01*
X6099607Y-38003431D01*
X6109915Y-38037409D01*
X6114000Y-38078890D01*
X6114000Y-38680110D01*
X6109915Y-38721591D01*
X6099607Y-38755569D01*
X6082867Y-38786887D01*
X6060339Y-38814339D01*
X6032887Y-38836867D01*
X6001569Y-38853607D01*
X5967591Y-38863915D01*
X5926110Y-38868000D01*
X5249890Y-38868000D01*
X5208409Y-38863915D01*
X5174431Y-38853607D01*
X5143113Y-38836867D01*
X5115661Y-38814339D01*
X5093133Y-38786887D01*
X5076393Y-38755569D01*
X5066085Y-38721591D01*
X5062000Y-38680110D01*
X5062000Y-38078890D01*
X5066085Y-38037409D01*
X5076393Y-38003431D01*
X5093133Y-37972113D01*
X5115661Y-37944661D01*
X5143113Y-37922133D01*
X5174431Y-37905393D01*
X5208409Y-37895085D01*
X5249890Y-37891000D01*
X5926110Y-37891000D01*
X5967591Y-37895085D01*
X5967591Y-37895085D01*
G37*
G36*
X-5208409Y-37895085D02*
X-5174431Y-37905393D01*
X-5143113Y-37922133D01*
X-5115661Y-37944661D01*
X-5093133Y-37972113D01*
X-5076393Y-38003431D01*
X-5066085Y-38037409D01*
X-5062000Y-38078890D01*
X-5062000Y-38680110D01*
X-5066085Y-38721591D01*
X-5076393Y-38755569D01*
X-5093133Y-38786887D01*
X-5115661Y-38814339D01*
X-5143113Y-38836867D01*
X-5174431Y-38853607D01*
X-5208409Y-38863915D01*
X-5249890Y-38868000D01*
X-5926110Y-38868000D01*
X-5967591Y-38863915D01*
X-6001569Y-38853607D01*
X-6032887Y-38836867D01*
X-6060339Y-38814339D01*
X-6082867Y-38786887D01*
X-6099607Y-38755569D01*
X-6109915Y-38721591D01*
X-6114000Y-38680110D01*
X-6114000Y-38078890D01*
X-6109915Y-38037409D01*
X-6099607Y-38003431D01*
X-6082867Y-37972113D01*
X-6060339Y-37944661D01*
X-6032887Y-37922133D01*
X-6001569Y-37905393D01*
X-5967591Y-37895085D01*
X-5926110Y-37891000D01*
X-5249890Y-37891000D01*
X-5208409Y-37895085D01*
X-5208409Y-37895085D01*
G37*
G36*
X-7240409Y-37895085D02*
X-7206431Y-37905393D01*
X-7175113Y-37922133D01*
X-7147661Y-37944661D01*
X-7125133Y-37972113D01*
X-7108393Y-38003431D01*
X-7098085Y-38037409D01*
X-7094000Y-38078890D01*
X-7094000Y-38680110D01*
X-7098085Y-38721591D01*
X-7108393Y-38755569D01*
X-7125133Y-38786887D01*
X-7147661Y-38814339D01*
X-7175113Y-38836867D01*
X-7206431Y-38853607D01*
X-7240409Y-38863915D01*
X-7281890Y-38868000D01*
X-7958110Y-38868000D01*
X-7999591Y-38863915D01*
X-8033569Y-38853607D01*
X-8064887Y-38836867D01*
X-8092339Y-38814339D01*
X-8114867Y-38786887D01*
X-8131607Y-38755569D01*
X-8141915Y-38721591D01*
X-8146000Y-38680110D01*
X-8146000Y-38078890D01*
X-8141915Y-38037409D01*
X-8131607Y-38003431D01*
X-8114867Y-37972113D01*
X-8092339Y-37944661D01*
X-8064887Y-37922133D01*
X-8033569Y-37905393D01*
X-7999591Y-37895085D01*
X-7958110Y-37891000D01*
X-7281890Y-37891000D01*
X-7240409Y-37895085D01*
X-7240409Y-37895085D01*
G37*
G36*
X3501000Y-38197000D02*
X1899000Y-38197000D01*
X1899000Y-37495000D01*
X3501000Y-37495000D01*
X3501000Y-38197000D01*
X3501000Y-38197000D01*
G37*
G36*
X-1899000Y-38197000D02*
X-3501000Y-38197000D01*
X-3501000Y-37495000D01*
X-1899000Y-37495000D01*
X-1899000Y-38197000D01*
X-1899000Y-38197000D01*
G37*
G36*
X-9593179Y-36121313D02*
X-9593176Y-36121314D01*
X-9593175Y-36121314D01*
X-9432761Y-36169975D01*
X-9432759Y-36169976D01*
X-9432756Y-36169977D01*
X-9284922Y-36248995D01*
X-9155341Y-36355341D01*
X-9048995Y-36484922D01*
X-8969977Y-36632756D01*
X-8921313Y-36793179D01*
X-8904883Y-36960000D01*
X-8921313Y-37126821D01*
X-8921314Y-37126824D01*
X-8921314Y-37126825D01*
X-8962278Y-37261867D01*
X-8969977Y-37287244D01*
X-9048995Y-37435078D01*
X-9155341Y-37564659D01*
X-9284922Y-37671005D01*
X-9432756Y-37750023D01*
X-9432759Y-37750024D01*
X-9432761Y-37750025D01*
X-9593175Y-37798686D01*
X-9593176Y-37798686D01*
X-9593179Y-37798687D01*
X-9718196Y-37811000D01*
X-10601804Y-37811000D01*
X-10726821Y-37798687D01*
X-10726824Y-37798686D01*
X-10726825Y-37798686D01*
X-10887239Y-37750025D01*
X-10887241Y-37750024D01*
X-10887244Y-37750023D01*
X-11035078Y-37671005D01*
X-11164659Y-37564659D01*
X-11271005Y-37435078D01*
X-11350023Y-37287244D01*
X-11357721Y-37261867D01*
X-11398686Y-37126825D01*
X-11398686Y-37126824D01*
X-11398687Y-37126821D01*
X-11415117Y-36960000D01*
X-11398687Y-36793179D01*
X-11350023Y-36632756D01*
X-11271005Y-36484922D01*
X-11164659Y-36355341D01*
X-11035078Y-36248995D01*
X-10887244Y-36169977D01*
X-10887241Y-36169976D01*
X-10887239Y-36169975D01*
X-10726825Y-36121314D01*
X-10726824Y-36121314D01*
X-10726821Y-36121313D01*
X-10601804Y-36109000D01*
X-9718196Y-36109000D01*
X-9593179Y-36121313D01*
X-9593179Y-36121313D01*
G37*
G36*
X10726821Y-36121313D02*
X10726824Y-36121314D01*
X10726825Y-36121314D01*
X10887239Y-36169975D01*
X10887241Y-36169976D01*
X10887244Y-36169977D01*
X11035078Y-36248995D01*
X11164659Y-36355341D01*
X11271005Y-36484922D01*
X11350023Y-36632756D01*
X11398687Y-36793179D01*
X11415117Y-36960000D01*
X11398687Y-37126821D01*
X11398686Y-37126824D01*
X11398686Y-37126825D01*
X11357722Y-37261867D01*
X11350023Y-37287244D01*
X11271005Y-37435078D01*
X11164659Y-37564659D01*
X11035078Y-37671005D01*
X10887244Y-37750023D01*
X10887241Y-37750024D01*
X10887239Y-37750025D01*
X10726825Y-37798686D01*
X10726824Y-37798686D01*
X10726821Y-37798687D01*
X10601804Y-37811000D01*
X9718196Y-37811000D01*
X9593179Y-37798687D01*
X9593176Y-37798686D01*
X9593175Y-37798686D01*
X9432761Y-37750025D01*
X9432759Y-37750024D01*
X9432756Y-37750023D01*
X9284922Y-37671005D01*
X9155341Y-37564659D01*
X9048995Y-37435078D01*
X8969977Y-37287244D01*
X8962279Y-37261867D01*
X8921314Y-37126825D01*
X8921314Y-37126824D01*
X8921313Y-37126821D01*
X8904883Y-36960000D01*
X8921313Y-36793179D01*
X8969977Y-36632756D01*
X9048995Y-36484922D01*
X9155341Y-36355341D01*
X9284922Y-36248995D01*
X9432756Y-36169977D01*
X9432759Y-36169976D01*
X9432761Y-36169975D01*
X9593175Y-36121314D01*
X9593176Y-36121314D01*
X9593179Y-36121313D01*
X9718196Y-36109000D01*
X10601804Y-36109000D01*
X10726821Y-36121313D01*
X10726821Y-36121313D01*
G37*
G36*
X-7240409Y-36320085D02*
X-7206431Y-36330393D01*
X-7175113Y-36347133D01*
X-7147661Y-36369661D01*
X-7125133Y-36397113D01*
X-7108393Y-36428431D01*
X-7098085Y-36462409D01*
X-7094000Y-36503890D01*
X-7094000Y-37105110D01*
X-7098085Y-37146591D01*
X-7108393Y-37180569D01*
X-7125133Y-37211887D01*
X-7147661Y-37239339D01*
X-7175113Y-37261867D01*
X-7206431Y-37278607D01*
X-7240409Y-37288915D01*
X-7281890Y-37293000D01*
X-7958110Y-37293000D01*
X-7999591Y-37288915D01*
X-8033569Y-37278607D01*
X-8064887Y-37261867D01*
X-8092339Y-37239339D01*
X-8114867Y-37211887D01*
X-8131607Y-37180569D01*
X-8141915Y-37146591D01*
X-8146000Y-37105110D01*
X-8146000Y-36503890D01*
X-8141915Y-36462409D01*
X-8131607Y-36428431D01*
X-8114867Y-36397113D01*
X-8092339Y-36369661D01*
X-8064887Y-36347133D01*
X-8033569Y-36330393D01*
X-7999591Y-36320085D01*
X-7958110Y-36316000D01*
X-7281890Y-36316000D01*
X-7240409Y-36320085D01*
X-7240409Y-36320085D01*
G37*
G36*
X7999591Y-36320085D02*
X8033569Y-36330393D01*
X8064887Y-36347133D01*
X8092339Y-36369661D01*
X8114867Y-36397113D01*
X8131607Y-36428431D01*
X8141915Y-36462409D01*
X8146000Y-36503890D01*
X8146000Y-37105110D01*
X8141915Y-37146591D01*
X8131607Y-37180569D01*
X8114867Y-37211887D01*
X8092339Y-37239339D01*
X8064887Y-37261867D01*
X8033569Y-37278607D01*
X7999591Y-37288915D01*
X7958110Y-37293000D01*
X7281890Y-37293000D01*
X7240409Y-37288915D01*
X7206431Y-37278607D01*
X7175113Y-37261867D01*
X7147661Y-37239339D01*
X7125133Y-37211887D01*
X7108393Y-37180569D01*
X7098085Y-37146591D01*
X7094000Y-37105110D01*
X7094000Y-36503890D01*
X7098085Y-36462409D01*
X7108393Y-36428431D01*
X7125133Y-36397113D01*
X7147661Y-36369661D01*
X7175113Y-36347133D01*
X7206431Y-36330393D01*
X7240409Y-36320085D01*
X7281890Y-36316000D01*
X7958110Y-36316000D01*
X7999591Y-36320085D01*
X7999591Y-36320085D01*
G37*
G36*
X5967591Y-36320085D02*
X6001569Y-36330393D01*
X6032887Y-36347133D01*
X6060339Y-36369661D01*
X6082867Y-36397113D01*
X6099607Y-36428431D01*
X6109915Y-36462409D01*
X6114000Y-36503890D01*
X6114000Y-37105110D01*
X6109915Y-37146591D01*
X6099607Y-37180569D01*
X6082867Y-37211887D01*
X6060339Y-37239339D01*
X6032887Y-37261867D01*
X6001569Y-37278607D01*
X5967591Y-37288915D01*
X5926110Y-37293000D01*
X5249890Y-37293000D01*
X5208409Y-37288915D01*
X5174431Y-37278607D01*
X5143113Y-37261867D01*
X5115661Y-37239339D01*
X5093133Y-37211887D01*
X5076393Y-37180569D01*
X5066085Y-37146591D01*
X5062000Y-37105110D01*
X5062000Y-36503890D01*
X5066085Y-36462409D01*
X5076393Y-36428431D01*
X5093133Y-36397113D01*
X5115661Y-36369661D01*
X5143113Y-36347133D01*
X5174431Y-36330393D01*
X5208409Y-36320085D01*
X5249890Y-36316000D01*
X5926110Y-36316000D01*
X5967591Y-36320085D01*
X5967591Y-36320085D01*
G37*
G36*
X-5208409Y-36320085D02*
X-5174431Y-36330393D01*
X-5143113Y-36347133D01*
X-5115661Y-36369661D01*
X-5093133Y-36397113D01*
X-5076393Y-36428431D01*
X-5066085Y-36462409D01*
X-5062000Y-36503890D01*
X-5062000Y-37105110D01*
X-5066085Y-37146591D01*
X-5076393Y-37180569D01*
X-5093133Y-37211887D01*
X-5115661Y-37239339D01*
X-5143113Y-37261867D01*
X-5174431Y-37278607D01*
X-5208409Y-37288915D01*
X-5249890Y-37293000D01*
X-5926110Y-37293000D01*
X-5967591Y-37288915D01*
X-6001569Y-37278607D01*
X-6032887Y-37261867D01*
X-6060339Y-37239339D01*
X-6082867Y-37211887D01*
X-6099607Y-37180569D01*
X-6109915Y-37146591D01*
X-6114000Y-37105110D01*
X-6114000Y-36503890D01*
X-6109915Y-36462409D01*
X-6099607Y-36428431D01*
X-6082867Y-36397113D01*
X-6060339Y-36369661D01*
X-6032887Y-36347133D01*
X-6001569Y-36330393D01*
X-5967591Y-36320085D01*
X-5926110Y-36316000D01*
X-5249890Y-36316000D01*
X-5208409Y-36320085D01*
X-5208409Y-36320085D01*
G37*
G36*
X3501000Y-36927000D02*
X1899000Y-36927000D01*
X1899000Y-36225000D01*
X3501000Y-36225000D01*
X3501000Y-36927000D01*
X3501000Y-36927000D01*
G37*
G36*
X-1899000Y-36927000D02*
X-3501000Y-36927000D01*
X-3501000Y-36225000D01*
X-1899000Y-36225000D01*
X-1899000Y-36927000D01*
X-1899000Y-36927000D01*
G37*
G36*
X-1899000Y-35657000D02*
X-3501000Y-35657000D01*
X-3501000Y-34955000D01*
X-1899000Y-34955000D01*
X-1899000Y-35657000D01*
X-1899000Y-35657000D01*
G37*
G36*
X3501000Y-35657000D02*
X1899000Y-35657000D01*
X1899000Y-34955000D01*
X3501000Y-34955000D01*
X3501000Y-35657000D01*
X3501000Y-35657000D01*
G37*
G36*
X-7240409Y-34339085D02*
X-7206431Y-34349393D01*
X-7175113Y-34366133D01*
X-7147661Y-34388661D01*
X-7125133Y-34416113D01*
X-7108393Y-34447431D01*
X-7098085Y-34481409D01*
X-7094000Y-34522890D01*
X-7094000Y-35124110D01*
X-7098085Y-35165591D01*
X-7108393Y-35199569D01*
X-7125133Y-35230887D01*
X-7147661Y-35258339D01*
X-7175113Y-35280867D01*
X-7206431Y-35297607D01*
X-7240409Y-35307915D01*
X-7281890Y-35312000D01*
X-7958110Y-35312000D01*
X-7999591Y-35307915D01*
X-8033569Y-35297607D01*
X-8064887Y-35280867D01*
X-8092339Y-35258339D01*
X-8114867Y-35230887D01*
X-8131607Y-35199569D01*
X-8141915Y-35165591D01*
X-8146000Y-35124110D01*
X-8146000Y-34522890D01*
X-8141915Y-34481409D01*
X-8131607Y-34447431D01*
X-8114867Y-34416113D01*
X-8092339Y-34388661D01*
X-8064887Y-34366133D01*
X-8033569Y-34349393D01*
X-7999591Y-34339085D01*
X-7958110Y-34335000D01*
X-7281890Y-34335000D01*
X-7240409Y-34339085D01*
X-7240409Y-34339085D01*
G37*
G36*
X-15368409Y-34339085D02*
X-15334431Y-34349393D01*
X-15303113Y-34366133D01*
X-15275661Y-34388661D01*
X-15253133Y-34416113D01*
X-15236393Y-34447431D01*
X-15226085Y-34481409D01*
X-15222000Y-34522890D01*
X-15222000Y-35124110D01*
X-15226085Y-35165591D01*
X-15236393Y-35199569D01*
X-15253133Y-35230887D01*
X-15275661Y-35258339D01*
X-15303113Y-35280867D01*
X-15334431Y-35297607D01*
X-15368409Y-35307915D01*
X-15409890Y-35312000D01*
X-16086110Y-35312000D01*
X-16127591Y-35307915D01*
X-16161569Y-35297607D01*
X-16192887Y-35280867D01*
X-16220339Y-35258339D01*
X-16242867Y-35230887D01*
X-16259607Y-35199569D01*
X-16269915Y-35165591D01*
X-16274000Y-35124110D01*
X-16274000Y-34522890D01*
X-16269915Y-34481409D01*
X-16259607Y-34447431D01*
X-16242867Y-34416113D01*
X-16220339Y-34388661D01*
X-16192887Y-34366133D01*
X-16161569Y-34349393D01*
X-16127591Y-34339085D01*
X-16086110Y-34335000D01*
X-15409890Y-34335000D01*
X-15368409Y-34339085D01*
X-15368409Y-34339085D01*
G37*
G36*
X7999591Y-34339085D02*
X8033569Y-34349393D01*
X8064887Y-34366133D01*
X8092339Y-34388661D01*
X8114867Y-34416113D01*
X8131607Y-34447431D01*
X8141915Y-34481409D01*
X8146000Y-34522890D01*
X8146000Y-35124110D01*
X8141915Y-35165591D01*
X8131607Y-35199569D01*
X8114867Y-35230887D01*
X8092339Y-35258339D01*
X8064887Y-35280867D01*
X8033569Y-35297607D01*
X7999591Y-35307915D01*
X7958110Y-35312000D01*
X7281890Y-35312000D01*
X7240409Y-35307915D01*
X7206431Y-35297607D01*
X7175113Y-35280867D01*
X7147661Y-35258339D01*
X7125133Y-35230887D01*
X7108393Y-35199569D01*
X7098085Y-35165591D01*
X7094000Y-35124110D01*
X7094000Y-34522890D01*
X7098085Y-34481409D01*
X7108393Y-34447431D01*
X7125133Y-34416113D01*
X7147661Y-34388661D01*
X7175113Y-34366133D01*
X7206431Y-34349393D01*
X7240409Y-34339085D01*
X7281890Y-34335000D01*
X7958110Y-34335000D01*
X7999591Y-34339085D01*
X7999591Y-34339085D01*
G37*
G36*
X-5208409Y-34339085D02*
X-5174431Y-34349393D01*
X-5143113Y-34366133D01*
X-5115661Y-34388661D01*
X-5093133Y-34416113D01*
X-5076393Y-34447431D01*
X-5066085Y-34481409D01*
X-5062000Y-34522890D01*
X-5062000Y-35124110D01*
X-5066085Y-35165591D01*
X-5076393Y-35199569D01*
X-5093133Y-35230887D01*
X-5115661Y-35258339D01*
X-5143113Y-35280867D01*
X-5174431Y-35297607D01*
X-5208409Y-35307915D01*
X-5249890Y-35312000D01*
X-5926110Y-35312000D01*
X-5967591Y-35307915D01*
X-6001569Y-35297607D01*
X-6032887Y-35280867D01*
X-6060339Y-35258339D01*
X-6082867Y-35230887D01*
X-6099607Y-35199569D01*
X-6109915Y-35165591D01*
X-6114000Y-35124110D01*
X-6114000Y-34522890D01*
X-6109915Y-34481409D01*
X-6099607Y-34447431D01*
X-6082867Y-34416113D01*
X-6060339Y-34388661D01*
X-6032887Y-34366133D01*
X-6001569Y-34349393D01*
X-5967591Y-34339085D01*
X-5926110Y-34335000D01*
X-5249890Y-34335000D01*
X-5208409Y-34339085D01*
X-5208409Y-34339085D01*
G37*
G36*
X5967591Y-34339085D02*
X6001569Y-34349393D01*
X6032887Y-34366133D01*
X6060339Y-34388661D01*
X6082867Y-34416113D01*
X6099607Y-34447431D01*
X6109915Y-34481409D01*
X6114000Y-34522890D01*
X6114000Y-35124110D01*
X6109915Y-35165591D01*
X6099607Y-35199569D01*
X6082867Y-35230887D01*
X6060339Y-35258339D01*
X6032887Y-35280867D01*
X6001569Y-35297607D01*
X5967591Y-35307915D01*
X5926110Y-35312000D01*
X5249890Y-35312000D01*
X5208409Y-35307915D01*
X5174431Y-35297607D01*
X5143113Y-35280867D01*
X5115661Y-35258339D01*
X5093133Y-35230887D01*
X5076393Y-35199569D01*
X5066085Y-35165591D01*
X5062000Y-35124110D01*
X5062000Y-34522890D01*
X5066085Y-34481409D01*
X5076393Y-34447431D01*
X5093133Y-34416113D01*
X5115661Y-34388661D01*
X5143113Y-34366133D01*
X5174431Y-34349393D01*
X5208409Y-34339085D01*
X5249890Y-34335000D01*
X5926110Y-34335000D01*
X5967591Y-34339085D01*
X5967591Y-34339085D01*
G37*
G36*
X10826821Y-33021313D02*
X10826824Y-33021314D01*
X10826825Y-33021314D01*
X10987239Y-33069975D01*
X10987241Y-33069976D01*
X10987244Y-33069977D01*
X11135078Y-33148995D01*
X11264659Y-33255341D01*
X11371005Y-33384922D01*
X11450023Y-33532756D01*
X11450024Y-33532759D01*
X11450025Y-33532761D01*
X11479051Y-33628448D01*
X11498687Y-33693179D01*
X11515117Y-33860000D01*
X11498687Y-34026821D01*
X11450023Y-34187244D01*
X11371005Y-34335078D01*
X11264659Y-34464659D01*
X11135078Y-34571005D01*
X10987244Y-34650023D01*
X10987241Y-34650024D01*
X10987239Y-34650025D01*
X10826825Y-34698686D01*
X10826824Y-34698686D01*
X10826821Y-34698687D01*
X10701804Y-34711000D01*
X9618196Y-34711000D01*
X9493179Y-34698687D01*
X9493176Y-34698686D01*
X9493175Y-34698686D01*
X9332761Y-34650025D01*
X9332759Y-34650024D01*
X9332756Y-34650023D01*
X9184922Y-34571005D01*
X9055341Y-34464659D01*
X8948995Y-34335078D01*
X8869977Y-34187244D01*
X8821313Y-34026821D01*
X8804883Y-33860000D01*
X8821313Y-33693179D01*
X8840949Y-33628448D01*
X8869975Y-33532761D01*
X8869976Y-33532759D01*
X8869977Y-33532756D01*
X8948995Y-33384922D01*
X9055341Y-33255341D01*
X9184922Y-33148995D01*
X9332756Y-33069977D01*
X9332759Y-33069976D01*
X9332761Y-33069975D01*
X9493175Y-33021314D01*
X9493176Y-33021314D01*
X9493179Y-33021313D01*
X9618196Y-33009000D01*
X10701804Y-33009000D01*
X10826821Y-33021313D01*
X10826821Y-33021313D01*
G37*
G36*
X-9493179Y-33021313D02*
X-9493176Y-33021314D01*
X-9493175Y-33021314D01*
X-9332761Y-33069975D01*
X-9332759Y-33069976D01*
X-9332756Y-33069977D01*
X-9184922Y-33148995D01*
X-9055341Y-33255341D01*
X-8948995Y-33384922D01*
X-8869977Y-33532756D01*
X-8869976Y-33532759D01*
X-8869975Y-33532761D01*
X-8840949Y-33628448D01*
X-8821313Y-33693179D01*
X-8804883Y-33860000D01*
X-8821313Y-34026821D01*
X-8869977Y-34187244D01*
X-8948995Y-34335078D01*
X-9055341Y-34464659D01*
X-9184922Y-34571005D01*
X-9332756Y-34650023D01*
X-9332759Y-34650024D01*
X-9332761Y-34650025D01*
X-9493175Y-34698686D01*
X-9493176Y-34698686D01*
X-9493179Y-34698687D01*
X-9618196Y-34711000D01*
X-10701804Y-34711000D01*
X-10826821Y-34698687D01*
X-10826824Y-34698686D01*
X-10826825Y-34698686D01*
X-10987239Y-34650025D01*
X-10987241Y-34650024D01*
X-10987244Y-34650023D01*
X-11135078Y-34571005D01*
X-11264659Y-34464659D01*
X-11371005Y-34335078D01*
X-11450023Y-34187244D01*
X-11498687Y-34026821D01*
X-11515117Y-33860000D01*
X-11498687Y-33693179D01*
X-11479051Y-33628448D01*
X-11450025Y-33532761D01*
X-11450024Y-33532759D01*
X-11450023Y-33532756D01*
X-11371005Y-33384922D01*
X-11264659Y-33255341D01*
X-11135078Y-33148995D01*
X-10987244Y-33069977D01*
X-10987241Y-33069976D01*
X-10987239Y-33069975D01*
X-10826825Y-33021314D01*
X-10826824Y-33021314D01*
X-10826821Y-33021313D01*
X-10701804Y-33009000D01*
X-9618196Y-33009000D01*
X-9493179Y-33021313D01*
X-9493179Y-33021313D01*
G37*
G36*
X-1899000Y-34387000D02*
X-3501000Y-34387000D01*
X-3501000Y-33685000D01*
X-1899000Y-33685000D01*
X-1899000Y-34387000D01*
X-1899000Y-34387000D01*
G37*
G36*
X3501000Y-34387000D02*
X1899000Y-34387000D01*
X1899000Y-33685000D01*
X3501000Y-33685000D01*
X3501000Y-34387000D01*
X3501000Y-34387000D01*
G37*
G36*
X-15368409Y-32764085D02*
X-15334431Y-32774393D01*
X-15303113Y-32791133D01*
X-15275661Y-32813661D01*
X-15253133Y-32841113D01*
X-15236393Y-32872431D01*
X-15226085Y-32906409D01*
X-15222000Y-32947890D01*
X-15222000Y-33549110D01*
X-15226085Y-33590591D01*
X-15236393Y-33624569D01*
X-15253133Y-33655887D01*
X-15275661Y-33683339D01*
X-15303113Y-33705867D01*
X-15334431Y-33722607D01*
X-15368409Y-33732915D01*
X-15409890Y-33737000D01*
X-16086110Y-33737000D01*
X-16127591Y-33732915D01*
X-16161569Y-33722607D01*
X-16192887Y-33705867D01*
X-16220339Y-33683339D01*
X-16242867Y-33655887D01*
X-16259607Y-33624569D01*
X-16269915Y-33590591D01*
X-16274000Y-33549110D01*
X-16274000Y-32947890D01*
X-16269915Y-32906409D01*
X-16259607Y-32872431D01*
X-16242867Y-32841113D01*
X-16220339Y-32813661D01*
X-16192887Y-32791133D01*
X-16161569Y-32774393D01*
X-16127591Y-32764085D01*
X-16086110Y-32760000D01*
X-15409890Y-32760000D01*
X-15368409Y-32764085D01*
X-15368409Y-32764085D01*
G37*
G36*
X7999591Y-32764085D02*
X8033569Y-32774393D01*
X8064887Y-32791133D01*
X8092339Y-32813661D01*
X8114867Y-32841113D01*
X8131607Y-32872431D01*
X8141915Y-32906409D01*
X8146000Y-32947890D01*
X8146000Y-33549110D01*
X8141915Y-33590591D01*
X8131607Y-33624569D01*
X8114867Y-33655887D01*
X8092339Y-33683339D01*
X8064887Y-33705867D01*
X8033569Y-33722607D01*
X7999591Y-33732915D01*
X7958110Y-33737000D01*
X7281890Y-33737000D01*
X7240409Y-33732915D01*
X7206431Y-33722607D01*
X7175113Y-33705867D01*
X7147661Y-33683339D01*
X7125133Y-33655887D01*
X7108393Y-33624569D01*
X7098085Y-33590591D01*
X7094000Y-33549110D01*
X7094000Y-32947890D01*
X7098085Y-32906409D01*
X7108393Y-32872431D01*
X7125133Y-32841113D01*
X7147661Y-32813661D01*
X7175113Y-32791133D01*
X7206431Y-32774393D01*
X7240409Y-32764085D01*
X7281890Y-32760000D01*
X7958110Y-32760000D01*
X7999591Y-32764085D01*
X7999591Y-32764085D01*
G37*
G36*
X5967591Y-32764085D02*
X6001569Y-32774393D01*
X6032887Y-32791133D01*
X6060339Y-32813661D01*
X6082867Y-32841113D01*
X6099607Y-32872431D01*
X6109915Y-32906409D01*
X6114000Y-32947890D01*
X6114000Y-33549110D01*
X6109915Y-33590591D01*
X6099607Y-33624569D01*
X6082867Y-33655887D01*
X6060339Y-33683339D01*
X6032887Y-33705867D01*
X6001569Y-33722607D01*
X5967591Y-33732915D01*
X5926110Y-33737000D01*
X5249890Y-33737000D01*
X5208409Y-33732915D01*
X5174431Y-33722607D01*
X5143113Y-33705867D01*
X5115661Y-33683339D01*
X5093133Y-33655887D01*
X5076393Y-33624569D01*
X5066085Y-33590591D01*
X5062000Y-33549110D01*
X5062000Y-32947890D01*
X5066085Y-32906409D01*
X5076393Y-32872431D01*
X5093133Y-32841113D01*
X5115661Y-32813661D01*
X5143113Y-32791133D01*
X5174431Y-32774393D01*
X5208409Y-32764085D01*
X5249890Y-32760000D01*
X5926110Y-32760000D01*
X5967591Y-32764085D01*
X5967591Y-32764085D01*
G37*
G36*
X-5208409Y-32764085D02*
X-5174431Y-32774393D01*
X-5143113Y-32791133D01*
X-5115661Y-32813661D01*
X-5093133Y-32841113D01*
X-5076393Y-32872431D01*
X-5066085Y-32906409D01*
X-5062000Y-32947890D01*
X-5062000Y-33549110D01*
X-5066085Y-33590591D01*
X-5076393Y-33624569D01*
X-5093133Y-33655887D01*
X-5115661Y-33683339D01*
X-5143113Y-33705867D01*
X-5174431Y-33722607D01*
X-5208409Y-33732915D01*
X-5249890Y-33737000D01*
X-5926110Y-33737000D01*
X-5967591Y-33732915D01*
X-6001569Y-33722607D01*
X-6032887Y-33705867D01*
X-6060339Y-33683339D01*
X-6082867Y-33655887D01*
X-6099607Y-33624569D01*
X-6109915Y-33590591D01*
X-6114000Y-33549110D01*
X-6114000Y-32947890D01*
X-6109915Y-32906409D01*
X-6099607Y-32872431D01*
X-6082867Y-32841113D01*
X-6060339Y-32813661D01*
X-6032887Y-32791133D01*
X-6001569Y-32774393D01*
X-5967591Y-32764085D01*
X-5926110Y-32760000D01*
X-5249890Y-32760000D01*
X-5208409Y-32764085D01*
X-5208409Y-32764085D01*
G37*
G36*
X-7240409Y-32764085D02*
X-7206431Y-32774393D01*
X-7175113Y-32791133D01*
X-7147661Y-32813661D01*
X-7125133Y-32841113D01*
X-7108393Y-32872431D01*
X-7098085Y-32906409D01*
X-7094000Y-32947890D01*
X-7094000Y-33549110D01*
X-7098085Y-33590591D01*
X-7108393Y-33624569D01*
X-7125133Y-33655887D01*
X-7147661Y-33683339D01*
X-7175113Y-33705867D01*
X-7206431Y-33722607D01*
X-7240409Y-33732915D01*
X-7281890Y-33737000D01*
X-7958110Y-33737000D01*
X-7999591Y-33732915D01*
X-8033569Y-33722607D01*
X-8064887Y-33705867D01*
X-8092339Y-33683339D01*
X-8114867Y-33655887D01*
X-8131607Y-33624569D01*
X-8141915Y-33590591D01*
X-8146000Y-33549110D01*
X-8146000Y-32947890D01*
X-8141915Y-32906409D01*
X-8131607Y-32872431D01*
X-8114867Y-32841113D01*
X-8092339Y-32813661D01*
X-8064887Y-32791133D01*
X-8033569Y-32774393D01*
X-7999591Y-32764085D01*
X-7958110Y-32760000D01*
X-7281890Y-32760000D01*
X-7240409Y-32764085D01*
X-7240409Y-32764085D01*
G37*
G36*
X3501000Y-33117000D02*
X1899000Y-33117000D01*
X1899000Y-32415000D01*
X3501000Y-32415000D01*
X3501000Y-33117000D01*
X3501000Y-33117000D01*
G37*
G36*
X-1899000Y-33117000D02*
X-3501000Y-33117000D01*
X-3501000Y-32415000D01*
X-1899000Y-32415000D01*
X-1899000Y-33117000D01*
X-1899000Y-33117000D01*
G37*
G36*
X7999591Y-30783085D02*
X8033569Y-30793393D01*
X8064887Y-30810133D01*
X8092339Y-30832661D01*
X8114867Y-30860113D01*
X8131607Y-30891431D01*
X8141915Y-30925409D01*
X8146000Y-30966890D01*
X8146000Y-31568110D01*
X8141915Y-31609591D01*
X8131607Y-31643569D01*
X8114867Y-31674887D01*
X8092339Y-31702339D01*
X8064887Y-31724867D01*
X8033569Y-31741607D01*
X7999591Y-31751915D01*
X7958110Y-31756000D01*
X7281890Y-31756000D01*
X7240409Y-31751915D01*
X7206431Y-31741607D01*
X7175113Y-31724867D01*
X7147661Y-31702339D01*
X7125133Y-31674887D01*
X7108393Y-31643569D01*
X7098085Y-31609591D01*
X7094000Y-31568110D01*
X7094000Y-30966890D01*
X7098085Y-30925409D01*
X7108393Y-30891431D01*
X7125133Y-30860113D01*
X7147661Y-30832661D01*
X7175113Y-30810133D01*
X7206431Y-30793393D01*
X7240409Y-30783085D01*
X7281890Y-30779000D01*
X7958110Y-30779000D01*
X7999591Y-30783085D01*
X7999591Y-30783085D01*
G37*
G36*
X5967591Y-30783085D02*
X6001569Y-30793393D01*
X6032887Y-30810133D01*
X6060339Y-30832661D01*
X6082867Y-30860113D01*
X6099607Y-30891431D01*
X6109915Y-30925409D01*
X6114000Y-30966890D01*
X6114000Y-31568110D01*
X6109915Y-31609591D01*
X6099607Y-31643569D01*
X6082867Y-31674887D01*
X6060339Y-31702339D01*
X6032887Y-31724867D01*
X6001569Y-31741607D01*
X5967591Y-31751915D01*
X5926110Y-31756000D01*
X5249890Y-31756000D01*
X5208409Y-31751915D01*
X5174431Y-31741607D01*
X5143113Y-31724867D01*
X5115661Y-31702339D01*
X5093133Y-31674887D01*
X5076393Y-31643569D01*
X5066085Y-31609591D01*
X5062000Y-31568110D01*
X5062000Y-30966890D01*
X5066085Y-30925409D01*
X5076393Y-30891431D01*
X5093133Y-30860113D01*
X5115661Y-30832661D01*
X5143113Y-30810133D01*
X5174431Y-30793393D01*
X5208409Y-30783085D01*
X5249890Y-30779000D01*
X5926110Y-30779000D01*
X5967591Y-30783085D01*
X5967591Y-30783085D01*
G37*
G36*
X-7240409Y-30783085D02*
X-7206431Y-30793393D01*
X-7175113Y-30810133D01*
X-7147661Y-30832661D01*
X-7125133Y-30860113D01*
X-7108393Y-30891431D01*
X-7098085Y-30925409D01*
X-7094000Y-30966890D01*
X-7094000Y-31568110D01*
X-7098085Y-31609591D01*
X-7108393Y-31643569D01*
X-7125133Y-31674887D01*
X-7147661Y-31702339D01*
X-7175113Y-31724867D01*
X-7206431Y-31741607D01*
X-7240409Y-31751915D01*
X-7281890Y-31756000D01*
X-7958110Y-31756000D01*
X-7999591Y-31751915D01*
X-8033569Y-31741607D01*
X-8064887Y-31724867D01*
X-8092339Y-31702339D01*
X-8114867Y-31674887D01*
X-8131607Y-31643569D01*
X-8141915Y-31609591D01*
X-8146000Y-31568110D01*
X-8146000Y-30966890D01*
X-8141915Y-30925409D01*
X-8131607Y-30891431D01*
X-8114867Y-30860113D01*
X-8092339Y-30832661D01*
X-8064887Y-30810133D01*
X-8033569Y-30793393D01*
X-7999591Y-30783085D01*
X-7958110Y-30779000D01*
X-7281890Y-30779000D01*
X-7240409Y-30783085D01*
X-7240409Y-30783085D01*
G37*
G36*
X-5208409Y-30783085D02*
X-5174431Y-30793393D01*
X-5143113Y-30810133D01*
X-5115661Y-30832661D01*
X-5093133Y-30860113D01*
X-5076393Y-30891431D01*
X-5066085Y-30925409D01*
X-5062000Y-30966890D01*
X-5062000Y-31568110D01*
X-5066085Y-31609591D01*
X-5076393Y-31643569D01*
X-5093133Y-31674887D01*
X-5115661Y-31702339D01*
X-5143113Y-31724867D01*
X-5174431Y-31741607D01*
X-5208409Y-31751915D01*
X-5249890Y-31756000D01*
X-5926110Y-31756000D01*
X-5967591Y-31751915D01*
X-6001569Y-31741607D01*
X-6032887Y-31724867D01*
X-6060339Y-31702339D01*
X-6082867Y-31674887D01*
X-6099607Y-31643569D01*
X-6109915Y-31609591D01*
X-6114000Y-31568110D01*
X-6114000Y-30966890D01*
X-6109915Y-30925409D01*
X-6099607Y-30891431D01*
X-6082867Y-30860113D01*
X-6060339Y-30832661D01*
X-6032887Y-30810133D01*
X-6001569Y-30793393D01*
X-5967591Y-30783085D01*
X-5926110Y-30779000D01*
X-5249890Y-30779000D01*
X-5208409Y-30783085D01*
X-5208409Y-30783085D01*
G37*
G36*
X-7240409Y-29208085D02*
X-7206431Y-29218393D01*
X-7175113Y-29235133D01*
X-7147661Y-29257661D01*
X-7125133Y-29285113D01*
X-7108393Y-29316431D01*
X-7098085Y-29350409D01*
X-7094000Y-29391890D01*
X-7094000Y-29993110D01*
X-7098085Y-30034591D01*
X-7108393Y-30068569D01*
X-7125133Y-30099887D01*
X-7147661Y-30127339D01*
X-7175113Y-30149867D01*
X-7206431Y-30166607D01*
X-7240409Y-30176915D01*
X-7281890Y-30181000D01*
X-7958110Y-30181000D01*
X-7999591Y-30176915D01*
X-8033569Y-30166607D01*
X-8064887Y-30149867D01*
X-8092339Y-30127339D01*
X-8114867Y-30099887D01*
X-8131607Y-30068569D01*
X-8141915Y-30034591D01*
X-8146000Y-29993110D01*
X-8146000Y-29391890D01*
X-8141915Y-29350409D01*
X-8131607Y-29316431D01*
X-8114867Y-29285113D01*
X-8092339Y-29257661D01*
X-8064887Y-29235133D01*
X-8033569Y-29218393D01*
X-7999591Y-29208085D01*
X-7958110Y-29204000D01*
X-7281890Y-29204000D01*
X-7240409Y-29208085D01*
X-7240409Y-29208085D01*
G37*
G36*
X7999591Y-29208085D02*
X8033569Y-29218393D01*
X8064887Y-29235133D01*
X8092339Y-29257661D01*
X8114867Y-29285113D01*
X8131607Y-29316431D01*
X8141915Y-29350409D01*
X8146000Y-29391890D01*
X8146000Y-29993110D01*
X8141915Y-30034591D01*
X8131607Y-30068569D01*
X8114867Y-30099887D01*
X8092339Y-30127339D01*
X8064887Y-30149867D01*
X8033569Y-30166607D01*
X7999591Y-30176915D01*
X7958110Y-30181000D01*
X7281890Y-30181000D01*
X7240409Y-30176915D01*
X7206431Y-30166607D01*
X7175113Y-30149867D01*
X7147661Y-30127339D01*
X7125133Y-30099887D01*
X7108393Y-30068569D01*
X7098085Y-30034591D01*
X7094000Y-29993110D01*
X7094000Y-29391890D01*
X7098085Y-29350409D01*
X7108393Y-29316431D01*
X7125133Y-29285113D01*
X7147661Y-29257661D01*
X7175113Y-29235133D01*
X7206431Y-29218393D01*
X7240409Y-29208085D01*
X7281890Y-29204000D01*
X7958110Y-29204000D01*
X7999591Y-29208085D01*
X7999591Y-29208085D01*
G37*
G36*
X5967591Y-29208085D02*
X6001569Y-29218393D01*
X6032887Y-29235133D01*
X6060339Y-29257661D01*
X6082867Y-29285113D01*
X6099607Y-29316431D01*
X6109915Y-29350409D01*
X6114000Y-29391890D01*
X6114000Y-29993110D01*
X6109915Y-30034591D01*
X6099607Y-30068569D01*
X6082867Y-30099887D01*
X6060339Y-30127339D01*
X6032887Y-30149867D01*
X6001569Y-30166607D01*
X5967591Y-30176915D01*
X5926110Y-30181000D01*
X5249890Y-30181000D01*
X5208409Y-30176915D01*
X5174431Y-30166607D01*
X5143113Y-30149867D01*
X5115661Y-30127339D01*
X5093133Y-30099887D01*
X5076393Y-30068569D01*
X5066085Y-30034591D01*
X5062000Y-29993110D01*
X5062000Y-29391890D01*
X5066085Y-29350409D01*
X5076393Y-29316431D01*
X5093133Y-29285113D01*
X5115661Y-29257661D01*
X5143113Y-29235133D01*
X5174431Y-29218393D01*
X5208409Y-29208085D01*
X5249890Y-29204000D01*
X5926110Y-29204000D01*
X5967591Y-29208085D01*
X5967591Y-29208085D01*
G37*
G36*
X-5208409Y-29208085D02*
X-5174431Y-29218393D01*
X-5143113Y-29235133D01*
X-5115661Y-29257661D01*
X-5093133Y-29285113D01*
X-5076393Y-29316431D01*
X-5066085Y-29350409D01*
X-5062000Y-29391890D01*
X-5062000Y-29993110D01*
X-5066085Y-30034591D01*
X-5076393Y-30068569D01*
X-5093133Y-30099887D01*
X-5115661Y-30127339D01*
X-5143113Y-30149867D01*
X-5174431Y-30166607D01*
X-5208409Y-30176915D01*
X-5249890Y-30181000D01*
X-5926110Y-30181000D01*
X-5967591Y-30176915D01*
X-6001569Y-30166607D01*
X-6032887Y-30149867D01*
X-6060339Y-30127339D01*
X-6082867Y-30099887D01*
X-6099607Y-30068569D01*
X-6109915Y-30034591D01*
X-6114000Y-29993110D01*
X-6114000Y-29391890D01*
X-6109915Y-29350409D01*
X-6099607Y-29316431D01*
X-6082867Y-29285113D01*
X-6060339Y-29257661D01*
X-6032887Y-29235133D01*
X-6001569Y-29218393D01*
X-5967591Y-29208085D01*
X-5926110Y-29204000D01*
X-5249890Y-29204000D01*
X-5208409Y-29208085D01*
X-5208409Y-29208085D01*
G37*
G36*
X-881396Y-25552347D02*
X-844855Y-25563432D01*
X-811180Y-25581431D01*
X-781659Y-25605659D01*
X-757431Y-25635180D01*
X-739432Y-25668855D01*
X-728347Y-25705396D01*
X-724000Y-25749538D01*
X-724000Y-28098462D01*
X-728347Y-28142604D01*
X-739432Y-28179145D01*
X-757431Y-28212820D01*
X-781659Y-28242341D01*
X-811180Y-28266569D01*
X-844855Y-28284568D01*
X-881396Y-28295653D01*
X-925538Y-28300000D01*
X-1874462Y-28300000D01*
X-1918604Y-28295653D01*
X-1955145Y-28284568D01*
X-1988820Y-28266569D01*
X-2018341Y-28242341D01*
X-2042569Y-28212820D01*
X-2060568Y-28179145D01*
X-2071653Y-28142604D01*
X-2076000Y-28098462D01*
X-2076000Y-25749538D01*
X-2071653Y-25705396D01*
X-2060568Y-25668855D01*
X-2042569Y-25635180D01*
X-2018341Y-25605659D01*
X-1988820Y-25581431D01*
X-1955145Y-25563432D01*
X-1918604Y-25552347D01*
X-1874462Y-25548000D01*
X-925538Y-25548000D01*
X-881396Y-25552347D01*
X-881396Y-25552347D01*
G37*
G36*
X1918604Y-25552347D02*
X1955145Y-25563432D01*
X1988820Y-25581431D01*
X2018341Y-25605659D01*
X2042569Y-25635180D01*
X2060568Y-25668855D01*
X2071653Y-25705396D01*
X2076000Y-25749538D01*
X2076000Y-28098462D01*
X2071653Y-28142604D01*
X2060568Y-28179145D01*
X2042569Y-28212820D01*
X2018341Y-28242341D01*
X1988820Y-28266569D01*
X1955145Y-28284568D01*
X1918604Y-28295653D01*
X1874462Y-28300000D01*
X925538Y-28300000D01*
X881396Y-28295653D01*
X844855Y-28284568D01*
X811180Y-28266569D01*
X781659Y-28242341D01*
X757431Y-28212820D01*
X739432Y-28179145D01*
X728347Y-28142604D01*
X724000Y-28098462D01*
X724000Y-25749538D01*
X728347Y-25705396D01*
X739432Y-25668855D01*
X757431Y-25635180D01*
X781659Y-25605659D01*
X811180Y-25581431D01*
X844855Y-25563432D01*
X881396Y-25552347D01*
X925538Y-25548000D01*
X1874462Y-25548000D01*
X1918604Y-25552347D01*
X1918604Y-25552347D01*
G37*
G36*
X-14021396Y-26128347D02*
X-13984855Y-26139432D01*
X-13951180Y-26157431D01*
X-13921659Y-26181659D01*
X-13897431Y-26211180D01*
X-13879432Y-26244855D01*
X-13868347Y-26281396D01*
X-13864000Y-26325538D01*
X-13864000Y-27274462D01*
X-13868347Y-27318604D01*
X-13879432Y-27355145D01*
X-13897431Y-27388820D01*
X-13921659Y-27418341D01*
X-13951180Y-27442569D01*
X-13984855Y-27460568D01*
X-14021396Y-27471653D01*
X-14065538Y-27476000D01*
X-16414462Y-27476000D01*
X-16458604Y-27471653D01*
X-16495145Y-27460568D01*
X-16528820Y-27442569D01*
X-16558341Y-27418341D01*
X-16582569Y-27388820D01*
X-16600568Y-27355145D01*
X-16611653Y-27318604D01*
X-16616000Y-27274462D01*
X-16616000Y-26325538D01*
X-16611653Y-26281396D01*
X-16600568Y-26244855D01*
X-16582569Y-26211180D01*
X-16558341Y-26181659D01*
X-16528820Y-26157431D01*
X-16495145Y-26139432D01*
X-16458604Y-26128347D01*
X-16414462Y-26124000D01*
X-14065538Y-26124000D01*
X-14021396Y-26128347D01*
X-14021396Y-26128347D01*
G37*
G36*
X10867025Y-24770590D02*
X11018012Y-24816392D01*
X11157165Y-24890770D01*
X11279133Y-24990867D01*
X11379230Y-25112835D01*
X11453608Y-25251988D01*
X11499410Y-25402975D01*
X11514875Y-25560000D01*
X11499410Y-25717025D01*
X11453608Y-25868012D01*
X11379230Y-26007165D01*
X11279133Y-26129133D01*
X11157165Y-26229230D01*
X11018012Y-26303608D01*
X10867025Y-26349410D01*
X10749346Y-26361000D01*
X9570654Y-26361000D01*
X9452975Y-26349410D01*
X9301988Y-26303608D01*
X9162835Y-26229230D01*
X9040867Y-26129133D01*
X8940770Y-26007165D01*
X8866392Y-25868012D01*
X8820590Y-25717025D01*
X8805125Y-25560000D01*
X8820590Y-25402975D01*
X8866392Y-25251988D01*
X8940770Y-25112835D01*
X9040867Y-24990867D01*
X9162835Y-24890770D01*
X9301988Y-24816392D01*
X9452975Y-24770590D01*
X9570654Y-24759000D01*
X10749346Y-24759000D01*
X10867025Y-24770590D01*
X10867025Y-24770590D01*
G37*
G36*
X-9452975Y-24770590D02*
X-9301988Y-24816392D01*
X-9162835Y-24890770D01*
X-9040867Y-24990867D01*
X-8940770Y-25112835D01*
X-8866392Y-25251988D01*
X-8820590Y-25402975D01*
X-8805125Y-25560000D01*
X-8820590Y-25717025D01*
X-8866392Y-25868012D01*
X-8940770Y-26007165D01*
X-9040867Y-26129133D01*
X-9162835Y-26229230D01*
X-9301988Y-26303608D01*
X-9452975Y-26349410D01*
X-9570654Y-26361000D01*
X-10749346Y-26361000D01*
X-10867025Y-26349410D01*
X-11018012Y-26303608D01*
X-11157165Y-26229230D01*
X-11279133Y-26129133D01*
X-11379230Y-26007165D01*
X-11453608Y-25868012D01*
X-11499410Y-25717025D01*
X-11514875Y-25560000D01*
X-11499410Y-25402975D01*
X-11453608Y-25251988D01*
X-11379230Y-25112835D01*
X-11279133Y-24990867D01*
X-11157165Y-24890770D01*
X-11018012Y-24816392D01*
X-10867025Y-24770590D01*
X-10749346Y-24759000D01*
X-9570654Y-24759000D01*
X-9452975Y-24770590D01*
X-9452975Y-24770590D01*
G37*
G36*
X-14021396Y-23328347D02*
X-13984855Y-23339432D01*
X-13951180Y-23357431D01*
X-13921659Y-23381659D01*
X-13897431Y-23411180D01*
X-13879432Y-23444855D01*
X-13868347Y-23481396D01*
X-13864000Y-23525538D01*
X-13864000Y-24474462D01*
X-13868347Y-24518604D01*
X-13879432Y-24555145D01*
X-13897431Y-24588820D01*
X-13921659Y-24618341D01*
X-13951180Y-24642569D01*
X-13984855Y-24660568D01*
X-14021396Y-24671653D01*
X-14065538Y-24676000D01*
X-16414462Y-24676000D01*
X-16458604Y-24671653D01*
X-16495145Y-24660568D01*
X-16528820Y-24642569D01*
X-16558341Y-24618341D01*
X-16582569Y-24588820D01*
X-16600568Y-24555145D01*
X-16611653Y-24518604D01*
X-16616000Y-24474462D01*
X-16616000Y-23525538D01*
X-16611653Y-23481396D01*
X-16600568Y-23444855D01*
X-16582569Y-23411180D01*
X-16558341Y-23381659D01*
X-16528820Y-23357431D01*
X-16495145Y-23339432D01*
X-16458604Y-23328347D01*
X-16414462Y-23324000D01*
X-14065538Y-23324000D01*
X-14021396Y-23328347D01*
X-14021396Y-23328347D01*
G37*
G36*
X4140466Y-21739565D02*
X4179137Y-21751296D01*
X4214779Y-21770348D01*
X4246017Y-21795983D01*
X4271652Y-21827221D01*
X4290704Y-21862863D01*
X4302435Y-21901534D01*
X4307000Y-21947888D01*
X4307000Y-22599112D01*
X4302435Y-22645466D01*
X4290704Y-22684137D01*
X4271652Y-22719779D01*
X4246017Y-22751017D01*
X4214779Y-22776652D01*
X4179137Y-22795704D01*
X4140466Y-22807435D01*
X4094112Y-22812000D01*
X3017888Y-22812000D01*
X2971534Y-22807435D01*
X2932863Y-22795704D01*
X2897221Y-22776652D01*
X2865983Y-22751017D01*
X2840348Y-22719779D01*
X2821296Y-22684137D01*
X2809565Y-22645466D01*
X2805000Y-22599112D01*
X2805000Y-21947888D01*
X2809565Y-21901534D01*
X2821296Y-21862863D01*
X2840348Y-21827221D01*
X2865983Y-21795983D01*
X2897221Y-21770348D01*
X2932863Y-21751296D01*
X2971534Y-21739565D01*
X3017888Y-21735000D01*
X4094112Y-21735000D01*
X4140466Y-21739565D01*
X4140466Y-21739565D01*
G37*
G36*
X-3176409Y-21639085D02*
X-3142431Y-21649393D01*
X-3111113Y-21666133D01*
X-3083661Y-21688661D01*
X-3061133Y-21716113D01*
X-3044393Y-21747431D01*
X-3034085Y-21781409D01*
X-3030000Y-21822890D01*
X-3030000Y-22424110D01*
X-3034085Y-22465591D01*
X-3044393Y-22499569D01*
X-3061133Y-22530887D01*
X-3083661Y-22558339D01*
X-3111113Y-22580867D01*
X-3142431Y-22597607D01*
X-3176409Y-22607915D01*
X-3217890Y-22612000D01*
X-3894110Y-22612000D01*
X-3935591Y-22607915D01*
X-3969569Y-22597607D01*
X-4000887Y-22580867D01*
X-4028339Y-22558339D01*
X-4050867Y-22530887D01*
X-4067607Y-22499569D01*
X-4077915Y-22465591D01*
X-4082000Y-22424110D01*
X-4082000Y-21822890D01*
X-4077915Y-21781409D01*
X-4067607Y-21747431D01*
X-4050867Y-21716113D01*
X-4028339Y-21688661D01*
X-4000887Y-21666133D01*
X-3969569Y-21649393D01*
X-3935591Y-21639085D01*
X-3894110Y-21635000D01*
X-3217890Y-21635000D01*
X-3176409Y-21639085D01*
X-3176409Y-21639085D01*
G37*
G36*
X10726821Y-20881313D02*
X10726824Y-20881314D01*
X10726825Y-20881314D01*
X10887239Y-20929975D01*
X10887241Y-20929976D01*
X10887244Y-20929977D01*
X11035078Y-21008995D01*
X11164659Y-21115341D01*
X11271005Y-21244922D01*
X11350023Y-21392756D01*
X11398687Y-21553179D01*
X11415117Y-21720000D01*
X11398687Y-21886821D01*
X11398686Y-21886824D01*
X11398686Y-21886825D01*
X11363066Y-22004250D01*
X11350023Y-22047244D01*
X11271005Y-22195078D01*
X11164659Y-22324659D01*
X11035078Y-22431005D01*
X10887244Y-22510023D01*
X10887241Y-22510024D01*
X10887239Y-22510025D01*
X10726825Y-22558686D01*
X10726824Y-22558686D01*
X10726821Y-22558687D01*
X10601804Y-22571000D01*
X9718196Y-22571000D01*
X9593179Y-22558687D01*
X9593176Y-22558686D01*
X9593175Y-22558686D01*
X9432761Y-22510025D01*
X9432759Y-22510024D01*
X9432756Y-22510023D01*
X9284922Y-22431005D01*
X9155341Y-22324659D01*
X9048995Y-22195078D01*
X8969977Y-22047244D01*
X8956935Y-22004250D01*
X8921314Y-21886825D01*
X8921314Y-21886824D01*
X8921313Y-21886821D01*
X8904883Y-21720000D01*
X8921313Y-21553179D01*
X8969977Y-21392756D01*
X9048995Y-21244922D01*
X9155341Y-21115341D01*
X9284922Y-21008995D01*
X9432756Y-20929977D01*
X9432759Y-20929976D01*
X9432761Y-20929975D01*
X9593175Y-20881314D01*
X9593176Y-20881314D01*
X9593179Y-20881313D01*
X9718196Y-20869000D01*
X10601804Y-20869000D01*
X10726821Y-20881313D01*
X10726821Y-20881313D01*
G37*
G36*
X-9593179Y-20881313D02*
X-9593176Y-20881314D01*
X-9593175Y-20881314D01*
X-9432761Y-20929975D01*
X-9432759Y-20929976D01*
X-9432756Y-20929977D01*
X-9284922Y-21008995D01*
X-9155341Y-21115341D01*
X-9048995Y-21244922D01*
X-8969977Y-21392756D01*
X-8921313Y-21553179D01*
X-8904883Y-21720000D01*
X-8921313Y-21886821D01*
X-8921314Y-21886824D01*
X-8921314Y-21886825D01*
X-8956934Y-22004250D01*
X-8969977Y-22047244D01*
X-9048995Y-22195078D01*
X-9155341Y-22324659D01*
X-9284922Y-22431005D01*
X-9432756Y-22510023D01*
X-9432759Y-22510024D01*
X-9432761Y-22510025D01*
X-9593175Y-22558686D01*
X-9593176Y-22558686D01*
X-9593179Y-22558687D01*
X-9718196Y-22571000D01*
X-10601804Y-22571000D01*
X-10726821Y-22558687D01*
X-10726824Y-22558686D01*
X-10726825Y-22558686D01*
X-10887239Y-22510025D01*
X-10887241Y-22510024D01*
X-10887244Y-22510023D01*
X-11035078Y-22431005D01*
X-11164659Y-22324659D01*
X-11271005Y-22195078D01*
X-11350023Y-22047244D01*
X-11363065Y-22004250D01*
X-11398686Y-21886825D01*
X-11398686Y-21886824D01*
X-11398687Y-21886821D01*
X-11415117Y-21720000D01*
X-11398687Y-21553179D01*
X-11350023Y-21392756D01*
X-11271005Y-21244922D01*
X-11164659Y-21115341D01*
X-11035078Y-21008995D01*
X-10887244Y-20929977D01*
X-10887241Y-20929976D01*
X-10887239Y-20929975D01*
X-10726825Y-20881314D01*
X-10726824Y-20881314D01*
X-10726821Y-20881313D01*
X-10601804Y-20869000D01*
X-9718196Y-20869000D01*
X-9593179Y-20881313D01*
X-9593179Y-20881313D01*
G37*
G36*
X-3176409Y-20064085D02*
X-3142431Y-20074393D01*
X-3111113Y-20091133D01*
X-3083661Y-20113661D01*
X-3061133Y-20141113D01*
X-3044393Y-20172431D01*
X-3034085Y-20206409D01*
X-3030000Y-20247890D01*
X-3030000Y-20849110D01*
X-3034085Y-20890591D01*
X-3044393Y-20924569D01*
X-3061133Y-20955887D01*
X-3083661Y-20983339D01*
X-3111113Y-21005867D01*
X-3142431Y-21022607D01*
X-3176409Y-21032915D01*
X-3217890Y-21037000D01*
X-3894110Y-21037000D01*
X-3935591Y-21032915D01*
X-3969569Y-21022607D01*
X-4000887Y-21005867D01*
X-4028339Y-20983339D01*
X-4050867Y-20955887D01*
X-4067607Y-20924569D01*
X-4077915Y-20890591D01*
X-4082000Y-20849110D01*
X-4082000Y-20247890D01*
X-4077915Y-20206409D01*
X-4067607Y-20172431D01*
X-4050867Y-20141113D01*
X-4028339Y-20113661D01*
X-4000887Y-20091133D01*
X-3969569Y-20074393D01*
X-3935591Y-20064085D01*
X-3894110Y-20060000D01*
X-3217890Y-20060000D01*
X-3176409Y-20064085D01*
X-3176409Y-20064085D01*
G37*
G36*
X4140466Y-19864565D02*
X4179137Y-19876296D01*
X4214779Y-19895348D01*
X4246017Y-19920983D01*
X4271652Y-19952221D01*
X4290704Y-19987863D01*
X4302435Y-20026534D01*
X4307000Y-20072888D01*
X4307000Y-20724112D01*
X4302435Y-20770466D01*
X4290704Y-20809137D01*
X4271652Y-20844779D01*
X4246017Y-20876017D01*
X4214779Y-20901652D01*
X4179137Y-20920704D01*
X4140466Y-20932435D01*
X4094112Y-20937000D01*
X3017888Y-20937000D01*
X2971534Y-20932435D01*
X2932863Y-20920704D01*
X2897221Y-20901652D01*
X2865983Y-20876017D01*
X2840348Y-20844779D01*
X2821296Y-20809137D01*
X2809565Y-20770466D01*
X2805000Y-20724112D01*
X2805000Y-20072888D01*
X2809565Y-20026534D01*
X2821296Y-19987863D01*
X2840348Y-19952221D01*
X2865983Y-19920983D01*
X2897221Y-19895348D01*
X2932863Y-19876296D01*
X2971534Y-19864565D01*
X3017888Y-19860000D01*
X4094112Y-19860000D01*
X4140466Y-19864565D01*
X4140466Y-19864565D01*
G37*
G36*
X-14389000Y-19915000D02*
X-16091000Y-19915000D01*
X-16091000Y-17213000D01*
X-14389000Y-17213000D01*
X-14389000Y-19915000D01*
X-14389000Y-19915000D01*
G37*
G36*
X10826821Y-17781313D02*
X10826824Y-17781314D01*
X10826825Y-17781314D01*
X10987239Y-17829975D01*
X10987241Y-17829976D01*
X10987244Y-17829977D01*
X11135078Y-17908995D01*
X11264659Y-18015341D01*
X11371005Y-18144922D01*
X11450023Y-18292756D01*
X11498687Y-18453179D01*
X11515117Y-18620000D01*
X11498687Y-18786821D01*
X11450023Y-18947244D01*
X11371005Y-19095078D01*
X11264659Y-19224659D01*
X11135078Y-19331005D01*
X10987244Y-19410023D01*
X10987241Y-19410024D01*
X10987239Y-19410025D01*
X10826825Y-19458686D01*
X10826824Y-19458686D01*
X10826821Y-19458687D01*
X10701804Y-19471000D01*
X9618196Y-19471000D01*
X9493179Y-19458687D01*
X9493176Y-19458686D01*
X9493175Y-19458686D01*
X9332761Y-19410025D01*
X9332759Y-19410024D01*
X9332756Y-19410023D01*
X9184922Y-19331005D01*
X9055341Y-19224659D01*
X8948995Y-19095078D01*
X8869977Y-18947244D01*
X8821313Y-18786821D01*
X8804883Y-18620000D01*
X8821313Y-18453179D01*
X8869977Y-18292756D01*
X8948995Y-18144922D01*
X9055341Y-18015341D01*
X9184922Y-17908995D01*
X9332756Y-17829977D01*
X9332759Y-17829976D01*
X9332761Y-17829975D01*
X9493175Y-17781314D01*
X9493176Y-17781314D01*
X9493179Y-17781313D01*
X9618196Y-17769000D01*
X10701804Y-17769000D01*
X10826821Y-17781313D01*
X10826821Y-17781313D01*
G37*
G36*
X-9493179Y-17781313D02*
X-9493176Y-17781314D01*
X-9493175Y-17781314D01*
X-9332761Y-17829975D01*
X-9332759Y-17829976D01*
X-9332756Y-17829977D01*
X-9184922Y-17908995D01*
X-9055341Y-18015341D01*
X-8948995Y-18144922D01*
X-8869977Y-18292756D01*
X-8821313Y-18453179D01*
X-8804883Y-18620000D01*
X-8821313Y-18786821D01*
X-8869977Y-18947244D01*
X-8948995Y-19095078D01*
X-9055341Y-19224659D01*
X-9184922Y-19331005D01*
X-9332756Y-19410023D01*
X-9332759Y-19410024D01*
X-9332761Y-19410025D01*
X-9493175Y-19458686D01*
X-9493176Y-19458686D01*
X-9493179Y-19458687D01*
X-9618196Y-19471000D01*
X-10701804Y-19471000D01*
X-10826821Y-19458687D01*
X-10826824Y-19458686D01*
X-10826825Y-19458686D01*
X-10987239Y-19410025D01*
X-10987241Y-19410024D01*
X-10987244Y-19410023D01*
X-11135078Y-19331005D01*
X-11264659Y-19224659D01*
X-11371005Y-19095078D01*
X-11450023Y-18947244D01*
X-11498687Y-18786821D01*
X-11515117Y-18620000D01*
X-11498687Y-18453179D01*
X-11450023Y-18292756D01*
X-11371005Y-18144922D01*
X-11264659Y-18015341D01*
X-11135078Y-17908995D01*
X-10987244Y-17829977D01*
X-10987241Y-17829976D01*
X-10987239Y-17829975D01*
X-10826825Y-17781314D01*
X-10826824Y-17781314D01*
X-10826821Y-17781313D01*
X-10701804Y-17769000D01*
X-9618196Y-17769000D01*
X-9493179Y-17781313D01*
X-9493179Y-17781313D01*
G37*
G36*
X4176683Y-18407000D02*
X2874683Y-18407000D01*
X2874683Y-17405000D01*
X4176683Y-17405000D01*
X4176683Y-18407000D01*
X4176683Y-18407000D01*
G37*
G36*
X-2905000Y-18407000D02*
X-4207000Y-18407000D01*
X-4207000Y-17405000D01*
X-2905000Y-17405000D01*
X-2905000Y-18407000D01*
X-2905000Y-18407000D01*
G37*
G36*
X-14389000Y-16315000D02*
X-16091000Y-16315000D01*
X-16091000Y-13613000D01*
X-14389000Y-13613000D01*
X-14389000Y-16315000D01*
X-14389000Y-16315000D01*
G37*
G36*
X-9780409Y-14273085D02*
X-9746431Y-14283393D01*
X-9715113Y-14300133D01*
X-9687661Y-14322661D01*
X-9665133Y-14350113D01*
X-9648393Y-14381431D01*
X-9638085Y-14415409D01*
X-9634000Y-14456890D01*
X-9634000Y-15058110D01*
X-9638085Y-15099591D01*
X-9648393Y-15133569D01*
X-9665133Y-15164887D01*
X-9687661Y-15192339D01*
X-9715113Y-15214867D01*
X-9746431Y-15231607D01*
X-9780409Y-15241915D01*
X-9821890Y-15246000D01*
X-10498110Y-15246000D01*
X-10539591Y-15241915D01*
X-10573569Y-15231607D01*
X-10604887Y-15214867D01*
X-10632339Y-15192339D01*
X-10654867Y-15164887D01*
X-10671607Y-15133569D01*
X-10681915Y-15099591D01*
X-10686000Y-15058110D01*
X-10686000Y-14456890D01*
X-10681915Y-14415409D01*
X-10671607Y-14381431D01*
X-10654867Y-14350113D01*
X-10632339Y-14322661D01*
X-10604887Y-14300133D01*
X-10573569Y-14283393D01*
X-10539591Y-14273085D01*
X-10498110Y-14269000D01*
X-9821890Y-14269000D01*
X-9780409Y-14273085D01*
X-9780409Y-14273085D01*
G37*
G36*
X4176683Y-15107000D02*
X2874683Y-15107000D01*
X2874683Y-14105000D01*
X4176683Y-14105000D01*
X4176683Y-15107000D01*
X4176683Y-15107000D01*
G37*
G36*
X-2905000Y-15107000D02*
X-4207000Y-15107000D01*
X-4207000Y-14105000D01*
X-2905000Y-14105000D01*
X-2905000Y-15107000D01*
X-2905000Y-15107000D01*
G37*
G36*
X-9780409Y-12698085D02*
X-9746431Y-12708393D01*
X-9715113Y-12725133D01*
X-9687661Y-12747661D01*
X-9665133Y-12775113D01*
X-9648393Y-12806431D01*
X-9638085Y-12840409D01*
X-9634000Y-12881890D01*
X-9634000Y-13483110D01*
X-9638085Y-13524591D01*
X-9648393Y-13558569D01*
X-9665133Y-13589887D01*
X-9687661Y-13617339D01*
X-9715113Y-13639867D01*
X-9746431Y-13656607D01*
X-9780409Y-13666915D01*
X-9821890Y-13671000D01*
X-10498110Y-13671000D01*
X-10539591Y-13666915D01*
X-10573569Y-13656607D01*
X-10604887Y-13639867D01*
X-10632339Y-13617339D01*
X-10654867Y-13589887D01*
X-10671607Y-13558569D01*
X-10681915Y-13524591D01*
X-10686000Y-13483110D01*
X-10686000Y-12881890D01*
X-10681915Y-12840409D01*
X-10671607Y-12806431D01*
X-10654867Y-12775113D01*
X-10632339Y-12747661D01*
X-10604887Y-12725133D01*
X-10573569Y-12708393D01*
X-10539591Y-12698085D01*
X-10498110Y-12694000D01*
X-9821890Y-12694000D01*
X-9780409Y-12698085D01*
X-9780409Y-12698085D01*
G37*
G36*
X4207000Y-12819000D02*
X2905000Y-12819000D01*
X2905000Y-11817000D01*
X4207000Y-11817000D01*
X4207000Y-12819000D01*
X4207000Y-12819000D01*
G37*
G36*
X-2905000Y-12819000D02*
X-4207000Y-12819000D01*
X-4207000Y-11817000D01*
X-2905000Y-11817000D01*
X-2905000Y-12819000D01*
X-2905000Y-12819000D01*
G37*
G36*
X10867025Y-9530590D02*
X11018012Y-9576392D01*
X11157165Y-9650770D01*
X11279133Y-9750867D01*
X11379230Y-9872835D01*
X11453608Y-10011988D01*
X11499410Y-10162975D01*
X11514875Y-10320000D01*
X11499410Y-10477025D01*
X11453608Y-10628012D01*
X11379230Y-10767165D01*
X11279133Y-10889133D01*
X11157165Y-10989230D01*
X11018012Y-11063608D01*
X10867025Y-11109410D01*
X10749346Y-11121000D01*
X9570654Y-11121000D01*
X9452975Y-11109410D01*
X9301988Y-11063608D01*
X9162835Y-10989230D01*
X9040867Y-10889133D01*
X8940770Y-10767165D01*
X8866392Y-10628012D01*
X8820590Y-10477025D01*
X8805125Y-10320000D01*
X8820590Y-10162975D01*
X8866392Y-10011988D01*
X8940770Y-9872835D01*
X9040867Y-9750867D01*
X9162835Y-9650770D01*
X9301988Y-9576392D01*
X9452975Y-9530590D01*
X9570654Y-9519000D01*
X10749346Y-9519000D01*
X10867025Y-9530590D01*
X10867025Y-9530590D01*
G37*
G36*
X-9452975Y-9530590D02*
X-9301988Y-9576392D01*
X-9162835Y-9650770D01*
X-9040867Y-9750867D01*
X-8940770Y-9872835D01*
X-8866392Y-10011988D01*
X-8820590Y-10162975D01*
X-8805125Y-10320000D01*
X-8820590Y-10477025D01*
X-8866392Y-10628012D01*
X-8940770Y-10767165D01*
X-9040867Y-10889133D01*
X-9162835Y-10989230D01*
X-9301988Y-11063608D01*
X-9452975Y-11109410D01*
X-9570654Y-11121000D01*
X-10749346Y-11121000D01*
X-10867025Y-11109410D01*
X-11018012Y-11063608D01*
X-11157165Y-10989230D01*
X-11279133Y-10889133D01*
X-11379230Y-10767165D01*
X-11453608Y-10628012D01*
X-11499410Y-10477025D01*
X-11514875Y-10320000D01*
X-11499410Y-10162975D01*
X-11453608Y-10011988D01*
X-11379230Y-9872835D01*
X-11279133Y-9750867D01*
X-11157165Y-9650770D01*
X-11018012Y-9576392D01*
X-10867025Y-9530590D01*
X-10749346Y-9519000D01*
X-9570654Y-9519000D01*
X-9452975Y-9530590D01*
X-9452975Y-9530590D01*
G37*
G36*
X-14021396Y-8856347D02*
X-13984855Y-8867432D01*
X-13951180Y-8885431D01*
X-13921659Y-8909659D01*
X-13897431Y-8939180D01*
X-13879432Y-8972855D01*
X-13868347Y-9009396D01*
X-13864000Y-9053538D01*
X-13864000Y-10002462D01*
X-13868347Y-10046604D01*
X-13879432Y-10083145D01*
X-13897431Y-10116820D01*
X-13921659Y-10146341D01*
X-13951180Y-10170569D01*
X-13984855Y-10188568D01*
X-14021396Y-10199653D01*
X-14065538Y-10204000D01*
X-16414462Y-10204000D01*
X-16458604Y-10199653D01*
X-16495145Y-10188568D01*
X-16528820Y-10170569D01*
X-16558341Y-10146341D01*
X-16582569Y-10116820D01*
X-16600568Y-10083145D01*
X-16611653Y-10046604D01*
X-16616000Y-10002462D01*
X-16616000Y-9053538D01*
X-16611653Y-9009396D01*
X-16600568Y-8972855D01*
X-16582569Y-8939180D01*
X-16558341Y-8909659D01*
X-16528820Y-8885431D01*
X-16495145Y-8867432D01*
X-16458604Y-8856347D01*
X-16414462Y-8852000D01*
X-14065538Y-8852000D01*
X-14021396Y-8856347D01*
X-14021396Y-8856347D01*
G37*
G36*
X4207000Y-9519000D02*
X2905000Y-9519000D01*
X2905000Y-8517000D01*
X4207000Y-8517000D01*
X4207000Y-9519000D01*
X4207000Y-9519000D01*
G37*
G36*
X-2905000Y-9519000D02*
X-4207000Y-9519000D01*
X-4207000Y-8517000D01*
X-2905000Y-8517000D01*
X-2905000Y-9519000D01*
X-2905000Y-9519000D01*
G37*
G36*
X-14021396Y-6056347D02*
X-13984855Y-6067432D01*
X-13951180Y-6085431D01*
X-13921659Y-6109659D01*
X-13897431Y-6139180D01*
X-13879432Y-6172855D01*
X-13868347Y-6209396D01*
X-13864000Y-6253538D01*
X-13864000Y-7202462D01*
X-13868347Y-7246604D01*
X-13879432Y-7283145D01*
X-13897431Y-7316820D01*
X-13921659Y-7346341D01*
X-13951180Y-7370569D01*
X-13984855Y-7388568D01*
X-14021396Y-7399653D01*
X-14065538Y-7404000D01*
X-16414462Y-7404000D01*
X-16458604Y-7399653D01*
X-16495145Y-7388568D01*
X-16528820Y-7370569D01*
X-16558341Y-7346341D01*
X-16582569Y-7316820D01*
X-16600568Y-7283145D01*
X-16611653Y-7246604D01*
X-16616000Y-7202462D01*
X-16616000Y-6253538D01*
X-16611653Y-6209396D01*
X-16600568Y-6172855D01*
X-16582569Y-6139180D01*
X-16558341Y-6109659D01*
X-16528820Y-6085431D01*
X-16495145Y-6067432D01*
X-16458604Y-6056347D01*
X-16414462Y-6052000D01*
X-14065538Y-6052000D01*
X-14021396Y-6056347D01*
X-14021396Y-6056347D01*
G37*
G36*
X10726821Y-5641313D02*
X10726824Y-5641314D01*
X10726825Y-5641314D01*
X10887239Y-5689975D01*
X10887241Y-5689976D01*
X10887244Y-5689977D01*
X11035078Y-5768995D01*
X11164659Y-5875341D01*
X11271005Y-6004922D01*
X11350023Y-6152756D01*
X11350024Y-6152759D01*
X11350025Y-6152761D01*
X11380595Y-6253538D01*
X11398687Y-6313179D01*
X11415117Y-6480000D01*
X11398687Y-6646821D01*
X11350023Y-6807244D01*
X11271005Y-6955078D01*
X11164659Y-7084659D01*
X11035078Y-7191005D01*
X10887244Y-7270023D01*
X10887241Y-7270024D01*
X10887239Y-7270025D01*
X10726825Y-7318686D01*
X10726824Y-7318686D01*
X10726821Y-7318687D01*
X10601804Y-7331000D01*
X9718196Y-7331000D01*
X9593179Y-7318687D01*
X9593176Y-7318686D01*
X9593175Y-7318686D01*
X9432761Y-7270025D01*
X9432759Y-7270024D01*
X9432756Y-7270023D01*
X9284922Y-7191005D01*
X9155341Y-7084659D01*
X9048995Y-6955078D01*
X8969977Y-6807244D01*
X8921313Y-6646821D01*
X8904883Y-6480000D01*
X8921313Y-6313179D01*
X8939405Y-6253538D01*
X8969975Y-6152761D01*
X8969976Y-6152759D01*
X8969977Y-6152756D01*
X9048995Y-6004922D01*
X9155341Y-5875341D01*
X9284922Y-5768995D01*
X9432756Y-5689977D01*
X9432759Y-5689976D01*
X9432761Y-5689975D01*
X9593175Y-5641314D01*
X9593176Y-5641314D01*
X9593179Y-5641313D01*
X9718196Y-5629000D01*
X10601804Y-5629000D01*
X10726821Y-5641313D01*
X10726821Y-5641313D01*
G37*
G36*
X-9593179Y-5641313D02*
X-9593176Y-5641314D01*
X-9593175Y-5641314D01*
X-9432761Y-5689975D01*
X-9432759Y-5689976D01*
X-9432756Y-5689977D01*
X-9284922Y-5768995D01*
X-9155341Y-5875341D01*
X-9048995Y-6004922D01*
X-8969977Y-6152756D01*
X-8969976Y-6152759D01*
X-8969975Y-6152761D01*
X-8939405Y-6253538D01*
X-8921313Y-6313179D01*
X-8904883Y-6480000D01*
X-8921313Y-6646821D01*
X-8969977Y-6807244D01*
X-9048995Y-6955078D01*
X-9155341Y-7084659D01*
X-9284922Y-7191005D01*
X-9432756Y-7270023D01*
X-9432759Y-7270024D01*
X-9432761Y-7270025D01*
X-9593175Y-7318686D01*
X-9593176Y-7318686D01*
X-9593179Y-7318687D01*
X-9718196Y-7331000D01*
X-10601804Y-7331000D01*
X-10726821Y-7318687D01*
X-10726824Y-7318686D01*
X-10726825Y-7318686D01*
X-10887239Y-7270025D01*
X-10887241Y-7270024D01*
X-10887244Y-7270023D01*
X-11035078Y-7191005D01*
X-11164659Y-7084659D01*
X-11271005Y-6955078D01*
X-11350023Y-6807244D01*
X-11398687Y-6646821D01*
X-11415117Y-6480000D01*
X-11398687Y-6313179D01*
X-11380595Y-6253538D01*
X-11350025Y-6152761D01*
X-11350024Y-6152759D01*
X-11350023Y-6152756D01*
X-11271005Y-6004922D01*
X-11164659Y-5875341D01*
X-11035078Y-5768995D01*
X-10887244Y-5689977D01*
X-10887241Y-5689976D01*
X-10887239Y-5689975D01*
X-10726825Y-5641314D01*
X-10726824Y-5641314D01*
X-10726821Y-5641313D01*
X-10601804Y-5629000D01*
X-9718196Y-5629000D01*
X-9593179Y-5641313D01*
X-9593179Y-5641313D01*
G37*
G36*
X-2905000Y-7231000D02*
X-4207000Y-7231000D01*
X-4207000Y-6229000D01*
X-2905000Y-6229000D01*
X-2905000Y-7231000D01*
X-2905000Y-7231000D01*
G37*
G36*
X4207000Y-7231000D02*
X2905000Y-7231000D01*
X2905000Y-6229000D01*
X4207000Y-6229000D01*
X4207000Y-7231000D01*
X4207000Y-7231000D01*
G37*
G36*
X7188466Y-5483565D02*
X7227137Y-5495296D01*
X7262779Y-5514348D01*
X7294017Y-5539983D01*
X7319652Y-5571221D01*
X7338704Y-5606863D01*
X7350435Y-5645534D01*
X7355000Y-5691888D01*
X7355000Y-6343112D01*
X7350435Y-6389466D01*
X7338704Y-6428137D01*
X7319652Y-6463779D01*
X7294017Y-6495017D01*
X7262779Y-6520652D01*
X7227137Y-6539704D01*
X7188466Y-6551435D01*
X7142112Y-6556000D01*
X6065888Y-6556000D01*
X6019534Y-6551435D01*
X5980863Y-6539704D01*
X5945221Y-6520652D01*
X5913983Y-6495017D01*
X5888348Y-6463779D01*
X5869296Y-6428137D01*
X5857565Y-6389466D01*
X5853000Y-6343112D01*
X5853000Y-5691888D01*
X5857565Y-5645534D01*
X5869296Y-5606863D01*
X5888348Y-5571221D01*
X5913983Y-5539983D01*
X5945221Y-5514348D01*
X5980863Y-5495296D01*
X6019534Y-5483565D01*
X6065888Y-5479000D01*
X7142112Y-5479000D01*
X7188466Y-5483565D01*
X7188466Y-5483565D01*
G37*
G36*
X-6019534Y-5483565D02*
X-5980863Y-5495296D01*
X-5945221Y-5514348D01*
X-5913983Y-5539983D01*
X-5888348Y-5571221D01*
X-5869296Y-5606863D01*
X-5857565Y-5645534D01*
X-5853000Y-5691888D01*
X-5853000Y-6343112D01*
X-5857565Y-6389466D01*
X-5869296Y-6428137D01*
X-5888348Y-6463779D01*
X-5913983Y-6495017D01*
X-5945221Y-6520652D01*
X-5980863Y-6539704D01*
X-6019534Y-6551435D01*
X-6065888Y-6556000D01*
X-7142112Y-6556000D01*
X-7188466Y-6551435D01*
X-7227137Y-6539704D01*
X-7262779Y-6520652D01*
X-7294017Y-6495017D01*
X-7319652Y-6463779D01*
X-7338704Y-6428137D01*
X-7350435Y-6389466D01*
X-7355000Y-6343112D01*
X-7355000Y-5691888D01*
X-7350435Y-5645534D01*
X-7338704Y-5606863D01*
X-7319652Y-5571221D01*
X-7294017Y-5539983D01*
X-7262779Y-5514348D01*
X-7227137Y-5495296D01*
X-7188466Y-5483565D01*
X-7142112Y-5479000D01*
X-6065888Y-5479000D01*
X-6019534Y-5483565D01*
X-6019534Y-5483565D01*
G37*
G36*
X-6019534Y-3608565D02*
X-5980863Y-3620296D01*
X-5945221Y-3639348D01*
X-5913983Y-3664983D01*
X-5888348Y-3696221D01*
X-5869296Y-3731863D01*
X-5857565Y-3770534D01*
X-5853000Y-3816888D01*
X-5853000Y-4468112D01*
X-5857565Y-4514466D01*
X-5869296Y-4553137D01*
X-5888348Y-4588779D01*
X-5913983Y-4620017D01*
X-5945221Y-4645652D01*
X-5980863Y-4664704D01*
X-6019534Y-4676435D01*
X-6065888Y-4681000D01*
X-7142112Y-4681000D01*
X-7188466Y-4676435D01*
X-7227137Y-4664704D01*
X-7262779Y-4645652D01*
X-7294017Y-4620017D01*
X-7319652Y-4588779D01*
X-7338704Y-4553137D01*
X-7350435Y-4514466D01*
X-7355000Y-4468112D01*
X-7355000Y-3816888D01*
X-7350435Y-3770534D01*
X-7338704Y-3731863D01*
X-7319652Y-3696221D01*
X-7294017Y-3664983D01*
X-7262779Y-3639348D01*
X-7227137Y-3620296D01*
X-7188466Y-3608565D01*
X-7142112Y-3604000D01*
X-6065888Y-3604000D01*
X-6019534Y-3608565D01*
X-6019534Y-3608565D01*
G37*
G36*
X7188466Y-3608565D02*
X7227137Y-3620296D01*
X7262779Y-3639348D01*
X7294017Y-3664983D01*
X7319652Y-3696221D01*
X7338704Y-3731863D01*
X7350435Y-3770534D01*
X7355000Y-3816888D01*
X7355000Y-4468112D01*
X7350435Y-4514466D01*
X7338704Y-4553137D01*
X7319652Y-4588779D01*
X7294017Y-4620017D01*
X7262779Y-4645652D01*
X7227137Y-4664704D01*
X7188466Y-4676435D01*
X7142112Y-4681000D01*
X6065888Y-4681000D01*
X6019534Y-4676435D01*
X5980863Y-4664704D01*
X5945221Y-4645652D01*
X5913983Y-4620017D01*
X5888348Y-4588779D01*
X5869296Y-4553137D01*
X5857565Y-4514466D01*
X5853000Y-4468112D01*
X5853000Y-3816888D01*
X5857565Y-3770534D01*
X5869296Y-3731863D01*
X5888348Y-3696221D01*
X5913983Y-3664983D01*
X5945221Y-3639348D01*
X5980863Y-3620296D01*
X6019534Y-3608565D01*
X6065888Y-3604000D01*
X7142112Y-3604000D01*
X7188466Y-3608565D01*
X7188466Y-3608565D01*
G37*
G36*
X-9493179Y-2541313D02*
X-9493176Y-2541314D01*
X-9493175Y-2541314D01*
X-9332761Y-2589975D01*
X-9332759Y-2589976D01*
X-9332756Y-2589977D01*
X-9184922Y-2668995D01*
X-9055341Y-2775341D01*
X-8948995Y-2904922D01*
X-8869977Y-3052756D01*
X-8821313Y-3213179D01*
X-8804883Y-3380000D01*
X-8821313Y-3546821D01*
X-8821314Y-3546824D01*
X-8821314Y-3546825D01*
X-8840227Y-3609174D01*
X-8869977Y-3707244D01*
X-8948995Y-3855078D01*
X-9055341Y-3984659D01*
X-9184922Y-4091005D01*
X-9332756Y-4170023D01*
X-9332759Y-4170024D01*
X-9332761Y-4170025D01*
X-9493175Y-4218686D01*
X-9493176Y-4218686D01*
X-9493179Y-4218687D01*
X-9618196Y-4231000D01*
X-10701804Y-4231000D01*
X-10826821Y-4218687D01*
X-10826824Y-4218686D01*
X-10826825Y-4218686D01*
X-10987239Y-4170025D01*
X-10987241Y-4170024D01*
X-10987244Y-4170023D01*
X-11135078Y-4091005D01*
X-11264659Y-3984659D01*
X-11371005Y-3855078D01*
X-11450023Y-3707244D01*
X-11479772Y-3609174D01*
X-11498686Y-3546825D01*
X-11498686Y-3546824D01*
X-11498687Y-3546821D01*
X-11515117Y-3380000D01*
X-11498687Y-3213179D01*
X-11450023Y-3052756D01*
X-11371005Y-2904922D01*
X-11264659Y-2775341D01*
X-11135078Y-2668995D01*
X-10987244Y-2589977D01*
X-10987241Y-2589976D01*
X-10987239Y-2589975D01*
X-10826825Y-2541314D01*
X-10826824Y-2541314D01*
X-10826821Y-2541313D01*
X-10701804Y-2529000D01*
X-9618196Y-2529000D01*
X-9493179Y-2541313D01*
X-9493179Y-2541313D01*
G37*
G36*
X10826821Y-2541313D02*
X10826824Y-2541314D01*
X10826825Y-2541314D01*
X10987239Y-2589975D01*
X10987241Y-2589976D01*
X10987244Y-2589977D01*
X11135078Y-2668995D01*
X11264659Y-2775341D01*
X11371005Y-2904922D01*
X11450023Y-3052756D01*
X11498687Y-3213179D01*
X11515117Y-3380000D01*
X11498687Y-3546821D01*
X11498686Y-3546824D01*
X11498686Y-3546825D01*
X11479773Y-3609174D01*
X11450023Y-3707244D01*
X11371005Y-3855078D01*
X11264659Y-3984659D01*
X11135078Y-4091005D01*
X10987244Y-4170023D01*
X10987241Y-4170024D01*
X10987239Y-4170025D01*
X10826825Y-4218686D01*
X10826824Y-4218686D01*
X10826821Y-4218687D01*
X10701804Y-4231000D01*
X9618196Y-4231000D01*
X9493179Y-4218687D01*
X9493176Y-4218686D01*
X9493175Y-4218686D01*
X9332761Y-4170025D01*
X9332759Y-4170024D01*
X9332756Y-4170023D01*
X9184922Y-4091005D01*
X9055341Y-3984659D01*
X8948995Y-3855078D01*
X8869977Y-3707244D01*
X8840228Y-3609174D01*
X8821314Y-3546825D01*
X8821314Y-3546824D01*
X8821313Y-3546821D01*
X8804883Y-3380000D01*
X8821313Y-3213179D01*
X8869977Y-3052756D01*
X8948995Y-2904922D01*
X9055341Y-2775341D01*
X9184922Y-2668995D01*
X9332756Y-2589977D01*
X9332759Y-2589976D01*
X9332761Y-2589975D01*
X9493175Y-2541314D01*
X9493176Y-2541314D01*
X9493179Y-2541313D01*
X9618196Y-2529000D01*
X10701804Y-2529000D01*
X10826821Y-2541313D01*
X10826821Y-2541313D01*
G37*
G36*
X-2905000Y-3931000D02*
X-4207000Y-3931000D01*
X-4207000Y-2929000D01*
X-2905000Y-2929000D01*
X-2905000Y-3931000D01*
X-2905000Y-3931000D01*
G37*
G36*
X4207000Y-3931000D02*
X2905000Y-3931000D01*
X2905000Y-2929000D01*
X4207000Y-2929000D01*
X4207000Y-3931000D01*
X4207000Y-3931000D01*
G37*
G36*
X16508589Y-1778876D02*
X16607893Y-1798629D01*
X16748206Y-1856748D01*
X16874484Y-1941125D01*
X16981875Y-2048516D01*
X17066252Y-2174794D01*
X17124371Y-2315107D01*
X17124371Y-2315109D01*
X17153818Y-2463145D01*
X17154000Y-2464063D01*
X17154000Y-2615937D01*
X17124371Y-2764893D01*
X17066252Y-2905206D01*
X16981875Y-3031484D01*
X16874484Y-3138875D01*
X16748206Y-3223252D01*
X16607893Y-3281371D01*
X16508589Y-3301124D01*
X16458938Y-3311000D01*
X16307062Y-3311000D01*
X16257411Y-3301124D01*
X16158107Y-3281371D01*
X16017794Y-3223252D01*
X15891516Y-3138875D01*
X15784125Y-3031484D01*
X15699748Y-2905206D01*
X15641629Y-2764893D01*
X15612000Y-2615937D01*
X15612000Y-2464063D01*
X15612183Y-2463145D01*
X15641629Y-2315109D01*
X15641629Y-2315107D01*
X15699748Y-2174794D01*
X15784125Y-2048516D01*
X15891516Y-1941125D01*
X16017794Y-1856748D01*
X16158107Y-1798629D01*
X16257411Y-1778876D01*
X16307062Y-1769000D01*
X16458938Y-1769000D01*
X16508589Y-1778876D01*
X16508589Y-1778876D01*
G37*
G36*
X-14021396Y-1236347D02*
X-13984855Y-1247432D01*
X-13951180Y-1265431D01*
X-13921659Y-1289659D01*
X-13897431Y-1319180D01*
X-13879432Y-1352855D01*
X-13868347Y-1389396D01*
X-13864000Y-1433538D01*
X-13864000Y-2382462D01*
X-13868347Y-2426604D01*
X-13879432Y-2463145D01*
X-13897431Y-2496820D01*
X-13921659Y-2526341D01*
X-13951180Y-2550569D01*
X-13984855Y-2568568D01*
X-14021396Y-2579653D01*
X-14065538Y-2584000D01*
X-16414462Y-2584000D01*
X-16458604Y-2579653D01*
X-16495145Y-2568568D01*
X-16528820Y-2550569D01*
X-16558341Y-2526341D01*
X-16582569Y-2496820D01*
X-16600568Y-2463145D01*
X-16611653Y-2426604D01*
X-16616000Y-2382462D01*
X-16616000Y-1433538D01*
X-16611653Y-1389396D01*
X-16600568Y-1352855D01*
X-16582569Y-1319180D01*
X-16558341Y-1289659D01*
X-16528820Y-1265431D01*
X-16495145Y-1247432D01*
X-16458604Y-1236347D01*
X-16414462Y-1232000D01*
X-14065538Y-1232000D01*
X-14021396Y-1236347D01*
X-14021396Y-1236347D01*
G37*
G36*
X4207000Y-1643000D02*
X2905000Y-1643000D01*
X2905000Y-641000D01*
X4207000Y-641000D01*
X4207000Y-1643000D01*
X4207000Y-1643000D01*
G37*
G36*
X-2905000Y-1643000D02*
X-4207000Y-1643000D01*
X-4207000Y-641000D01*
X-2905000Y-641000D01*
X-2905000Y-1643000D01*
X-2905000Y-1643000D01*
G37*
G36*
X16508589Y761124D02*
X16607893Y741371D01*
X16748206Y683252D01*
X16874484Y598875D01*
X16981875Y491484D01*
X17066252Y365206D01*
X17124371Y224893D01*
X17154000Y75937D01*
X17154000Y-75937D01*
X17124371Y-224893D01*
X17066252Y-365206D01*
X16981875Y-491484D01*
X16874484Y-598875D01*
X16748206Y-683252D01*
X16607893Y-741371D01*
X16508589Y-761124D01*
X16458938Y-771000D01*
X16307062Y-771000D01*
X16257411Y-761124D01*
X16158107Y-741371D01*
X16017794Y-683252D01*
X15891516Y-598875D01*
X15784125Y-491484D01*
X15699748Y-365206D01*
X15641629Y-224893D01*
X15612000Y-75937D01*
X15612000Y75937D01*
X15641629Y224893D01*
X15699748Y365206D01*
X15784125Y491484D01*
X15891516Y598875D01*
X16017794Y683252D01*
X16158107Y741371D01*
X16257411Y761124D01*
X16307062Y771000D01*
X16458938Y771000D01*
X16508589Y761124D01*
X16508589Y761124D01*
G37*
G36*
X-14021396Y1563653D02*
X-13984855Y1552568D01*
X-13951180Y1534569D01*
X-13921659Y1510341D01*
X-13897431Y1480820D01*
X-13879432Y1447145D01*
X-13868347Y1410604D01*
X-13864000Y1366462D01*
X-13864000Y417538D01*
X-13868347Y373396D01*
X-13879432Y336855D01*
X-13897431Y303180D01*
X-13921659Y273659D01*
X-13951180Y249431D01*
X-13984855Y231432D01*
X-14021396Y220347D01*
X-14065538Y216000D01*
X-16414462Y216000D01*
X-16458604Y220347D01*
X-16495145Y231432D01*
X-16528820Y249431D01*
X-16558341Y273659D01*
X-16582569Y303180D01*
X-16600568Y336855D01*
X-16611653Y373396D01*
X-16616000Y417538D01*
X-16616000Y1366462D01*
X-16611653Y1410604D01*
X-16600568Y1447145D01*
X-16582569Y1480820D01*
X-16558341Y1510341D01*
X-16528820Y1534569D01*
X-16495145Y1552568D01*
X-16458604Y1563653D01*
X-16414462Y1568000D01*
X-14065538Y1568000D01*
X-14021396Y1563653D01*
X-14021396Y1563653D01*
G37*
G36*
X-2905000Y1657000D02*
X-4207000Y1657000D01*
X-4207000Y2659000D01*
X-2905000Y2659000D01*
X-2905000Y1657000D01*
X-2905000Y1657000D01*
G37*
G36*
X4207000Y1657000D02*
X2905000Y1657000D01*
X2905000Y2659000D01*
X4207000Y2659000D01*
X4207000Y1657000D01*
X4207000Y1657000D01*
G37*
G36*
X16508589Y3301124D02*
X16607893Y3281371D01*
X16748206Y3223252D01*
X16874484Y3138875D01*
X16981875Y3031484D01*
X17066252Y2905206D01*
X17124371Y2764893D01*
X17154000Y2615937D01*
X17154000Y2464063D01*
X17124371Y2315107D01*
X17066252Y2174794D01*
X16981875Y2048516D01*
X16874484Y1941125D01*
X16748206Y1856748D01*
X16607893Y1798629D01*
X16508589Y1778876D01*
X16458938Y1769000D01*
X16307062Y1769000D01*
X16257411Y1778876D01*
X16158107Y1798629D01*
X16017794Y1856748D01*
X15891516Y1941125D01*
X15784125Y2048516D01*
X15699748Y2174794D01*
X15641629Y2315107D01*
X15612000Y2464063D01*
X15612000Y2615937D01*
X15641629Y2764893D01*
X15699748Y2905206D01*
X15784125Y3031484D01*
X15891516Y3138875D01*
X16017794Y3223252D01*
X16158107Y3281371D01*
X16257411Y3301124D01*
X16307062Y3311000D01*
X16458938Y3311000D01*
X16508589Y3301124D01*
X16508589Y3301124D01*
G37*
G36*
X-3105000Y4087000D02*
X-4007000Y4087000D01*
X-4007000Y5089000D01*
X-3105000Y5089000D01*
X-3105000Y4087000D01*
X-3105000Y4087000D01*
G37*
G36*
X4007000Y4087000D02*
X3105000Y4087000D01*
X3105000Y5089000D01*
X4007000Y5089000D01*
X4007000Y4087000D01*
X4007000Y4087000D01*
G37*
G36*
X-9452975Y5709410D02*
X-9301988Y5663608D01*
X-9162835Y5589230D01*
X-9040867Y5489133D01*
X-8940770Y5367165D01*
X-8866392Y5228012D01*
X-8820590Y5077025D01*
X-8805125Y4920000D01*
X-8820590Y4762975D01*
X-8866392Y4611988D01*
X-8940770Y4472835D01*
X-9040867Y4350867D01*
X-9162835Y4250770D01*
X-9301988Y4176392D01*
X-9452975Y4130590D01*
X-9570654Y4119000D01*
X-10749346Y4119000D01*
X-10867025Y4130590D01*
X-11018012Y4176392D01*
X-11157165Y4250770D01*
X-11279133Y4350867D01*
X-11379230Y4472835D01*
X-11453608Y4611988D01*
X-11499410Y4762975D01*
X-11514875Y4920000D01*
X-11499410Y5077025D01*
X-11453608Y5228012D01*
X-11379230Y5367165D01*
X-11279133Y5489133D01*
X-11157165Y5589230D01*
X-11018012Y5663608D01*
X-10867025Y5709410D01*
X-10749346Y5721000D01*
X-9570654Y5721000D01*
X-9452975Y5709410D01*
X-9452975Y5709410D01*
G37*
G36*
X10867025Y5709410D02*
X11018012Y5663608D01*
X11157165Y5589230D01*
X11279133Y5489133D01*
X11379230Y5367165D01*
X11453608Y5228012D01*
X11499410Y5077025D01*
X11514875Y4920000D01*
X11499410Y4762975D01*
X11453608Y4611988D01*
X11379230Y4472835D01*
X11279133Y4350867D01*
X11157165Y4250770D01*
X11018012Y4176392D01*
X10867025Y4130590D01*
X10749346Y4119000D01*
X9570654Y4119000D01*
X9452975Y4130590D01*
X9301988Y4176392D01*
X9162835Y4250770D01*
X9040867Y4350867D01*
X8940770Y4472835D01*
X8866392Y4611988D01*
X8820590Y4762975D01*
X8805125Y4920000D01*
X8820590Y5077025D01*
X8866392Y5228012D01*
X8940770Y5367165D01*
X9040867Y5489133D01*
X9162835Y5589230D01*
X9301988Y5663608D01*
X9452975Y5709410D01*
X9570654Y5721000D01*
X10749346Y5721000D01*
X10867025Y5709410D01*
X10867025Y5709410D01*
G37*
G36*
X4957000Y6087000D02*
X4055000Y6087000D01*
X4055000Y7089000D01*
X4957000Y7089000D01*
X4957000Y6087000D01*
X4957000Y6087000D01*
G37*
G36*
X3057000Y6087000D02*
X2155000Y6087000D01*
X2155000Y7089000D01*
X3057000Y7089000D01*
X3057000Y6087000D01*
X3057000Y6087000D01*
G37*
G36*
X-2155000Y6087000D02*
X-3057000Y6087000D01*
X-3057000Y7089000D01*
X-2155000Y7089000D01*
X-2155000Y6087000D01*
X-2155000Y6087000D01*
G37*
G36*
X-4055000Y6087000D02*
X-4957000Y6087000D01*
X-4957000Y7089000D01*
X-4055000Y7089000D01*
X-4055000Y6087000D01*
X-4055000Y6087000D01*
G37*
G36*
X10539591Y8332915D02*
X10573569Y8322607D01*
X10604887Y8305867D01*
X10632339Y8283339D01*
X10654867Y8255887D01*
X10671607Y8224569D01*
X10681915Y8190591D01*
X10686000Y8149110D01*
X10686000Y7547890D01*
X10681915Y7506409D01*
X10671607Y7472431D01*
X10654867Y7441113D01*
X10632339Y7413661D01*
X10604887Y7391133D01*
X10573569Y7374393D01*
X10539591Y7364085D01*
X10498110Y7360000D01*
X9821890Y7360000D01*
X9780409Y7364085D01*
X9746431Y7374393D01*
X9715113Y7391133D01*
X9687661Y7413661D01*
X9665133Y7441113D01*
X9648393Y7472431D01*
X9638085Y7506409D01*
X9634000Y7547890D01*
X9634000Y8149110D01*
X9638085Y8190591D01*
X9648393Y8224569D01*
X9665133Y8255887D01*
X9687661Y8283339D01*
X9715113Y8305867D01*
X9746431Y8322607D01*
X9780409Y8332915D01*
X9821890Y8337000D01*
X10498110Y8337000D01*
X10539591Y8332915D01*
X10539591Y8332915D01*
G37*
G36*
X-9780409Y8332915D02*
X-9746431Y8322607D01*
X-9715113Y8305867D01*
X-9687661Y8283339D01*
X-9665133Y8255887D01*
X-9648393Y8224569D01*
X-9638085Y8190591D01*
X-9634000Y8149110D01*
X-9634000Y7547890D01*
X-9638085Y7506409D01*
X-9648393Y7472431D01*
X-9665133Y7441113D01*
X-9687661Y7413661D01*
X-9715113Y7391133D01*
X-9746431Y7374393D01*
X-9780409Y7364085D01*
X-9821890Y7360000D01*
X-10498110Y7360000D01*
X-10539591Y7364085D01*
X-10573569Y7374393D01*
X-10604887Y7391133D01*
X-10632339Y7413661D01*
X-10654867Y7441113D01*
X-10671607Y7472431D01*
X-10681915Y7506409D01*
X-10686000Y7547890D01*
X-10686000Y8149110D01*
X-10681915Y8190591D01*
X-10671607Y8224569D01*
X-10654867Y8255887D01*
X-10632339Y8283339D01*
X-10604887Y8305867D01*
X-10573569Y8322607D01*
X-10539591Y8332915D01*
X-10498110Y8337000D01*
X-9821890Y8337000D01*
X-9780409Y8332915D01*
X-9780409Y8332915D01*
G37*
G36*
X13079591Y8332915D02*
X13113569Y8322607D01*
X13144887Y8305867D01*
X13172339Y8283339D01*
X13194867Y8255887D01*
X13211607Y8224569D01*
X13221915Y8190591D01*
X13226000Y8149110D01*
X13226000Y7547890D01*
X13221915Y7506409D01*
X13211607Y7472431D01*
X13194867Y7441113D01*
X13172339Y7413661D01*
X13144887Y7391133D01*
X13113569Y7374393D01*
X13079591Y7364085D01*
X13038110Y7360000D01*
X12361890Y7360000D01*
X12320409Y7364085D01*
X12286431Y7374393D01*
X12255113Y7391133D01*
X12227661Y7413661D01*
X12205133Y7441113D01*
X12188393Y7472431D01*
X12178085Y7506409D01*
X12174000Y7547890D01*
X12174000Y8149110D01*
X12178085Y8190591D01*
X12188393Y8224569D01*
X12205133Y8255887D01*
X12227661Y8283339D01*
X12255113Y8305867D01*
X12286431Y8322607D01*
X12320409Y8332915D01*
X12361890Y8337000D01*
X13038110Y8337000D01*
X13079591Y8332915D01*
X13079591Y8332915D01*
G37*
G36*
X-4700409Y9348915D02*
X-4666431Y9338607D01*
X-4635113Y9321867D01*
X-4607661Y9299339D01*
X-4585133Y9271887D01*
X-4568393Y9240569D01*
X-4558085Y9206591D01*
X-4554000Y9165110D01*
X-4554000Y8563890D01*
X-4558085Y8522409D01*
X-4568393Y8488431D01*
X-4585133Y8457113D01*
X-4607661Y8429661D01*
X-4635113Y8407133D01*
X-4666431Y8390393D01*
X-4700409Y8380085D01*
X-4741890Y8376000D01*
X-5418110Y8376000D01*
X-5459591Y8380085D01*
X-5493569Y8390393D01*
X-5524887Y8407133D01*
X-5552339Y8429661D01*
X-5574867Y8457113D01*
X-5591607Y8488431D01*
X-5601915Y8522409D01*
X-5606000Y8563890D01*
X-5606000Y9165110D01*
X-5601915Y9206591D01*
X-5591607Y9240569D01*
X-5574867Y9271887D01*
X-5552339Y9299339D01*
X-5524887Y9321867D01*
X-5493569Y9338607D01*
X-5459591Y9348915D01*
X-5418110Y9353000D01*
X-4741890Y9353000D01*
X-4700409Y9348915D01*
X-4700409Y9348915D01*
G37*
G36*
X5459591Y9348915D02*
X5493569Y9338607D01*
X5524887Y9321867D01*
X5552339Y9299339D01*
X5574867Y9271887D01*
X5591607Y9240569D01*
X5601915Y9206591D01*
X5606000Y9165110D01*
X5606000Y8563890D01*
X5601915Y8522409D01*
X5591607Y8488431D01*
X5574867Y8457113D01*
X5552339Y8429661D01*
X5524887Y8407133D01*
X5493569Y8390393D01*
X5459591Y8380085D01*
X5418110Y8376000D01*
X4741890Y8376000D01*
X4700409Y8380085D01*
X4666431Y8390393D01*
X4635113Y8407133D01*
X4607661Y8429661D01*
X4585133Y8457113D01*
X4568393Y8488431D01*
X4558085Y8522409D01*
X4554000Y8563890D01*
X4554000Y9165110D01*
X4558085Y9206591D01*
X4568393Y9240569D01*
X4585133Y9271887D01*
X4607661Y9299339D01*
X4635113Y9321867D01*
X4666431Y9338607D01*
X4700409Y9348915D01*
X4741890Y9353000D01*
X5418110Y9353000D01*
X5459591Y9348915D01*
X5459591Y9348915D01*
G37*
G36*
X2919591Y9348915D02*
X2953569Y9338607D01*
X2984887Y9321867D01*
X3012339Y9299339D01*
X3034867Y9271887D01*
X3051607Y9240569D01*
X3061915Y9206591D01*
X3066000Y9165110D01*
X3066000Y8563890D01*
X3061915Y8522409D01*
X3051607Y8488431D01*
X3034867Y8457113D01*
X3012339Y8429661D01*
X2984887Y8407133D01*
X2953569Y8390393D01*
X2919591Y8380085D01*
X2878110Y8376000D01*
X2201890Y8376000D01*
X2160409Y8380085D01*
X2126431Y8390393D01*
X2095113Y8407133D01*
X2067661Y8429661D01*
X2045133Y8457113D01*
X2028393Y8488431D01*
X2018085Y8522409D01*
X2014000Y8563890D01*
X2014000Y9165110D01*
X2018085Y9206591D01*
X2028393Y9240569D01*
X2045133Y9271887D01*
X2067661Y9299339D01*
X2095113Y9321867D01*
X2126431Y9338607D01*
X2160409Y9348915D01*
X2201890Y9353000D01*
X2878110Y9353000D01*
X2919591Y9348915D01*
X2919591Y9348915D01*
G37*
G36*
X-2160409Y9348915D02*
X-2126431Y9338607D01*
X-2095113Y9321867D01*
X-2067661Y9299339D01*
X-2045133Y9271887D01*
X-2028393Y9240569D01*
X-2018085Y9206591D01*
X-2014000Y9165110D01*
X-2014000Y8563890D01*
X-2018085Y8522409D01*
X-2028393Y8488431D01*
X-2045133Y8457113D01*
X-2067661Y8429661D01*
X-2095113Y8407133D01*
X-2126431Y8390393D01*
X-2160409Y8380085D01*
X-2201890Y8376000D01*
X-2878110Y8376000D01*
X-2919591Y8380085D01*
X-2953569Y8390393D01*
X-2984887Y8407133D01*
X-3012339Y8429661D01*
X-3034867Y8457113D01*
X-3051607Y8488431D01*
X-3061915Y8522409D01*
X-3066000Y8563890D01*
X-3066000Y9165110D01*
X-3061915Y9206591D01*
X-3051607Y9240569D01*
X-3034867Y9271887D01*
X-3012339Y9299339D01*
X-2984887Y9321867D01*
X-2953569Y9338607D01*
X-2919591Y9348915D01*
X-2878110Y9353000D01*
X-2201890Y9353000D01*
X-2160409Y9348915D01*
X-2160409Y9348915D01*
G37*
G36*
X-9780409Y9907915D02*
X-9746431Y9897607D01*
X-9715113Y9880867D01*
X-9687661Y9858339D01*
X-9665133Y9830887D01*
X-9648393Y9799569D01*
X-9638085Y9765591D01*
X-9634000Y9724110D01*
X-9634000Y9122890D01*
X-9638085Y9081409D01*
X-9648393Y9047431D01*
X-9665133Y9016113D01*
X-9687661Y8988661D01*
X-9715113Y8966133D01*
X-9746431Y8949393D01*
X-9780409Y8939085D01*
X-9821890Y8935000D01*
X-10498110Y8935000D01*
X-10539591Y8939085D01*
X-10573569Y8949393D01*
X-10604887Y8966133D01*
X-10632339Y8988661D01*
X-10654867Y9016113D01*
X-10671607Y9047431D01*
X-10681915Y9081409D01*
X-10686000Y9122890D01*
X-10686000Y9724110D01*
X-10681915Y9765591D01*
X-10671607Y9799569D01*
X-10654867Y9830887D01*
X-10632339Y9858339D01*
X-10604887Y9880867D01*
X-10573569Y9897607D01*
X-10539591Y9907915D01*
X-10498110Y9912000D01*
X-9821890Y9912000D01*
X-9780409Y9907915D01*
X-9780409Y9907915D01*
G37*
G36*
X10539591Y9907915D02*
X10573569Y9897607D01*
X10604887Y9880867D01*
X10632339Y9858339D01*
X10654867Y9830887D01*
X10671607Y9799569D01*
X10681915Y9765591D01*
X10686000Y9724110D01*
X10686000Y9122890D01*
X10681915Y9081409D01*
X10671607Y9047431D01*
X10654867Y9016113D01*
X10632339Y8988661D01*
X10604887Y8966133D01*
X10573569Y8949393D01*
X10539591Y8939085D01*
X10498110Y8935000D01*
X9821890Y8935000D01*
X9780409Y8939085D01*
X9746431Y8949393D01*
X9715113Y8966133D01*
X9687661Y8988661D01*
X9665133Y9016113D01*
X9648393Y9047431D01*
X9638085Y9081409D01*
X9634000Y9122890D01*
X9634000Y9724110D01*
X9638085Y9765591D01*
X9648393Y9799569D01*
X9665133Y9830887D01*
X9687661Y9858339D01*
X9715113Y9880867D01*
X9746431Y9897607D01*
X9780409Y9907915D01*
X9821890Y9912000D01*
X10498110Y9912000D01*
X10539591Y9907915D01*
X10539591Y9907915D01*
G37*
G36*
X13079591Y9907915D02*
X13113569Y9897607D01*
X13144887Y9880867D01*
X13172339Y9858339D01*
X13194867Y9830887D01*
X13211607Y9799569D01*
X13221915Y9765591D01*
X13226000Y9724110D01*
X13226000Y9122890D01*
X13221915Y9081409D01*
X13211607Y9047431D01*
X13194867Y9016113D01*
X13172339Y8988661D01*
X13144887Y8966133D01*
X13113569Y8949393D01*
X13079591Y8939085D01*
X13038110Y8935000D01*
X12361890Y8935000D01*
X12320409Y8939085D01*
X12286431Y8949393D01*
X12255113Y8966133D01*
X12227661Y8988661D01*
X12205133Y9016113D01*
X12188393Y9047431D01*
X12178085Y9081409D01*
X12174000Y9122890D01*
X12174000Y9724110D01*
X12178085Y9765591D01*
X12188393Y9799569D01*
X12205133Y9830887D01*
X12227661Y9858339D01*
X12255113Y9880867D01*
X12286431Y9897607D01*
X12320409Y9907915D01*
X12361890Y9912000D01*
X13038110Y9912000D01*
X13079591Y9907915D01*
X13079591Y9907915D01*
G37*
G36*
X-4700409Y10923915D02*
X-4666431Y10913607D01*
X-4635113Y10896867D01*
X-4607661Y10874339D01*
X-4585133Y10846887D01*
X-4568393Y10815569D01*
X-4558085Y10781591D01*
X-4554000Y10740110D01*
X-4554000Y10138890D01*
X-4558085Y10097409D01*
X-4568393Y10063431D01*
X-4585133Y10032113D01*
X-4607661Y10004661D01*
X-4635113Y9982133D01*
X-4666431Y9965393D01*
X-4700409Y9955085D01*
X-4741890Y9951000D01*
X-5418110Y9951000D01*
X-5459591Y9955085D01*
X-5493569Y9965393D01*
X-5524887Y9982133D01*
X-5552339Y10004661D01*
X-5574867Y10032113D01*
X-5591607Y10063431D01*
X-5601915Y10097409D01*
X-5606000Y10138890D01*
X-5606000Y10740110D01*
X-5601915Y10781591D01*
X-5591607Y10815569D01*
X-5574867Y10846887D01*
X-5552339Y10874339D01*
X-5524887Y10896867D01*
X-5493569Y10913607D01*
X-5459591Y10923915D01*
X-5418110Y10928000D01*
X-4741890Y10928000D01*
X-4700409Y10923915D01*
X-4700409Y10923915D01*
G37*
G36*
X5459591Y10923915D02*
X5493569Y10913607D01*
X5524887Y10896867D01*
X5552339Y10874339D01*
X5574867Y10846887D01*
X5591607Y10815569D01*
X5601915Y10781591D01*
X5606000Y10740110D01*
X5606000Y10138890D01*
X5601915Y10097409D01*
X5591607Y10063431D01*
X5574867Y10032113D01*
X5552339Y10004661D01*
X5524887Y9982133D01*
X5493569Y9965393D01*
X5459591Y9955085D01*
X5418110Y9951000D01*
X4741890Y9951000D01*
X4700409Y9955085D01*
X4666431Y9965393D01*
X4635113Y9982133D01*
X4607661Y10004661D01*
X4585133Y10032113D01*
X4568393Y10063431D01*
X4558085Y10097409D01*
X4554000Y10138890D01*
X4554000Y10740110D01*
X4558085Y10781591D01*
X4568393Y10815569D01*
X4585133Y10846887D01*
X4607661Y10874339D01*
X4635113Y10896867D01*
X4666431Y10913607D01*
X4700409Y10923915D01*
X4741890Y10928000D01*
X5418110Y10928000D01*
X5459591Y10923915D01*
X5459591Y10923915D01*
G37*
G36*
X2919591Y10923915D02*
X2953569Y10913607D01*
X2984887Y10896867D01*
X3012339Y10874339D01*
X3034867Y10846887D01*
X3051607Y10815569D01*
X3061915Y10781591D01*
X3066000Y10740110D01*
X3066000Y10138890D01*
X3061915Y10097409D01*
X3051607Y10063431D01*
X3034867Y10032113D01*
X3012339Y10004661D01*
X2984887Y9982133D01*
X2953569Y9965393D01*
X2919591Y9955085D01*
X2878110Y9951000D01*
X2201890Y9951000D01*
X2160409Y9955085D01*
X2126431Y9965393D01*
X2095113Y9982133D01*
X2067661Y10004661D01*
X2045133Y10032113D01*
X2028393Y10063431D01*
X2018085Y10097409D01*
X2014000Y10138890D01*
X2014000Y10740110D01*
X2018085Y10781591D01*
X2028393Y10815569D01*
X2045133Y10846887D01*
X2067661Y10874339D01*
X2095113Y10896867D01*
X2126431Y10913607D01*
X2160409Y10923915D01*
X2201890Y10928000D01*
X2878110Y10928000D01*
X2919591Y10923915D01*
X2919591Y10923915D01*
G37*
G36*
X-2160409Y10923915D02*
X-2126431Y10913607D01*
X-2095113Y10896867D01*
X-2067661Y10874339D01*
X-2045133Y10846887D01*
X-2028393Y10815569D01*
X-2018085Y10781591D01*
X-2014000Y10740110D01*
X-2014000Y10138890D01*
X-2018085Y10097409D01*
X-2028393Y10063431D01*
X-2045133Y10032113D01*
X-2067661Y10004661D01*
X-2095113Y9982133D01*
X-2126431Y9965393D01*
X-2160409Y9955085D01*
X-2201890Y9951000D01*
X-2878110Y9951000D01*
X-2919591Y9955085D01*
X-2953569Y9965393D01*
X-2984887Y9982133D01*
X-3012339Y10004661D01*
X-3034867Y10032113D01*
X-3051607Y10063431D01*
X-3061915Y10097409D01*
X-3066000Y10138890D01*
X-3066000Y10740110D01*
X-3061915Y10781591D01*
X-3051607Y10815569D01*
X-3034867Y10846887D01*
X-3012339Y10874339D01*
X-2984887Y10896867D01*
X-2953569Y10913607D01*
X-2919591Y10923915D01*
X-2878110Y10928000D01*
X-2201890Y10928000D01*
X-2160409Y10923915D01*
X-2160409Y10923915D01*
G37*
G36*
X12937396Y13734444D02*
X13110466Y13662756D01*
X13266230Y13558678D01*
X13398688Y13426220D01*
X13502766Y13270456D01*
X13574454Y13097386D01*
X13611000Y12913657D01*
X13611000Y12726323D01*
X13574454Y12542594D01*
X13502766Y12369524D01*
X13398688Y12213760D01*
X13266230Y12081302D01*
X13110466Y11977224D01*
X12937396Y11905536D01*
X12753667Y11868990D01*
X12566333Y11868990D01*
X12382604Y11905536D01*
X12209534Y11977224D01*
X12053770Y12081302D01*
X11921312Y12213760D01*
X11817234Y12369524D01*
X11745546Y12542594D01*
X11709000Y12726323D01*
X11709000Y12913657D01*
X11745546Y13097386D01*
X11817234Y13270456D01*
X11921312Y13426220D01*
X12053770Y13558678D01*
X12209534Y13662756D01*
X12382604Y13734444D01*
X12566333Y13770990D01*
X12753667Y13770990D01*
X12937396Y13734444D01*
X12937396Y13734444D01*
G37*
G36*
X10477396Y13734444D02*
X10650466Y13662756D01*
X10806230Y13558678D01*
X10938688Y13426220D01*
X11042766Y13270456D01*
X11114454Y13097386D01*
X11151000Y12913657D01*
X11151000Y12726323D01*
X11114454Y12542594D01*
X11042766Y12369524D01*
X10938688Y12213760D01*
X10806230Y12081302D01*
X10650466Y11977224D01*
X10477396Y11905536D01*
X10293667Y11868990D01*
X10106333Y11868990D01*
X9922604Y11905536D01*
X9749534Y11977224D01*
X9593770Y12081302D01*
X9461312Y12213760D01*
X9357234Y12369524D01*
X9285546Y12542594D01*
X9249000Y12726323D01*
X9249000Y12913657D01*
X9285546Y13097386D01*
X9357234Y13270456D01*
X9461312Y13426220D01*
X9593770Y13558678D01*
X9749534Y13662756D01*
X9922604Y13734444D01*
X10106333Y13770990D01*
X10293667Y13770990D01*
X10477396Y13734444D01*
X10477396Y13734444D01*
G37*
G36*
X7937396Y13734444D02*
X8110466Y13662756D01*
X8266230Y13558678D01*
X8398688Y13426220D01*
X8502766Y13270456D01*
X8574454Y13097386D01*
X8611000Y12913657D01*
X8611000Y12726323D01*
X8574454Y12542594D01*
X8502766Y12369524D01*
X8398688Y12213760D01*
X8266230Y12081302D01*
X8110466Y11977224D01*
X7937396Y11905536D01*
X7753667Y11868990D01*
X7566333Y11868990D01*
X7382604Y11905536D01*
X7209534Y11977224D01*
X7053770Y12081302D01*
X6921312Y12213760D01*
X6817234Y12369524D01*
X6745546Y12542594D01*
X6709000Y12726323D01*
X6709000Y12913657D01*
X6745546Y13097386D01*
X6817234Y13270456D01*
X6921312Y13426220D01*
X7053770Y13558678D01*
X7209534Y13662756D01*
X7382604Y13734444D01*
X7566333Y13770990D01*
X7753667Y13770990D01*
X7937396Y13734444D01*
X7937396Y13734444D01*
G37*
G36*
X-7382604Y13734444D02*
X-7209534Y13662756D01*
X-7053770Y13558678D01*
X-6921312Y13426220D01*
X-6817234Y13270456D01*
X-6745546Y13097386D01*
X-6709000Y12913657D01*
X-6709000Y12726323D01*
X-6745546Y12542594D01*
X-6817234Y12369524D01*
X-6921312Y12213760D01*
X-7053770Y12081302D01*
X-7209534Y11977224D01*
X-7382604Y11905536D01*
X-7566333Y11868990D01*
X-7753667Y11868990D01*
X-7937396Y11905536D01*
X-8110466Y11977224D01*
X-8266230Y12081302D01*
X-8398688Y12213760D01*
X-8502766Y12369524D01*
X-8574454Y12542594D01*
X-8611000Y12726323D01*
X-8611000Y12913657D01*
X-8574454Y13097386D01*
X-8502766Y13270456D01*
X-8398688Y13426220D01*
X-8266230Y13558678D01*
X-8110466Y13662756D01*
X-7937396Y13734444D01*
X-7753667Y13770990D01*
X-7566333Y13770990D01*
X-7382604Y13734444D01*
X-7382604Y13734444D01*
G37*
G36*
X-9842604Y13734444D02*
X-9669534Y13662756D01*
X-9513770Y13558678D01*
X-9381312Y13426220D01*
X-9277234Y13270456D01*
X-9205546Y13097386D01*
X-9169000Y12913657D01*
X-9169000Y12726323D01*
X-9205546Y12542594D01*
X-9277234Y12369524D01*
X-9381312Y12213760D01*
X-9513770Y12081302D01*
X-9669534Y11977224D01*
X-9842604Y11905536D01*
X-10026333Y11868990D01*
X-10213667Y11868990D01*
X-10397396Y11905536D01*
X-10570466Y11977224D01*
X-10726230Y12081302D01*
X-10858688Y12213760D01*
X-10962766Y12369524D01*
X-11034454Y12542594D01*
X-11071000Y12726323D01*
X-11071000Y12913657D01*
X-11034454Y13097386D01*
X-10962766Y13270456D01*
X-10858688Y13426220D01*
X-10726230Y13558678D01*
X-10570466Y13662756D01*
X-10397396Y13734444D01*
X-10213667Y13770990D01*
X-10026333Y13770990D01*
X-9842604Y13734444D01*
X-9842604Y13734444D01*
G37*
G36*
X-12382604Y13734444D02*
X-12209534Y13662756D01*
X-12053770Y13558678D01*
X-11921312Y13426220D01*
X-11817234Y13270456D01*
X-11745546Y13097386D01*
X-11709000Y12913657D01*
X-11709000Y12726323D01*
X-11745546Y12542594D01*
X-11817234Y12369524D01*
X-11921312Y12213760D01*
X-12053770Y12081302D01*
X-12209534Y11977224D01*
X-12382604Y11905536D01*
X-12566333Y11868990D01*
X-12753667Y11868990D01*
X-12937396Y11905536D01*
X-13110466Y11977224D01*
X-13266230Y12081302D01*
X-13398688Y12213760D01*
X-13502766Y12369524D01*
X-13574454Y12542594D01*
X-13611000Y12726323D01*
X-13611000Y12913657D01*
X-13574454Y13097386D01*
X-13502766Y13270456D01*
X-13398688Y13426220D01*
X-13266230Y13558678D01*
X-13110466Y13662756D01*
X-12937396Y13734444D01*
X-12753667Y13770990D01*
X-12566333Y13770990D01*
X-12382604Y13734444D01*
X-12382604Y13734444D01*
G37*
G36*
X2919591Y13412915D02*
X2953569Y13402607D01*
X2984887Y13385867D01*
X3012339Y13363339D01*
X3034867Y13335887D01*
X3051607Y13304569D01*
X3061915Y13270591D01*
X3066000Y13229110D01*
X3066000Y12627890D01*
X3061915Y12586409D01*
X3051607Y12552431D01*
X3034867Y12521113D01*
X3012339Y12493661D01*
X2984887Y12471133D01*
X2953569Y12454393D01*
X2919591Y12444085D01*
X2878110Y12440000D01*
X2201890Y12440000D01*
X2160409Y12444085D01*
X2126431Y12454393D01*
X2095113Y12471133D01*
X2067661Y12493661D01*
X2045133Y12521113D01*
X2028393Y12552431D01*
X2018085Y12586409D01*
X2014000Y12627890D01*
X2014000Y13229110D01*
X2018085Y13270591D01*
X2028393Y13304569D01*
X2045133Y13335887D01*
X2067661Y13363339D01*
X2095113Y13385867D01*
X2126431Y13402607D01*
X2160409Y13412915D01*
X2201890Y13417000D01*
X2878110Y13417000D01*
X2919591Y13412915D01*
X2919591Y13412915D01*
G37*
G36*
X-2160409Y13412915D02*
X-2126431Y13402607D01*
X-2095113Y13385867D01*
X-2067661Y13363339D01*
X-2045133Y13335887D01*
X-2028393Y13304569D01*
X-2018085Y13270591D01*
X-2014000Y13229110D01*
X-2014000Y12627890D01*
X-2018085Y12586409D01*
X-2028393Y12552431D01*
X-2045133Y12521113D01*
X-2067661Y12493661D01*
X-2095113Y12471133D01*
X-2126431Y12454393D01*
X-2160409Y12444085D01*
X-2201890Y12440000D01*
X-2878110Y12440000D01*
X-2919591Y12444085D01*
X-2953569Y12454393D01*
X-2984887Y12471133D01*
X-3012339Y12493661D01*
X-3034867Y12521113D01*
X-3051607Y12552431D01*
X-3061915Y12586409D01*
X-3066000Y12627890D01*
X-3066000Y13229110D01*
X-3061915Y13270591D01*
X-3051607Y13304569D01*
X-3034867Y13335887D01*
X-3012339Y13363339D01*
X-2984887Y13385867D01*
X-2953569Y13402607D01*
X-2919591Y13412915D01*
X-2878110Y13417000D01*
X-2201890Y13417000D01*
X-2160409Y13412915D01*
X-2160409Y13412915D01*
G37*
G36*
X-2160409Y14987915D02*
X-2126431Y14977607D01*
X-2095113Y14960867D01*
X-2067661Y14938339D01*
X-2045133Y14910887D01*
X-2028393Y14879569D01*
X-2018085Y14845591D01*
X-2014000Y14804110D01*
X-2014000Y14202890D01*
X-2018085Y14161409D01*
X-2028393Y14127431D01*
X-2045133Y14096113D01*
X-2067661Y14068661D01*
X-2095113Y14046133D01*
X-2126431Y14029393D01*
X-2160409Y14019085D01*
X-2201890Y14015000D01*
X-2878110Y14015000D01*
X-2919591Y14019085D01*
X-2953569Y14029393D01*
X-2984887Y14046133D01*
X-3012339Y14068661D01*
X-3034867Y14096113D01*
X-3051607Y14127431D01*
X-3061915Y14161409D01*
X-3066000Y14202890D01*
X-3066000Y14804110D01*
X-3061915Y14845591D01*
X-3051607Y14879569D01*
X-3034867Y14910887D01*
X-3012339Y14938339D01*
X-2984887Y14960867D01*
X-2953569Y14977607D01*
X-2919591Y14987915D01*
X-2878110Y14992000D01*
X-2201890Y14992000D01*
X-2160409Y14987915D01*
X-2160409Y14987915D01*
G37*
G36*
X2919591Y14987915D02*
X2953569Y14977607D01*
X2984887Y14960867D01*
X3012339Y14938339D01*
X3034867Y14910887D01*
X3051607Y14879569D01*
X3061915Y14845591D01*
X3066000Y14804110D01*
X3066000Y14202890D01*
X3061915Y14161409D01*
X3051607Y14127431D01*
X3034867Y14096113D01*
X3012339Y14068661D01*
X2984887Y14046133D01*
X2953569Y14029393D01*
X2919591Y14019085D01*
X2878110Y14015000D01*
X2201890Y14015000D01*
X2160409Y14019085D01*
X2126431Y14029393D01*
X2095113Y14046133D01*
X2067661Y14068661D01*
X2045133Y14096113D01*
X2028393Y14127431D01*
X2018085Y14161409D01*
X2014000Y14202890D01*
X2014000Y14804110D01*
X2018085Y14845591D01*
X2028393Y14879569D01*
X2045133Y14910887D01*
X2067661Y14938339D01*
X2095113Y14960867D01*
X2126431Y14977607D01*
X2160409Y14987915D01*
X2201890Y14992000D01*
X2878110Y14992000D01*
X2919591Y14987915D01*
X2919591Y14987915D01*
G37*
G36*
X-14435820Y21464338D02*
X-14334365Y21454346D01*
X-14117400Y21388530D01*
X-14117398Y21388529D01*
X-14117395Y21388528D01*
X-13917444Y21281653D01*
X-13742182Y21137818D01*
X-13598347Y20962556D01*
X-13491472Y20762605D01*
X-13491471Y20762602D01*
X-13491470Y20762600D01*
X-13425654Y20545635D01*
X-13403431Y20320000D01*
X-13425654Y20094365D01*
X-13491470Y19877400D01*
X-13491472Y19877395D01*
X-13598347Y19677444D01*
X-13742182Y19502182D01*
X-13917444Y19358347D01*
X-14117395Y19251472D01*
X-14117398Y19251471D01*
X-14117400Y19251470D01*
X-14334365Y19185654D01*
X-14435820Y19175662D01*
X-14503455Y19169000D01*
X-15416545Y19169000D01*
X-15484180Y19175662D01*
X-15585635Y19185654D01*
X-15802600Y19251470D01*
X-15802602Y19251471D01*
X-15802605Y19251472D01*
X-16002556Y19358347D01*
X-16177818Y19502182D01*
X-16321653Y19677444D01*
X-16428528Y19877395D01*
X-16428530Y19877400D01*
X-16494346Y20094365D01*
X-16516569Y20320000D01*
X-16494346Y20545635D01*
X-16428530Y20762600D01*
X-16428529Y20762602D01*
X-16428528Y20762605D01*
X-16321653Y20962556D01*
X-16177818Y21137818D01*
X-16002556Y21281653D01*
X-15802605Y21388528D01*
X-15802602Y21388529D01*
X-15802600Y21388530D01*
X-15585635Y21454346D01*
X-15484180Y21464338D01*
X-15416545Y21471000D01*
X-14503455Y21471000D01*
X-14435820Y21464338D01*
X-14435820Y21464338D01*
G37*
G36*
X5884180Y21464338D02*
X5985635Y21454346D01*
X6202600Y21388530D01*
X6202602Y21388529D01*
X6202605Y21388528D01*
X6402556Y21281653D01*
X6577818Y21137818D01*
X6721653Y20962556D01*
X6828528Y20762605D01*
X6828529Y20762602D01*
X6828530Y20762600D01*
X6894346Y20545635D01*
X6916569Y20320000D01*
X6894346Y20094365D01*
X6828530Y19877400D01*
X6828528Y19877395D01*
X6721653Y19677444D01*
X6577818Y19502182D01*
X6402556Y19358347D01*
X6202605Y19251472D01*
X6202602Y19251471D01*
X6202600Y19251470D01*
X5985635Y19185654D01*
X5884180Y19175662D01*
X5816545Y19169000D01*
X4903455Y19169000D01*
X4835820Y19175662D01*
X4734365Y19185654D01*
X4517400Y19251470D01*
X4517398Y19251471D01*
X4517395Y19251472D01*
X4317444Y19358347D01*
X4142182Y19502182D01*
X3998347Y19677444D01*
X3891472Y19877395D01*
X3891470Y19877400D01*
X3825654Y20094365D01*
X3803431Y20320000D01*
X3825654Y20545635D01*
X3891470Y20762600D01*
X3891471Y20762602D01*
X3891472Y20762605D01*
X3998347Y20962556D01*
X4142182Y21137818D01*
X4317444Y21281653D01*
X4517395Y21388528D01*
X4517398Y21388529D01*
X4517400Y21388530D01*
X4734365Y21454346D01*
X4835820Y21464338D01*
X4903455Y21471000D01*
X5816545Y21471000D01*
X5884180Y21464338D01*
X5884180Y21464338D01*
G37*
G36*
X15484180Y21464338D02*
X15585635Y21454346D01*
X15802600Y21388530D01*
X15802602Y21388529D01*
X15802605Y21388528D01*
X16002556Y21281653D01*
X16177818Y21137818D01*
X16321653Y20962556D01*
X16428528Y20762605D01*
X16428529Y20762602D01*
X16428530Y20762600D01*
X16494346Y20545635D01*
X16516569Y20320000D01*
X16494346Y20094365D01*
X16428530Y19877400D01*
X16428528Y19877395D01*
X16321653Y19677444D01*
X16177818Y19502182D01*
X16002556Y19358347D01*
X15802605Y19251472D01*
X15802602Y19251471D01*
X15802600Y19251470D01*
X15585635Y19185654D01*
X15484180Y19175662D01*
X15416545Y19169000D01*
X14503455Y19169000D01*
X14435820Y19175662D01*
X14334365Y19185654D01*
X14117400Y19251470D01*
X14117398Y19251471D01*
X14117395Y19251472D01*
X13917444Y19358347D01*
X13742182Y19502182D01*
X13598347Y19677444D01*
X13491472Y19877395D01*
X13491470Y19877400D01*
X13425654Y20094365D01*
X13403431Y20320000D01*
X13425654Y20545635D01*
X13491470Y20762600D01*
X13491471Y20762602D01*
X13491472Y20762605D01*
X13598347Y20962556D01*
X13742182Y21137818D01*
X13917444Y21281653D01*
X14117395Y21388528D01*
X14117398Y21388529D01*
X14117400Y21388530D01*
X14334365Y21454346D01*
X14435820Y21464338D01*
X14503455Y21471000D01*
X15416545Y21471000D01*
X15484180Y21464338D01*
X15484180Y21464338D01*
G37*
G36*
X-4835820Y21464338D02*
X-4734365Y21454346D01*
X-4517400Y21388530D01*
X-4517398Y21388529D01*
X-4517395Y21388528D01*
X-4317444Y21281653D01*
X-4142182Y21137818D01*
X-3998347Y20962556D01*
X-3891472Y20762605D01*
X-3891471Y20762602D01*
X-3891470Y20762600D01*
X-3825654Y20545635D01*
X-3803431Y20320000D01*
X-3825654Y20094365D01*
X-3891470Y19877400D01*
X-3891472Y19877395D01*
X-3998347Y19677444D01*
X-4142182Y19502182D01*
X-4317444Y19358347D01*
X-4517395Y19251472D01*
X-4517398Y19251471D01*
X-4517400Y19251470D01*
X-4734365Y19185654D01*
X-4835820Y19175662D01*
X-4903455Y19169000D01*
X-5816545Y19169000D01*
X-5884180Y19175662D01*
X-5985635Y19185654D01*
X-6202600Y19251470D01*
X-6202602Y19251471D01*
X-6202605Y19251472D01*
X-6402556Y19358347D01*
X-6577818Y19502182D01*
X-6721653Y19677444D01*
X-6828528Y19877395D01*
X-6828530Y19877400D01*
X-6894346Y20094365D01*
X-6916569Y20320000D01*
X-6894346Y20545635D01*
X-6828530Y20762600D01*
X-6828529Y20762602D01*
X-6828528Y20762605D01*
X-6721653Y20962556D01*
X-6577818Y21137818D01*
X-6402556Y21281653D01*
X-6202605Y21388528D01*
X-6202602Y21388529D01*
X-6202600Y21388530D01*
X-5985635Y21454346D01*
X-5884180Y21464338D01*
X-5816545Y21471000D01*
X-4903455Y21471000D01*
X-4835820Y21464338D01*
X-4835820Y21464338D01*
G37*
G36*
X11011000Y21307000D02*
X9309000Y21307000D01*
X9309000Y24909000D01*
X11011000Y24909000D01*
X11011000Y21307000D01*
X11011000Y21307000D01*
G37*
G36*
X-9309000Y21307000D02*
X-11011000Y21307000D01*
X-11011000Y24909000D01*
X-9309000Y24909000D01*
X-9309000Y21307000D01*
X-9309000Y21307000D01*
G37*
G36*
X-9309000Y26907000D02*
X-11011000Y26907000D01*
X-11011000Y30509000D01*
X-9309000Y30509000D01*
X-9309000Y26907000D01*
X-9309000Y26907000D01*
G37*
G36*
X11011000Y26907000D02*
X9309000Y26907000D01*
X9309000Y30509000D01*
X11011000Y30509000D01*
X11011000Y26907000D01*
X11011000Y26907000D01*
G37*
G36*
X1380442Y33914482D02*
X1446627Y33907963D01*
X1543160Y33878680D01*
X1616467Y33856443D01*
X1755087Y33782348D01*
X1772991Y33772778D01*
X1805352Y33746220D01*
X1910186Y33660186D01*
X1967410Y33590457D01*
X2022778Y33522991D01*
X2022779Y33522989D01*
X2106443Y33366467D01*
X2106443Y33366466D01*
X2157963Y33196627D01*
X2175359Y33020000D01*
X2157963Y32843373D01*
X2123616Y32730147D01*
X2106443Y32673533D01*
X2032348Y32534913D01*
X2022778Y32517009D01*
X1993448Y32481271D01*
X1910186Y32379814D01*
X1809550Y32297225D01*
X1772991Y32267222D01*
X1772989Y32267221D01*
X1616467Y32183557D01*
X1559853Y32166384D01*
X1446627Y32132037D01*
X1380442Y32125518D01*
X1314260Y32119000D01*
X1225740Y32119000D01*
X1159558Y32125518D01*
X1093373Y32132037D01*
X980147Y32166384D01*
X923533Y32183557D01*
X767011Y32267221D01*
X767009Y32267222D01*
X730450Y32297225D01*
X629814Y32379814D01*
X546552Y32481271D01*
X517222Y32517009D01*
X507652Y32534913D01*
X433557Y32673533D01*
X416384Y32730147D01*
X382037Y32843373D01*
X364641Y33020000D01*
X382037Y33196627D01*
X433557Y33366466D01*
X433557Y33366467D01*
X517221Y33522989D01*
X517222Y33522991D01*
X572590Y33590457D01*
X629814Y33660186D01*
X734648Y33746220D01*
X767009Y33772778D01*
X784913Y33782348D01*
X923533Y33856443D01*
X996840Y33878680D01*
X1093373Y33907963D01*
X1159558Y33914482D01*
X1225740Y33921000D01*
X1314260Y33921000D01*
X1380442Y33914482D01*
X1380442Y33914482D01*
G37*
G36*
X-369000Y32119000D02*
X-2171000Y32119000D01*
X-2171000Y33921000D01*
X-369000Y33921000D01*
X-369000Y32119000D01*
X-369000Y32119000D01*
G37*
G36*
X-12382604Y34054444D02*
X-12209534Y33982756D01*
X-12053770Y33878678D01*
X-11921312Y33746220D01*
X-11817234Y33590456D01*
X-11745546Y33417386D01*
X-11709000Y33233657D01*
X-11709000Y33046323D01*
X-11745546Y32862594D01*
X-11817234Y32689524D01*
X-11921312Y32533760D01*
X-12053770Y32401302D01*
X-12209534Y32297224D01*
X-12382604Y32225536D01*
X-12566333Y32188990D01*
X-12753667Y32188990D01*
X-12937396Y32225536D01*
X-13110466Y32297224D01*
X-13266230Y32401302D01*
X-13398688Y32533760D01*
X-13502766Y32689524D01*
X-13574454Y32862594D01*
X-13611000Y33046323D01*
X-13611000Y33233657D01*
X-13574454Y33417386D01*
X-13502766Y33590456D01*
X-13398688Y33746220D01*
X-13266230Y33878678D01*
X-13110466Y33982756D01*
X-12937396Y34054444D01*
X-12753667Y34090990D01*
X-12566333Y34090990D01*
X-12382604Y34054444D01*
X-12382604Y34054444D01*
G37*
G36*
X-9842604Y34054444D02*
X-9669534Y33982756D01*
X-9513770Y33878678D01*
X-9381312Y33746220D01*
X-9277234Y33590456D01*
X-9205546Y33417386D01*
X-9169000Y33233657D01*
X-9169000Y33046323D01*
X-9205546Y32862594D01*
X-9277234Y32689524D01*
X-9381312Y32533760D01*
X-9513770Y32401302D01*
X-9669534Y32297224D01*
X-9842604Y32225536D01*
X-10026333Y32188990D01*
X-10213667Y32188990D01*
X-10397396Y32225536D01*
X-10570466Y32297224D01*
X-10726230Y32401302D01*
X-10858688Y32533760D01*
X-10962766Y32689524D01*
X-11034454Y32862594D01*
X-11071000Y33046323D01*
X-11071000Y33233657D01*
X-11034454Y33417386D01*
X-10962766Y33590456D01*
X-10858688Y33746220D01*
X-10726230Y33878678D01*
X-10570466Y33982756D01*
X-10397396Y34054444D01*
X-10213667Y34090990D01*
X-10026333Y34090990D01*
X-9842604Y34054444D01*
X-9842604Y34054444D01*
G37*
G36*
X12937396Y34054444D02*
X13110466Y33982756D01*
X13266230Y33878678D01*
X13398688Y33746220D01*
X13502766Y33590456D01*
X13574454Y33417386D01*
X13611000Y33233657D01*
X13611000Y33046323D01*
X13574454Y32862594D01*
X13502766Y32689524D01*
X13398688Y32533760D01*
X13266230Y32401302D01*
X13110466Y32297224D01*
X12937396Y32225536D01*
X12753667Y32188990D01*
X12566333Y32188990D01*
X12382604Y32225536D01*
X12209534Y32297224D01*
X12053770Y32401302D01*
X11921312Y32533760D01*
X11817234Y32689524D01*
X11745546Y32862594D01*
X11709000Y33046323D01*
X11709000Y33233657D01*
X11745546Y33417386D01*
X11817234Y33590456D01*
X11921312Y33746220D01*
X12053770Y33878678D01*
X12209534Y33982756D01*
X12382604Y34054444D01*
X12566333Y34090990D01*
X12753667Y34090990D01*
X12937396Y34054444D01*
X12937396Y34054444D01*
G37*
G36*
X10477396Y34054444D02*
X10650466Y33982756D01*
X10806230Y33878678D01*
X10938688Y33746220D01*
X11042766Y33590456D01*
X11114454Y33417386D01*
X11151000Y33233657D01*
X11151000Y33046323D01*
X11114454Y32862594D01*
X11042766Y32689524D01*
X10938688Y32533760D01*
X10806230Y32401302D01*
X10650466Y32297224D01*
X10477396Y32225536D01*
X10293667Y32188990D01*
X10106333Y32188990D01*
X9922604Y32225536D01*
X9749534Y32297224D01*
X9593770Y32401302D01*
X9461312Y32533760D01*
X9357234Y32689524D01*
X9285546Y32862594D01*
X9249000Y33046323D01*
X9249000Y33233657D01*
X9285546Y33417386D01*
X9357234Y33590456D01*
X9461312Y33746220D01*
X9593770Y33878678D01*
X9749534Y33982756D01*
X9922604Y34054444D01*
X10106333Y34090990D01*
X10293667Y34090990D01*
X10477396Y34054444D01*
X10477396Y34054444D01*
G37*
G36*
X-7382604Y34054444D02*
X-7209534Y33982756D01*
X-7053770Y33878678D01*
X-6921312Y33746220D01*
X-6817234Y33590456D01*
X-6745546Y33417386D01*
X-6709000Y33233657D01*
X-6709000Y33046323D01*
X-6745546Y32862594D01*
X-6817234Y32689524D01*
X-6921312Y32533760D01*
X-7053770Y32401302D01*
X-7209534Y32297224D01*
X-7382604Y32225536D01*
X-7566333Y32188990D01*
X-7753667Y32188990D01*
X-7937396Y32225536D01*
X-8110466Y32297224D01*
X-8266230Y32401302D01*
X-8398688Y32533760D01*
X-8502766Y32689524D01*
X-8574454Y32862594D01*
X-8611000Y33046323D01*
X-8611000Y33233657D01*
X-8574454Y33417386D01*
X-8502766Y33590456D01*
X-8398688Y33746220D01*
X-8266230Y33878678D01*
X-8110466Y33982756D01*
X-7937396Y34054444D01*
X-7753667Y34090990D01*
X-7566333Y34090990D01*
X-7382604Y34054444D01*
X-7382604Y34054444D01*
G37*
G36*
X7937396Y34054444D02*
X8110466Y33982756D01*
X8266230Y33878678D01*
X8398688Y33746220D01*
X8502766Y33590456D01*
X8574454Y33417386D01*
X8611000Y33233657D01*
X8611000Y33046323D01*
X8574454Y32862594D01*
X8502766Y32689524D01*
X8398688Y32533760D01*
X8266230Y32401302D01*
X8110466Y32297224D01*
X7937396Y32225536D01*
X7753667Y32188990D01*
X7566333Y32188990D01*
X7382604Y32225536D01*
X7209534Y32297224D01*
X7053770Y32401302D01*
X6921312Y32533760D01*
X6817234Y32689524D01*
X6745546Y32862594D01*
X6709000Y33046323D01*
X6709000Y33233657D01*
X6745546Y33417386D01*
X6817234Y33590456D01*
X6921312Y33746220D01*
X7053770Y33878678D01*
X7209534Y33982756D01*
X7382604Y34054444D01*
X7566333Y34090990D01*
X7753667Y34090990D01*
X7937396Y34054444D01*
X7937396Y34054444D01*
G37*
G36*
X1380443Y36454481D02*
X1446627Y36447963D01*
X1559853Y36413616D01*
X1616467Y36396443D01*
X1755087Y36322348D01*
X1772991Y36312778D01*
X1808729Y36283448D01*
X1910186Y36200186D01*
X1967300Y36130591D01*
X2022778Y36062991D01*
X2022779Y36062989D01*
X2106443Y35906467D01*
X2106443Y35906466D01*
X2157963Y35736627D01*
X2175359Y35560000D01*
X2157963Y35383373D01*
X2157277Y35381113D01*
X2106443Y35213533D01*
X2032348Y35074913D01*
X2022778Y35057009D01*
X1993448Y35021271D01*
X1910186Y34919814D01*
X1808729Y34836552D01*
X1772991Y34807222D01*
X1772989Y34807221D01*
X1616467Y34723557D01*
X1559853Y34706384D01*
X1446627Y34672037D01*
X1380443Y34665519D01*
X1314260Y34659000D01*
X1225740Y34659000D01*
X1159557Y34665519D01*
X1093373Y34672037D01*
X980147Y34706384D01*
X923533Y34723557D01*
X767011Y34807221D01*
X767009Y34807222D01*
X731271Y34836552D01*
X629814Y34919814D01*
X546552Y35021271D01*
X517222Y35057009D01*
X507652Y35074913D01*
X433557Y35213533D01*
X382723Y35381113D01*
X382037Y35383373D01*
X364641Y35560000D01*
X382037Y35736627D01*
X433557Y35906466D01*
X433557Y35906467D01*
X517221Y36062989D01*
X517222Y36062991D01*
X572700Y36130591D01*
X629814Y36200186D01*
X731271Y36283448D01*
X767009Y36312778D01*
X784913Y36322348D01*
X923533Y36396443D01*
X980147Y36413616D01*
X1093373Y36447963D01*
X1159557Y36454481D01*
X1225740Y36461000D01*
X1314260Y36461000D01*
X1380443Y36454481D01*
X1380443Y36454481D01*
G37*
G36*
X-1159557Y36454481D02*
X-1093373Y36447963D01*
X-980147Y36413616D01*
X-923533Y36396443D01*
X-784913Y36322348D01*
X-767009Y36312778D01*
X-731271Y36283448D01*
X-629814Y36200186D01*
X-572700Y36130591D01*
X-517222Y36062991D01*
X-517221Y36062989D01*
X-433557Y35906467D01*
X-433557Y35906466D01*
X-382037Y35736627D01*
X-364641Y35560000D01*
X-382037Y35383373D01*
X-382723Y35381113D01*
X-433557Y35213533D01*
X-507652Y35074913D01*
X-517222Y35057009D01*
X-546552Y35021271D01*
X-629814Y34919814D01*
X-731271Y34836552D01*
X-767009Y34807222D01*
X-767011Y34807221D01*
X-923533Y34723557D01*
X-980147Y34706384D01*
X-1093373Y34672037D01*
X-1159557Y34665519D01*
X-1225740Y34659000D01*
X-1314260Y34659000D01*
X-1380443Y34665519D01*
X-1446627Y34672037D01*
X-1559853Y34706384D01*
X-1616467Y34723557D01*
X-1772989Y34807221D01*
X-1772991Y34807222D01*
X-1808729Y34836552D01*
X-1910186Y34919814D01*
X-1993448Y35021271D01*
X-2022778Y35057009D01*
X-2032348Y35074913D01*
X-2106443Y35213533D01*
X-2157277Y35381113D01*
X-2157963Y35383373D01*
X-2175359Y35560000D01*
X-2157963Y35736627D01*
X-2106443Y35906466D01*
X-2106443Y35906467D01*
X-2022779Y36062989D01*
X-2022778Y36062991D01*
X-1967300Y36130591D01*
X-1910186Y36200186D01*
X-1808729Y36283448D01*
X-1772991Y36312778D01*
X-1755087Y36322348D01*
X-1616467Y36396443D01*
X-1559853Y36413616D01*
X-1446627Y36447963D01*
X-1380443Y36454481D01*
X-1314260Y36461000D01*
X-1225740Y36461000D01*
X-1159557Y36454481D01*
X-1159557Y36454481D01*
G37*
G36*
X-15876409Y36272915D02*
X-15842431Y36262607D01*
X-15811113Y36245867D01*
X-15783661Y36223339D01*
X-15761133Y36195887D01*
X-15744393Y36164569D01*
X-15734085Y36130591D01*
X-15730000Y36089110D01*
X-15730000Y35487890D01*
X-15734085Y35446409D01*
X-15744393Y35412431D01*
X-15761133Y35381113D01*
X-15783661Y35353661D01*
X-15811113Y35331133D01*
X-15842431Y35314393D01*
X-15876409Y35304085D01*
X-15917890Y35300000D01*
X-16594110Y35300000D01*
X-16635591Y35304085D01*
X-16669569Y35314393D01*
X-16700887Y35331133D01*
X-16728339Y35353661D01*
X-16750867Y35381113D01*
X-16767607Y35412431D01*
X-16777915Y35446409D01*
X-16782000Y35487890D01*
X-16782000Y36089110D01*
X-16777915Y36130591D01*
X-16767607Y36164569D01*
X-16750867Y36195887D01*
X-16728339Y36223339D01*
X-16700887Y36245867D01*
X-16669569Y36262607D01*
X-16635591Y36272915D01*
X-16594110Y36277000D01*
X-15917890Y36277000D01*
X-15876409Y36272915D01*
X-15876409Y36272915D01*
G37*
G36*
X-13336409Y36272915D02*
X-13302431Y36262607D01*
X-13271113Y36245867D01*
X-13243661Y36223339D01*
X-13221133Y36195887D01*
X-13204393Y36164569D01*
X-13194085Y36130591D01*
X-13190000Y36089110D01*
X-13190000Y35487890D01*
X-13194085Y35446409D01*
X-13204393Y35412431D01*
X-13221133Y35381113D01*
X-13243661Y35353661D01*
X-13271113Y35331133D01*
X-13302431Y35314393D01*
X-13336409Y35304085D01*
X-13377890Y35300000D01*
X-14054110Y35300000D01*
X-14095591Y35304085D01*
X-14129569Y35314393D01*
X-14160887Y35331133D01*
X-14188339Y35353661D01*
X-14210867Y35381113D01*
X-14227607Y35412431D01*
X-14237915Y35446409D01*
X-14242000Y35487890D01*
X-14242000Y36089110D01*
X-14237915Y36130591D01*
X-14227607Y36164569D01*
X-14210867Y36195887D01*
X-14188339Y36223339D01*
X-14160887Y36245867D01*
X-14129569Y36262607D01*
X-14095591Y36272915D01*
X-14054110Y36277000D01*
X-13377890Y36277000D01*
X-13336409Y36272915D01*
X-13336409Y36272915D01*
G37*
G36*
X-13336409Y37847915D02*
X-13302431Y37837607D01*
X-13271113Y37820867D01*
X-13243661Y37798339D01*
X-13221133Y37770887D01*
X-13204393Y37739569D01*
X-13194085Y37705591D01*
X-13190000Y37664110D01*
X-13190000Y37062890D01*
X-13194085Y37021409D01*
X-13204393Y36987431D01*
X-13221133Y36956113D01*
X-13243661Y36928661D01*
X-13271113Y36906133D01*
X-13302431Y36889393D01*
X-13336409Y36879085D01*
X-13377890Y36875000D01*
X-14054110Y36875000D01*
X-14095591Y36879085D01*
X-14129569Y36889393D01*
X-14160887Y36906133D01*
X-14188339Y36928661D01*
X-14210867Y36956113D01*
X-14227607Y36987431D01*
X-14237915Y37021409D01*
X-14242000Y37062890D01*
X-14242000Y37664110D01*
X-14237915Y37705591D01*
X-14227607Y37739569D01*
X-14210867Y37770887D01*
X-14188339Y37798339D01*
X-14160887Y37820867D01*
X-14129569Y37837607D01*
X-14095591Y37847915D01*
X-14054110Y37852000D01*
X-13377890Y37852000D01*
X-13336409Y37847915D01*
X-13336409Y37847915D01*
G37*
G36*
X-15876409Y37847915D02*
X-15842431Y37837607D01*
X-15811113Y37820867D01*
X-15783661Y37798339D01*
X-15761133Y37770887D01*
X-15744393Y37739569D01*
X-15734085Y37705591D01*
X-15730000Y37664110D01*
X-15730000Y37062890D01*
X-15734085Y37021409D01*
X-15744393Y36987431D01*
X-15761133Y36956113D01*
X-15783661Y36928661D01*
X-15811113Y36906133D01*
X-15842431Y36889393D01*
X-15876409Y36879085D01*
X-15917890Y36875000D01*
X-16594110Y36875000D01*
X-16635591Y36879085D01*
X-16669569Y36889393D01*
X-16700887Y36906133D01*
X-16728339Y36928661D01*
X-16750867Y36956113D01*
X-16767607Y36987431D01*
X-16777915Y37021409D01*
X-16782000Y37062890D01*
X-16782000Y37664110D01*
X-16777915Y37705591D01*
X-16767607Y37739569D01*
X-16750867Y37770887D01*
X-16728339Y37798339D01*
X-16700887Y37820867D01*
X-16669569Y37837607D01*
X-16635591Y37847915D01*
X-16594110Y37852000D01*
X-15917890Y37852000D01*
X-15876409Y37847915D01*
X-15876409Y37847915D01*
G37*
G36*
X-1159558Y38994482D02*
X-1093373Y38987963D01*
X-980147Y38953616D01*
X-923533Y38936443D01*
X-784913Y38862348D01*
X-767009Y38852778D01*
X-731271Y38823448D01*
X-629814Y38740186D01*
X-546552Y38638729D01*
X-517222Y38602991D01*
X-517221Y38602989D01*
X-433557Y38446467D01*
X-433557Y38446466D01*
X-382037Y38276627D01*
X-364641Y38100000D01*
X-382037Y37923373D01*
X-408054Y37837607D01*
X-433557Y37753533D01*
X-507652Y37614913D01*
X-517222Y37597009D01*
X-546552Y37561271D01*
X-629814Y37459814D01*
X-731271Y37376552D01*
X-767009Y37347222D01*
X-767011Y37347221D01*
X-923533Y37263557D01*
X-980147Y37246384D01*
X-1093373Y37212037D01*
X-1159557Y37205519D01*
X-1225740Y37199000D01*
X-1314260Y37199000D01*
X-1380443Y37205519D01*
X-1446627Y37212037D01*
X-1559853Y37246384D01*
X-1616467Y37263557D01*
X-1772989Y37347221D01*
X-1772991Y37347222D01*
X-1808729Y37376552D01*
X-1910186Y37459814D01*
X-1993448Y37561271D01*
X-2022778Y37597009D01*
X-2032348Y37614913D01*
X-2106443Y37753533D01*
X-2131946Y37837607D01*
X-2157963Y37923373D01*
X-2175359Y38100000D01*
X-2157963Y38276627D01*
X-2106443Y38446466D01*
X-2106443Y38446467D01*
X-2022779Y38602989D01*
X-2022778Y38602991D01*
X-1993448Y38638729D01*
X-1910186Y38740186D01*
X-1808729Y38823448D01*
X-1772991Y38852778D01*
X-1755087Y38862348D01*
X-1616467Y38936443D01*
X-1559853Y38953616D01*
X-1446627Y38987963D01*
X-1380442Y38994482D01*
X-1314260Y39001000D01*
X-1225740Y39001000D01*
X-1159558Y38994482D01*
X-1159558Y38994482D01*
G37*
G36*
X1380442Y38994482D02*
X1446627Y38987963D01*
X1559853Y38953616D01*
X1616467Y38936443D01*
X1755087Y38862348D01*
X1772991Y38852778D01*
X1808729Y38823448D01*
X1910186Y38740186D01*
X1993448Y38638729D01*
X2022778Y38602991D01*
X2022779Y38602989D01*
X2106443Y38446467D01*
X2106443Y38446466D01*
X2157963Y38276627D01*
X2175359Y38100000D01*
X2157963Y37923373D01*
X2131946Y37837607D01*
X2106443Y37753533D01*
X2032348Y37614913D01*
X2022778Y37597009D01*
X1993448Y37561271D01*
X1910186Y37459814D01*
X1808729Y37376552D01*
X1772991Y37347222D01*
X1772989Y37347221D01*
X1616467Y37263557D01*
X1559853Y37246384D01*
X1446627Y37212037D01*
X1380443Y37205519D01*
X1314260Y37199000D01*
X1225740Y37199000D01*
X1159557Y37205519D01*
X1093373Y37212037D01*
X980147Y37246384D01*
X923533Y37263557D01*
X767011Y37347221D01*
X767009Y37347222D01*
X731271Y37376552D01*
X629814Y37459814D01*
X546552Y37561271D01*
X517222Y37597009D01*
X507652Y37614913D01*
X433557Y37753533D01*
X408054Y37837607D01*
X382037Y37923373D01*
X364641Y38100000D01*
X382037Y38276627D01*
X433557Y38446466D01*
X433557Y38446467D01*
X517221Y38602989D01*
X517222Y38602991D01*
X546552Y38638729D01*
X629814Y38740186D01*
X731271Y38823448D01*
X767009Y38852778D01*
X784913Y38862348D01*
X923533Y38936443D01*
X980147Y38953616D01*
X1093373Y38987963D01*
X1159558Y38994482D01*
X1225740Y39001000D01*
X1314260Y39001000D01*
X1380442Y38994482D01*
X1380442Y38994482D01*
G37*
G36*
X11011000Y37489000D02*
X9309000Y37489000D01*
X9309000Y40191000D01*
X11011000Y40191000D01*
X11011000Y37489000D01*
X11011000Y37489000D01*
G37*
G36*
X-9309000Y37489000D02*
X-11011000Y37489000D01*
X-11011000Y40191000D01*
X-9309000Y40191000D01*
X-9309000Y37489000D01*
X-9309000Y37489000D01*
G37*
G36*
X15484180Y41784338D02*
X15585635Y41774346D01*
X15802600Y41708530D01*
X15802602Y41708529D01*
X15802605Y41708528D01*
X16002556Y41601653D01*
X16177818Y41457818D01*
X16321653Y41282556D01*
X16428528Y41082605D01*
X16428529Y41082602D01*
X16428530Y41082600D01*
X16494346Y40865635D01*
X16516569Y40640000D01*
X16494346Y40414365D01*
X16428530Y40197400D01*
X16428528Y40197395D01*
X16321653Y39997444D01*
X16177818Y39822182D01*
X16002556Y39678347D01*
X15802605Y39571472D01*
X15802602Y39571471D01*
X15802600Y39571470D01*
X15585635Y39505654D01*
X15484180Y39495662D01*
X15416545Y39489000D01*
X14503455Y39489000D01*
X14435820Y39495662D01*
X14334365Y39505654D01*
X14117400Y39571470D01*
X14117398Y39571471D01*
X14117395Y39571472D01*
X13917444Y39678347D01*
X13742182Y39822182D01*
X13598347Y39997444D01*
X13491472Y40197395D01*
X13491470Y40197400D01*
X13425654Y40414365D01*
X13403431Y40640000D01*
X13425654Y40865635D01*
X13491470Y41082600D01*
X13491471Y41082602D01*
X13491472Y41082605D01*
X13598347Y41282556D01*
X13742182Y41457818D01*
X13917444Y41601653D01*
X14117395Y41708528D01*
X14117398Y41708529D01*
X14117400Y41708530D01*
X14334365Y41774346D01*
X14435820Y41784338D01*
X14503455Y41791000D01*
X15416545Y41791000D01*
X15484180Y41784338D01*
X15484180Y41784338D01*
G37*
G36*
X5884180Y41784338D02*
X5985635Y41774346D01*
X6202600Y41708530D01*
X6202602Y41708529D01*
X6202605Y41708528D01*
X6402556Y41601653D01*
X6577818Y41457818D01*
X6721653Y41282556D01*
X6828528Y41082605D01*
X6828529Y41082602D01*
X6828530Y41082600D01*
X6894346Y40865635D01*
X6916569Y40640000D01*
X6894346Y40414365D01*
X6828530Y40197400D01*
X6828528Y40197395D01*
X6721653Y39997444D01*
X6577818Y39822182D01*
X6402556Y39678347D01*
X6202605Y39571472D01*
X6202602Y39571471D01*
X6202600Y39571470D01*
X5985635Y39505654D01*
X5884180Y39495662D01*
X5816545Y39489000D01*
X4903455Y39489000D01*
X4835820Y39495662D01*
X4734365Y39505654D01*
X4517400Y39571470D01*
X4517398Y39571471D01*
X4517395Y39571472D01*
X4317444Y39678347D01*
X4142182Y39822182D01*
X3998347Y39997444D01*
X3891472Y40197395D01*
X3891470Y40197400D01*
X3825654Y40414365D01*
X3803431Y40640000D01*
X3825654Y40865635D01*
X3891470Y41082600D01*
X3891471Y41082602D01*
X3891472Y41082605D01*
X3998347Y41282556D01*
X4142182Y41457818D01*
X4317444Y41601653D01*
X4517395Y41708528D01*
X4517398Y41708529D01*
X4517400Y41708530D01*
X4734365Y41774346D01*
X4835820Y41784338D01*
X4903455Y41791000D01*
X5816545Y41791000D01*
X5884180Y41784338D01*
X5884180Y41784338D01*
G37*
G36*
X-14435820Y41784338D02*
X-14334365Y41774346D01*
X-14117400Y41708530D01*
X-14117398Y41708529D01*
X-14117395Y41708528D01*
X-13917444Y41601653D01*
X-13742182Y41457818D01*
X-13598347Y41282556D01*
X-13491472Y41082605D01*
X-13491471Y41082602D01*
X-13491470Y41082600D01*
X-13425654Y40865635D01*
X-13403431Y40640000D01*
X-13425654Y40414365D01*
X-13491470Y40197400D01*
X-13491472Y40197395D01*
X-13598347Y39997444D01*
X-13742182Y39822182D01*
X-13917444Y39678347D01*
X-14117395Y39571472D01*
X-14117398Y39571471D01*
X-14117400Y39571470D01*
X-14334365Y39505654D01*
X-14435820Y39495662D01*
X-14503455Y39489000D01*
X-15416545Y39489000D01*
X-15484180Y39495662D01*
X-15585635Y39505654D01*
X-15802600Y39571470D01*
X-15802602Y39571471D01*
X-15802605Y39571472D01*
X-16002556Y39678347D01*
X-16177818Y39822182D01*
X-16321653Y39997444D01*
X-16428528Y40197395D01*
X-16428530Y40197400D01*
X-16494346Y40414365D01*
X-16516569Y40640000D01*
X-16494346Y40865635D01*
X-16428530Y41082600D01*
X-16428529Y41082602D01*
X-16428528Y41082605D01*
X-16321653Y41282556D01*
X-16177818Y41457818D01*
X-16002556Y41601653D01*
X-15802605Y41708528D01*
X-15802602Y41708529D01*
X-15802600Y41708530D01*
X-15585635Y41774346D01*
X-15484180Y41784338D01*
X-15416545Y41791000D01*
X-14503455Y41791000D01*
X-14435820Y41784338D01*
X-14435820Y41784338D01*
G37*
G36*
X-4835820Y41784338D02*
X-4734365Y41774346D01*
X-4517400Y41708530D01*
X-4517398Y41708529D01*
X-4517395Y41708528D01*
X-4317444Y41601653D01*
X-4142182Y41457818D01*
X-3998347Y41282556D01*
X-3891472Y41082605D01*
X-3891471Y41082602D01*
X-3891470Y41082600D01*
X-3825654Y40865635D01*
X-3803431Y40640000D01*
X-3825654Y40414365D01*
X-3891470Y40197400D01*
X-3891472Y40197395D01*
X-3998347Y39997444D01*
X-4142182Y39822182D01*
X-4317444Y39678347D01*
X-4517395Y39571472D01*
X-4517398Y39571471D01*
X-4517400Y39571470D01*
X-4734365Y39505654D01*
X-4835820Y39495662D01*
X-4903455Y39489000D01*
X-5816545Y39489000D01*
X-5884180Y39495662D01*
X-5985635Y39505654D01*
X-6202600Y39571470D01*
X-6202602Y39571471D01*
X-6202605Y39571472D01*
X-6402556Y39678347D01*
X-6577818Y39822182D01*
X-6721653Y39997444D01*
X-6828528Y40197395D01*
X-6828530Y40197400D01*
X-6894346Y40414365D01*
X-6916569Y40640000D01*
X-6894346Y40865635D01*
X-6828530Y41082600D01*
X-6828529Y41082602D01*
X-6828528Y41082605D01*
X-6721653Y41282556D01*
X-6577818Y41457818D01*
X-6402556Y41601653D01*
X-6202605Y41708528D01*
X-6202602Y41708529D01*
X-6202600Y41708530D01*
X-5985635Y41774346D01*
X-5884180Y41784338D01*
X-5816545Y41791000D01*
X-4903455Y41791000D01*
X-4835820Y41784338D01*
X-4835820Y41784338D01*
G37*
G36*
X-1159557Y41534481D02*
X-1093373Y41527963D01*
X-980147Y41493616D01*
X-923533Y41476443D01*
X-888689Y41457818D01*
X-767009Y41392778D01*
X-731271Y41363448D01*
X-629814Y41280186D01*
X-546552Y41178729D01*
X-517222Y41142991D01*
X-517221Y41142989D01*
X-433557Y40986467D01*
X-433557Y40986466D01*
X-382037Y40816627D01*
X-364641Y40640000D01*
X-382037Y40463373D01*
X-416384Y40350147D01*
X-433557Y40293533D01*
X-484942Y40197400D01*
X-517222Y40137009D01*
X-546552Y40101271D01*
X-629814Y39999814D01*
X-731271Y39916552D01*
X-767009Y39887222D01*
X-767011Y39887221D01*
X-923533Y39803557D01*
X-980147Y39786384D01*
X-1093373Y39752037D01*
X-1159558Y39745518D01*
X-1225740Y39739000D01*
X-1314260Y39739000D01*
X-1380442Y39745518D01*
X-1446627Y39752037D01*
X-1559853Y39786384D01*
X-1616467Y39803557D01*
X-1772989Y39887221D01*
X-1772991Y39887222D01*
X-1808729Y39916552D01*
X-1910186Y39999814D01*
X-1993448Y40101271D01*
X-2022778Y40137009D01*
X-2055058Y40197400D01*
X-2106443Y40293533D01*
X-2123616Y40350147D01*
X-2157963Y40463373D01*
X-2175359Y40640000D01*
X-2157963Y40816627D01*
X-2106443Y40986466D01*
X-2106443Y40986467D01*
X-2022779Y41142989D01*
X-2022778Y41142991D01*
X-1993448Y41178729D01*
X-1910186Y41280186D01*
X-1808729Y41363448D01*
X-1772991Y41392778D01*
X-1651311Y41457818D01*
X-1616467Y41476443D01*
X-1559853Y41493616D01*
X-1446627Y41527963D01*
X-1380443Y41534481D01*
X-1314260Y41541000D01*
X-1225740Y41541000D01*
X-1159557Y41534481D01*
X-1159557Y41534481D01*
G37*
G36*
X1380443Y41534481D02*
X1446627Y41527963D01*
X1559853Y41493616D01*
X1616467Y41476443D01*
X1651311Y41457818D01*
X1772991Y41392778D01*
X1808729Y41363448D01*
X1910186Y41280186D01*
X1993448Y41178729D01*
X2022778Y41142991D01*
X2022779Y41142989D01*
X2106443Y40986467D01*
X2106443Y40986466D01*
X2157963Y40816627D01*
X2175359Y40640000D01*
X2157963Y40463373D01*
X2123616Y40350147D01*
X2106443Y40293533D01*
X2055058Y40197400D01*
X2022778Y40137009D01*
X1993448Y40101271D01*
X1910186Y39999814D01*
X1808729Y39916552D01*
X1772991Y39887222D01*
X1772989Y39887221D01*
X1616467Y39803557D01*
X1559853Y39786384D01*
X1446627Y39752037D01*
X1380442Y39745518D01*
X1314260Y39739000D01*
X1225740Y39739000D01*
X1159558Y39745518D01*
X1093373Y39752037D01*
X980147Y39786384D01*
X923533Y39803557D01*
X767011Y39887221D01*
X767009Y39887222D01*
X731271Y39916552D01*
X629814Y39999814D01*
X546552Y40101271D01*
X517222Y40137009D01*
X484942Y40197400D01*
X433557Y40293533D01*
X416384Y40350147D01*
X382037Y40463373D01*
X364641Y40640000D01*
X382037Y40816627D01*
X433557Y40986466D01*
X433557Y40986467D01*
X517221Y41142989D01*
X517222Y41142991D01*
X546552Y41178729D01*
X629814Y41280186D01*
X731271Y41363448D01*
X767009Y41392778D01*
X888689Y41457818D01*
X923533Y41476443D01*
X980147Y41493616D01*
X1093373Y41527963D01*
X1159557Y41534481D01*
X1225740Y41541000D01*
X1314260Y41541000D01*
X1380443Y41534481D01*
X1380443Y41534481D01*
G37*
G36*
X11011000Y41089000D02*
X9309000Y41089000D01*
X9309000Y43791000D01*
X11011000Y43791000D01*
X11011000Y41089000D01*
X11011000Y41089000D01*
G37*
G36*
X-9309000Y41089000D02*
X-11011000Y41089000D01*
X-11011000Y43791000D01*
X-9309000Y43791000D01*
X-9309000Y41089000D01*
X-9309000Y41089000D01*
G37*
G36*
X1380442Y44074482D02*
X1446627Y44067963D01*
X1559853Y44033616D01*
X1616467Y44016443D01*
X1755087Y43942348D01*
X1772991Y43932778D01*
X1808729Y43903448D01*
X1910186Y43820186D01*
X1993448Y43718729D01*
X2022778Y43682991D01*
X2022779Y43682989D01*
X2106443Y43526467D01*
X2106443Y43526466D01*
X2157963Y43356627D01*
X2175359Y43180000D01*
X2157963Y43003373D01*
X2123616Y42890147D01*
X2106443Y42833533D01*
X2032348Y42694913D01*
X2022778Y42677009D01*
X1993448Y42641271D01*
X1910186Y42539814D01*
X1808729Y42456552D01*
X1772991Y42427222D01*
X1772989Y42427221D01*
X1616467Y42343557D01*
X1559853Y42326384D01*
X1446627Y42292037D01*
X1380442Y42285518D01*
X1314260Y42279000D01*
X1225740Y42279000D01*
X1159558Y42285518D01*
X1093373Y42292037D01*
X980147Y42326384D01*
X923533Y42343557D01*
X767011Y42427221D01*
X767009Y42427222D01*
X731271Y42456552D01*
X629814Y42539814D01*
X546552Y42641271D01*
X517222Y42677009D01*
X507652Y42694913D01*
X433557Y42833533D01*
X416384Y42890147D01*
X382037Y43003373D01*
X364641Y43180000D01*
X382037Y43356627D01*
X433557Y43526466D01*
X433557Y43526467D01*
X517221Y43682989D01*
X517222Y43682991D01*
X546552Y43718729D01*
X629814Y43820186D01*
X731271Y43903448D01*
X767009Y43932778D01*
X784913Y43942348D01*
X923533Y44016443D01*
X980147Y44033616D01*
X1093373Y44067963D01*
X1159558Y44074482D01*
X1225740Y44081000D01*
X1314260Y44081000D01*
X1380442Y44074482D01*
X1380442Y44074482D01*
G37*
G36*
X-1159558Y44074482D02*
X-1093373Y44067963D01*
X-980147Y44033616D01*
X-923533Y44016443D01*
X-784913Y43942348D01*
X-767009Y43932778D01*
X-731271Y43903448D01*
X-629814Y43820186D01*
X-546552Y43718729D01*
X-517222Y43682991D01*
X-517221Y43682989D01*
X-433557Y43526467D01*
X-433557Y43526466D01*
X-382037Y43356627D01*
X-364641Y43180000D01*
X-382037Y43003373D01*
X-416384Y42890147D01*
X-433557Y42833533D01*
X-507652Y42694913D01*
X-517222Y42677009D01*
X-546552Y42641271D01*
X-629814Y42539814D01*
X-731271Y42456552D01*
X-767009Y42427222D01*
X-767011Y42427221D01*
X-923533Y42343557D01*
X-980147Y42326384D01*
X-1093373Y42292037D01*
X-1159558Y42285518D01*
X-1225740Y42279000D01*
X-1314260Y42279000D01*
X-1380442Y42285518D01*
X-1446627Y42292037D01*
X-1559853Y42326384D01*
X-1616467Y42343557D01*
X-1772989Y42427221D01*
X-1772991Y42427222D01*
X-1808729Y42456552D01*
X-1910186Y42539814D01*
X-1993448Y42641271D01*
X-2022778Y42677009D01*
X-2032348Y42694913D01*
X-2106443Y42833533D01*
X-2123616Y42890147D01*
X-2157963Y43003373D01*
X-2175359Y43180000D01*
X-2157963Y43356627D01*
X-2106443Y43526466D01*
X-2106443Y43526467D01*
X-2022779Y43682989D01*
X-2022778Y43682991D01*
X-1993448Y43718729D01*
X-1910186Y43820186D01*
X-1808729Y43903448D01*
X-1772991Y43932778D01*
X-1755087Y43942348D01*
X-1616467Y44016443D01*
X-1559853Y44033616D01*
X-1446627Y44067963D01*
X-1380442Y44074482D01*
X-1314260Y44081000D01*
X-1225740Y44081000D01*
X-1159558Y44074482D01*
X-1159558Y44074482D01*
G37*
M02*
