G04 #@! TF.GenerationSoftware,KiCad,Pcbnew,(5.0.1-3-g963ef8bb5)*
G04 #@! TF.CreationDate,2018-11-04T18:49:05+08:00*
G04 #@! TF.ProjectId,SteinerVCF,537465696E65725643462E6B69636164,rev?*
G04 #@! TF.SameCoordinates,PX8d9ee20PY6422c40*
G04 #@! TF.FileFunction,Paste,Bot*
G04 #@! TF.FilePolarity,Positive*
%FSLAX46Y46*%
G04 Gerber Fmt 4.6, Leading zero omitted, Abs format (unit mm)*
G04 Created by KiCad (PCBNEW (5.0.1-3-g963ef8bb5)) date 2018 November 04, Sunday 18:49:05*
%MOMM*%
%LPD*%
G01*
G04 APERTURE LIST*
%ADD10R,1.600000X2.600000*%
%ADD11R,1.600000X3.500000*%
%ADD12C,0.100000*%
%ADD13C,0.875000*%
%ADD14C,0.975000*%
%ADD15C,1.250000*%
%ADD16R,1.200000X0.900000*%
%ADD17R,1.500000X0.600000*%
%ADD18R,0.800000X0.900000*%
G04 APERTURE END LIST*
D10*
G04 #@! TO.C,C12*
X-15240000Y-14964000D03*
X-15240000Y-18564000D03*
G04 #@! TD*
G04 #@! TO.C,C14*
X-10160000Y38840000D03*
X-10160000Y42440000D03*
G04 #@! TD*
G04 #@! TO.C,C13*
X10160000Y42440000D03*
X10160000Y38840000D03*
G04 #@! TD*
D11*
G04 #@! TO.C,C6*
X-10160000Y23108000D03*
X-10160000Y28708000D03*
G04 #@! TD*
G04 #@! TO.C,C7*
X10160000Y28708000D03*
X10160000Y23108000D03*
G04 #@! TD*
D12*
G04 #@! TO.C,C16*
G36*
X7897691Y-39924053D02*
X7918926Y-39927203D01*
X7939750Y-39932419D01*
X7959962Y-39939651D01*
X7979368Y-39948830D01*
X7997781Y-39959866D01*
X8015024Y-39972654D01*
X8030930Y-39987070D01*
X8045346Y-40002976D01*
X8058134Y-40020219D01*
X8069170Y-40038632D01*
X8078349Y-40058038D01*
X8085581Y-40078250D01*
X8090797Y-40099074D01*
X8093947Y-40120309D01*
X8095000Y-40141750D01*
X8095000Y-40579250D01*
X8093947Y-40600691D01*
X8090797Y-40621926D01*
X8085581Y-40642750D01*
X8078349Y-40662962D01*
X8069170Y-40682368D01*
X8058134Y-40700781D01*
X8045346Y-40718024D01*
X8030930Y-40733930D01*
X8015024Y-40748346D01*
X7997781Y-40761134D01*
X7979368Y-40772170D01*
X7959962Y-40781349D01*
X7939750Y-40788581D01*
X7918926Y-40793797D01*
X7897691Y-40796947D01*
X7876250Y-40798000D01*
X7363750Y-40798000D01*
X7342309Y-40796947D01*
X7321074Y-40793797D01*
X7300250Y-40788581D01*
X7280038Y-40781349D01*
X7260632Y-40772170D01*
X7242219Y-40761134D01*
X7224976Y-40748346D01*
X7209070Y-40733930D01*
X7194654Y-40718024D01*
X7181866Y-40700781D01*
X7170830Y-40682368D01*
X7161651Y-40662962D01*
X7154419Y-40642750D01*
X7149203Y-40621926D01*
X7146053Y-40600691D01*
X7145000Y-40579250D01*
X7145000Y-40141750D01*
X7146053Y-40120309D01*
X7149203Y-40099074D01*
X7154419Y-40078250D01*
X7161651Y-40058038D01*
X7170830Y-40038632D01*
X7181866Y-40020219D01*
X7194654Y-40002976D01*
X7209070Y-39987070D01*
X7224976Y-39972654D01*
X7242219Y-39959866D01*
X7260632Y-39948830D01*
X7280038Y-39939651D01*
X7300250Y-39932419D01*
X7321074Y-39927203D01*
X7342309Y-39924053D01*
X7363750Y-39923000D01*
X7876250Y-39923000D01*
X7897691Y-39924053D01*
X7897691Y-39924053D01*
G37*
D13*
X7620000Y-40360500D03*
D12*
G36*
X7897691Y-41499053D02*
X7918926Y-41502203D01*
X7939750Y-41507419D01*
X7959962Y-41514651D01*
X7979368Y-41523830D01*
X7997781Y-41534866D01*
X8015024Y-41547654D01*
X8030930Y-41562070D01*
X8045346Y-41577976D01*
X8058134Y-41595219D01*
X8069170Y-41613632D01*
X8078349Y-41633038D01*
X8085581Y-41653250D01*
X8090797Y-41674074D01*
X8093947Y-41695309D01*
X8095000Y-41716750D01*
X8095000Y-42154250D01*
X8093947Y-42175691D01*
X8090797Y-42196926D01*
X8085581Y-42217750D01*
X8078349Y-42237962D01*
X8069170Y-42257368D01*
X8058134Y-42275781D01*
X8045346Y-42293024D01*
X8030930Y-42308930D01*
X8015024Y-42323346D01*
X7997781Y-42336134D01*
X7979368Y-42347170D01*
X7959962Y-42356349D01*
X7939750Y-42363581D01*
X7918926Y-42368797D01*
X7897691Y-42371947D01*
X7876250Y-42373000D01*
X7363750Y-42373000D01*
X7342309Y-42371947D01*
X7321074Y-42368797D01*
X7300250Y-42363581D01*
X7280038Y-42356349D01*
X7260632Y-42347170D01*
X7242219Y-42336134D01*
X7224976Y-42323346D01*
X7209070Y-42308930D01*
X7194654Y-42293024D01*
X7181866Y-42275781D01*
X7170830Y-42257368D01*
X7161651Y-42237962D01*
X7154419Y-42217750D01*
X7149203Y-42196926D01*
X7146053Y-42175691D01*
X7145000Y-42154250D01*
X7145000Y-41716750D01*
X7146053Y-41695309D01*
X7149203Y-41674074D01*
X7154419Y-41653250D01*
X7161651Y-41633038D01*
X7170830Y-41613632D01*
X7181866Y-41595219D01*
X7194654Y-41577976D01*
X7209070Y-41562070D01*
X7224976Y-41547654D01*
X7242219Y-41534866D01*
X7260632Y-41523830D01*
X7280038Y-41514651D01*
X7300250Y-41507419D01*
X7321074Y-41502203D01*
X7342309Y-41499053D01*
X7363750Y-41498000D01*
X7876250Y-41498000D01*
X7897691Y-41499053D01*
X7897691Y-41499053D01*
G37*
D13*
X7620000Y-41935500D03*
G04 #@! TD*
D12*
G04 #@! TO.C,C15*
G36*
X-7342309Y-41499053D02*
X-7321074Y-41502203D01*
X-7300250Y-41507419D01*
X-7280038Y-41514651D01*
X-7260632Y-41523830D01*
X-7242219Y-41534866D01*
X-7224976Y-41547654D01*
X-7209070Y-41562070D01*
X-7194654Y-41577976D01*
X-7181866Y-41595219D01*
X-7170830Y-41613632D01*
X-7161651Y-41633038D01*
X-7154419Y-41653250D01*
X-7149203Y-41674074D01*
X-7146053Y-41695309D01*
X-7145000Y-41716750D01*
X-7145000Y-42154250D01*
X-7146053Y-42175691D01*
X-7149203Y-42196926D01*
X-7154419Y-42217750D01*
X-7161651Y-42237962D01*
X-7170830Y-42257368D01*
X-7181866Y-42275781D01*
X-7194654Y-42293024D01*
X-7209070Y-42308930D01*
X-7224976Y-42323346D01*
X-7242219Y-42336134D01*
X-7260632Y-42347170D01*
X-7280038Y-42356349D01*
X-7300250Y-42363581D01*
X-7321074Y-42368797D01*
X-7342309Y-42371947D01*
X-7363750Y-42373000D01*
X-7876250Y-42373000D01*
X-7897691Y-42371947D01*
X-7918926Y-42368797D01*
X-7939750Y-42363581D01*
X-7959962Y-42356349D01*
X-7979368Y-42347170D01*
X-7997781Y-42336134D01*
X-8015024Y-42323346D01*
X-8030930Y-42308930D01*
X-8045346Y-42293024D01*
X-8058134Y-42275781D01*
X-8069170Y-42257368D01*
X-8078349Y-42237962D01*
X-8085581Y-42217750D01*
X-8090797Y-42196926D01*
X-8093947Y-42175691D01*
X-8095000Y-42154250D01*
X-8095000Y-41716750D01*
X-8093947Y-41695309D01*
X-8090797Y-41674074D01*
X-8085581Y-41653250D01*
X-8078349Y-41633038D01*
X-8069170Y-41613632D01*
X-8058134Y-41595219D01*
X-8045346Y-41577976D01*
X-8030930Y-41562070D01*
X-8015024Y-41547654D01*
X-7997781Y-41534866D01*
X-7979368Y-41523830D01*
X-7959962Y-41514651D01*
X-7939750Y-41507419D01*
X-7918926Y-41502203D01*
X-7897691Y-41499053D01*
X-7876250Y-41498000D01*
X-7363750Y-41498000D01*
X-7342309Y-41499053D01*
X-7342309Y-41499053D01*
G37*
D13*
X-7620000Y-41935500D03*
D12*
G36*
X-7342309Y-39924053D02*
X-7321074Y-39927203D01*
X-7300250Y-39932419D01*
X-7280038Y-39939651D01*
X-7260632Y-39948830D01*
X-7242219Y-39959866D01*
X-7224976Y-39972654D01*
X-7209070Y-39987070D01*
X-7194654Y-40002976D01*
X-7181866Y-40020219D01*
X-7170830Y-40038632D01*
X-7161651Y-40058038D01*
X-7154419Y-40078250D01*
X-7149203Y-40099074D01*
X-7146053Y-40120309D01*
X-7145000Y-40141750D01*
X-7145000Y-40579250D01*
X-7146053Y-40600691D01*
X-7149203Y-40621926D01*
X-7154419Y-40642750D01*
X-7161651Y-40662962D01*
X-7170830Y-40682368D01*
X-7181866Y-40700781D01*
X-7194654Y-40718024D01*
X-7209070Y-40733930D01*
X-7224976Y-40748346D01*
X-7242219Y-40761134D01*
X-7260632Y-40772170D01*
X-7280038Y-40781349D01*
X-7300250Y-40788581D01*
X-7321074Y-40793797D01*
X-7342309Y-40796947D01*
X-7363750Y-40798000D01*
X-7876250Y-40798000D01*
X-7897691Y-40796947D01*
X-7918926Y-40793797D01*
X-7939750Y-40788581D01*
X-7959962Y-40781349D01*
X-7979368Y-40772170D01*
X-7997781Y-40761134D01*
X-8015024Y-40748346D01*
X-8030930Y-40733930D01*
X-8045346Y-40718024D01*
X-8058134Y-40700781D01*
X-8069170Y-40682368D01*
X-8078349Y-40662962D01*
X-8085581Y-40642750D01*
X-8090797Y-40621926D01*
X-8093947Y-40600691D01*
X-8095000Y-40579250D01*
X-8095000Y-40141750D01*
X-8093947Y-40120309D01*
X-8090797Y-40099074D01*
X-8085581Y-40078250D01*
X-8078349Y-40058038D01*
X-8069170Y-40038632D01*
X-8058134Y-40020219D01*
X-8045346Y-40002976D01*
X-8030930Y-39987070D01*
X-8015024Y-39972654D01*
X-7997781Y-39959866D01*
X-7979368Y-39948830D01*
X-7959962Y-39939651D01*
X-7939750Y-39932419D01*
X-7918926Y-39927203D01*
X-7897691Y-39924053D01*
X-7876250Y-39923000D01*
X-7363750Y-39923000D01*
X-7342309Y-39924053D01*
X-7342309Y-39924053D01*
G37*
D13*
X-7620000Y-40360500D03*
G04 #@! TD*
D12*
G04 #@! TO.C,C10*
G36*
X5865691Y-36368053D02*
X5886926Y-36371203D01*
X5907750Y-36376419D01*
X5927962Y-36383651D01*
X5947368Y-36392830D01*
X5965781Y-36403866D01*
X5983024Y-36416654D01*
X5998930Y-36431070D01*
X6013346Y-36446976D01*
X6026134Y-36464219D01*
X6037170Y-36482632D01*
X6046349Y-36502038D01*
X6053581Y-36522250D01*
X6058797Y-36543074D01*
X6061947Y-36564309D01*
X6063000Y-36585750D01*
X6063000Y-37023250D01*
X6061947Y-37044691D01*
X6058797Y-37065926D01*
X6053581Y-37086750D01*
X6046349Y-37106962D01*
X6037170Y-37126368D01*
X6026134Y-37144781D01*
X6013346Y-37162024D01*
X5998930Y-37177930D01*
X5983024Y-37192346D01*
X5965781Y-37205134D01*
X5947368Y-37216170D01*
X5927962Y-37225349D01*
X5907750Y-37232581D01*
X5886926Y-37237797D01*
X5865691Y-37240947D01*
X5844250Y-37242000D01*
X5331750Y-37242000D01*
X5310309Y-37240947D01*
X5289074Y-37237797D01*
X5268250Y-37232581D01*
X5248038Y-37225349D01*
X5228632Y-37216170D01*
X5210219Y-37205134D01*
X5192976Y-37192346D01*
X5177070Y-37177930D01*
X5162654Y-37162024D01*
X5149866Y-37144781D01*
X5138830Y-37126368D01*
X5129651Y-37106962D01*
X5122419Y-37086750D01*
X5117203Y-37065926D01*
X5114053Y-37044691D01*
X5113000Y-37023250D01*
X5113000Y-36585750D01*
X5114053Y-36564309D01*
X5117203Y-36543074D01*
X5122419Y-36522250D01*
X5129651Y-36502038D01*
X5138830Y-36482632D01*
X5149866Y-36464219D01*
X5162654Y-36446976D01*
X5177070Y-36431070D01*
X5192976Y-36416654D01*
X5210219Y-36403866D01*
X5228632Y-36392830D01*
X5248038Y-36383651D01*
X5268250Y-36376419D01*
X5289074Y-36371203D01*
X5310309Y-36368053D01*
X5331750Y-36367000D01*
X5844250Y-36367000D01*
X5865691Y-36368053D01*
X5865691Y-36368053D01*
G37*
D13*
X5588000Y-36804500D03*
D12*
G36*
X5865691Y-37943053D02*
X5886926Y-37946203D01*
X5907750Y-37951419D01*
X5927962Y-37958651D01*
X5947368Y-37967830D01*
X5965781Y-37978866D01*
X5983024Y-37991654D01*
X5998930Y-38006070D01*
X6013346Y-38021976D01*
X6026134Y-38039219D01*
X6037170Y-38057632D01*
X6046349Y-38077038D01*
X6053581Y-38097250D01*
X6058797Y-38118074D01*
X6061947Y-38139309D01*
X6063000Y-38160750D01*
X6063000Y-38598250D01*
X6061947Y-38619691D01*
X6058797Y-38640926D01*
X6053581Y-38661750D01*
X6046349Y-38681962D01*
X6037170Y-38701368D01*
X6026134Y-38719781D01*
X6013346Y-38737024D01*
X5998930Y-38752930D01*
X5983024Y-38767346D01*
X5965781Y-38780134D01*
X5947368Y-38791170D01*
X5927962Y-38800349D01*
X5907750Y-38807581D01*
X5886926Y-38812797D01*
X5865691Y-38815947D01*
X5844250Y-38817000D01*
X5331750Y-38817000D01*
X5310309Y-38815947D01*
X5289074Y-38812797D01*
X5268250Y-38807581D01*
X5248038Y-38800349D01*
X5228632Y-38791170D01*
X5210219Y-38780134D01*
X5192976Y-38767346D01*
X5177070Y-38752930D01*
X5162654Y-38737024D01*
X5149866Y-38719781D01*
X5138830Y-38701368D01*
X5129651Y-38681962D01*
X5122419Y-38661750D01*
X5117203Y-38640926D01*
X5114053Y-38619691D01*
X5113000Y-38598250D01*
X5113000Y-38160750D01*
X5114053Y-38139309D01*
X5117203Y-38118074D01*
X5122419Y-38097250D01*
X5129651Y-38077038D01*
X5138830Y-38057632D01*
X5149866Y-38039219D01*
X5162654Y-38021976D01*
X5177070Y-38006070D01*
X5192976Y-37991654D01*
X5210219Y-37978866D01*
X5228632Y-37967830D01*
X5248038Y-37958651D01*
X5268250Y-37951419D01*
X5289074Y-37946203D01*
X5310309Y-37943053D01*
X5331750Y-37942000D01*
X5844250Y-37942000D01*
X5865691Y-37943053D01*
X5865691Y-37943053D01*
G37*
D13*
X5588000Y-38379500D03*
G04 #@! TD*
D12*
G04 #@! TO.C,C11*
G36*
X-5310309Y-36368053D02*
X-5289074Y-36371203D01*
X-5268250Y-36376419D01*
X-5248038Y-36383651D01*
X-5228632Y-36392830D01*
X-5210219Y-36403866D01*
X-5192976Y-36416654D01*
X-5177070Y-36431070D01*
X-5162654Y-36446976D01*
X-5149866Y-36464219D01*
X-5138830Y-36482632D01*
X-5129651Y-36502038D01*
X-5122419Y-36522250D01*
X-5117203Y-36543074D01*
X-5114053Y-36564309D01*
X-5113000Y-36585750D01*
X-5113000Y-37023250D01*
X-5114053Y-37044691D01*
X-5117203Y-37065926D01*
X-5122419Y-37086750D01*
X-5129651Y-37106962D01*
X-5138830Y-37126368D01*
X-5149866Y-37144781D01*
X-5162654Y-37162024D01*
X-5177070Y-37177930D01*
X-5192976Y-37192346D01*
X-5210219Y-37205134D01*
X-5228632Y-37216170D01*
X-5248038Y-37225349D01*
X-5268250Y-37232581D01*
X-5289074Y-37237797D01*
X-5310309Y-37240947D01*
X-5331750Y-37242000D01*
X-5844250Y-37242000D01*
X-5865691Y-37240947D01*
X-5886926Y-37237797D01*
X-5907750Y-37232581D01*
X-5927962Y-37225349D01*
X-5947368Y-37216170D01*
X-5965781Y-37205134D01*
X-5983024Y-37192346D01*
X-5998930Y-37177930D01*
X-6013346Y-37162024D01*
X-6026134Y-37144781D01*
X-6037170Y-37126368D01*
X-6046349Y-37106962D01*
X-6053581Y-37086750D01*
X-6058797Y-37065926D01*
X-6061947Y-37044691D01*
X-6063000Y-37023250D01*
X-6063000Y-36585750D01*
X-6061947Y-36564309D01*
X-6058797Y-36543074D01*
X-6053581Y-36522250D01*
X-6046349Y-36502038D01*
X-6037170Y-36482632D01*
X-6026134Y-36464219D01*
X-6013346Y-36446976D01*
X-5998930Y-36431070D01*
X-5983024Y-36416654D01*
X-5965781Y-36403866D01*
X-5947368Y-36392830D01*
X-5927962Y-36383651D01*
X-5907750Y-36376419D01*
X-5886926Y-36371203D01*
X-5865691Y-36368053D01*
X-5844250Y-36367000D01*
X-5331750Y-36367000D01*
X-5310309Y-36368053D01*
X-5310309Y-36368053D01*
G37*
D13*
X-5588000Y-36804500D03*
D12*
G36*
X-5310309Y-37943053D02*
X-5289074Y-37946203D01*
X-5268250Y-37951419D01*
X-5248038Y-37958651D01*
X-5228632Y-37967830D01*
X-5210219Y-37978866D01*
X-5192976Y-37991654D01*
X-5177070Y-38006070D01*
X-5162654Y-38021976D01*
X-5149866Y-38039219D01*
X-5138830Y-38057632D01*
X-5129651Y-38077038D01*
X-5122419Y-38097250D01*
X-5117203Y-38118074D01*
X-5114053Y-38139309D01*
X-5113000Y-38160750D01*
X-5113000Y-38598250D01*
X-5114053Y-38619691D01*
X-5117203Y-38640926D01*
X-5122419Y-38661750D01*
X-5129651Y-38681962D01*
X-5138830Y-38701368D01*
X-5149866Y-38719781D01*
X-5162654Y-38737024D01*
X-5177070Y-38752930D01*
X-5192976Y-38767346D01*
X-5210219Y-38780134D01*
X-5228632Y-38791170D01*
X-5248038Y-38800349D01*
X-5268250Y-38807581D01*
X-5289074Y-38812797D01*
X-5310309Y-38815947D01*
X-5331750Y-38817000D01*
X-5844250Y-38817000D01*
X-5865691Y-38815947D01*
X-5886926Y-38812797D01*
X-5907750Y-38807581D01*
X-5927962Y-38800349D01*
X-5947368Y-38791170D01*
X-5965781Y-38780134D01*
X-5983024Y-38767346D01*
X-5998930Y-38752930D01*
X-6013346Y-38737024D01*
X-6026134Y-38719781D01*
X-6037170Y-38701368D01*
X-6046349Y-38681962D01*
X-6053581Y-38661750D01*
X-6058797Y-38640926D01*
X-6061947Y-38619691D01*
X-6063000Y-38598250D01*
X-6063000Y-38160750D01*
X-6061947Y-38139309D01*
X-6058797Y-38118074D01*
X-6053581Y-38097250D01*
X-6046349Y-38077038D01*
X-6037170Y-38057632D01*
X-6026134Y-38039219D01*
X-6013346Y-38021976D01*
X-5998930Y-38006070D01*
X-5983024Y-37991654D01*
X-5965781Y-37978866D01*
X-5947368Y-37967830D01*
X-5927962Y-37958651D01*
X-5907750Y-37951419D01*
X-5886926Y-37946203D01*
X-5865691Y-37943053D01*
X-5844250Y-37942000D01*
X-5331750Y-37942000D01*
X-5310309Y-37943053D01*
X-5310309Y-37943053D01*
G37*
D13*
X-5588000Y-38379500D03*
G04 #@! TD*
D12*
G04 #@! TO.C,C4*
G36*
X-6123858Y-5531174D02*
X-6100197Y-5534684D01*
X-6076993Y-5540496D01*
X-6054471Y-5548554D01*
X-6032847Y-5558782D01*
X-6012330Y-5571079D01*
X-5993117Y-5585329D01*
X-5975393Y-5601393D01*
X-5959329Y-5619117D01*
X-5945079Y-5638330D01*
X-5932782Y-5658847D01*
X-5922554Y-5680471D01*
X-5914496Y-5702993D01*
X-5908684Y-5726197D01*
X-5905174Y-5749858D01*
X-5904000Y-5773750D01*
X-5904000Y-6261250D01*
X-5905174Y-6285142D01*
X-5908684Y-6308803D01*
X-5914496Y-6332007D01*
X-5922554Y-6354529D01*
X-5932782Y-6376153D01*
X-5945079Y-6396670D01*
X-5959329Y-6415883D01*
X-5975393Y-6433607D01*
X-5993117Y-6449671D01*
X-6012330Y-6463921D01*
X-6032847Y-6476218D01*
X-6054471Y-6486446D01*
X-6076993Y-6494504D01*
X-6100197Y-6500316D01*
X-6123858Y-6503826D01*
X-6147750Y-6505000D01*
X-7060250Y-6505000D01*
X-7084142Y-6503826D01*
X-7107803Y-6500316D01*
X-7131007Y-6494504D01*
X-7153529Y-6486446D01*
X-7175153Y-6476218D01*
X-7195670Y-6463921D01*
X-7214883Y-6449671D01*
X-7232607Y-6433607D01*
X-7248671Y-6415883D01*
X-7262921Y-6396670D01*
X-7275218Y-6376153D01*
X-7285446Y-6354529D01*
X-7293504Y-6332007D01*
X-7299316Y-6308803D01*
X-7302826Y-6285142D01*
X-7304000Y-6261250D01*
X-7304000Y-5773750D01*
X-7302826Y-5749858D01*
X-7299316Y-5726197D01*
X-7293504Y-5702993D01*
X-7285446Y-5680471D01*
X-7275218Y-5658847D01*
X-7262921Y-5638330D01*
X-7248671Y-5619117D01*
X-7232607Y-5601393D01*
X-7214883Y-5585329D01*
X-7195670Y-5571079D01*
X-7175153Y-5558782D01*
X-7153529Y-5548554D01*
X-7131007Y-5540496D01*
X-7107803Y-5534684D01*
X-7084142Y-5531174D01*
X-7060250Y-5530000D01*
X-6147750Y-5530000D01*
X-6123858Y-5531174D01*
X-6123858Y-5531174D01*
G37*
D14*
X-6604000Y-6017500D03*
D12*
G36*
X-6123858Y-3656174D02*
X-6100197Y-3659684D01*
X-6076993Y-3665496D01*
X-6054471Y-3673554D01*
X-6032847Y-3683782D01*
X-6012330Y-3696079D01*
X-5993117Y-3710329D01*
X-5975393Y-3726393D01*
X-5959329Y-3744117D01*
X-5945079Y-3763330D01*
X-5932782Y-3783847D01*
X-5922554Y-3805471D01*
X-5914496Y-3827993D01*
X-5908684Y-3851197D01*
X-5905174Y-3874858D01*
X-5904000Y-3898750D01*
X-5904000Y-4386250D01*
X-5905174Y-4410142D01*
X-5908684Y-4433803D01*
X-5914496Y-4457007D01*
X-5922554Y-4479529D01*
X-5932782Y-4501153D01*
X-5945079Y-4521670D01*
X-5959329Y-4540883D01*
X-5975393Y-4558607D01*
X-5993117Y-4574671D01*
X-6012330Y-4588921D01*
X-6032847Y-4601218D01*
X-6054471Y-4611446D01*
X-6076993Y-4619504D01*
X-6100197Y-4625316D01*
X-6123858Y-4628826D01*
X-6147750Y-4630000D01*
X-7060250Y-4630000D01*
X-7084142Y-4628826D01*
X-7107803Y-4625316D01*
X-7131007Y-4619504D01*
X-7153529Y-4611446D01*
X-7175153Y-4601218D01*
X-7195670Y-4588921D01*
X-7214883Y-4574671D01*
X-7232607Y-4558607D01*
X-7248671Y-4540883D01*
X-7262921Y-4521670D01*
X-7275218Y-4501153D01*
X-7285446Y-4479529D01*
X-7293504Y-4457007D01*
X-7299316Y-4433803D01*
X-7302826Y-4410142D01*
X-7304000Y-4386250D01*
X-7304000Y-3898750D01*
X-7302826Y-3874858D01*
X-7299316Y-3851197D01*
X-7293504Y-3827993D01*
X-7285446Y-3805471D01*
X-7275218Y-3783847D01*
X-7262921Y-3763330D01*
X-7248671Y-3744117D01*
X-7232607Y-3726393D01*
X-7214883Y-3710329D01*
X-7195670Y-3696079D01*
X-7175153Y-3683782D01*
X-7153529Y-3673554D01*
X-7131007Y-3665496D01*
X-7107803Y-3659684D01*
X-7084142Y-3656174D01*
X-7060250Y-3655000D01*
X-6147750Y-3655000D01*
X-6123858Y-3656174D01*
X-6123858Y-3656174D01*
G37*
D14*
X-6604000Y-4142500D03*
G04 #@! TD*
D12*
G04 #@! TO.C,C5*
G36*
X4036142Y-21787174D02*
X4059803Y-21790684D01*
X4083007Y-21796496D01*
X4105529Y-21804554D01*
X4127153Y-21814782D01*
X4147670Y-21827079D01*
X4166883Y-21841329D01*
X4184607Y-21857393D01*
X4200671Y-21875117D01*
X4214921Y-21894330D01*
X4227218Y-21914847D01*
X4237446Y-21936471D01*
X4245504Y-21958993D01*
X4251316Y-21982197D01*
X4254826Y-22005858D01*
X4256000Y-22029750D01*
X4256000Y-22517250D01*
X4254826Y-22541142D01*
X4251316Y-22564803D01*
X4245504Y-22588007D01*
X4237446Y-22610529D01*
X4227218Y-22632153D01*
X4214921Y-22652670D01*
X4200671Y-22671883D01*
X4184607Y-22689607D01*
X4166883Y-22705671D01*
X4147670Y-22719921D01*
X4127153Y-22732218D01*
X4105529Y-22742446D01*
X4083007Y-22750504D01*
X4059803Y-22756316D01*
X4036142Y-22759826D01*
X4012250Y-22761000D01*
X3099750Y-22761000D01*
X3075858Y-22759826D01*
X3052197Y-22756316D01*
X3028993Y-22750504D01*
X3006471Y-22742446D01*
X2984847Y-22732218D01*
X2964330Y-22719921D01*
X2945117Y-22705671D01*
X2927393Y-22689607D01*
X2911329Y-22671883D01*
X2897079Y-22652670D01*
X2884782Y-22632153D01*
X2874554Y-22610529D01*
X2866496Y-22588007D01*
X2860684Y-22564803D01*
X2857174Y-22541142D01*
X2856000Y-22517250D01*
X2856000Y-22029750D01*
X2857174Y-22005858D01*
X2860684Y-21982197D01*
X2866496Y-21958993D01*
X2874554Y-21936471D01*
X2884782Y-21914847D01*
X2897079Y-21894330D01*
X2911329Y-21875117D01*
X2927393Y-21857393D01*
X2945117Y-21841329D01*
X2964330Y-21827079D01*
X2984847Y-21814782D01*
X3006471Y-21804554D01*
X3028993Y-21796496D01*
X3052197Y-21790684D01*
X3075858Y-21787174D01*
X3099750Y-21786000D01*
X4012250Y-21786000D01*
X4036142Y-21787174D01*
X4036142Y-21787174D01*
G37*
D14*
X3556000Y-22273500D03*
D12*
G36*
X4036142Y-19912174D02*
X4059803Y-19915684D01*
X4083007Y-19921496D01*
X4105529Y-19929554D01*
X4127153Y-19939782D01*
X4147670Y-19952079D01*
X4166883Y-19966329D01*
X4184607Y-19982393D01*
X4200671Y-20000117D01*
X4214921Y-20019330D01*
X4227218Y-20039847D01*
X4237446Y-20061471D01*
X4245504Y-20083993D01*
X4251316Y-20107197D01*
X4254826Y-20130858D01*
X4256000Y-20154750D01*
X4256000Y-20642250D01*
X4254826Y-20666142D01*
X4251316Y-20689803D01*
X4245504Y-20713007D01*
X4237446Y-20735529D01*
X4227218Y-20757153D01*
X4214921Y-20777670D01*
X4200671Y-20796883D01*
X4184607Y-20814607D01*
X4166883Y-20830671D01*
X4147670Y-20844921D01*
X4127153Y-20857218D01*
X4105529Y-20867446D01*
X4083007Y-20875504D01*
X4059803Y-20881316D01*
X4036142Y-20884826D01*
X4012250Y-20886000D01*
X3099750Y-20886000D01*
X3075858Y-20884826D01*
X3052197Y-20881316D01*
X3028993Y-20875504D01*
X3006471Y-20867446D01*
X2984847Y-20857218D01*
X2964330Y-20844921D01*
X2945117Y-20830671D01*
X2927393Y-20814607D01*
X2911329Y-20796883D01*
X2897079Y-20777670D01*
X2884782Y-20757153D01*
X2874554Y-20735529D01*
X2866496Y-20713007D01*
X2860684Y-20689803D01*
X2857174Y-20666142D01*
X2856000Y-20642250D01*
X2856000Y-20154750D01*
X2857174Y-20130858D01*
X2860684Y-20107197D01*
X2866496Y-20083993D01*
X2874554Y-20061471D01*
X2884782Y-20039847D01*
X2897079Y-20019330D01*
X2911329Y-20000117D01*
X2927393Y-19982393D01*
X2945117Y-19966329D01*
X2964330Y-19952079D01*
X2984847Y-19939782D01*
X3006471Y-19929554D01*
X3028993Y-19921496D01*
X3052197Y-19915684D01*
X3075858Y-19912174D01*
X3099750Y-19911000D01*
X4012250Y-19911000D01*
X4036142Y-19912174D01*
X4036142Y-19912174D01*
G37*
D14*
X3556000Y-20398500D03*
G04 #@! TD*
D12*
G04 #@! TO.C,C9*
G36*
X7084142Y-5531174D02*
X7107803Y-5534684D01*
X7131007Y-5540496D01*
X7153529Y-5548554D01*
X7175153Y-5558782D01*
X7195670Y-5571079D01*
X7214883Y-5585329D01*
X7232607Y-5601393D01*
X7248671Y-5619117D01*
X7262921Y-5638330D01*
X7275218Y-5658847D01*
X7285446Y-5680471D01*
X7293504Y-5702993D01*
X7299316Y-5726197D01*
X7302826Y-5749858D01*
X7304000Y-5773750D01*
X7304000Y-6261250D01*
X7302826Y-6285142D01*
X7299316Y-6308803D01*
X7293504Y-6332007D01*
X7285446Y-6354529D01*
X7275218Y-6376153D01*
X7262921Y-6396670D01*
X7248671Y-6415883D01*
X7232607Y-6433607D01*
X7214883Y-6449671D01*
X7195670Y-6463921D01*
X7175153Y-6476218D01*
X7153529Y-6486446D01*
X7131007Y-6494504D01*
X7107803Y-6500316D01*
X7084142Y-6503826D01*
X7060250Y-6505000D01*
X6147750Y-6505000D01*
X6123858Y-6503826D01*
X6100197Y-6500316D01*
X6076993Y-6494504D01*
X6054471Y-6486446D01*
X6032847Y-6476218D01*
X6012330Y-6463921D01*
X5993117Y-6449671D01*
X5975393Y-6433607D01*
X5959329Y-6415883D01*
X5945079Y-6396670D01*
X5932782Y-6376153D01*
X5922554Y-6354529D01*
X5914496Y-6332007D01*
X5908684Y-6308803D01*
X5905174Y-6285142D01*
X5904000Y-6261250D01*
X5904000Y-5773750D01*
X5905174Y-5749858D01*
X5908684Y-5726197D01*
X5914496Y-5702993D01*
X5922554Y-5680471D01*
X5932782Y-5658847D01*
X5945079Y-5638330D01*
X5959329Y-5619117D01*
X5975393Y-5601393D01*
X5993117Y-5585329D01*
X6012330Y-5571079D01*
X6032847Y-5558782D01*
X6054471Y-5548554D01*
X6076993Y-5540496D01*
X6100197Y-5534684D01*
X6123858Y-5531174D01*
X6147750Y-5530000D01*
X7060250Y-5530000D01*
X7084142Y-5531174D01*
X7084142Y-5531174D01*
G37*
D14*
X6604000Y-6017500D03*
D12*
G36*
X7084142Y-3656174D02*
X7107803Y-3659684D01*
X7131007Y-3665496D01*
X7153529Y-3673554D01*
X7175153Y-3683782D01*
X7195670Y-3696079D01*
X7214883Y-3710329D01*
X7232607Y-3726393D01*
X7248671Y-3744117D01*
X7262921Y-3763330D01*
X7275218Y-3783847D01*
X7285446Y-3805471D01*
X7293504Y-3827993D01*
X7299316Y-3851197D01*
X7302826Y-3874858D01*
X7304000Y-3898750D01*
X7304000Y-4386250D01*
X7302826Y-4410142D01*
X7299316Y-4433803D01*
X7293504Y-4457007D01*
X7285446Y-4479529D01*
X7275218Y-4501153D01*
X7262921Y-4521670D01*
X7248671Y-4540883D01*
X7232607Y-4558607D01*
X7214883Y-4574671D01*
X7195670Y-4588921D01*
X7175153Y-4601218D01*
X7153529Y-4611446D01*
X7131007Y-4619504D01*
X7107803Y-4625316D01*
X7084142Y-4628826D01*
X7060250Y-4630000D01*
X6147750Y-4630000D01*
X6123858Y-4628826D01*
X6100197Y-4625316D01*
X6076993Y-4619504D01*
X6054471Y-4611446D01*
X6032847Y-4601218D01*
X6012330Y-4588921D01*
X5993117Y-4574671D01*
X5975393Y-4558607D01*
X5959329Y-4540883D01*
X5945079Y-4521670D01*
X5932782Y-4501153D01*
X5922554Y-4479529D01*
X5914496Y-4457007D01*
X5908684Y-4433803D01*
X5905174Y-4410142D01*
X5904000Y-4386250D01*
X5904000Y-3898750D01*
X5905174Y-3874858D01*
X5908684Y-3851197D01*
X5914496Y-3827993D01*
X5922554Y-3805471D01*
X5932782Y-3783847D01*
X5945079Y-3763330D01*
X5959329Y-3744117D01*
X5975393Y-3726393D01*
X5993117Y-3710329D01*
X6012330Y-3696079D01*
X6032847Y-3683782D01*
X6054471Y-3673554D01*
X6076993Y-3665496D01*
X6100197Y-3659684D01*
X6123858Y-3656174D01*
X6147750Y-3655000D01*
X7060250Y-3655000D01*
X7084142Y-3656174D01*
X7084142Y-3656174D01*
G37*
D14*
X6604000Y-4142500D03*
G04 #@! TD*
D12*
G04 #@! TO.C,C2*
G36*
X-14140496Y-26176204D02*
X-14116227Y-26179804D01*
X-14092429Y-26185765D01*
X-14069329Y-26194030D01*
X-14047151Y-26204520D01*
X-14026107Y-26217133D01*
X-14006402Y-26231747D01*
X-13988223Y-26248223D01*
X-13971747Y-26266402D01*
X-13957133Y-26286107D01*
X-13944520Y-26307151D01*
X-13934030Y-26329329D01*
X-13925765Y-26352429D01*
X-13919804Y-26376227D01*
X-13916204Y-26400496D01*
X-13915000Y-26425000D01*
X-13915000Y-27175000D01*
X-13916204Y-27199504D01*
X-13919804Y-27223773D01*
X-13925765Y-27247571D01*
X-13934030Y-27270671D01*
X-13944520Y-27292849D01*
X-13957133Y-27313893D01*
X-13971747Y-27333598D01*
X-13988223Y-27351777D01*
X-14006402Y-27368253D01*
X-14026107Y-27382867D01*
X-14047151Y-27395480D01*
X-14069329Y-27405970D01*
X-14092429Y-27414235D01*
X-14116227Y-27420196D01*
X-14140496Y-27423796D01*
X-14165000Y-27425000D01*
X-16315000Y-27425000D01*
X-16339504Y-27423796D01*
X-16363773Y-27420196D01*
X-16387571Y-27414235D01*
X-16410671Y-27405970D01*
X-16432849Y-27395480D01*
X-16453893Y-27382867D01*
X-16473598Y-27368253D01*
X-16491777Y-27351777D01*
X-16508253Y-27333598D01*
X-16522867Y-27313893D01*
X-16535480Y-27292849D01*
X-16545970Y-27270671D01*
X-16554235Y-27247571D01*
X-16560196Y-27223773D01*
X-16563796Y-27199504D01*
X-16565000Y-27175000D01*
X-16565000Y-26425000D01*
X-16563796Y-26400496D01*
X-16560196Y-26376227D01*
X-16554235Y-26352429D01*
X-16545970Y-26329329D01*
X-16535480Y-26307151D01*
X-16522867Y-26286107D01*
X-16508253Y-26266402D01*
X-16491777Y-26248223D01*
X-16473598Y-26231747D01*
X-16453893Y-26217133D01*
X-16432849Y-26204520D01*
X-16410671Y-26194030D01*
X-16387571Y-26185765D01*
X-16363773Y-26179804D01*
X-16339504Y-26176204D01*
X-16315000Y-26175000D01*
X-14165000Y-26175000D01*
X-14140496Y-26176204D01*
X-14140496Y-26176204D01*
G37*
D15*
X-15240000Y-26800000D03*
D12*
G36*
X-14140496Y-23376204D02*
X-14116227Y-23379804D01*
X-14092429Y-23385765D01*
X-14069329Y-23394030D01*
X-14047151Y-23404520D01*
X-14026107Y-23417133D01*
X-14006402Y-23431747D01*
X-13988223Y-23448223D01*
X-13971747Y-23466402D01*
X-13957133Y-23486107D01*
X-13944520Y-23507151D01*
X-13934030Y-23529329D01*
X-13925765Y-23552429D01*
X-13919804Y-23576227D01*
X-13916204Y-23600496D01*
X-13915000Y-23625000D01*
X-13915000Y-24375000D01*
X-13916204Y-24399504D01*
X-13919804Y-24423773D01*
X-13925765Y-24447571D01*
X-13934030Y-24470671D01*
X-13944520Y-24492849D01*
X-13957133Y-24513893D01*
X-13971747Y-24533598D01*
X-13988223Y-24551777D01*
X-14006402Y-24568253D01*
X-14026107Y-24582867D01*
X-14047151Y-24595480D01*
X-14069329Y-24605970D01*
X-14092429Y-24614235D01*
X-14116227Y-24620196D01*
X-14140496Y-24623796D01*
X-14165000Y-24625000D01*
X-16315000Y-24625000D01*
X-16339504Y-24623796D01*
X-16363773Y-24620196D01*
X-16387571Y-24614235D01*
X-16410671Y-24605970D01*
X-16432849Y-24595480D01*
X-16453893Y-24582867D01*
X-16473598Y-24568253D01*
X-16491777Y-24551777D01*
X-16508253Y-24533598D01*
X-16522867Y-24513893D01*
X-16535480Y-24492849D01*
X-16545970Y-24470671D01*
X-16554235Y-24447571D01*
X-16560196Y-24423773D01*
X-16563796Y-24399504D01*
X-16565000Y-24375000D01*
X-16565000Y-23625000D01*
X-16563796Y-23600496D01*
X-16560196Y-23576227D01*
X-16554235Y-23552429D01*
X-16545970Y-23529329D01*
X-16535480Y-23507151D01*
X-16522867Y-23486107D01*
X-16508253Y-23466402D01*
X-16491777Y-23448223D01*
X-16473598Y-23431747D01*
X-16453893Y-23417133D01*
X-16432849Y-23404520D01*
X-16410671Y-23394030D01*
X-16387571Y-23385765D01*
X-16363773Y-23379804D01*
X-16339504Y-23376204D01*
X-16315000Y-23375000D01*
X-14165000Y-23375000D01*
X-14140496Y-23376204D01*
X-14140496Y-23376204D01*
G37*
D15*
X-15240000Y-24000000D03*
G04 #@! TD*
D12*
G04 #@! TO.C,C3*
G36*
X-14140496Y-8904204D02*
X-14116227Y-8907804D01*
X-14092429Y-8913765D01*
X-14069329Y-8922030D01*
X-14047151Y-8932520D01*
X-14026107Y-8945133D01*
X-14006402Y-8959747D01*
X-13988223Y-8976223D01*
X-13971747Y-8994402D01*
X-13957133Y-9014107D01*
X-13944520Y-9035151D01*
X-13934030Y-9057329D01*
X-13925765Y-9080429D01*
X-13919804Y-9104227D01*
X-13916204Y-9128496D01*
X-13915000Y-9153000D01*
X-13915000Y-9903000D01*
X-13916204Y-9927504D01*
X-13919804Y-9951773D01*
X-13925765Y-9975571D01*
X-13934030Y-9998671D01*
X-13944520Y-10020849D01*
X-13957133Y-10041893D01*
X-13971747Y-10061598D01*
X-13988223Y-10079777D01*
X-14006402Y-10096253D01*
X-14026107Y-10110867D01*
X-14047151Y-10123480D01*
X-14069329Y-10133970D01*
X-14092429Y-10142235D01*
X-14116227Y-10148196D01*
X-14140496Y-10151796D01*
X-14165000Y-10153000D01*
X-16315000Y-10153000D01*
X-16339504Y-10151796D01*
X-16363773Y-10148196D01*
X-16387571Y-10142235D01*
X-16410671Y-10133970D01*
X-16432849Y-10123480D01*
X-16453893Y-10110867D01*
X-16473598Y-10096253D01*
X-16491777Y-10079777D01*
X-16508253Y-10061598D01*
X-16522867Y-10041893D01*
X-16535480Y-10020849D01*
X-16545970Y-9998671D01*
X-16554235Y-9975571D01*
X-16560196Y-9951773D01*
X-16563796Y-9927504D01*
X-16565000Y-9903000D01*
X-16565000Y-9153000D01*
X-16563796Y-9128496D01*
X-16560196Y-9104227D01*
X-16554235Y-9080429D01*
X-16545970Y-9057329D01*
X-16535480Y-9035151D01*
X-16522867Y-9014107D01*
X-16508253Y-8994402D01*
X-16491777Y-8976223D01*
X-16473598Y-8959747D01*
X-16453893Y-8945133D01*
X-16432849Y-8932520D01*
X-16410671Y-8922030D01*
X-16387571Y-8913765D01*
X-16363773Y-8907804D01*
X-16339504Y-8904204D01*
X-16315000Y-8903000D01*
X-14165000Y-8903000D01*
X-14140496Y-8904204D01*
X-14140496Y-8904204D01*
G37*
D15*
X-15240000Y-9528000D03*
D12*
G36*
X-14140496Y-6104204D02*
X-14116227Y-6107804D01*
X-14092429Y-6113765D01*
X-14069329Y-6122030D01*
X-14047151Y-6132520D01*
X-14026107Y-6145133D01*
X-14006402Y-6159747D01*
X-13988223Y-6176223D01*
X-13971747Y-6194402D01*
X-13957133Y-6214107D01*
X-13944520Y-6235151D01*
X-13934030Y-6257329D01*
X-13925765Y-6280429D01*
X-13919804Y-6304227D01*
X-13916204Y-6328496D01*
X-13915000Y-6353000D01*
X-13915000Y-7103000D01*
X-13916204Y-7127504D01*
X-13919804Y-7151773D01*
X-13925765Y-7175571D01*
X-13934030Y-7198671D01*
X-13944520Y-7220849D01*
X-13957133Y-7241893D01*
X-13971747Y-7261598D01*
X-13988223Y-7279777D01*
X-14006402Y-7296253D01*
X-14026107Y-7310867D01*
X-14047151Y-7323480D01*
X-14069329Y-7333970D01*
X-14092429Y-7342235D01*
X-14116227Y-7348196D01*
X-14140496Y-7351796D01*
X-14165000Y-7353000D01*
X-16315000Y-7353000D01*
X-16339504Y-7351796D01*
X-16363773Y-7348196D01*
X-16387571Y-7342235D01*
X-16410671Y-7333970D01*
X-16432849Y-7323480D01*
X-16453893Y-7310867D01*
X-16473598Y-7296253D01*
X-16491777Y-7279777D01*
X-16508253Y-7261598D01*
X-16522867Y-7241893D01*
X-16535480Y-7220849D01*
X-16545970Y-7198671D01*
X-16554235Y-7175571D01*
X-16560196Y-7151773D01*
X-16563796Y-7127504D01*
X-16565000Y-7103000D01*
X-16565000Y-6353000D01*
X-16563796Y-6328496D01*
X-16560196Y-6304227D01*
X-16554235Y-6280429D01*
X-16545970Y-6257329D01*
X-16535480Y-6235151D01*
X-16522867Y-6214107D01*
X-16508253Y-6194402D01*
X-16491777Y-6176223D01*
X-16473598Y-6159747D01*
X-16453893Y-6145133D01*
X-16432849Y-6132520D01*
X-16410671Y-6122030D01*
X-16387571Y-6113765D01*
X-16363773Y-6107804D01*
X-16339504Y-6104204D01*
X-16315000Y-6103000D01*
X-14165000Y-6103000D01*
X-14140496Y-6104204D01*
X-14140496Y-6104204D01*
G37*
D15*
X-15240000Y-6728000D03*
G04 #@! TD*
D12*
G04 #@! TO.C,C8*
G36*
X1799504Y-25600204D02*
X1823773Y-25603804D01*
X1847571Y-25609765D01*
X1870671Y-25618030D01*
X1892849Y-25628520D01*
X1913893Y-25641133D01*
X1933598Y-25655747D01*
X1951777Y-25672223D01*
X1968253Y-25690402D01*
X1982867Y-25710107D01*
X1995480Y-25731151D01*
X2005970Y-25753329D01*
X2014235Y-25776429D01*
X2020196Y-25800227D01*
X2023796Y-25824496D01*
X2025000Y-25849000D01*
X2025000Y-27999000D01*
X2023796Y-28023504D01*
X2020196Y-28047773D01*
X2014235Y-28071571D01*
X2005970Y-28094671D01*
X1995480Y-28116849D01*
X1982867Y-28137893D01*
X1968253Y-28157598D01*
X1951777Y-28175777D01*
X1933598Y-28192253D01*
X1913893Y-28206867D01*
X1892849Y-28219480D01*
X1870671Y-28229970D01*
X1847571Y-28238235D01*
X1823773Y-28244196D01*
X1799504Y-28247796D01*
X1775000Y-28249000D01*
X1025000Y-28249000D01*
X1000496Y-28247796D01*
X976227Y-28244196D01*
X952429Y-28238235D01*
X929329Y-28229970D01*
X907151Y-28219480D01*
X886107Y-28206867D01*
X866402Y-28192253D01*
X848223Y-28175777D01*
X831747Y-28157598D01*
X817133Y-28137893D01*
X804520Y-28116849D01*
X794030Y-28094671D01*
X785765Y-28071571D01*
X779804Y-28047773D01*
X776204Y-28023504D01*
X775000Y-27999000D01*
X775000Y-25849000D01*
X776204Y-25824496D01*
X779804Y-25800227D01*
X785765Y-25776429D01*
X794030Y-25753329D01*
X804520Y-25731151D01*
X817133Y-25710107D01*
X831747Y-25690402D01*
X848223Y-25672223D01*
X866402Y-25655747D01*
X886107Y-25641133D01*
X907151Y-25628520D01*
X929329Y-25618030D01*
X952429Y-25609765D01*
X976227Y-25603804D01*
X1000496Y-25600204D01*
X1025000Y-25599000D01*
X1775000Y-25599000D01*
X1799504Y-25600204D01*
X1799504Y-25600204D01*
G37*
D15*
X1400000Y-26924000D03*
D12*
G36*
X-1000496Y-25600204D02*
X-976227Y-25603804D01*
X-952429Y-25609765D01*
X-929329Y-25618030D01*
X-907151Y-25628520D01*
X-886107Y-25641133D01*
X-866402Y-25655747D01*
X-848223Y-25672223D01*
X-831747Y-25690402D01*
X-817133Y-25710107D01*
X-804520Y-25731151D01*
X-794030Y-25753329D01*
X-785765Y-25776429D01*
X-779804Y-25800227D01*
X-776204Y-25824496D01*
X-775000Y-25849000D01*
X-775000Y-27999000D01*
X-776204Y-28023504D01*
X-779804Y-28047773D01*
X-785765Y-28071571D01*
X-794030Y-28094671D01*
X-804520Y-28116849D01*
X-817133Y-28137893D01*
X-831747Y-28157598D01*
X-848223Y-28175777D01*
X-866402Y-28192253D01*
X-886107Y-28206867D01*
X-907151Y-28219480D01*
X-929329Y-28229970D01*
X-952429Y-28238235D01*
X-976227Y-28244196D01*
X-1000496Y-28247796D01*
X-1025000Y-28249000D01*
X-1775000Y-28249000D01*
X-1799504Y-28247796D01*
X-1823773Y-28244196D01*
X-1847571Y-28238235D01*
X-1870671Y-28229970D01*
X-1892849Y-28219480D01*
X-1913893Y-28206867D01*
X-1933598Y-28192253D01*
X-1951777Y-28175777D01*
X-1968253Y-28157598D01*
X-1982867Y-28137893D01*
X-1995480Y-28116849D01*
X-2005970Y-28094671D01*
X-2014235Y-28071571D01*
X-2020196Y-28047773D01*
X-2023796Y-28023504D01*
X-2025000Y-27999000D01*
X-2025000Y-25849000D01*
X-2023796Y-25824496D01*
X-2020196Y-25800227D01*
X-2014235Y-25776429D01*
X-2005970Y-25753329D01*
X-1995480Y-25731151D01*
X-1982867Y-25710107D01*
X-1968253Y-25690402D01*
X-1951777Y-25672223D01*
X-1933598Y-25655747D01*
X-1913893Y-25641133D01*
X-1892849Y-25628520D01*
X-1870671Y-25618030D01*
X-1847571Y-25609765D01*
X-1823773Y-25603804D01*
X-1799504Y-25600204D01*
X-1775000Y-25599000D01*
X-1025000Y-25599000D01*
X-1000496Y-25600204D01*
X-1000496Y-25600204D01*
G37*
D15*
X-1400000Y-26924000D03*
G04 #@! TD*
D12*
G04 #@! TO.C,C1*
G36*
X-14140496Y1515796D02*
X-14116227Y1512196D01*
X-14092429Y1506235D01*
X-14069329Y1497970D01*
X-14047151Y1487480D01*
X-14026107Y1474867D01*
X-14006402Y1460253D01*
X-13988223Y1443777D01*
X-13971747Y1425598D01*
X-13957133Y1405893D01*
X-13944520Y1384849D01*
X-13934030Y1362671D01*
X-13925765Y1339571D01*
X-13919804Y1315773D01*
X-13916204Y1291504D01*
X-13915000Y1267000D01*
X-13915000Y517000D01*
X-13916204Y492496D01*
X-13919804Y468227D01*
X-13925765Y444429D01*
X-13934030Y421329D01*
X-13944520Y399151D01*
X-13957133Y378107D01*
X-13971747Y358402D01*
X-13988223Y340223D01*
X-14006402Y323747D01*
X-14026107Y309133D01*
X-14047151Y296520D01*
X-14069329Y286030D01*
X-14092429Y277765D01*
X-14116227Y271804D01*
X-14140496Y268204D01*
X-14165000Y267000D01*
X-16315000Y267000D01*
X-16339504Y268204D01*
X-16363773Y271804D01*
X-16387571Y277765D01*
X-16410671Y286030D01*
X-16432849Y296520D01*
X-16453893Y309133D01*
X-16473598Y323747D01*
X-16491777Y340223D01*
X-16508253Y358402D01*
X-16522867Y378107D01*
X-16535480Y399151D01*
X-16545970Y421329D01*
X-16554235Y444429D01*
X-16560196Y468227D01*
X-16563796Y492496D01*
X-16565000Y517000D01*
X-16565000Y1267000D01*
X-16563796Y1291504D01*
X-16560196Y1315773D01*
X-16554235Y1339571D01*
X-16545970Y1362671D01*
X-16535480Y1384849D01*
X-16522867Y1405893D01*
X-16508253Y1425598D01*
X-16491777Y1443777D01*
X-16473598Y1460253D01*
X-16453893Y1474867D01*
X-16432849Y1487480D01*
X-16410671Y1497970D01*
X-16387571Y1506235D01*
X-16363773Y1512196D01*
X-16339504Y1515796D01*
X-16315000Y1517000D01*
X-14165000Y1517000D01*
X-14140496Y1515796D01*
X-14140496Y1515796D01*
G37*
D15*
X-15240000Y892000D03*
D12*
G36*
X-14140496Y-1284204D02*
X-14116227Y-1287804D01*
X-14092429Y-1293765D01*
X-14069329Y-1302030D01*
X-14047151Y-1312520D01*
X-14026107Y-1325133D01*
X-14006402Y-1339747D01*
X-13988223Y-1356223D01*
X-13971747Y-1374402D01*
X-13957133Y-1394107D01*
X-13944520Y-1415151D01*
X-13934030Y-1437329D01*
X-13925765Y-1460429D01*
X-13919804Y-1484227D01*
X-13916204Y-1508496D01*
X-13915000Y-1533000D01*
X-13915000Y-2283000D01*
X-13916204Y-2307504D01*
X-13919804Y-2331773D01*
X-13925765Y-2355571D01*
X-13934030Y-2378671D01*
X-13944520Y-2400849D01*
X-13957133Y-2421893D01*
X-13971747Y-2441598D01*
X-13988223Y-2459777D01*
X-14006402Y-2476253D01*
X-14026107Y-2490867D01*
X-14047151Y-2503480D01*
X-14069329Y-2513970D01*
X-14092429Y-2522235D01*
X-14116227Y-2528196D01*
X-14140496Y-2531796D01*
X-14165000Y-2533000D01*
X-16315000Y-2533000D01*
X-16339504Y-2531796D01*
X-16363773Y-2528196D01*
X-16387571Y-2522235D01*
X-16410671Y-2513970D01*
X-16432849Y-2503480D01*
X-16453893Y-2490867D01*
X-16473598Y-2476253D01*
X-16491777Y-2459777D01*
X-16508253Y-2441598D01*
X-16522867Y-2421893D01*
X-16535480Y-2400849D01*
X-16545970Y-2378671D01*
X-16554235Y-2355571D01*
X-16560196Y-2331773D01*
X-16563796Y-2307504D01*
X-16565000Y-2283000D01*
X-16565000Y-1533000D01*
X-16563796Y-1508496D01*
X-16560196Y-1484227D01*
X-16554235Y-1460429D01*
X-16545970Y-1437329D01*
X-16535480Y-1415151D01*
X-16522867Y-1394107D01*
X-16508253Y-1374402D01*
X-16491777Y-1356223D01*
X-16473598Y-1339747D01*
X-16453893Y-1325133D01*
X-16432849Y-1312520D01*
X-16410671Y-1302030D01*
X-16387571Y-1293765D01*
X-16363773Y-1287804D01*
X-16339504Y-1284204D01*
X-16315000Y-1283000D01*
X-14165000Y-1283000D01*
X-14140496Y-1284204D01*
X-14140496Y-1284204D01*
G37*
D15*
X-15240000Y-1908000D03*
G04 #@! TD*
D16*
G04 #@! TO.C,D1*
X-3556000Y-1142000D03*
X-3556000Y2158000D03*
G04 #@! TD*
G04 #@! TO.C,D2*
X-3556000Y-3430000D03*
X-3556000Y-6730000D03*
G04 #@! TD*
G04 #@! TO.C,D3*
X-3556000Y-12318000D03*
X-3556000Y-9018000D03*
G04 #@! TD*
G04 #@! TO.C,D4*
X-3556000Y-14606000D03*
X-3556000Y-17906000D03*
G04 #@! TD*
G04 #@! TO.C,D5*
X3525683Y-14606000D03*
X3525683Y-17906000D03*
G04 #@! TD*
G04 #@! TO.C,D6*
X3556000Y-12318000D03*
X3556000Y-9018000D03*
G04 #@! TD*
G04 #@! TO.C,D7*
X3556000Y-3430000D03*
X3556000Y-6730000D03*
G04 #@! TD*
G04 #@! TO.C,D8*
X3556000Y-1142000D03*
X3556000Y2158000D03*
G04 #@! TD*
G04 #@! TO.C,D9*
X-16764000Y-42290000D03*
X-16764000Y-38990000D03*
G04 #@! TD*
G04 #@! TO.C,D10*
X-13716000Y-42290000D03*
X-13716000Y-38990000D03*
G04 #@! TD*
D17*
G04 #@! TO.C,U1*
X2700000Y-32766000D03*
X2700000Y-34036000D03*
X2700000Y-35306000D03*
X2700000Y-36576000D03*
X2700000Y-37846000D03*
X2700000Y-39116000D03*
X2700000Y-40386000D03*
X-2700000Y-40386000D03*
X-2700000Y-39116000D03*
X-2700000Y-37846000D03*
X-2700000Y-36576000D03*
X-2700000Y-35306000D03*
X-2700000Y-34036000D03*
X-2700000Y-32766000D03*
G04 #@! TD*
D18*
G04 #@! TO.C,Q1*
X-3556000Y4588000D03*
X-2606000Y6588000D03*
X-4506000Y6588000D03*
G04 #@! TD*
G04 #@! TO.C,Q2*
X2606000Y6588000D03*
X4506000Y6588000D03*
X3556000Y4588000D03*
G04 #@! TD*
D12*
G04 #@! TO.C,R2*
G36*
X-9882309Y9859947D02*
X-9861074Y9856797D01*
X-9840250Y9851581D01*
X-9820038Y9844349D01*
X-9800632Y9835170D01*
X-9782219Y9824134D01*
X-9764976Y9811346D01*
X-9749070Y9796930D01*
X-9734654Y9781024D01*
X-9721866Y9763781D01*
X-9710830Y9745368D01*
X-9701651Y9725962D01*
X-9694419Y9705750D01*
X-9689203Y9684926D01*
X-9686053Y9663691D01*
X-9685000Y9642250D01*
X-9685000Y9204750D01*
X-9686053Y9183309D01*
X-9689203Y9162074D01*
X-9694419Y9141250D01*
X-9701651Y9121038D01*
X-9710830Y9101632D01*
X-9721866Y9083219D01*
X-9734654Y9065976D01*
X-9749070Y9050070D01*
X-9764976Y9035654D01*
X-9782219Y9022866D01*
X-9800632Y9011830D01*
X-9820038Y9002651D01*
X-9840250Y8995419D01*
X-9861074Y8990203D01*
X-9882309Y8987053D01*
X-9903750Y8986000D01*
X-10416250Y8986000D01*
X-10437691Y8987053D01*
X-10458926Y8990203D01*
X-10479750Y8995419D01*
X-10499962Y9002651D01*
X-10519368Y9011830D01*
X-10537781Y9022866D01*
X-10555024Y9035654D01*
X-10570930Y9050070D01*
X-10585346Y9065976D01*
X-10598134Y9083219D01*
X-10609170Y9101632D01*
X-10618349Y9121038D01*
X-10625581Y9141250D01*
X-10630797Y9162074D01*
X-10633947Y9183309D01*
X-10635000Y9204750D01*
X-10635000Y9642250D01*
X-10633947Y9663691D01*
X-10630797Y9684926D01*
X-10625581Y9705750D01*
X-10618349Y9725962D01*
X-10609170Y9745368D01*
X-10598134Y9763781D01*
X-10585346Y9781024D01*
X-10570930Y9796930D01*
X-10555024Y9811346D01*
X-10537781Y9824134D01*
X-10519368Y9835170D01*
X-10499962Y9844349D01*
X-10479750Y9851581D01*
X-10458926Y9856797D01*
X-10437691Y9859947D01*
X-10416250Y9861000D01*
X-9903750Y9861000D01*
X-9882309Y9859947D01*
X-9882309Y9859947D01*
G37*
D13*
X-10160000Y9423500D03*
D12*
G36*
X-9882309Y8284947D02*
X-9861074Y8281797D01*
X-9840250Y8276581D01*
X-9820038Y8269349D01*
X-9800632Y8260170D01*
X-9782219Y8249134D01*
X-9764976Y8236346D01*
X-9749070Y8221930D01*
X-9734654Y8206024D01*
X-9721866Y8188781D01*
X-9710830Y8170368D01*
X-9701651Y8150962D01*
X-9694419Y8130750D01*
X-9689203Y8109926D01*
X-9686053Y8088691D01*
X-9685000Y8067250D01*
X-9685000Y7629750D01*
X-9686053Y7608309D01*
X-9689203Y7587074D01*
X-9694419Y7566250D01*
X-9701651Y7546038D01*
X-9710830Y7526632D01*
X-9721866Y7508219D01*
X-9734654Y7490976D01*
X-9749070Y7475070D01*
X-9764976Y7460654D01*
X-9782219Y7447866D01*
X-9800632Y7436830D01*
X-9820038Y7427651D01*
X-9840250Y7420419D01*
X-9861074Y7415203D01*
X-9882309Y7412053D01*
X-9903750Y7411000D01*
X-10416250Y7411000D01*
X-10437691Y7412053D01*
X-10458926Y7415203D01*
X-10479750Y7420419D01*
X-10499962Y7427651D01*
X-10519368Y7436830D01*
X-10537781Y7447866D01*
X-10555024Y7460654D01*
X-10570930Y7475070D01*
X-10585346Y7490976D01*
X-10598134Y7508219D01*
X-10609170Y7526632D01*
X-10618349Y7546038D01*
X-10625581Y7566250D01*
X-10630797Y7587074D01*
X-10633947Y7608309D01*
X-10635000Y7629750D01*
X-10635000Y8067250D01*
X-10633947Y8088691D01*
X-10630797Y8109926D01*
X-10625581Y8130750D01*
X-10618349Y8150962D01*
X-10609170Y8170368D01*
X-10598134Y8188781D01*
X-10585346Y8206024D01*
X-10570930Y8221930D01*
X-10555024Y8236346D01*
X-10537781Y8249134D01*
X-10519368Y8260170D01*
X-10499962Y8269349D01*
X-10479750Y8276581D01*
X-10458926Y8281797D01*
X-10437691Y8284947D01*
X-10416250Y8286000D01*
X-9903750Y8286000D01*
X-9882309Y8284947D01*
X-9882309Y8284947D01*
G37*
D13*
X-10160000Y7848500D03*
G04 #@! TD*
D12*
G04 #@! TO.C,R3*
G36*
X10437691Y8284947D02*
X10458926Y8281797D01*
X10479750Y8276581D01*
X10499962Y8269349D01*
X10519368Y8260170D01*
X10537781Y8249134D01*
X10555024Y8236346D01*
X10570930Y8221930D01*
X10585346Y8206024D01*
X10598134Y8188781D01*
X10609170Y8170368D01*
X10618349Y8150962D01*
X10625581Y8130750D01*
X10630797Y8109926D01*
X10633947Y8088691D01*
X10635000Y8067250D01*
X10635000Y7629750D01*
X10633947Y7608309D01*
X10630797Y7587074D01*
X10625581Y7566250D01*
X10618349Y7546038D01*
X10609170Y7526632D01*
X10598134Y7508219D01*
X10585346Y7490976D01*
X10570930Y7475070D01*
X10555024Y7460654D01*
X10537781Y7447866D01*
X10519368Y7436830D01*
X10499962Y7427651D01*
X10479750Y7420419D01*
X10458926Y7415203D01*
X10437691Y7412053D01*
X10416250Y7411000D01*
X9903750Y7411000D01*
X9882309Y7412053D01*
X9861074Y7415203D01*
X9840250Y7420419D01*
X9820038Y7427651D01*
X9800632Y7436830D01*
X9782219Y7447866D01*
X9764976Y7460654D01*
X9749070Y7475070D01*
X9734654Y7490976D01*
X9721866Y7508219D01*
X9710830Y7526632D01*
X9701651Y7546038D01*
X9694419Y7566250D01*
X9689203Y7587074D01*
X9686053Y7608309D01*
X9685000Y7629750D01*
X9685000Y8067250D01*
X9686053Y8088691D01*
X9689203Y8109926D01*
X9694419Y8130750D01*
X9701651Y8150962D01*
X9710830Y8170368D01*
X9721866Y8188781D01*
X9734654Y8206024D01*
X9749070Y8221930D01*
X9764976Y8236346D01*
X9782219Y8249134D01*
X9800632Y8260170D01*
X9820038Y8269349D01*
X9840250Y8276581D01*
X9861074Y8281797D01*
X9882309Y8284947D01*
X9903750Y8286000D01*
X10416250Y8286000D01*
X10437691Y8284947D01*
X10437691Y8284947D01*
G37*
D13*
X10160000Y7848500D03*
D12*
G36*
X10437691Y9859947D02*
X10458926Y9856797D01*
X10479750Y9851581D01*
X10499962Y9844349D01*
X10519368Y9835170D01*
X10537781Y9824134D01*
X10555024Y9811346D01*
X10570930Y9796930D01*
X10585346Y9781024D01*
X10598134Y9763781D01*
X10609170Y9745368D01*
X10618349Y9725962D01*
X10625581Y9705750D01*
X10630797Y9684926D01*
X10633947Y9663691D01*
X10635000Y9642250D01*
X10635000Y9204750D01*
X10633947Y9183309D01*
X10630797Y9162074D01*
X10625581Y9141250D01*
X10618349Y9121038D01*
X10609170Y9101632D01*
X10598134Y9083219D01*
X10585346Y9065976D01*
X10570930Y9050070D01*
X10555024Y9035654D01*
X10537781Y9022866D01*
X10519368Y9011830D01*
X10499962Y9002651D01*
X10479750Y8995419D01*
X10458926Y8990203D01*
X10437691Y8987053D01*
X10416250Y8986000D01*
X9903750Y8986000D01*
X9882309Y8987053D01*
X9861074Y8990203D01*
X9840250Y8995419D01*
X9820038Y9002651D01*
X9800632Y9011830D01*
X9782219Y9022866D01*
X9764976Y9035654D01*
X9749070Y9050070D01*
X9734654Y9065976D01*
X9721866Y9083219D01*
X9710830Y9101632D01*
X9701651Y9121038D01*
X9694419Y9141250D01*
X9689203Y9162074D01*
X9686053Y9183309D01*
X9685000Y9204750D01*
X9685000Y9642250D01*
X9686053Y9663691D01*
X9689203Y9684926D01*
X9694419Y9705750D01*
X9701651Y9725962D01*
X9710830Y9745368D01*
X9721866Y9763781D01*
X9734654Y9781024D01*
X9749070Y9796930D01*
X9764976Y9811346D01*
X9782219Y9824134D01*
X9800632Y9835170D01*
X9820038Y9844349D01*
X9840250Y9851581D01*
X9861074Y9856797D01*
X9882309Y9859947D01*
X9903750Y9861000D01*
X10416250Y9861000D01*
X10437691Y9859947D01*
X10437691Y9859947D01*
G37*
D13*
X10160000Y9423500D03*
G04 #@! TD*
D12*
G04 #@! TO.C,R4*
G36*
X-15978309Y36224947D02*
X-15957074Y36221797D01*
X-15936250Y36216581D01*
X-15916038Y36209349D01*
X-15896632Y36200170D01*
X-15878219Y36189134D01*
X-15860976Y36176346D01*
X-15845070Y36161930D01*
X-15830654Y36146024D01*
X-15817866Y36128781D01*
X-15806830Y36110368D01*
X-15797651Y36090962D01*
X-15790419Y36070750D01*
X-15785203Y36049926D01*
X-15782053Y36028691D01*
X-15781000Y36007250D01*
X-15781000Y35569750D01*
X-15782053Y35548309D01*
X-15785203Y35527074D01*
X-15790419Y35506250D01*
X-15797651Y35486038D01*
X-15806830Y35466632D01*
X-15817866Y35448219D01*
X-15830654Y35430976D01*
X-15845070Y35415070D01*
X-15860976Y35400654D01*
X-15878219Y35387866D01*
X-15896632Y35376830D01*
X-15916038Y35367651D01*
X-15936250Y35360419D01*
X-15957074Y35355203D01*
X-15978309Y35352053D01*
X-15999750Y35351000D01*
X-16512250Y35351000D01*
X-16533691Y35352053D01*
X-16554926Y35355203D01*
X-16575750Y35360419D01*
X-16595962Y35367651D01*
X-16615368Y35376830D01*
X-16633781Y35387866D01*
X-16651024Y35400654D01*
X-16666930Y35415070D01*
X-16681346Y35430976D01*
X-16694134Y35448219D01*
X-16705170Y35466632D01*
X-16714349Y35486038D01*
X-16721581Y35506250D01*
X-16726797Y35527074D01*
X-16729947Y35548309D01*
X-16731000Y35569750D01*
X-16731000Y36007250D01*
X-16729947Y36028691D01*
X-16726797Y36049926D01*
X-16721581Y36070750D01*
X-16714349Y36090962D01*
X-16705170Y36110368D01*
X-16694134Y36128781D01*
X-16681346Y36146024D01*
X-16666930Y36161930D01*
X-16651024Y36176346D01*
X-16633781Y36189134D01*
X-16615368Y36200170D01*
X-16595962Y36209349D01*
X-16575750Y36216581D01*
X-16554926Y36221797D01*
X-16533691Y36224947D01*
X-16512250Y36226000D01*
X-15999750Y36226000D01*
X-15978309Y36224947D01*
X-15978309Y36224947D01*
G37*
D13*
X-16256000Y35788500D03*
D12*
G36*
X-15978309Y37799947D02*
X-15957074Y37796797D01*
X-15936250Y37791581D01*
X-15916038Y37784349D01*
X-15896632Y37775170D01*
X-15878219Y37764134D01*
X-15860976Y37751346D01*
X-15845070Y37736930D01*
X-15830654Y37721024D01*
X-15817866Y37703781D01*
X-15806830Y37685368D01*
X-15797651Y37665962D01*
X-15790419Y37645750D01*
X-15785203Y37624926D01*
X-15782053Y37603691D01*
X-15781000Y37582250D01*
X-15781000Y37144750D01*
X-15782053Y37123309D01*
X-15785203Y37102074D01*
X-15790419Y37081250D01*
X-15797651Y37061038D01*
X-15806830Y37041632D01*
X-15817866Y37023219D01*
X-15830654Y37005976D01*
X-15845070Y36990070D01*
X-15860976Y36975654D01*
X-15878219Y36962866D01*
X-15896632Y36951830D01*
X-15916038Y36942651D01*
X-15936250Y36935419D01*
X-15957074Y36930203D01*
X-15978309Y36927053D01*
X-15999750Y36926000D01*
X-16512250Y36926000D01*
X-16533691Y36927053D01*
X-16554926Y36930203D01*
X-16575750Y36935419D01*
X-16595962Y36942651D01*
X-16615368Y36951830D01*
X-16633781Y36962866D01*
X-16651024Y36975654D01*
X-16666930Y36990070D01*
X-16681346Y37005976D01*
X-16694134Y37023219D01*
X-16705170Y37041632D01*
X-16714349Y37061038D01*
X-16721581Y37081250D01*
X-16726797Y37102074D01*
X-16729947Y37123309D01*
X-16731000Y37144750D01*
X-16731000Y37582250D01*
X-16729947Y37603691D01*
X-16726797Y37624926D01*
X-16721581Y37645750D01*
X-16714349Y37665962D01*
X-16705170Y37685368D01*
X-16694134Y37703781D01*
X-16681346Y37721024D01*
X-16666930Y37736930D01*
X-16651024Y37751346D01*
X-16633781Y37764134D01*
X-16615368Y37775170D01*
X-16595962Y37784349D01*
X-16575750Y37791581D01*
X-16554926Y37796797D01*
X-16533691Y37799947D01*
X-16512250Y37801000D01*
X-15999750Y37801000D01*
X-15978309Y37799947D01*
X-15978309Y37799947D01*
G37*
D13*
X-16256000Y37363500D03*
G04 #@! TD*
D12*
G04 #@! TO.C,R5*
G36*
X-9374309Y-46071053D02*
X-9353074Y-46074203D01*
X-9332250Y-46079419D01*
X-9312038Y-46086651D01*
X-9292632Y-46095830D01*
X-9274219Y-46106866D01*
X-9256976Y-46119654D01*
X-9241070Y-46134070D01*
X-9226654Y-46149976D01*
X-9213866Y-46167219D01*
X-9202830Y-46185632D01*
X-9193651Y-46205038D01*
X-9186419Y-46225250D01*
X-9181203Y-46246074D01*
X-9178053Y-46267309D01*
X-9177000Y-46288750D01*
X-9177000Y-46726250D01*
X-9178053Y-46747691D01*
X-9181203Y-46768926D01*
X-9186419Y-46789750D01*
X-9193651Y-46809962D01*
X-9202830Y-46829368D01*
X-9213866Y-46847781D01*
X-9226654Y-46865024D01*
X-9241070Y-46880930D01*
X-9256976Y-46895346D01*
X-9274219Y-46908134D01*
X-9292632Y-46919170D01*
X-9312038Y-46928349D01*
X-9332250Y-46935581D01*
X-9353074Y-46940797D01*
X-9374309Y-46943947D01*
X-9395750Y-46945000D01*
X-9908250Y-46945000D01*
X-9929691Y-46943947D01*
X-9950926Y-46940797D01*
X-9971750Y-46935581D01*
X-9991962Y-46928349D01*
X-10011368Y-46919170D01*
X-10029781Y-46908134D01*
X-10047024Y-46895346D01*
X-10062930Y-46880930D01*
X-10077346Y-46865024D01*
X-10090134Y-46847781D01*
X-10101170Y-46829368D01*
X-10110349Y-46809962D01*
X-10117581Y-46789750D01*
X-10122797Y-46768926D01*
X-10125947Y-46747691D01*
X-10127000Y-46726250D01*
X-10127000Y-46288750D01*
X-10125947Y-46267309D01*
X-10122797Y-46246074D01*
X-10117581Y-46225250D01*
X-10110349Y-46205038D01*
X-10101170Y-46185632D01*
X-10090134Y-46167219D01*
X-10077346Y-46149976D01*
X-10062930Y-46134070D01*
X-10047024Y-46119654D01*
X-10029781Y-46106866D01*
X-10011368Y-46095830D01*
X-9991962Y-46086651D01*
X-9971750Y-46079419D01*
X-9950926Y-46074203D01*
X-9929691Y-46071053D01*
X-9908250Y-46070000D01*
X-9395750Y-46070000D01*
X-9374309Y-46071053D01*
X-9374309Y-46071053D01*
G37*
D13*
X-9652000Y-46507500D03*
D12*
G36*
X-9374309Y-44496053D02*
X-9353074Y-44499203D01*
X-9332250Y-44504419D01*
X-9312038Y-44511651D01*
X-9292632Y-44520830D01*
X-9274219Y-44531866D01*
X-9256976Y-44544654D01*
X-9241070Y-44559070D01*
X-9226654Y-44574976D01*
X-9213866Y-44592219D01*
X-9202830Y-44610632D01*
X-9193651Y-44630038D01*
X-9186419Y-44650250D01*
X-9181203Y-44671074D01*
X-9178053Y-44692309D01*
X-9177000Y-44713750D01*
X-9177000Y-45151250D01*
X-9178053Y-45172691D01*
X-9181203Y-45193926D01*
X-9186419Y-45214750D01*
X-9193651Y-45234962D01*
X-9202830Y-45254368D01*
X-9213866Y-45272781D01*
X-9226654Y-45290024D01*
X-9241070Y-45305930D01*
X-9256976Y-45320346D01*
X-9274219Y-45333134D01*
X-9292632Y-45344170D01*
X-9312038Y-45353349D01*
X-9332250Y-45360581D01*
X-9353074Y-45365797D01*
X-9374309Y-45368947D01*
X-9395750Y-45370000D01*
X-9908250Y-45370000D01*
X-9929691Y-45368947D01*
X-9950926Y-45365797D01*
X-9971750Y-45360581D01*
X-9991962Y-45353349D01*
X-10011368Y-45344170D01*
X-10029781Y-45333134D01*
X-10047024Y-45320346D01*
X-10062930Y-45305930D01*
X-10077346Y-45290024D01*
X-10090134Y-45272781D01*
X-10101170Y-45254368D01*
X-10110349Y-45234962D01*
X-10117581Y-45214750D01*
X-10122797Y-45193926D01*
X-10125947Y-45172691D01*
X-10127000Y-45151250D01*
X-10127000Y-44713750D01*
X-10125947Y-44692309D01*
X-10122797Y-44671074D01*
X-10117581Y-44650250D01*
X-10110349Y-44630038D01*
X-10101170Y-44610632D01*
X-10090134Y-44592219D01*
X-10077346Y-44574976D01*
X-10062930Y-44559070D01*
X-10047024Y-44544654D01*
X-10029781Y-44531866D01*
X-10011368Y-44520830D01*
X-9991962Y-44511651D01*
X-9971750Y-44504419D01*
X-9950926Y-44499203D01*
X-9929691Y-44496053D01*
X-9908250Y-44495000D01*
X-9395750Y-44495000D01*
X-9374309Y-44496053D01*
X-9374309Y-44496053D01*
G37*
D13*
X-9652000Y-44932500D03*
G04 #@! TD*
D12*
G04 #@! TO.C,R6*
G36*
X-7342309Y-30831053D02*
X-7321074Y-30834203D01*
X-7300250Y-30839419D01*
X-7280038Y-30846651D01*
X-7260632Y-30855830D01*
X-7242219Y-30866866D01*
X-7224976Y-30879654D01*
X-7209070Y-30894070D01*
X-7194654Y-30909976D01*
X-7181866Y-30927219D01*
X-7170830Y-30945632D01*
X-7161651Y-30965038D01*
X-7154419Y-30985250D01*
X-7149203Y-31006074D01*
X-7146053Y-31027309D01*
X-7145000Y-31048750D01*
X-7145000Y-31486250D01*
X-7146053Y-31507691D01*
X-7149203Y-31528926D01*
X-7154419Y-31549750D01*
X-7161651Y-31569962D01*
X-7170830Y-31589368D01*
X-7181866Y-31607781D01*
X-7194654Y-31625024D01*
X-7209070Y-31640930D01*
X-7224976Y-31655346D01*
X-7242219Y-31668134D01*
X-7260632Y-31679170D01*
X-7280038Y-31688349D01*
X-7300250Y-31695581D01*
X-7321074Y-31700797D01*
X-7342309Y-31703947D01*
X-7363750Y-31705000D01*
X-7876250Y-31705000D01*
X-7897691Y-31703947D01*
X-7918926Y-31700797D01*
X-7939750Y-31695581D01*
X-7959962Y-31688349D01*
X-7979368Y-31679170D01*
X-7997781Y-31668134D01*
X-8015024Y-31655346D01*
X-8030930Y-31640930D01*
X-8045346Y-31625024D01*
X-8058134Y-31607781D01*
X-8069170Y-31589368D01*
X-8078349Y-31569962D01*
X-8085581Y-31549750D01*
X-8090797Y-31528926D01*
X-8093947Y-31507691D01*
X-8095000Y-31486250D01*
X-8095000Y-31048750D01*
X-8093947Y-31027309D01*
X-8090797Y-31006074D01*
X-8085581Y-30985250D01*
X-8078349Y-30965038D01*
X-8069170Y-30945632D01*
X-8058134Y-30927219D01*
X-8045346Y-30909976D01*
X-8030930Y-30894070D01*
X-8015024Y-30879654D01*
X-7997781Y-30866866D01*
X-7979368Y-30855830D01*
X-7959962Y-30846651D01*
X-7939750Y-30839419D01*
X-7918926Y-30834203D01*
X-7897691Y-30831053D01*
X-7876250Y-30830000D01*
X-7363750Y-30830000D01*
X-7342309Y-30831053D01*
X-7342309Y-30831053D01*
G37*
D13*
X-7620000Y-31267500D03*
D12*
G36*
X-7342309Y-29256053D02*
X-7321074Y-29259203D01*
X-7300250Y-29264419D01*
X-7280038Y-29271651D01*
X-7260632Y-29280830D01*
X-7242219Y-29291866D01*
X-7224976Y-29304654D01*
X-7209070Y-29319070D01*
X-7194654Y-29334976D01*
X-7181866Y-29352219D01*
X-7170830Y-29370632D01*
X-7161651Y-29390038D01*
X-7154419Y-29410250D01*
X-7149203Y-29431074D01*
X-7146053Y-29452309D01*
X-7145000Y-29473750D01*
X-7145000Y-29911250D01*
X-7146053Y-29932691D01*
X-7149203Y-29953926D01*
X-7154419Y-29974750D01*
X-7161651Y-29994962D01*
X-7170830Y-30014368D01*
X-7181866Y-30032781D01*
X-7194654Y-30050024D01*
X-7209070Y-30065930D01*
X-7224976Y-30080346D01*
X-7242219Y-30093134D01*
X-7260632Y-30104170D01*
X-7280038Y-30113349D01*
X-7300250Y-30120581D01*
X-7321074Y-30125797D01*
X-7342309Y-30128947D01*
X-7363750Y-30130000D01*
X-7876250Y-30130000D01*
X-7897691Y-30128947D01*
X-7918926Y-30125797D01*
X-7939750Y-30120581D01*
X-7959962Y-30113349D01*
X-7979368Y-30104170D01*
X-7997781Y-30093134D01*
X-8015024Y-30080346D01*
X-8030930Y-30065930D01*
X-8045346Y-30050024D01*
X-8058134Y-30032781D01*
X-8069170Y-30014368D01*
X-8078349Y-29994962D01*
X-8085581Y-29974750D01*
X-8090797Y-29953926D01*
X-8093947Y-29932691D01*
X-8095000Y-29911250D01*
X-8095000Y-29473750D01*
X-8093947Y-29452309D01*
X-8090797Y-29431074D01*
X-8085581Y-29410250D01*
X-8078349Y-29390038D01*
X-8069170Y-29370632D01*
X-8058134Y-29352219D01*
X-8045346Y-29334976D01*
X-8030930Y-29319070D01*
X-8015024Y-29304654D01*
X-7997781Y-29291866D01*
X-7979368Y-29280830D01*
X-7959962Y-29271651D01*
X-7939750Y-29264419D01*
X-7918926Y-29259203D01*
X-7897691Y-29256053D01*
X-7876250Y-29255000D01*
X-7363750Y-29255000D01*
X-7342309Y-29256053D01*
X-7342309Y-29256053D01*
G37*
D13*
X-7620000Y-29692500D03*
G04 #@! TD*
D12*
G04 #@! TO.C,R7*
G36*
X-9882309Y-12746053D02*
X-9861074Y-12749203D01*
X-9840250Y-12754419D01*
X-9820038Y-12761651D01*
X-9800632Y-12770830D01*
X-9782219Y-12781866D01*
X-9764976Y-12794654D01*
X-9749070Y-12809070D01*
X-9734654Y-12824976D01*
X-9721866Y-12842219D01*
X-9710830Y-12860632D01*
X-9701651Y-12880038D01*
X-9694419Y-12900250D01*
X-9689203Y-12921074D01*
X-9686053Y-12942309D01*
X-9685000Y-12963750D01*
X-9685000Y-13401250D01*
X-9686053Y-13422691D01*
X-9689203Y-13443926D01*
X-9694419Y-13464750D01*
X-9701651Y-13484962D01*
X-9710830Y-13504368D01*
X-9721866Y-13522781D01*
X-9734654Y-13540024D01*
X-9749070Y-13555930D01*
X-9764976Y-13570346D01*
X-9782219Y-13583134D01*
X-9800632Y-13594170D01*
X-9820038Y-13603349D01*
X-9840250Y-13610581D01*
X-9861074Y-13615797D01*
X-9882309Y-13618947D01*
X-9903750Y-13620000D01*
X-10416250Y-13620000D01*
X-10437691Y-13618947D01*
X-10458926Y-13615797D01*
X-10479750Y-13610581D01*
X-10499962Y-13603349D01*
X-10519368Y-13594170D01*
X-10537781Y-13583134D01*
X-10555024Y-13570346D01*
X-10570930Y-13555930D01*
X-10585346Y-13540024D01*
X-10598134Y-13522781D01*
X-10609170Y-13504368D01*
X-10618349Y-13484962D01*
X-10625581Y-13464750D01*
X-10630797Y-13443926D01*
X-10633947Y-13422691D01*
X-10635000Y-13401250D01*
X-10635000Y-12963750D01*
X-10633947Y-12942309D01*
X-10630797Y-12921074D01*
X-10625581Y-12900250D01*
X-10618349Y-12880038D01*
X-10609170Y-12860632D01*
X-10598134Y-12842219D01*
X-10585346Y-12824976D01*
X-10570930Y-12809070D01*
X-10555024Y-12794654D01*
X-10537781Y-12781866D01*
X-10519368Y-12770830D01*
X-10499962Y-12761651D01*
X-10479750Y-12754419D01*
X-10458926Y-12749203D01*
X-10437691Y-12746053D01*
X-10416250Y-12745000D01*
X-9903750Y-12745000D01*
X-9882309Y-12746053D01*
X-9882309Y-12746053D01*
G37*
D13*
X-10160000Y-13182500D03*
D12*
G36*
X-9882309Y-14321053D02*
X-9861074Y-14324203D01*
X-9840250Y-14329419D01*
X-9820038Y-14336651D01*
X-9800632Y-14345830D01*
X-9782219Y-14356866D01*
X-9764976Y-14369654D01*
X-9749070Y-14384070D01*
X-9734654Y-14399976D01*
X-9721866Y-14417219D01*
X-9710830Y-14435632D01*
X-9701651Y-14455038D01*
X-9694419Y-14475250D01*
X-9689203Y-14496074D01*
X-9686053Y-14517309D01*
X-9685000Y-14538750D01*
X-9685000Y-14976250D01*
X-9686053Y-14997691D01*
X-9689203Y-15018926D01*
X-9694419Y-15039750D01*
X-9701651Y-15059962D01*
X-9710830Y-15079368D01*
X-9721866Y-15097781D01*
X-9734654Y-15115024D01*
X-9749070Y-15130930D01*
X-9764976Y-15145346D01*
X-9782219Y-15158134D01*
X-9800632Y-15169170D01*
X-9820038Y-15178349D01*
X-9840250Y-15185581D01*
X-9861074Y-15190797D01*
X-9882309Y-15193947D01*
X-9903750Y-15195000D01*
X-10416250Y-15195000D01*
X-10437691Y-15193947D01*
X-10458926Y-15190797D01*
X-10479750Y-15185581D01*
X-10499962Y-15178349D01*
X-10519368Y-15169170D01*
X-10537781Y-15158134D01*
X-10555024Y-15145346D01*
X-10570930Y-15130930D01*
X-10585346Y-15115024D01*
X-10598134Y-15097781D01*
X-10609170Y-15079368D01*
X-10618349Y-15059962D01*
X-10625581Y-15039750D01*
X-10630797Y-15018926D01*
X-10633947Y-14997691D01*
X-10635000Y-14976250D01*
X-10635000Y-14538750D01*
X-10633947Y-14517309D01*
X-10630797Y-14496074D01*
X-10625581Y-14475250D01*
X-10618349Y-14455038D01*
X-10609170Y-14435632D01*
X-10598134Y-14417219D01*
X-10585346Y-14399976D01*
X-10570930Y-14384070D01*
X-10555024Y-14369654D01*
X-10537781Y-14356866D01*
X-10519368Y-14345830D01*
X-10499962Y-14336651D01*
X-10479750Y-14329419D01*
X-10458926Y-14324203D01*
X-10437691Y-14321053D01*
X-10416250Y-14320000D01*
X-9903750Y-14320000D01*
X-9882309Y-14321053D01*
X-9882309Y-14321053D01*
G37*
D13*
X-10160000Y-14757500D03*
G04 #@! TD*
D12*
G04 #@! TO.C,R8*
G36*
X-4802309Y10875947D02*
X-4781074Y10872797D01*
X-4760250Y10867581D01*
X-4740038Y10860349D01*
X-4720632Y10851170D01*
X-4702219Y10840134D01*
X-4684976Y10827346D01*
X-4669070Y10812930D01*
X-4654654Y10797024D01*
X-4641866Y10779781D01*
X-4630830Y10761368D01*
X-4621651Y10741962D01*
X-4614419Y10721750D01*
X-4609203Y10700926D01*
X-4606053Y10679691D01*
X-4605000Y10658250D01*
X-4605000Y10220750D01*
X-4606053Y10199309D01*
X-4609203Y10178074D01*
X-4614419Y10157250D01*
X-4621651Y10137038D01*
X-4630830Y10117632D01*
X-4641866Y10099219D01*
X-4654654Y10081976D01*
X-4669070Y10066070D01*
X-4684976Y10051654D01*
X-4702219Y10038866D01*
X-4720632Y10027830D01*
X-4740038Y10018651D01*
X-4760250Y10011419D01*
X-4781074Y10006203D01*
X-4802309Y10003053D01*
X-4823750Y10002000D01*
X-5336250Y10002000D01*
X-5357691Y10003053D01*
X-5378926Y10006203D01*
X-5399750Y10011419D01*
X-5419962Y10018651D01*
X-5439368Y10027830D01*
X-5457781Y10038866D01*
X-5475024Y10051654D01*
X-5490930Y10066070D01*
X-5505346Y10081976D01*
X-5518134Y10099219D01*
X-5529170Y10117632D01*
X-5538349Y10137038D01*
X-5545581Y10157250D01*
X-5550797Y10178074D01*
X-5553947Y10199309D01*
X-5555000Y10220750D01*
X-5555000Y10658250D01*
X-5553947Y10679691D01*
X-5550797Y10700926D01*
X-5545581Y10721750D01*
X-5538349Y10741962D01*
X-5529170Y10761368D01*
X-5518134Y10779781D01*
X-5505346Y10797024D01*
X-5490930Y10812930D01*
X-5475024Y10827346D01*
X-5457781Y10840134D01*
X-5439368Y10851170D01*
X-5419962Y10860349D01*
X-5399750Y10867581D01*
X-5378926Y10872797D01*
X-5357691Y10875947D01*
X-5336250Y10877000D01*
X-4823750Y10877000D01*
X-4802309Y10875947D01*
X-4802309Y10875947D01*
G37*
D13*
X-5080000Y10439500D03*
D12*
G36*
X-4802309Y9300947D02*
X-4781074Y9297797D01*
X-4760250Y9292581D01*
X-4740038Y9285349D01*
X-4720632Y9276170D01*
X-4702219Y9265134D01*
X-4684976Y9252346D01*
X-4669070Y9237930D01*
X-4654654Y9222024D01*
X-4641866Y9204781D01*
X-4630830Y9186368D01*
X-4621651Y9166962D01*
X-4614419Y9146750D01*
X-4609203Y9125926D01*
X-4606053Y9104691D01*
X-4605000Y9083250D01*
X-4605000Y8645750D01*
X-4606053Y8624309D01*
X-4609203Y8603074D01*
X-4614419Y8582250D01*
X-4621651Y8562038D01*
X-4630830Y8542632D01*
X-4641866Y8524219D01*
X-4654654Y8506976D01*
X-4669070Y8491070D01*
X-4684976Y8476654D01*
X-4702219Y8463866D01*
X-4720632Y8452830D01*
X-4740038Y8443651D01*
X-4760250Y8436419D01*
X-4781074Y8431203D01*
X-4802309Y8428053D01*
X-4823750Y8427000D01*
X-5336250Y8427000D01*
X-5357691Y8428053D01*
X-5378926Y8431203D01*
X-5399750Y8436419D01*
X-5419962Y8443651D01*
X-5439368Y8452830D01*
X-5457781Y8463866D01*
X-5475024Y8476654D01*
X-5490930Y8491070D01*
X-5505346Y8506976D01*
X-5518134Y8524219D01*
X-5529170Y8542632D01*
X-5538349Y8562038D01*
X-5545581Y8582250D01*
X-5550797Y8603074D01*
X-5553947Y8624309D01*
X-5555000Y8645750D01*
X-5555000Y9083250D01*
X-5553947Y9104691D01*
X-5550797Y9125926D01*
X-5545581Y9146750D01*
X-5538349Y9166962D01*
X-5529170Y9186368D01*
X-5518134Y9204781D01*
X-5505346Y9222024D01*
X-5490930Y9237930D01*
X-5475024Y9252346D01*
X-5457781Y9265134D01*
X-5439368Y9276170D01*
X-5419962Y9285349D01*
X-5399750Y9292581D01*
X-5378926Y9297797D01*
X-5357691Y9300947D01*
X-5336250Y9302000D01*
X-4823750Y9302000D01*
X-4802309Y9300947D01*
X-4802309Y9300947D01*
G37*
D13*
X-5080000Y8864500D03*
G04 #@! TD*
D12*
G04 #@! TO.C,R9*
G36*
X12977691Y8284947D02*
X12998926Y8281797D01*
X13019750Y8276581D01*
X13039962Y8269349D01*
X13059368Y8260170D01*
X13077781Y8249134D01*
X13095024Y8236346D01*
X13110930Y8221930D01*
X13125346Y8206024D01*
X13138134Y8188781D01*
X13149170Y8170368D01*
X13158349Y8150962D01*
X13165581Y8130750D01*
X13170797Y8109926D01*
X13173947Y8088691D01*
X13175000Y8067250D01*
X13175000Y7629750D01*
X13173947Y7608309D01*
X13170797Y7587074D01*
X13165581Y7566250D01*
X13158349Y7546038D01*
X13149170Y7526632D01*
X13138134Y7508219D01*
X13125346Y7490976D01*
X13110930Y7475070D01*
X13095024Y7460654D01*
X13077781Y7447866D01*
X13059368Y7436830D01*
X13039962Y7427651D01*
X13019750Y7420419D01*
X12998926Y7415203D01*
X12977691Y7412053D01*
X12956250Y7411000D01*
X12443750Y7411000D01*
X12422309Y7412053D01*
X12401074Y7415203D01*
X12380250Y7420419D01*
X12360038Y7427651D01*
X12340632Y7436830D01*
X12322219Y7447866D01*
X12304976Y7460654D01*
X12289070Y7475070D01*
X12274654Y7490976D01*
X12261866Y7508219D01*
X12250830Y7526632D01*
X12241651Y7546038D01*
X12234419Y7566250D01*
X12229203Y7587074D01*
X12226053Y7608309D01*
X12225000Y7629750D01*
X12225000Y8067250D01*
X12226053Y8088691D01*
X12229203Y8109926D01*
X12234419Y8130750D01*
X12241651Y8150962D01*
X12250830Y8170368D01*
X12261866Y8188781D01*
X12274654Y8206024D01*
X12289070Y8221930D01*
X12304976Y8236346D01*
X12322219Y8249134D01*
X12340632Y8260170D01*
X12360038Y8269349D01*
X12380250Y8276581D01*
X12401074Y8281797D01*
X12422309Y8284947D01*
X12443750Y8286000D01*
X12956250Y8286000D01*
X12977691Y8284947D01*
X12977691Y8284947D01*
G37*
D13*
X12700000Y7848500D03*
D12*
G36*
X12977691Y9859947D02*
X12998926Y9856797D01*
X13019750Y9851581D01*
X13039962Y9844349D01*
X13059368Y9835170D01*
X13077781Y9824134D01*
X13095024Y9811346D01*
X13110930Y9796930D01*
X13125346Y9781024D01*
X13138134Y9763781D01*
X13149170Y9745368D01*
X13158349Y9725962D01*
X13165581Y9705750D01*
X13170797Y9684926D01*
X13173947Y9663691D01*
X13175000Y9642250D01*
X13175000Y9204750D01*
X13173947Y9183309D01*
X13170797Y9162074D01*
X13165581Y9141250D01*
X13158349Y9121038D01*
X13149170Y9101632D01*
X13138134Y9083219D01*
X13125346Y9065976D01*
X13110930Y9050070D01*
X13095024Y9035654D01*
X13077781Y9022866D01*
X13059368Y9011830D01*
X13039962Y9002651D01*
X13019750Y8995419D01*
X12998926Y8990203D01*
X12977691Y8987053D01*
X12956250Y8986000D01*
X12443750Y8986000D01*
X12422309Y8987053D01*
X12401074Y8990203D01*
X12380250Y8995419D01*
X12360038Y9002651D01*
X12340632Y9011830D01*
X12322219Y9022866D01*
X12304976Y9035654D01*
X12289070Y9050070D01*
X12274654Y9065976D01*
X12261866Y9083219D01*
X12250830Y9101632D01*
X12241651Y9121038D01*
X12234419Y9141250D01*
X12229203Y9162074D01*
X12226053Y9183309D01*
X12225000Y9204750D01*
X12225000Y9642250D01*
X12226053Y9663691D01*
X12229203Y9684926D01*
X12234419Y9705750D01*
X12241651Y9725962D01*
X12250830Y9745368D01*
X12261866Y9763781D01*
X12274654Y9781024D01*
X12289070Y9796930D01*
X12304976Y9811346D01*
X12322219Y9824134D01*
X12340632Y9835170D01*
X12360038Y9844349D01*
X12380250Y9851581D01*
X12401074Y9856797D01*
X12422309Y9859947D01*
X12443750Y9861000D01*
X12956250Y9861000D01*
X12977691Y9859947D01*
X12977691Y9859947D01*
G37*
D13*
X12700000Y9423500D03*
G04 #@! TD*
D12*
G04 #@! TO.C,R10*
G36*
X2817691Y13364947D02*
X2838926Y13361797D01*
X2859750Y13356581D01*
X2879962Y13349349D01*
X2899368Y13340170D01*
X2917781Y13329134D01*
X2935024Y13316346D01*
X2950930Y13301930D01*
X2965346Y13286024D01*
X2978134Y13268781D01*
X2989170Y13250368D01*
X2998349Y13230962D01*
X3005581Y13210750D01*
X3010797Y13189926D01*
X3013947Y13168691D01*
X3015000Y13147250D01*
X3015000Y12709750D01*
X3013947Y12688309D01*
X3010797Y12667074D01*
X3005581Y12646250D01*
X2998349Y12626038D01*
X2989170Y12606632D01*
X2978134Y12588219D01*
X2965346Y12570976D01*
X2950930Y12555070D01*
X2935024Y12540654D01*
X2917781Y12527866D01*
X2899368Y12516830D01*
X2879962Y12507651D01*
X2859750Y12500419D01*
X2838926Y12495203D01*
X2817691Y12492053D01*
X2796250Y12491000D01*
X2283750Y12491000D01*
X2262309Y12492053D01*
X2241074Y12495203D01*
X2220250Y12500419D01*
X2200038Y12507651D01*
X2180632Y12516830D01*
X2162219Y12527866D01*
X2144976Y12540654D01*
X2129070Y12555070D01*
X2114654Y12570976D01*
X2101866Y12588219D01*
X2090830Y12606632D01*
X2081651Y12626038D01*
X2074419Y12646250D01*
X2069203Y12667074D01*
X2066053Y12688309D01*
X2065000Y12709750D01*
X2065000Y13147250D01*
X2066053Y13168691D01*
X2069203Y13189926D01*
X2074419Y13210750D01*
X2081651Y13230962D01*
X2090830Y13250368D01*
X2101866Y13268781D01*
X2114654Y13286024D01*
X2129070Y13301930D01*
X2144976Y13316346D01*
X2162219Y13329134D01*
X2180632Y13340170D01*
X2200038Y13349349D01*
X2220250Y13356581D01*
X2241074Y13361797D01*
X2262309Y13364947D01*
X2283750Y13366000D01*
X2796250Y13366000D01*
X2817691Y13364947D01*
X2817691Y13364947D01*
G37*
D13*
X2540000Y12928500D03*
D12*
G36*
X2817691Y14939947D02*
X2838926Y14936797D01*
X2859750Y14931581D01*
X2879962Y14924349D01*
X2899368Y14915170D01*
X2917781Y14904134D01*
X2935024Y14891346D01*
X2950930Y14876930D01*
X2965346Y14861024D01*
X2978134Y14843781D01*
X2989170Y14825368D01*
X2998349Y14805962D01*
X3005581Y14785750D01*
X3010797Y14764926D01*
X3013947Y14743691D01*
X3015000Y14722250D01*
X3015000Y14284750D01*
X3013947Y14263309D01*
X3010797Y14242074D01*
X3005581Y14221250D01*
X2998349Y14201038D01*
X2989170Y14181632D01*
X2978134Y14163219D01*
X2965346Y14145976D01*
X2950930Y14130070D01*
X2935024Y14115654D01*
X2917781Y14102866D01*
X2899368Y14091830D01*
X2879962Y14082651D01*
X2859750Y14075419D01*
X2838926Y14070203D01*
X2817691Y14067053D01*
X2796250Y14066000D01*
X2283750Y14066000D01*
X2262309Y14067053D01*
X2241074Y14070203D01*
X2220250Y14075419D01*
X2200038Y14082651D01*
X2180632Y14091830D01*
X2162219Y14102866D01*
X2144976Y14115654D01*
X2129070Y14130070D01*
X2114654Y14145976D01*
X2101866Y14163219D01*
X2090830Y14181632D01*
X2081651Y14201038D01*
X2074419Y14221250D01*
X2069203Y14242074D01*
X2066053Y14263309D01*
X2065000Y14284750D01*
X2065000Y14722250D01*
X2066053Y14743691D01*
X2069203Y14764926D01*
X2074419Y14785750D01*
X2081651Y14805962D01*
X2090830Y14825368D01*
X2101866Y14843781D01*
X2114654Y14861024D01*
X2129070Y14876930D01*
X2144976Y14891346D01*
X2162219Y14904134D01*
X2180632Y14915170D01*
X2200038Y14924349D01*
X2220250Y14931581D01*
X2241074Y14936797D01*
X2262309Y14939947D01*
X2283750Y14941000D01*
X2796250Y14941000D01*
X2817691Y14939947D01*
X2817691Y14939947D01*
G37*
D13*
X2540000Y14503500D03*
G04 #@! TD*
D12*
G04 #@! TO.C,R11*
G36*
X5357691Y10875947D02*
X5378926Y10872797D01*
X5399750Y10867581D01*
X5419962Y10860349D01*
X5439368Y10851170D01*
X5457781Y10840134D01*
X5475024Y10827346D01*
X5490930Y10812930D01*
X5505346Y10797024D01*
X5518134Y10779781D01*
X5529170Y10761368D01*
X5538349Y10741962D01*
X5545581Y10721750D01*
X5550797Y10700926D01*
X5553947Y10679691D01*
X5555000Y10658250D01*
X5555000Y10220750D01*
X5553947Y10199309D01*
X5550797Y10178074D01*
X5545581Y10157250D01*
X5538349Y10137038D01*
X5529170Y10117632D01*
X5518134Y10099219D01*
X5505346Y10081976D01*
X5490930Y10066070D01*
X5475024Y10051654D01*
X5457781Y10038866D01*
X5439368Y10027830D01*
X5419962Y10018651D01*
X5399750Y10011419D01*
X5378926Y10006203D01*
X5357691Y10003053D01*
X5336250Y10002000D01*
X4823750Y10002000D01*
X4802309Y10003053D01*
X4781074Y10006203D01*
X4760250Y10011419D01*
X4740038Y10018651D01*
X4720632Y10027830D01*
X4702219Y10038866D01*
X4684976Y10051654D01*
X4669070Y10066070D01*
X4654654Y10081976D01*
X4641866Y10099219D01*
X4630830Y10117632D01*
X4621651Y10137038D01*
X4614419Y10157250D01*
X4609203Y10178074D01*
X4606053Y10199309D01*
X4605000Y10220750D01*
X4605000Y10658250D01*
X4606053Y10679691D01*
X4609203Y10700926D01*
X4614419Y10721750D01*
X4621651Y10741962D01*
X4630830Y10761368D01*
X4641866Y10779781D01*
X4654654Y10797024D01*
X4669070Y10812930D01*
X4684976Y10827346D01*
X4702219Y10840134D01*
X4720632Y10851170D01*
X4740038Y10860349D01*
X4760250Y10867581D01*
X4781074Y10872797D01*
X4802309Y10875947D01*
X4823750Y10877000D01*
X5336250Y10877000D01*
X5357691Y10875947D01*
X5357691Y10875947D01*
G37*
D13*
X5080000Y10439500D03*
D12*
G36*
X5357691Y9300947D02*
X5378926Y9297797D01*
X5399750Y9292581D01*
X5419962Y9285349D01*
X5439368Y9276170D01*
X5457781Y9265134D01*
X5475024Y9252346D01*
X5490930Y9237930D01*
X5505346Y9222024D01*
X5518134Y9204781D01*
X5529170Y9186368D01*
X5538349Y9166962D01*
X5545581Y9146750D01*
X5550797Y9125926D01*
X5553947Y9104691D01*
X5555000Y9083250D01*
X5555000Y8645750D01*
X5553947Y8624309D01*
X5550797Y8603074D01*
X5545581Y8582250D01*
X5538349Y8562038D01*
X5529170Y8542632D01*
X5518134Y8524219D01*
X5505346Y8506976D01*
X5490930Y8491070D01*
X5475024Y8476654D01*
X5457781Y8463866D01*
X5439368Y8452830D01*
X5419962Y8443651D01*
X5399750Y8436419D01*
X5378926Y8431203D01*
X5357691Y8428053D01*
X5336250Y8427000D01*
X4823750Y8427000D01*
X4802309Y8428053D01*
X4781074Y8431203D01*
X4760250Y8436419D01*
X4740038Y8443651D01*
X4720632Y8452830D01*
X4702219Y8463866D01*
X4684976Y8476654D01*
X4669070Y8491070D01*
X4654654Y8506976D01*
X4641866Y8524219D01*
X4630830Y8542632D01*
X4621651Y8562038D01*
X4614419Y8582250D01*
X4609203Y8603074D01*
X4606053Y8624309D01*
X4605000Y8645750D01*
X4605000Y9083250D01*
X4606053Y9104691D01*
X4609203Y9125926D01*
X4614419Y9146750D01*
X4621651Y9166962D01*
X4630830Y9186368D01*
X4641866Y9204781D01*
X4654654Y9222024D01*
X4669070Y9237930D01*
X4684976Y9252346D01*
X4702219Y9265134D01*
X4720632Y9276170D01*
X4740038Y9285349D01*
X4760250Y9292581D01*
X4781074Y9297797D01*
X4802309Y9300947D01*
X4823750Y9302000D01*
X5336250Y9302000D01*
X5357691Y9300947D01*
X5357691Y9300947D01*
G37*
D13*
X5080000Y8864500D03*
G04 #@! TD*
D12*
G04 #@! TO.C,R12*
G36*
X-3278309Y-21687053D02*
X-3257074Y-21690203D01*
X-3236250Y-21695419D01*
X-3216038Y-21702651D01*
X-3196632Y-21711830D01*
X-3178219Y-21722866D01*
X-3160976Y-21735654D01*
X-3145070Y-21750070D01*
X-3130654Y-21765976D01*
X-3117866Y-21783219D01*
X-3106830Y-21801632D01*
X-3097651Y-21821038D01*
X-3090419Y-21841250D01*
X-3085203Y-21862074D01*
X-3082053Y-21883309D01*
X-3081000Y-21904750D01*
X-3081000Y-22342250D01*
X-3082053Y-22363691D01*
X-3085203Y-22384926D01*
X-3090419Y-22405750D01*
X-3097651Y-22425962D01*
X-3106830Y-22445368D01*
X-3117866Y-22463781D01*
X-3130654Y-22481024D01*
X-3145070Y-22496930D01*
X-3160976Y-22511346D01*
X-3178219Y-22524134D01*
X-3196632Y-22535170D01*
X-3216038Y-22544349D01*
X-3236250Y-22551581D01*
X-3257074Y-22556797D01*
X-3278309Y-22559947D01*
X-3299750Y-22561000D01*
X-3812250Y-22561000D01*
X-3833691Y-22559947D01*
X-3854926Y-22556797D01*
X-3875750Y-22551581D01*
X-3895962Y-22544349D01*
X-3915368Y-22535170D01*
X-3933781Y-22524134D01*
X-3951024Y-22511346D01*
X-3966930Y-22496930D01*
X-3981346Y-22481024D01*
X-3994134Y-22463781D01*
X-4005170Y-22445368D01*
X-4014349Y-22425962D01*
X-4021581Y-22405750D01*
X-4026797Y-22384926D01*
X-4029947Y-22363691D01*
X-4031000Y-22342250D01*
X-4031000Y-21904750D01*
X-4029947Y-21883309D01*
X-4026797Y-21862074D01*
X-4021581Y-21841250D01*
X-4014349Y-21821038D01*
X-4005170Y-21801632D01*
X-3994134Y-21783219D01*
X-3981346Y-21765976D01*
X-3966930Y-21750070D01*
X-3951024Y-21735654D01*
X-3933781Y-21722866D01*
X-3915368Y-21711830D01*
X-3895962Y-21702651D01*
X-3875750Y-21695419D01*
X-3854926Y-21690203D01*
X-3833691Y-21687053D01*
X-3812250Y-21686000D01*
X-3299750Y-21686000D01*
X-3278309Y-21687053D01*
X-3278309Y-21687053D01*
G37*
D13*
X-3556000Y-22123500D03*
D12*
G36*
X-3278309Y-20112053D02*
X-3257074Y-20115203D01*
X-3236250Y-20120419D01*
X-3216038Y-20127651D01*
X-3196632Y-20136830D01*
X-3178219Y-20147866D01*
X-3160976Y-20160654D01*
X-3145070Y-20175070D01*
X-3130654Y-20190976D01*
X-3117866Y-20208219D01*
X-3106830Y-20226632D01*
X-3097651Y-20246038D01*
X-3090419Y-20266250D01*
X-3085203Y-20287074D01*
X-3082053Y-20308309D01*
X-3081000Y-20329750D01*
X-3081000Y-20767250D01*
X-3082053Y-20788691D01*
X-3085203Y-20809926D01*
X-3090419Y-20830750D01*
X-3097651Y-20850962D01*
X-3106830Y-20870368D01*
X-3117866Y-20888781D01*
X-3130654Y-20906024D01*
X-3145070Y-20921930D01*
X-3160976Y-20936346D01*
X-3178219Y-20949134D01*
X-3196632Y-20960170D01*
X-3216038Y-20969349D01*
X-3236250Y-20976581D01*
X-3257074Y-20981797D01*
X-3278309Y-20984947D01*
X-3299750Y-20986000D01*
X-3812250Y-20986000D01*
X-3833691Y-20984947D01*
X-3854926Y-20981797D01*
X-3875750Y-20976581D01*
X-3895962Y-20969349D01*
X-3915368Y-20960170D01*
X-3933781Y-20949134D01*
X-3951024Y-20936346D01*
X-3966930Y-20921930D01*
X-3981346Y-20906024D01*
X-3994134Y-20888781D01*
X-4005170Y-20870368D01*
X-4014349Y-20850962D01*
X-4021581Y-20830750D01*
X-4026797Y-20809926D01*
X-4029947Y-20788691D01*
X-4031000Y-20767250D01*
X-4031000Y-20329750D01*
X-4029947Y-20308309D01*
X-4026797Y-20287074D01*
X-4021581Y-20266250D01*
X-4014349Y-20246038D01*
X-4005170Y-20226632D01*
X-3994134Y-20208219D01*
X-3981346Y-20190976D01*
X-3966930Y-20175070D01*
X-3951024Y-20160654D01*
X-3933781Y-20147866D01*
X-3915368Y-20136830D01*
X-3895962Y-20127651D01*
X-3875750Y-20120419D01*
X-3854926Y-20115203D01*
X-3833691Y-20112053D01*
X-3812250Y-20111000D01*
X-3299750Y-20111000D01*
X-3278309Y-20112053D01*
X-3278309Y-20112053D01*
G37*
D13*
X-3556000Y-20548500D03*
G04 #@! TD*
D12*
G04 #@! TO.C,R13*
G36*
X-2262309Y10875947D02*
X-2241074Y10872797D01*
X-2220250Y10867581D01*
X-2200038Y10860349D01*
X-2180632Y10851170D01*
X-2162219Y10840134D01*
X-2144976Y10827346D01*
X-2129070Y10812930D01*
X-2114654Y10797024D01*
X-2101866Y10779781D01*
X-2090830Y10761368D01*
X-2081651Y10741962D01*
X-2074419Y10721750D01*
X-2069203Y10700926D01*
X-2066053Y10679691D01*
X-2065000Y10658250D01*
X-2065000Y10220750D01*
X-2066053Y10199309D01*
X-2069203Y10178074D01*
X-2074419Y10157250D01*
X-2081651Y10137038D01*
X-2090830Y10117632D01*
X-2101866Y10099219D01*
X-2114654Y10081976D01*
X-2129070Y10066070D01*
X-2144976Y10051654D01*
X-2162219Y10038866D01*
X-2180632Y10027830D01*
X-2200038Y10018651D01*
X-2220250Y10011419D01*
X-2241074Y10006203D01*
X-2262309Y10003053D01*
X-2283750Y10002000D01*
X-2796250Y10002000D01*
X-2817691Y10003053D01*
X-2838926Y10006203D01*
X-2859750Y10011419D01*
X-2879962Y10018651D01*
X-2899368Y10027830D01*
X-2917781Y10038866D01*
X-2935024Y10051654D01*
X-2950930Y10066070D01*
X-2965346Y10081976D01*
X-2978134Y10099219D01*
X-2989170Y10117632D01*
X-2998349Y10137038D01*
X-3005581Y10157250D01*
X-3010797Y10178074D01*
X-3013947Y10199309D01*
X-3015000Y10220750D01*
X-3015000Y10658250D01*
X-3013947Y10679691D01*
X-3010797Y10700926D01*
X-3005581Y10721750D01*
X-2998349Y10741962D01*
X-2989170Y10761368D01*
X-2978134Y10779781D01*
X-2965346Y10797024D01*
X-2950930Y10812930D01*
X-2935024Y10827346D01*
X-2917781Y10840134D01*
X-2899368Y10851170D01*
X-2879962Y10860349D01*
X-2859750Y10867581D01*
X-2838926Y10872797D01*
X-2817691Y10875947D01*
X-2796250Y10877000D01*
X-2283750Y10877000D01*
X-2262309Y10875947D01*
X-2262309Y10875947D01*
G37*
D13*
X-2540000Y10439500D03*
D12*
G36*
X-2262309Y9300947D02*
X-2241074Y9297797D01*
X-2220250Y9292581D01*
X-2200038Y9285349D01*
X-2180632Y9276170D01*
X-2162219Y9265134D01*
X-2144976Y9252346D01*
X-2129070Y9237930D01*
X-2114654Y9222024D01*
X-2101866Y9204781D01*
X-2090830Y9186368D01*
X-2081651Y9166962D01*
X-2074419Y9146750D01*
X-2069203Y9125926D01*
X-2066053Y9104691D01*
X-2065000Y9083250D01*
X-2065000Y8645750D01*
X-2066053Y8624309D01*
X-2069203Y8603074D01*
X-2074419Y8582250D01*
X-2081651Y8562038D01*
X-2090830Y8542632D01*
X-2101866Y8524219D01*
X-2114654Y8506976D01*
X-2129070Y8491070D01*
X-2144976Y8476654D01*
X-2162219Y8463866D01*
X-2180632Y8452830D01*
X-2200038Y8443651D01*
X-2220250Y8436419D01*
X-2241074Y8431203D01*
X-2262309Y8428053D01*
X-2283750Y8427000D01*
X-2796250Y8427000D01*
X-2817691Y8428053D01*
X-2838926Y8431203D01*
X-2859750Y8436419D01*
X-2879962Y8443651D01*
X-2899368Y8452830D01*
X-2917781Y8463866D01*
X-2935024Y8476654D01*
X-2950930Y8491070D01*
X-2965346Y8506976D01*
X-2978134Y8524219D01*
X-2989170Y8542632D01*
X-2998349Y8562038D01*
X-3005581Y8582250D01*
X-3010797Y8603074D01*
X-3013947Y8624309D01*
X-3015000Y8645750D01*
X-3015000Y9083250D01*
X-3013947Y9104691D01*
X-3010797Y9125926D01*
X-3005581Y9146750D01*
X-2998349Y9166962D01*
X-2989170Y9186368D01*
X-2978134Y9204781D01*
X-2965346Y9222024D01*
X-2950930Y9237930D01*
X-2935024Y9252346D01*
X-2917781Y9265134D01*
X-2899368Y9276170D01*
X-2879962Y9285349D01*
X-2859750Y9292581D01*
X-2838926Y9297797D01*
X-2817691Y9300947D01*
X-2796250Y9302000D01*
X-2283750Y9302000D01*
X-2262309Y9300947D01*
X-2262309Y9300947D01*
G37*
D13*
X-2540000Y8864500D03*
G04 #@! TD*
D12*
G04 #@! TO.C,R14*
G36*
X-2262309Y13364947D02*
X-2241074Y13361797D01*
X-2220250Y13356581D01*
X-2200038Y13349349D01*
X-2180632Y13340170D01*
X-2162219Y13329134D01*
X-2144976Y13316346D01*
X-2129070Y13301930D01*
X-2114654Y13286024D01*
X-2101866Y13268781D01*
X-2090830Y13250368D01*
X-2081651Y13230962D01*
X-2074419Y13210750D01*
X-2069203Y13189926D01*
X-2066053Y13168691D01*
X-2065000Y13147250D01*
X-2065000Y12709750D01*
X-2066053Y12688309D01*
X-2069203Y12667074D01*
X-2074419Y12646250D01*
X-2081651Y12626038D01*
X-2090830Y12606632D01*
X-2101866Y12588219D01*
X-2114654Y12570976D01*
X-2129070Y12555070D01*
X-2144976Y12540654D01*
X-2162219Y12527866D01*
X-2180632Y12516830D01*
X-2200038Y12507651D01*
X-2220250Y12500419D01*
X-2241074Y12495203D01*
X-2262309Y12492053D01*
X-2283750Y12491000D01*
X-2796250Y12491000D01*
X-2817691Y12492053D01*
X-2838926Y12495203D01*
X-2859750Y12500419D01*
X-2879962Y12507651D01*
X-2899368Y12516830D01*
X-2917781Y12527866D01*
X-2935024Y12540654D01*
X-2950930Y12555070D01*
X-2965346Y12570976D01*
X-2978134Y12588219D01*
X-2989170Y12606632D01*
X-2998349Y12626038D01*
X-3005581Y12646250D01*
X-3010797Y12667074D01*
X-3013947Y12688309D01*
X-3015000Y12709750D01*
X-3015000Y13147250D01*
X-3013947Y13168691D01*
X-3010797Y13189926D01*
X-3005581Y13210750D01*
X-2998349Y13230962D01*
X-2989170Y13250368D01*
X-2978134Y13268781D01*
X-2965346Y13286024D01*
X-2950930Y13301930D01*
X-2935024Y13316346D01*
X-2917781Y13329134D01*
X-2899368Y13340170D01*
X-2879962Y13349349D01*
X-2859750Y13356581D01*
X-2838926Y13361797D01*
X-2817691Y13364947D01*
X-2796250Y13366000D01*
X-2283750Y13366000D01*
X-2262309Y13364947D01*
X-2262309Y13364947D01*
G37*
D13*
X-2540000Y12928500D03*
D12*
G36*
X-2262309Y14939947D02*
X-2241074Y14936797D01*
X-2220250Y14931581D01*
X-2200038Y14924349D01*
X-2180632Y14915170D01*
X-2162219Y14904134D01*
X-2144976Y14891346D01*
X-2129070Y14876930D01*
X-2114654Y14861024D01*
X-2101866Y14843781D01*
X-2090830Y14825368D01*
X-2081651Y14805962D01*
X-2074419Y14785750D01*
X-2069203Y14764926D01*
X-2066053Y14743691D01*
X-2065000Y14722250D01*
X-2065000Y14284750D01*
X-2066053Y14263309D01*
X-2069203Y14242074D01*
X-2074419Y14221250D01*
X-2081651Y14201038D01*
X-2090830Y14181632D01*
X-2101866Y14163219D01*
X-2114654Y14145976D01*
X-2129070Y14130070D01*
X-2144976Y14115654D01*
X-2162219Y14102866D01*
X-2180632Y14091830D01*
X-2200038Y14082651D01*
X-2220250Y14075419D01*
X-2241074Y14070203D01*
X-2262309Y14067053D01*
X-2283750Y14066000D01*
X-2796250Y14066000D01*
X-2817691Y14067053D01*
X-2838926Y14070203D01*
X-2859750Y14075419D01*
X-2879962Y14082651D01*
X-2899368Y14091830D01*
X-2917781Y14102866D01*
X-2935024Y14115654D01*
X-2950930Y14130070D01*
X-2965346Y14145976D01*
X-2978134Y14163219D01*
X-2989170Y14181632D01*
X-2998349Y14201038D01*
X-3005581Y14221250D01*
X-3010797Y14242074D01*
X-3013947Y14263309D01*
X-3015000Y14284750D01*
X-3015000Y14722250D01*
X-3013947Y14743691D01*
X-3010797Y14764926D01*
X-3005581Y14785750D01*
X-2998349Y14805962D01*
X-2989170Y14825368D01*
X-2978134Y14843781D01*
X-2965346Y14861024D01*
X-2950930Y14876930D01*
X-2935024Y14891346D01*
X-2917781Y14904134D01*
X-2899368Y14915170D01*
X-2879962Y14924349D01*
X-2859750Y14931581D01*
X-2838926Y14936797D01*
X-2817691Y14939947D01*
X-2796250Y14941000D01*
X-2283750Y14941000D01*
X-2262309Y14939947D01*
X-2262309Y14939947D01*
G37*
D13*
X-2540000Y14503500D03*
G04 #@! TD*
D12*
G04 #@! TO.C,R1*
G36*
X-13438309Y37799947D02*
X-13417074Y37796797D01*
X-13396250Y37791581D01*
X-13376038Y37784349D01*
X-13356632Y37775170D01*
X-13338219Y37764134D01*
X-13320976Y37751346D01*
X-13305070Y37736930D01*
X-13290654Y37721024D01*
X-13277866Y37703781D01*
X-13266830Y37685368D01*
X-13257651Y37665962D01*
X-13250419Y37645750D01*
X-13245203Y37624926D01*
X-13242053Y37603691D01*
X-13241000Y37582250D01*
X-13241000Y37144750D01*
X-13242053Y37123309D01*
X-13245203Y37102074D01*
X-13250419Y37081250D01*
X-13257651Y37061038D01*
X-13266830Y37041632D01*
X-13277866Y37023219D01*
X-13290654Y37005976D01*
X-13305070Y36990070D01*
X-13320976Y36975654D01*
X-13338219Y36962866D01*
X-13356632Y36951830D01*
X-13376038Y36942651D01*
X-13396250Y36935419D01*
X-13417074Y36930203D01*
X-13438309Y36927053D01*
X-13459750Y36926000D01*
X-13972250Y36926000D01*
X-13993691Y36927053D01*
X-14014926Y36930203D01*
X-14035750Y36935419D01*
X-14055962Y36942651D01*
X-14075368Y36951830D01*
X-14093781Y36962866D01*
X-14111024Y36975654D01*
X-14126930Y36990070D01*
X-14141346Y37005976D01*
X-14154134Y37023219D01*
X-14165170Y37041632D01*
X-14174349Y37061038D01*
X-14181581Y37081250D01*
X-14186797Y37102074D01*
X-14189947Y37123309D01*
X-14191000Y37144750D01*
X-14191000Y37582250D01*
X-14189947Y37603691D01*
X-14186797Y37624926D01*
X-14181581Y37645750D01*
X-14174349Y37665962D01*
X-14165170Y37685368D01*
X-14154134Y37703781D01*
X-14141346Y37721024D01*
X-14126930Y37736930D01*
X-14111024Y37751346D01*
X-14093781Y37764134D01*
X-14075368Y37775170D01*
X-14055962Y37784349D01*
X-14035750Y37791581D01*
X-14014926Y37796797D01*
X-13993691Y37799947D01*
X-13972250Y37801000D01*
X-13459750Y37801000D01*
X-13438309Y37799947D01*
X-13438309Y37799947D01*
G37*
D13*
X-13716000Y37363500D03*
D12*
G36*
X-13438309Y36224947D02*
X-13417074Y36221797D01*
X-13396250Y36216581D01*
X-13376038Y36209349D01*
X-13356632Y36200170D01*
X-13338219Y36189134D01*
X-13320976Y36176346D01*
X-13305070Y36161930D01*
X-13290654Y36146024D01*
X-13277866Y36128781D01*
X-13266830Y36110368D01*
X-13257651Y36090962D01*
X-13250419Y36070750D01*
X-13245203Y36049926D01*
X-13242053Y36028691D01*
X-13241000Y36007250D01*
X-13241000Y35569750D01*
X-13242053Y35548309D01*
X-13245203Y35527074D01*
X-13250419Y35506250D01*
X-13257651Y35486038D01*
X-13266830Y35466632D01*
X-13277866Y35448219D01*
X-13290654Y35430976D01*
X-13305070Y35415070D01*
X-13320976Y35400654D01*
X-13338219Y35387866D01*
X-13356632Y35376830D01*
X-13376038Y35367651D01*
X-13396250Y35360419D01*
X-13417074Y35355203D01*
X-13438309Y35352053D01*
X-13459750Y35351000D01*
X-13972250Y35351000D01*
X-13993691Y35352053D01*
X-14014926Y35355203D01*
X-14035750Y35360419D01*
X-14055962Y35367651D01*
X-14075368Y35376830D01*
X-14093781Y35387866D01*
X-14111024Y35400654D01*
X-14126930Y35415070D01*
X-14141346Y35430976D01*
X-14154134Y35448219D01*
X-14165170Y35466632D01*
X-14174349Y35486038D01*
X-14181581Y35506250D01*
X-14186797Y35527074D01*
X-14189947Y35548309D01*
X-14191000Y35569750D01*
X-14191000Y36007250D01*
X-14189947Y36028691D01*
X-14186797Y36049926D01*
X-14181581Y36070750D01*
X-14174349Y36090962D01*
X-14165170Y36110368D01*
X-14154134Y36128781D01*
X-14141346Y36146024D01*
X-14126930Y36161930D01*
X-14111024Y36176346D01*
X-14093781Y36189134D01*
X-14075368Y36200170D01*
X-14055962Y36209349D01*
X-14035750Y36216581D01*
X-14014926Y36221797D01*
X-13993691Y36224947D01*
X-13972250Y36226000D01*
X-13459750Y36226000D01*
X-13438309Y36224947D01*
X-13438309Y36224947D01*
G37*
D13*
X-13716000Y35788500D03*
G04 #@! TD*
D12*
G04 #@! TO.C,R16*
G36*
X7897691Y-29256053D02*
X7918926Y-29259203D01*
X7939750Y-29264419D01*
X7959962Y-29271651D01*
X7979368Y-29280830D01*
X7997781Y-29291866D01*
X8015024Y-29304654D01*
X8030930Y-29319070D01*
X8045346Y-29334976D01*
X8058134Y-29352219D01*
X8069170Y-29370632D01*
X8078349Y-29390038D01*
X8085581Y-29410250D01*
X8090797Y-29431074D01*
X8093947Y-29452309D01*
X8095000Y-29473750D01*
X8095000Y-29911250D01*
X8093947Y-29932691D01*
X8090797Y-29953926D01*
X8085581Y-29974750D01*
X8078349Y-29994962D01*
X8069170Y-30014368D01*
X8058134Y-30032781D01*
X8045346Y-30050024D01*
X8030930Y-30065930D01*
X8015024Y-30080346D01*
X7997781Y-30093134D01*
X7979368Y-30104170D01*
X7959962Y-30113349D01*
X7939750Y-30120581D01*
X7918926Y-30125797D01*
X7897691Y-30128947D01*
X7876250Y-30130000D01*
X7363750Y-30130000D01*
X7342309Y-30128947D01*
X7321074Y-30125797D01*
X7300250Y-30120581D01*
X7280038Y-30113349D01*
X7260632Y-30104170D01*
X7242219Y-30093134D01*
X7224976Y-30080346D01*
X7209070Y-30065930D01*
X7194654Y-30050024D01*
X7181866Y-30032781D01*
X7170830Y-30014368D01*
X7161651Y-29994962D01*
X7154419Y-29974750D01*
X7149203Y-29953926D01*
X7146053Y-29932691D01*
X7145000Y-29911250D01*
X7145000Y-29473750D01*
X7146053Y-29452309D01*
X7149203Y-29431074D01*
X7154419Y-29410250D01*
X7161651Y-29390038D01*
X7170830Y-29370632D01*
X7181866Y-29352219D01*
X7194654Y-29334976D01*
X7209070Y-29319070D01*
X7224976Y-29304654D01*
X7242219Y-29291866D01*
X7260632Y-29280830D01*
X7280038Y-29271651D01*
X7300250Y-29264419D01*
X7321074Y-29259203D01*
X7342309Y-29256053D01*
X7363750Y-29255000D01*
X7876250Y-29255000D01*
X7897691Y-29256053D01*
X7897691Y-29256053D01*
G37*
D13*
X7620000Y-29692500D03*
D12*
G36*
X7897691Y-30831053D02*
X7918926Y-30834203D01*
X7939750Y-30839419D01*
X7959962Y-30846651D01*
X7979368Y-30855830D01*
X7997781Y-30866866D01*
X8015024Y-30879654D01*
X8030930Y-30894070D01*
X8045346Y-30909976D01*
X8058134Y-30927219D01*
X8069170Y-30945632D01*
X8078349Y-30965038D01*
X8085581Y-30985250D01*
X8090797Y-31006074D01*
X8093947Y-31027309D01*
X8095000Y-31048750D01*
X8095000Y-31486250D01*
X8093947Y-31507691D01*
X8090797Y-31528926D01*
X8085581Y-31549750D01*
X8078349Y-31569962D01*
X8069170Y-31589368D01*
X8058134Y-31607781D01*
X8045346Y-31625024D01*
X8030930Y-31640930D01*
X8015024Y-31655346D01*
X7997781Y-31668134D01*
X7979368Y-31679170D01*
X7959962Y-31688349D01*
X7939750Y-31695581D01*
X7918926Y-31700797D01*
X7897691Y-31703947D01*
X7876250Y-31705000D01*
X7363750Y-31705000D01*
X7342309Y-31703947D01*
X7321074Y-31700797D01*
X7300250Y-31695581D01*
X7280038Y-31688349D01*
X7260632Y-31679170D01*
X7242219Y-31668134D01*
X7224976Y-31655346D01*
X7209070Y-31640930D01*
X7194654Y-31625024D01*
X7181866Y-31607781D01*
X7170830Y-31589368D01*
X7161651Y-31569962D01*
X7154419Y-31549750D01*
X7149203Y-31528926D01*
X7146053Y-31507691D01*
X7145000Y-31486250D01*
X7145000Y-31048750D01*
X7146053Y-31027309D01*
X7149203Y-31006074D01*
X7154419Y-30985250D01*
X7161651Y-30965038D01*
X7170830Y-30945632D01*
X7181866Y-30927219D01*
X7194654Y-30909976D01*
X7209070Y-30894070D01*
X7224976Y-30879654D01*
X7242219Y-30866866D01*
X7260632Y-30855830D01*
X7280038Y-30846651D01*
X7300250Y-30839419D01*
X7321074Y-30834203D01*
X7342309Y-30831053D01*
X7363750Y-30830000D01*
X7876250Y-30830000D01*
X7897691Y-30831053D01*
X7897691Y-30831053D01*
G37*
D13*
X7620000Y-31267500D03*
G04 #@! TD*
D12*
G04 #@! TO.C,R17*
G36*
X5865691Y-29256053D02*
X5886926Y-29259203D01*
X5907750Y-29264419D01*
X5927962Y-29271651D01*
X5947368Y-29280830D01*
X5965781Y-29291866D01*
X5983024Y-29304654D01*
X5998930Y-29319070D01*
X6013346Y-29334976D01*
X6026134Y-29352219D01*
X6037170Y-29370632D01*
X6046349Y-29390038D01*
X6053581Y-29410250D01*
X6058797Y-29431074D01*
X6061947Y-29452309D01*
X6063000Y-29473750D01*
X6063000Y-29911250D01*
X6061947Y-29932691D01*
X6058797Y-29953926D01*
X6053581Y-29974750D01*
X6046349Y-29994962D01*
X6037170Y-30014368D01*
X6026134Y-30032781D01*
X6013346Y-30050024D01*
X5998930Y-30065930D01*
X5983024Y-30080346D01*
X5965781Y-30093134D01*
X5947368Y-30104170D01*
X5927962Y-30113349D01*
X5907750Y-30120581D01*
X5886926Y-30125797D01*
X5865691Y-30128947D01*
X5844250Y-30130000D01*
X5331750Y-30130000D01*
X5310309Y-30128947D01*
X5289074Y-30125797D01*
X5268250Y-30120581D01*
X5248038Y-30113349D01*
X5228632Y-30104170D01*
X5210219Y-30093134D01*
X5192976Y-30080346D01*
X5177070Y-30065930D01*
X5162654Y-30050024D01*
X5149866Y-30032781D01*
X5138830Y-30014368D01*
X5129651Y-29994962D01*
X5122419Y-29974750D01*
X5117203Y-29953926D01*
X5114053Y-29932691D01*
X5113000Y-29911250D01*
X5113000Y-29473750D01*
X5114053Y-29452309D01*
X5117203Y-29431074D01*
X5122419Y-29410250D01*
X5129651Y-29390038D01*
X5138830Y-29370632D01*
X5149866Y-29352219D01*
X5162654Y-29334976D01*
X5177070Y-29319070D01*
X5192976Y-29304654D01*
X5210219Y-29291866D01*
X5228632Y-29280830D01*
X5248038Y-29271651D01*
X5268250Y-29264419D01*
X5289074Y-29259203D01*
X5310309Y-29256053D01*
X5331750Y-29255000D01*
X5844250Y-29255000D01*
X5865691Y-29256053D01*
X5865691Y-29256053D01*
G37*
D13*
X5588000Y-29692500D03*
D12*
G36*
X5865691Y-30831053D02*
X5886926Y-30834203D01*
X5907750Y-30839419D01*
X5927962Y-30846651D01*
X5947368Y-30855830D01*
X5965781Y-30866866D01*
X5983024Y-30879654D01*
X5998930Y-30894070D01*
X6013346Y-30909976D01*
X6026134Y-30927219D01*
X6037170Y-30945632D01*
X6046349Y-30965038D01*
X6053581Y-30985250D01*
X6058797Y-31006074D01*
X6061947Y-31027309D01*
X6063000Y-31048750D01*
X6063000Y-31486250D01*
X6061947Y-31507691D01*
X6058797Y-31528926D01*
X6053581Y-31549750D01*
X6046349Y-31569962D01*
X6037170Y-31589368D01*
X6026134Y-31607781D01*
X6013346Y-31625024D01*
X5998930Y-31640930D01*
X5983024Y-31655346D01*
X5965781Y-31668134D01*
X5947368Y-31679170D01*
X5927962Y-31688349D01*
X5907750Y-31695581D01*
X5886926Y-31700797D01*
X5865691Y-31703947D01*
X5844250Y-31705000D01*
X5331750Y-31705000D01*
X5310309Y-31703947D01*
X5289074Y-31700797D01*
X5268250Y-31695581D01*
X5248038Y-31688349D01*
X5228632Y-31679170D01*
X5210219Y-31668134D01*
X5192976Y-31655346D01*
X5177070Y-31640930D01*
X5162654Y-31625024D01*
X5149866Y-31607781D01*
X5138830Y-31589368D01*
X5129651Y-31569962D01*
X5122419Y-31549750D01*
X5117203Y-31528926D01*
X5114053Y-31507691D01*
X5113000Y-31486250D01*
X5113000Y-31048750D01*
X5114053Y-31027309D01*
X5117203Y-31006074D01*
X5122419Y-30985250D01*
X5129651Y-30965038D01*
X5138830Y-30945632D01*
X5149866Y-30927219D01*
X5162654Y-30909976D01*
X5177070Y-30894070D01*
X5192976Y-30879654D01*
X5210219Y-30866866D01*
X5228632Y-30855830D01*
X5248038Y-30846651D01*
X5268250Y-30839419D01*
X5289074Y-30834203D01*
X5310309Y-30831053D01*
X5331750Y-30830000D01*
X5844250Y-30830000D01*
X5865691Y-30831053D01*
X5865691Y-30831053D01*
G37*
D13*
X5588000Y-31267500D03*
G04 #@! TD*
D12*
G04 #@! TO.C,R18*
G36*
X-7342309Y-34387053D02*
X-7321074Y-34390203D01*
X-7300250Y-34395419D01*
X-7280038Y-34402651D01*
X-7260632Y-34411830D01*
X-7242219Y-34422866D01*
X-7224976Y-34435654D01*
X-7209070Y-34450070D01*
X-7194654Y-34465976D01*
X-7181866Y-34483219D01*
X-7170830Y-34501632D01*
X-7161651Y-34521038D01*
X-7154419Y-34541250D01*
X-7149203Y-34562074D01*
X-7146053Y-34583309D01*
X-7145000Y-34604750D01*
X-7145000Y-35042250D01*
X-7146053Y-35063691D01*
X-7149203Y-35084926D01*
X-7154419Y-35105750D01*
X-7161651Y-35125962D01*
X-7170830Y-35145368D01*
X-7181866Y-35163781D01*
X-7194654Y-35181024D01*
X-7209070Y-35196930D01*
X-7224976Y-35211346D01*
X-7242219Y-35224134D01*
X-7260632Y-35235170D01*
X-7280038Y-35244349D01*
X-7300250Y-35251581D01*
X-7321074Y-35256797D01*
X-7342309Y-35259947D01*
X-7363750Y-35261000D01*
X-7876250Y-35261000D01*
X-7897691Y-35259947D01*
X-7918926Y-35256797D01*
X-7939750Y-35251581D01*
X-7959962Y-35244349D01*
X-7979368Y-35235170D01*
X-7997781Y-35224134D01*
X-8015024Y-35211346D01*
X-8030930Y-35196930D01*
X-8045346Y-35181024D01*
X-8058134Y-35163781D01*
X-8069170Y-35145368D01*
X-8078349Y-35125962D01*
X-8085581Y-35105750D01*
X-8090797Y-35084926D01*
X-8093947Y-35063691D01*
X-8095000Y-35042250D01*
X-8095000Y-34604750D01*
X-8093947Y-34583309D01*
X-8090797Y-34562074D01*
X-8085581Y-34541250D01*
X-8078349Y-34521038D01*
X-8069170Y-34501632D01*
X-8058134Y-34483219D01*
X-8045346Y-34465976D01*
X-8030930Y-34450070D01*
X-8015024Y-34435654D01*
X-7997781Y-34422866D01*
X-7979368Y-34411830D01*
X-7959962Y-34402651D01*
X-7939750Y-34395419D01*
X-7918926Y-34390203D01*
X-7897691Y-34387053D01*
X-7876250Y-34386000D01*
X-7363750Y-34386000D01*
X-7342309Y-34387053D01*
X-7342309Y-34387053D01*
G37*
D13*
X-7620000Y-34823500D03*
D12*
G36*
X-7342309Y-32812053D02*
X-7321074Y-32815203D01*
X-7300250Y-32820419D01*
X-7280038Y-32827651D01*
X-7260632Y-32836830D01*
X-7242219Y-32847866D01*
X-7224976Y-32860654D01*
X-7209070Y-32875070D01*
X-7194654Y-32890976D01*
X-7181866Y-32908219D01*
X-7170830Y-32926632D01*
X-7161651Y-32946038D01*
X-7154419Y-32966250D01*
X-7149203Y-32987074D01*
X-7146053Y-33008309D01*
X-7145000Y-33029750D01*
X-7145000Y-33467250D01*
X-7146053Y-33488691D01*
X-7149203Y-33509926D01*
X-7154419Y-33530750D01*
X-7161651Y-33550962D01*
X-7170830Y-33570368D01*
X-7181866Y-33588781D01*
X-7194654Y-33606024D01*
X-7209070Y-33621930D01*
X-7224976Y-33636346D01*
X-7242219Y-33649134D01*
X-7260632Y-33660170D01*
X-7280038Y-33669349D01*
X-7300250Y-33676581D01*
X-7321074Y-33681797D01*
X-7342309Y-33684947D01*
X-7363750Y-33686000D01*
X-7876250Y-33686000D01*
X-7897691Y-33684947D01*
X-7918926Y-33681797D01*
X-7939750Y-33676581D01*
X-7959962Y-33669349D01*
X-7979368Y-33660170D01*
X-7997781Y-33649134D01*
X-8015024Y-33636346D01*
X-8030930Y-33621930D01*
X-8045346Y-33606024D01*
X-8058134Y-33588781D01*
X-8069170Y-33570368D01*
X-8078349Y-33550962D01*
X-8085581Y-33530750D01*
X-8090797Y-33509926D01*
X-8093947Y-33488691D01*
X-8095000Y-33467250D01*
X-8095000Y-33029750D01*
X-8093947Y-33008309D01*
X-8090797Y-32987074D01*
X-8085581Y-32966250D01*
X-8078349Y-32946038D01*
X-8069170Y-32926632D01*
X-8058134Y-32908219D01*
X-8045346Y-32890976D01*
X-8030930Y-32875070D01*
X-8015024Y-32860654D01*
X-7997781Y-32847866D01*
X-7979368Y-32836830D01*
X-7959962Y-32827651D01*
X-7939750Y-32820419D01*
X-7918926Y-32815203D01*
X-7897691Y-32812053D01*
X-7876250Y-32811000D01*
X-7363750Y-32811000D01*
X-7342309Y-32812053D01*
X-7342309Y-32812053D01*
G37*
D13*
X-7620000Y-33248500D03*
G04 #@! TD*
D12*
G04 #@! TO.C,R19*
G36*
X-5310309Y-34387053D02*
X-5289074Y-34390203D01*
X-5268250Y-34395419D01*
X-5248038Y-34402651D01*
X-5228632Y-34411830D01*
X-5210219Y-34422866D01*
X-5192976Y-34435654D01*
X-5177070Y-34450070D01*
X-5162654Y-34465976D01*
X-5149866Y-34483219D01*
X-5138830Y-34501632D01*
X-5129651Y-34521038D01*
X-5122419Y-34541250D01*
X-5117203Y-34562074D01*
X-5114053Y-34583309D01*
X-5113000Y-34604750D01*
X-5113000Y-35042250D01*
X-5114053Y-35063691D01*
X-5117203Y-35084926D01*
X-5122419Y-35105750D01*
X-5129651Y-35125962D01*
X-5138830Y-35145368D01*
X-5149866Y-35163781D01*
X-5162654Y-35181024D01*
X-5177070Y-35196930D01*
X-5192976Y-35211346D01*
X-5210219Y-35224134D01*
X-5228632Y-35235170D01*
X-5248038Y-35244349D01*
X-5268250Y-35251581D01*
X-5289074Y-35256797D01*
X-5310309Y-35259947D01*
X-5331750Y-35261000D01*
X-5844250Y-35261000D01*
X-5865691Y-35259947D01*
X-5886926Y-35256797D01*
X-5907750Y-35251581D01*
X-5927962Y-35244349D01*
X-5947368Y-35235170D01*
X-5965781Y-35224134D01*
X-5983024Y-35211346D01*
X-5998930Y-35196930D01*
X-6013346Y-35181024D01*
X-6026134Y-35163781D01*
X-6037170Y-35145368D01*
X-6046349Y-35125962D01*
X-6053581Y-35105750D01*
X-6058797Y-35084926D01*
X-6061947Y-35063691D01*
X-6063000Y-35042250D01*
X-6063000Y-34604750D01*
X-6061947Y-34583309D01*
X-6058797Y-34562074D01*
X-6053581Y-34541250D01*
X-6046349Y-34521038D01*
X-6037170Y-34501632D01*
X-6026134Y-34483219D01*
X-6013346Y-34465976D01*
X-5998930Y-34450070D01*
X-5983024Y-34435654D01*
X-5965781Y-34422866D01*
X-5947368Y-34411830D01*
X-5927962Y-34402651D01*
X-5907750Y-34395419D01*
X-5886926Y-34390203D01*
X-5865691Y-34387053D01*
X-5844250Y-34386000D01*
X-5331750Y-34386000D01*
X-5310309Y-34387053D01*
X-5310309Y-34387053D01*
G37*
D13*
X-5588000Y-34823500D03*
D12*
G36*
X-5310309Y-32812053D02*
X-5289074Y-32815203D01*
X-5268250Y-32820419D01*
X-5248038Y-32827651D01*
X-5228632Y-32836830D01*
X-5210219Y-32847866D01*
X-5192976Y-32860654D01*
X-5177070Y-32875070D01*
X-5162654Y-32890976D01*
X-5149866Y-32908219D01*
X-5138830Y-32926632D01*
X-5129651Y-32946038D01*
X-5122419Y-32966250D01*
X-5117203Y-32987074D01*
X-5114053Y-33008309D01*
X-5113000Y-33029750D01*
X-5113000Y-33467250D01*
X-5114053Y-33488691D01*
X-5117203Y-33509926D01*
X-5122419Y-33530750D01*
X-5129651Y-33550962D01*
X-5138830Y-33570368D01*
X-5149866Y-33588781D01*
X-5162654Y-33606024D01*
X-5177070Y-33621930D01*
X-5192976Y-33636346D01*
X-5210219Y-33649134D01*
X-5228632Y-33660170D01*
X-5248038Y-33669349D01*
X-5268250Y-33676581D01*
X-5289074Y-33681797D01*
X-5310309Y-33684947D01*
X-5331750Y-33686000D01*
X-5844250Y-33686000D01*
X-5865691Y-33684947D01*
X-5886926Y-33681797D01*
X-5907750Y-33676581D01*
X-5927962Y-33669349D01*
X-5947368Y-33660170D01*
X-5965781Y-33649134D01*
X-5983024Y-33636346D01*
X-5998930Y-33621930D01*
X-6013346Y-33606024D01*
X-6026134Y-33588781D01*
X-6037170Y-33570368D01*
X-6046349Y-33550962D01*
X-6053581Y-33530750D01*
X-6058797Y-33509926D01*
X-6061947Y-33488691D01*
X-6063000Y-33467250D01*
X-6063000Y-33029750D01*
X-6061947Y-33008309D01*
X-6058797Y-32987074D01*
X-6053581Y-32966250D01*
X-6046349Y-32946038D01*
X-6037170Y-32926632D01*
X-6026134Y-32908219D01*
X-6013346Y-32890976D01*
X-5998930Y-32875070D01*
X-5983024Y-32860654D01*
X-5965781Y-32847866D01*
X-5947368Y-32836830D01*
X-5927962Y-32827651D01*
X-5907750Y-32820419D01*
X-5886926Y-32815203D01*
X-5865691Y-32812053D01*
X-5844250Y-32811000D01*
X-5331750Y-32811000D01*
X-5310309Y-32812053D01*
X-5310309Y-32812053D01*
G37*
D13*
X-5588000Y-33248500D03*
G04 #@! TD*
D12*
G04 #@! TO.C,R20*
G36*
X5865691Y-34387053D02*
X5886926Y-34390203D01*
X5907750Y-34395419D01*
X5927962Y-34402651D01*
X5947368Y-34411830D01*
X5965781Y-34422866D01*
X5983024Y-34435654D01*
X5998930Y-34450070D01*
X6013346Y-34465976D01*
X6026134Y-34483219D01*
X6037170Y-34501632D01*
X6046349Y-34521038D01*
X6053581Y-34541250D01*
X6058797Y-34562074D01*
X6061947Y-34583309D01*
X6063000Y-34604750D01*
X6063000Y-35042250D01*
X6061947Y-35063691D01*
X6058797Y-35084926D01*
X6053581Y-35105750D01*
X6046349Y-35125962D01*
X6037170Y-35145368D01*
X6026134Y-35163781D01*
X6013346Y-35181024D01*
X5998930Y-35196930D01*
X5983024Y-35211346D01*
X5965781Y-35224134D01*
X5947368Y-35235170D01*
X5927962Y-35244349D01*
X5907750Y-35251581D01*
X5886926Y-35256797D01*
X5865691Y-35259947D01*
X5844250Y-35261000D01*
X5331750Y-35261000D01*
X5310309Y-35259947D01*
X5289074Y-35256797D01*
X5268250Y-35251581D01*
X5248038Y-35244349D01*
X5228632Y-35235170D01*
X5210219Y-35224134D01*
X5192976Y-35211346D01*
X5177070Y-35196930D01*
X5162654Y-35181024D01*
X5149866Y-35163781D01*
X5138830Y-35145368D01*
X5129651Y-35125962D01*
X5122419Y-35105750D01*
X5117203Y-35084926D01*
X5114053Y-35063691D01*
X5113000Y-35042250D01*
X5113000Y-34604750D01*
X5114053Y-34583309D01*
X5117203Y-34562074D01*
X5122419Y-34541250D01*
X5129651Y-34521038D01*
X5138830Y-34501632D01*
X5149866Y-34483219D01*
X5162654Y-34465976D01*
X5177070Y-34450070D01*
X5192976Y-34435654D01*
X5210219Y-34422866D01*
X5228632Y-34411830D01*
X5248038Y-34402651D01*
X5268250Y-34395419D01*
X5289074Y-34390203D01*
X5310309Y-34387053D01*
X5331750Y-34386000D01*
X5844250Y-34386000D01*
X5865691Y-34387053D01*
X5865691Y-34387053D01*
G37*
D13*
X5588000Y-34823500D03*
D12*
G36*
X5865691Y-32812053D02*
X5886926Y-32815203D01*
X5907750Y-32820419D01*
X5927962Y-32827651D01*
X5947368Y-32836830D01*
X5965781Y-32847866D01*
X5983024Y-32860654D01*
X5998930Y-32875070D01*
X6013346Y-32890976D01*
X6026134Y-32908219D01*
X6037170Y-32926632D01*
X6046349Y-32946038D01*
X6053581Y-32966250D01*
X6058797Y-32987074D01*
X6061947Y-33008309D01*
X6063000Y-33029750D01*
X6063000Y-33467250D01*
X6061947Y-33488691D01*
X6058797Y-33509926D01*
X6053581Y-33530750D01*
X6046349Y-33550962D01*
X6037170Y-33570368D01*
X6026134Y-33588781D01*
X6013346Y-33606024D01*
X5998930Y-33621930D01*
X5983024Y-33636346D01*
X5965781Y-33649134D01*
X5947368Y-33660170D01*
X5927962Y-33669349D01*
X5907750Y-33676581D01*
X5886926Y-33681797D01*
X5865691Y-33684947D01*
X5844250Y-33686000D01*
X5331750Y-33686000D01*
X5310309Y-33684947D01*
X5289074Y-33681797D01*
X5268250Y-33676581D01*
X5248038Y-33669349D01*
X5228632Y-33660170D01*
X5210219Y-33649134D01*
X5192976Y-33636346D01*
X5177070Y-33621930D01*
X5162654Y-33606024D01*
X5149866Y-33588781D01*
X5138830Y-33570368D01*
X5129651Y-33550962D01*
X5122419Y-33530750D01*
X5117203Y-33509926D01*
X5114053Y-33488691D01*
X5113000Y-33467250D01*
X5113000Y-33029750D01*
X5114053Y-33008309D01*
X5117203Y-32987074D01*
X5122419Y-32966250D01*
X5129651Y-32946038D01*
X5138830Y-32926632D01*
X5149866Y-32908219D01*
X5162654Y-32890976D01*
X5177070Y-32875070D01*
X5192976Y-32860654D01*
X5210219Y-32847866D01*
X5228632Y-32836830D01*
X5248038Y-32827651D01*
X5268250Y-32820419D01*
X5289074Y-32815203D01*
X5310309Y-32812053D01*
X5331750Y-32811000D01*
X5844250Y-32811000D01*
X5865691Y-32812053D01*
X5865691Y-32812053D01*
G37*
D13*
X5588000Y-33248500D03*
G04 #@! TD*
D12*
G04 #@! TO.C,R21*
G36*
X7897691Y-34387053D02*
X7918926Y-34390203D01*
X7939750Y-34395419D01*
X7959962Y-34402651D01*
X7979368Y-34411830D01*
X7997781Y-34422866D01*
X8015024Y-34435654D01*
X8030930Y-34450070D01*
X8045346Y-34465976D01*
X8058134Y-34483219D01*
X8069170Y-34501632D01*
X8078349Y-34521038D01*
X8085581Y-34541250D01*
X8090797Y-34562074D01*
X8093947Y-34583309D01*
X8095000Y-34604750D01*
X8095000Y-35042250D01*
X8093947Y-35063691D01*
X8090797Y-35084926D01*
X8085581Y-35105750D01*
X8078349Y-35125962D01*
X8069170Y-35145368D01*
X8058134Y-35163781D01*
X8045346Y-35181024D01*
X8030930Y-35196930D01*
X8015024Y-35211346D01*
X7997781Y-35224134D01*
X7979368Y-35235170D01*
X7959962Y-35244349D01*
X7939750Y-35251581D01*
X7918926Y-35256797D01*
X7897691Y-35259947D01*
X7876250Y-35261000D01*
X7363750Y-35261000D01*
X7342309Y-35259947D01*
X7321074Y-35256797D01*
X7300250Y-35251581D01*
X7280038Y-35244349D01*
X7260632Y-35235170D01*
X7242219Y-35224134D01*
X7224976Y-35211346D01*
X7209070Y-35196930D01*
X7194654Y-35181024D01*
X7181866Y-35163781D01*
X7170830Y-35145368D01*
X7161651Y-35125962D01*
X7154419Y-35105750D01*
X7149203Y-35084926D01*
X7146053Y-35063691D01*
X7145000Y-35042250D01*
X7145000Y-34604750D01*
X7146053Y-34583309D01*
X7149203Y-34562074D01*
X7154419Y-34541250D01*
X7161651Y-34521038D01*
X7170830Y-34501632D01*
X7181866Y-34483219D01*
X7194654Y-34465976D01*
X7209070Y-34450070D01*
X7224976Y-34435654D01*
X7242219Y-34422866D01*
X7260632Y-34411830D01*
X7280038Y-34402651D01*
X7300250Y-34395419D01*
X7321074Y-34390203D01*
X7342309Y-34387053D01*
X7363750Y-34386000D01*
X7876250Y-34386000D01*
X7897691Y-34387053D01*
X7897691Y-34387053D01*
G37*
D13*
X7620000Y-34823500D03*
D12*
G36*
X7897691Y-32812053D02*
X7918926Y-32815203D01*
X7939750Y-32820419D01*
X7959962Y-32827651D01*
X7979368Y-32836830D01*
X7997781Y-32847866D01*
X8015024Y-32860654D01*
X8030930Y-32875070D01*
X8045346Y-32890976D01*
X8058134Y-32908219D01*
X8069170Y-32926632D01*
X8078349Y-32946038D01*
X8085581Y-32966250D01*
X8090797Y-32987074D01*
X8093947Y-33008309D01*
X8095000Y-33029750D01*
X8095000Y-33467250D01*
X8093947Y-33488691D01*
X8090797Y-33509926D01*
X8085581Y-33530750D01*
X8078349Y-33550962D01*
X8069170Y-33570368D01*
X8058134Y-33588781D01*
X8045346Y-33606024D01*
X8030930Y-33621930D01*
X8015024Y-33636346D01*
X7997781Y-33649134D01*
X7979368Y-33660170D01*
X7959962Y-33669349D01*
X7939750Y-33676581D01*
X7918926Y-33681797D01*
X7897691Y-33684947D01*
X7876250Y-33686000D01*
X7363750Y-33686000D01*
X7342309Y-33684947D01*
X7321074Y-33681797D01*
X7300250Y-33676581D01*
X7280038Y-33669349D01*
X7260632Y-33660170D01*
X7242219Y-33649134D01*
X7224976Y-33636346D01*
X7209070Y-33621930D01*
X7194654Y-33606024D01*
X7181866Y-33588781D01*
X7170830Y-33570368D01*
X7161651Y-33550962D01*
X7154419Y-33530750D01*
X7149203Y-33509926D01*
X7146053Y-33488691D01*
X7145000Y-33467250D01*
X7145000Y-33029750D01*
X7146053Y-33008309D01*
X7149203Y-32987074D01*
X7154419Y-32966250D01*
X7161651Y-32946038D01*
X7170830Y-32926632D01*
X7181866Y-32908219D01*
X7194654Y-32890976D01*
X7209070Y-32875070D01*
X7224976Y-32860654D01*
X7242219Y-32847866D01*
X7260632Y-32836830D01*
X7280038Y-32827651D01*
X7300250Y-32820419D01*
X7321074Y-32815203D01*
X7342309Y-32812053D01*
X7363750Y-32811000D01*
X7876250Y-32811000D01*
X7897691Y-32812053D01*
X7897691Y-32812053D01*
G37*
D13*
X7620000Y-33248500D03*
G04 #@! TD*
D12*
G04 #@! TO.C,R22*
G36*
X-5310309Y-29256053D02*
X-5289074Y-29259203D01*
X-5268250Y-29264419D01*
X-5248038Y-29271651D01*
X-5228632Y-29280830D01*
X-5210219Y-29291866D01*
X-5192976Y-29304654D01*
X-5177070Y-29319070D01*
X-5162654Y-29334976D01*
X-5149866Y-29352219D01*
X-5138830Y-29370632D01*
X-5129651Y-29390038D01*
X-5122419Y-29410250D01*
X-5117203Y-29431074D01*
X-5114053Y-29452309D01*
X-5113000Y-29473750D01*
X-5113000Y-29911250D01*
X-5114053Y-29932691D01*
X-5117203Y-29953926D01*
X-5122419Y-29974750D01*
X-5129651Y-29994962D01*
X-5138830Y-30014368D01*
X-5149866Y-30032781D01*
X-5162654Y-30050024D01*
X-5177070Y-30065930D01*
X-5192976Y-30080346D01*
X-5210219Y-30093134D01*
X-5228632Y-30104170D01*
X-5248038Y-30113349D01*
X-5268250Y-30120581D01*
X-5289074Y-30125797D01*
X-5310309Y-30128947D01*
X-5331750Y-30130000D01*
X-5844250Y-30130000D01*
X-5865691Y-30128947D01*
X-5886926Y-30125797D01*
X-5907750Y-30120581D01*
X-5927962Y-30113349D01*
X-5947368Y-30104170D01*
X-5965781Y-30093134D01*
X-5983024Y-30080346D01*
X-5998930Y-30065930D01*
X-6013346Y-30050024D01*
X-6026134Y-30032781D01*
X-6037170Y-30014368D01*
X-6046349Y-29994962D01*
X-6053581Y-29974750D01*
X-6058797Y-29953926D01*
X-6061947Y-29932691D01*
X-6063000Y-29911250D01*
X-6063000Y-29473750D01*
X-6061947Y-29452309D01*
X-6058797Y-29431074D01*
X-6053581Y-29410250D01*
X-6046349Y-29390038D01*
X-6037170Y-29370632D01*
X-6026134Y-29352219D01*
X-6013346Y-29334976D01*
X-5998930Y-29319070D01*
X-5983024Y-29304654D01*
X-5965781Y-29291866D01*
X-5947368Y-29280830D01*
X-5927962Y-29271651D01*
X-5907750Y-29264419D01*
X-5886926Y-29259203D01*
X-5865691Y-29256053D01*
X-5844250Y-29255000D01*
X-5331750Y-29255000D01*
X-5310309Y-29256053D01*
X-5310309Y-29256053D01*
G37*
D13*
X-5588000Y-29692500D03*
D12*
G36*
X-5310309Y-30831053D02*
X-5289074Y-30834203D01*
X-5268250Y-30839419D01*
X-5248038Y-30846651D01*
X-5228632Y-30855830D01*
X-5210219Y-30866866D01*
X-5192976Y-30879654D01*
X-5177070Y-30894070D01*
X-5162654Y-30909976D01*
X-5149866Y-30927219D01*
X-5138830Y-30945632D01*
X-5129651Y-30965038D01*
X-5122419Y-30985250D01*
X-5117203Y-31006074D01*
X-5114053Y-31027309D01*
X-5113000Y-31048750D01*
X-5113000Y-31486250D01*
X-5114053Y-31507691D01*
X-5117203Y-31528926D01*
X-5122419Y-31549750D01*
X-5129651Y-31569962D01*
X-5138830Y-31589368D01*
X-5149866Y-31607781D01*
X-5162654Y-31625024D01*
X-5177070Y-31640930D01*
X-5192976Y-31655346D01*
X-5210219Y-31668134D01*
X-5228632Y-31679170D01*
X-5248038Y-31688349D01*
X-5268250Y-31695581D01*
X-5289074Y-31700797D01*
X-5310309Y-31703947D01*
X-5331750Y-31705000D01*
X-5844250Y-31705000D01*
X-5865691Y-31703947D01*
X-5886926Y-31700797D01*
X-5907750Y-31695581D01*
X-5927962Y-31688349D01*
X-5947368Y-31679170D01*
X-5965781Y-31668134D01*
X-5983024Y-31655346D01*
X-5998930Y-31640930D01*
X-6013346Y-31625024D01*
X-6026134Y-31607781D01*
X-6037170Y-31589368D01*
X-6046349Y-31569962D01*
X-6053581Y-31549750D01*
X-6058797Y-31528926D01*
X-6061947Y-31507691D01*
X-6063000Y-31486250D01*
X-6063000Y-31048750D01*
X-6061947Y-31027309D01*
X-6058797Y-31006074D01*
X-6053581Y-30985250D01*
X-6046349Y-30965038D01*
X-6037170Y-30945632D01*
X-6026134Y-30927219D01*
X-6013346Y-30909976D01*
X-5998930Y-30894070D01*
X-5983024Y-30879654D01*
X-5965781Y-30866866D01*
X-5947368Y-30855830D01*
X-5927962Y-30846651D01*
X-5907750Y-30839419D01*
X-5886926Y-30834203D01*
X-5865691Y-30831053D01*
X-5844250Y-30830000D01*
X-5331750Y-30830000D01*
X-5310309Y-30831053D01*
X-5310309Y-30831053D01*
G37*
D13*
X-5588000Y-31267500D03*
G04 #@! TD*
D12*
G04 #@! TO.C,R23*
G36*
X-15470309Y-32812053D02*
X-15449074Y-32815203D01*
X-15428250Y-32820419D01*
X-15408038Y-32827651D01*
X-15388632Y-32836830D01*
X-15370219Y-32847866D01*
X-15352976Y-32860654D01*
X-15337070Y-32875070D01*
X-15322654Y-32890976D01*
X-15309866Y-32908219D01*
X-15298830Y-32926632D01*
X-15289651Y-32946038D01*
X-15282419Y-32966250D01*
X-15277203Y-32987074D01*
X-15274053Y-33008309D01*
X-15273000Y-33029750D01*
X-15273000Y-33467250D01*
X-15274053Y-33488691D01*
X-15277203Y-33509926D01*
X-15282419Y-33530750D01*
X-15289651Y-33550962D01*
X-15298830Y-33570368D01*
X-15309866Y-33588781D01*
X-15322654Y-33606024D01*
X-15337070Y-33621930D01*
X-15352976Y-33636346D01*
X-15370219Y-33649134D01*
X-15388632Y-33660170D01*
X-15408038Y-33669349D01*
X-15428250Y-33676581D01*
X-15449074Y-33681797D01*
X-15470309Y-33684947D01*
X-15491750Y-33686000D01*
X-16004250Y-33686000D01*
X-16025691Y-33684947D01*
X-16046926Y-33681797D01*
X-16067750Y-33676581D01*
X-16087962Y-33669349D01*
X-16107368Y-33660170D01*
X-16125781Y-33649134D01*
X-16143024Y-33636346D01*
X-16158930Y-33621930D01*
X-16173346Y-33606024D01*
X-16186134Y-33588781D01*
X-16197170Y-33570368D01*
X-16206349Y-33550962D01*
X-16213581Y-33530750D01*
X-16218797Y-33509926D01*
X-16221947Y-33488691D01*
X-16223000Y-33467250D01*
X-16223000Y-33029750D01*
X-16221947Y-33008309D01*
X-16218797Y-32987074D01*
X-16213581Y-32966250D01*
X-16206349Y-32946038D01*
X-16197170Y-32926632D01*
X-16186134Y-32908219D01*
X-16173346Y-32890976D01*
X-16158930Y-32875070D01*
X-16143024Y-32860654D01*
X-16125781Y-32847866D01*
X-16107368Y-32836830D01*
X-16087962Y-32827651D01*
X-16067750Y-32820419D01*
X-16046926Y-32815203D01*
X-16025691Y-32812053D01*
X-16004250Y-32811000D01*
X-15491750Y-32811000D01*
X-15470309Y-32812053D01*
X-15470309Y-32812053D01*
G37*
D13*
X-15748000Y-33248500D03*
D12*
G36*
X-15470309Y-34387053D02*
X-15449074Y-34390203D01*
X-15428250Y-34395419D01*
X-15408038Y-34402651D01*
X-15388632Y-34411830D01*
X-15370219Y-34422866D01*
X-15352976Y-34435654D01*
X-15337070Y-34450070D01*
X-15322654Y-34465976D01*
X-15309866Y-34483219D01*
X-15298830Y-34501632D01*
X-15289651Y-34521038D01*
X-15282419Y-34541250D01*
X-15277203Y-34562074D01*
X-15274053Y-34583309D01*
X-15273000Y-34604750D01*
X-15273000Y-35042250D01*
X-15274053Y-35063691D01*
X-15277203Y-35084926D01*
X-15282419Y-35105750D01*
X-15289651Y-35125962D01*
X-15298830Y-35145368D01*
X-15309866Y-35163781D01*
X-15322654Y-35181024D01*
X-15337070Y-35196930D01*
X-15352976Y-35211346D01*
X-15370219Y-35224134D01*
X-15388632Y-35235170D01*
X-15408038Y-35244349D01*
X-15428250Y-35251581D01*
X-15449074Y-35256797D01*
X-15470309Y-35259947D01*
X-15491750Y-35261000D01*
X-16004250Y-35261000D01*
X-16025691Y-35259947D01*
X-16046926Y-35256797D01*
X-16067750Y-35251581D01*
X-16087962Y-35244349D01*
X-16107368Y-35235170D01*
X-16125781Y-35224134D01*
X-16143024Y-35211346D01*
X-16158930Y-35196930D01*
X-16173346Y-35181024D01*
X-16186134Y-35163781D01*
X-16197170Y-35145368D01*
X-16206349Y-35125962D01*
X-16213581Y-35105750D01*
X-16218797Y-35084926D01*
X-16221947Y-35063691D01*
X-16223000Y-35042250D01*
X-16223000Y-34604750D01*
X-16221947Y-34583309D01*
X-16218797Y-34562074D01*
X-16213581Y-34541250D01*
X-16206349Y-34521038D01*
X-16197170Y-34501632D01*
X-16186134Y-34483219D01*
X-16173346Y-34465976D01*
X-16158930Y-34450070D01*
X-16143024Y-34435654D01*
X-16125781Y-34422866D01*
X-16107368Y-34411830D01*
X-16087962Y-34402651D01*
X-16067750Y-34395419D01*
X-16046926Y-34390203D01*
X-16025691Y-34387053D01*
X-16004250Y-34386000D01*
X-15491750Y-34386000D01*
X-15470309Y-34387053D01*
X-15470309Y-34387053D01*
G37*
D13*
X-15748000Y-34823500D03*
G04 #@! TD*
D12*
G04 #@! TO.C,R24*
G36*
X-7342309Y-37943053D02*
X-7321074Y-37946203D01*
X-7300250Y-37951419D01*
X-7280038Y-37958651D01*
X-7260632Y-37967830D01*
X-7242219Y-37978866D01*
X-7224976Y-37991654D01*
X-7209070Y-38006070D01*
X-7194654Y-38021976D01*
X-7181866Y-38039219D01*
X-7170830Y-38057632D01*
X-7161651Y-38077038D01*
X-7154419Y-38097250D01*
X-7149203Y-38118074D01*
X-7146053Y-38139309D01*
X-7145000Y-38160750D01*
X-7145000Y-38598250D01*
X-7146053Y-38619691D01*
X-7149203Y-38640926D01*
X-7154419Y-38661750D01*
X-7161651Y-38681962D01*
X-7170830Y-38701368D01*
X-7181866Y-38719781D01*
X-7194654Y-38737024D01*
X-7209070Y-38752930D01*
X-7224976Y-38767346D01*
X-7242219Y-38780134D01*
X-7260632Y-38791170D01*
X-7280038Y-38800349D01*
X-7300250Y-38807581D01*
X-7321074Y-38812797D01*
X-7342309Y-38815947D01*
X-7363750Y-38817000D01*
X-7876250Y-38817000D01*
X-7897691Y-38815947D01*
X-7918926Y-38812797D01*
X-7939750Y-38807581D01*
X-7959962Y-38800349D01*
X-7979368Y-38791170D01*
X-7997781Y-38780134D01*
X-8015024Y-38767346D01*
X-8030930Y-38752930D01*
X-8045346Y-38737024D01*
X-8058134Y-38719781D01*
X-8069170Y-38701368D01*
X-8078349Y-38681962D01*
X-8085581Y-38661750D01*
X-8090797Y-38640926D01*
X-8093947Y-38619691D01*
X-8095000Y-38598250D01*
X-8095000Y-38160750D01*
X-8093947Y-38139309D01*
X-8090797Y-38118074D01*
X-8085581Y-38097250D01*
X-8078349Y-38077038D01*
X-8069170Y-38057632D01*
X-8058134Y-38039219D01*
X-8045346Y-38021976D01*
X-8030930Y-38006070D01*
X-8015024Y-37991654D01*
X-7997781Y-37978866D01*
X-7979368Y-37967830D01*
X-7959962Y-37958651D01*
X-7939750Y-37951419D01*
X-7918926Y-37946203D01*
X-7897691Y-37943053D01*
X-7876250Y-37942000D01*
X-7363750Y-37942000D01*
X-7342309Y-37943053D01*
X-7342309Y-37943053D01*
G37*
D13*
X-7620000Y-38379500D03*
D12*
G36*
X-7342309Y-36368053D02*
X-7321074Y-36371203D01*
X-7300250Y-36376419D01*
X-7280038Y-36383651D01*
X-7260632Y-36392830D01*
X-7242219Y-36403866D01*
X-7224976Y-36416654D01*
X-7209070Y-36431070D01*
X-7194654Y-36446976D01*
X-7181866Y-36464219D01*
X-7170830Y-36482632D01*
X-7161651Y-36502038D01*
X-7154419Y-36522250D01*
X-7149203Y-36543074D01*
X-7146053Y-36564309D01*
X-7145000Y-36585750D01*
X-7145000Y-37023250D01*
X-7146053Y-37044691D01*
X-7149203Y-37065926D01*
X-7154419Y-37086750D01*
X-7161651Y-37106962D01*
X-7170830Y-37126368D01*
X-7181866Y-37144781D01*
X-7194654Y-37162024D01*
X-7209070Y-37177930D01*
X-7224976Y-37192346D01*
X-7242219Y-37205134D01*
X-7260632Y-37216170D01*
X-7280038Y-37225349D01*
X-7300250Y-37232581D01*
X-7321074Y-37237797D01*
X-7342309Y-37240947D01*
X-7363750Y-37242000D01*
X-7876250Y-37242000D01*
X-7897691Y-37240947D01*
X-7918926Y-37237797D01*
X-7939750Y-37232581D01*
X-7959962Y-37225349D01*
X-7979368Y-37216170D01*
X-7997781Y-37205134D01*
X-8015024Y-37192346D01*
X-8030930Y-37177930D01*
X-8045346Y-37162024D01*
X-8058134Y-37144781D01*
X-8069170Y-37126368D01*
X-8078349Y-37106962D01*
X-8085581Y-37086750D01*
X-8090797Y-37065926D01*
X-8093947Y-37044691D01*
X-8095000Y-37023250D01*
X-8095000Y-36585750D01*
X-8093947Y-36564309D01*
X-8090797Y-36543074D01*
X-8085581Y-36522250D01*
X-8078349Y-36502038D01*
X-8069170Y-36482632D01*
X-8058134Y-36464219D01*
X-8045346Y-36446976D01*
X-8030930Y-36431070D01*
X-8015024Y-36416654D01*
X-7997781Y-36403866D01*
X-7979368Y-36392830D01*
X-7959962Y-36383651D01*
X-7939750Y-36376419D01*
X-7918926Y-36371203D01*
X-7897691Y-36368053D01*
X-7876250Y-36367000D01*
X-7363750Y-36367000D01*
X-7342309Y-36368053D01*
X-7342309Y-36368053D01*
G37*
D13*
X-7620000Y-36804500D03*
G04 #@! TD*
D12*
G04 #@! TO.C,R25*
G36*
X-5310309Y-41499053D02*
X-5289074Y-41502203D01*
X-5268250Y-41507419D01*
X-5248038Y-41514651D01*
X-5228632Y-41523830D01*
X-5210219Y-41534866D01*
X-5192976Y-41547654D01*
X-5177070Y-41562070D01*
X-5162654Y-41577976D01*
X-5149866Y-41595219D01*
X-5138830Y-41613632D01*
X-5129651Y-41633038D01*
X-5122419Y-41653250D01*
X-5117203Y-41674074D01*
X-5114053Y-41695309D01*
X-5113000Y-41716750D01*
X-5113000Y-42154250D01*
X-5114053Y-42175691D01*
X-5117203Y-42196926D01*
X-5122419Y-42217750D01*
X-5129651Y-42237962D01*
X-5138830Y-42257368D01*
X-5149866Y-42275781D01*
X-5162654Y-42293024D01*
X-5177070Y-42308930D01*
X-5192976Y-42323346D01*
X-5210219Y-42336134D01*
X-5228632Y-42347170D01*
X-5248038Y-42356349D01*
X-5268250Y-42363581D01*
X-5289074Y-42368797D01*
X-5310309Y-42371947D01*
X-5331750Y-42373000D01*
X-5844250Y-42373000D01*
X-5865691Y-42371947D01*
X-5886926Y-42368797D01*
X-5907750Y-42363581D01*
X-5927962Y-42356349D01*
X-5947368Y-42347170D01*
X-5965781Y-42336134D01*
X-5983024Y-42323346D01*
X-5998930Y-42308930D01*
X-6013346Y-42293024D01*
X-6026134Y-42275781D01*
X-6037170Y-42257368D01*
X-6046349Y-42237962D01*
X-6053581Y-42217750D01*
X-6058797Y-42196926D01*
X-6061947Y-42175691D01*
X-6063000Y-42154250D01*
X-6063000Y-41716750D01*
X-6061947Y-41695309D01*
X-6058797Y-41674074D01*
X-6053581Y-41653250D01*
X-6046349Y-41633038D01*
X-6037170Y-41613632D01*
X-6026134Y-41595219D01*
X-6013346Y-41577976D01*
X-5998930Y-41562070D01*
X-5983024Y-41547654D01*
X-5965781Y-41534866D01*
X-5947368Y-41523830D01*
X-5927962Y-41514651D01*
X-5907750Y-41507419D01*
X-5886926Y-41502203D01*
X-5865691Y-41499053D01*
X-5844250Y-41498000D01*
X-5331750Y-41498000D01*
X-5310309Y-41499053D01*
X-5310309Y-41499053D01*
G37*
D13*
X-5588000Y-41935500D03*
D12*
G36*
X-5310309Y-39924053D02*
X-5289074Y-39927203D01*
X-5268250Y-39932419D01*
X-5248038Y-39939651D01*
X-5228632Y-39948830D01*
X-5210219Y-39959866D01*
X-5192976Y-39972654D01*
X-5177070Y-39987070D01*
X-5162654Y-40002976D01*
X-5149866Y-40020219D01*
X-5138830Y-40038632D01*
X-5129651Y-40058038D01*
X-5122419Y-40078250D01*
X-5117203Y-40099074D01*
X-5114053Y-40120309D01*
X-5113000Y-40141750D01*
X-5113000Y-40579250D01*
X-5114053Y-40600691D01*
X-5117203Y-40621926D01*
X-5122419Y-40642750D01*
X-5129651Y-40662962D01*
X-5138830Y-40682368D01*
X-5149866Y-40700781D01*
X-5162654Y-40718024D01*
X-5177070Y-40733930D01*
X-5192976Y-40748346D01*
X-5210219Y-40761134D01*
X-5228632Y-40772170D01*
X-5248038Y-40781349D01*
X-5268250Y-40788581D01*
X-5289074Y-40793797D01*
X-5310309Y-40796947D01*
X-5331750Y-40798000D01*
X-5844250Y-40798000D01*
X-5865691Y-40796947D01*
X-5886926Y-40793797D01*
X-5907750Y-40788581D01*
X-5927962Y-40781349D01*
X-5947368Y-40772170D01*
X-5965781Y-40761134D01*
X-5983024Y-40748346D01*
X-5998930Y-40733930D01*
X-6013346Y-40718024D01*
X-6026134Y-40700781D01*
X-6037170Y-40682368D01*
X-6046349Y-40662962D01*
X-6053581Y-40642750D01*
X-6058797Y-40621926D01*
X-6061947Y-40600691D01*
X-6063000Y-40579250D01*
X-6063000Y-40141750D01*
X-6061947Y-40120309D01*
X-6058797Y-40099074D01*
X-6053581Y-40078250D01*
X-6046349Y-40058038D01*
X-6037170Y-40038632D01*
X-6026134Y-40020219D01*
X-6013346Y-40002976D01*
X-5998930Y-39987070D01*
X-5983024Y-39972654D01*
X-5965781Y-39959866D01*
X-5947368Y-39948830D01*
X-5927962Y-39939651D01*
X-5907750Y-39932419D01*
X-5886926Y-39927203D01*
X-5865691Y-39924053D01*
X-5844250Y-39923000D01*
X-5331750Y-39923000D01*
X-5310309Y-39924053D01*
X-5310309Y-39924053D01*
G37*
D13*
X-5588000Y-40360500D03*
G04 #@! TD*
D12*
G04 #@! TO.C,R26*
G36*
X-9374309Y-41499053D02*
X-9353074Y-41502203D01*
X-9332250Y-41507419D01*
X-9312038Y-41514651D01*
X-9292632Y-41523830D01*
X-9274219Y-41534866D01*
X-9256976Y-41547654D01*
X-9241070Y-41562070D01*
X-9226654Y-41577976D01*
X-9213866Y-41595219D01*
X-9202830Y-41613632D01*
X-9193651Y-41633038D01*
X-9186419Y-41653250D01*
X-9181203Y-41674074D01*
X-9178053Y-41695309D01*
X-9177000Y-41716750D01*
X-9177000Y-42154250D01*
X-9178053Y-42175691D01*
X-9181203Y-42196926D01*
X-9186419Y-42217750D01*
X-9193651Y-42237962D01*
X-9202830Y-42257368D01*
X-9213866Y-42275781D01*
X-9226654Y-42293024D01*
X-9241070Y-42308930D01*
X-9256976Y-42323346D01*
X-9274219Y-42336134D01*
X-9292632Y-42347170D01*
X-9312038Y-42356349D01*
X-9332250Y-42363581D01*
X-9353074Y-42368797D01*
X-9374309Y-42371947D01*
X-9395750Y-42373000D01*
X-9908250Y-42373000D01*
X-9929691Y-42371947D01*
X-9950926Y-42368797D01*
X-9971750Y-42363581D01*
X-9991962Y-42356349D01*
X-10011368Y-42347170D01*
X-10029781Y-42336134D01*
X-10047024Y-42323346D01*
X-10062930Y-42308930D01*
X-10077346Y-42293024D01*
X-10090134Y-42275781D01*
X-10101170Y-42257368D01*
X-10110349Y-42237962D01*
X-10117581Y-42217750D01*
X-10122797Y-42196926D01*
X-10125947Y-42175691D01*
X-10127000Y-42154250D01*
X-10127000Y-41716750D01*
X-10125947Y-41695309D01*
X-10122797Y-41674074D01*
X-10117581Y-41653250D01*
X-10110349Y-41633038D01*
X-10101170Y-41613632D01*
X-10090134Y-41595219D01*
X-10077346Y-41577976D01*
X-10062930Y-41562070D01*
X-10047024Y-41547654D01*
X-10029781Y-41534866D01*
X-10011368Y-41523830D01*
X-9991962Y-41514651D01*
X-9971750Y-41507419D01*
X-9950926Y-41502203D01*
X-9929691Y-41499053D01*
X-9908250Y-41498000D01*
X-9395750Y-41498000D01*
X-9374309Y-41499053D01*
X-9374309Y-41499053D01*
G37*
D13*
X-9652000Y-41935500D03*
D12*
G36*
X-9374309Y-39924053D02*
X-9353074Y-39927203D01*
X-9332250Y-39932419D01*
X-9312038Y-39939651D01*
X-9292632Y-39948830D01*
X-9274219Y-39959866D01*
X-9256976Y-39972654D01*
X-9241070Y-39987070D01*
X-9226654Y-40002976D01*
X-9213866Y-40020219D01*
X-9202830Y-40038632D01*
X-9193651Y-40058038D01*
X-9186419Y-40078250D01*
X-9181203Y-40099074D01*
X-9178053Y-40120309D01*
X-9177000Y-40141750D01*
X-9177000Y-40579250D01*
X-9178053Y-40600691D01*
X-9181203Y-40621926D01*
X-9186419Y-40642750D01*
X-9193651Y-40662962D01*
X-9202830Y-40682368D01*
X-9213866Y-40700781D01*
X-9226654Y-40718024D01*
X-9241070Y-40733930D01*
X-9256976Y-40748346D01*
X-9274219Y-40761134D01*
X-9292632Y-40772170D01*
X-9312038Y-40781349D01*
X-9332250Y-40788581D01*
X-9353074Y-40793797D01*
X-9374309Y-40796947D01*
X-9395750Y-40798000D01*
X-9908250Y-40798000D01*
X-9929691Y-40796947D01*
X-9950926Y-40793797D01*
X-9971750Y-40788581D01*
X-9991962Y-40781349D01*
X-10011368Y-40772170D01*
X-10029781Y-40761134D01*
X-10047024Y-40748346D01*
X-10062930Y-40733930D01*
X-10077346Y-40718024D01*
X-10090134Y-40700781D01*
X-10101170Y-40682368D01*
X-10110349Y-40662962D01*
X-10117581Y-40642750D01*
X-10122797Y-40621926D01*
X-10125947Y-40600691D01*
X-10127000Y-40579250D01*
X-10127000Y-40141750D01*
X-10125947Y-40120309D01*
X-10122797Y-40099074D01*
X-10117581Y-40078250D01*
X-10110349Y-40058038D01*
X-10101170Y-40038632D01*
X-10090134Y-40020219D01*
X-10077346Y-40002976D01*
X-10062930Y-39987070D01*
X-10047024Y-39972654D01*
X-10029781Y-39959866D01*
X-10011368Y-39948830D01*
X-9991962Y-39939651D01*
X-9971750Y-39932419D01*
X-9950926Y-39927203D01*
X-9929691Y-39924053D01*
X-9908250Y-39923000D01*
X-9395750Y-39923000D01*
X-9374309Y-39924053D01*
X-9374309Y-39924053D01*
G37*
D13*
X-9652000Y-40360500D03*
G04 #@! TD*
D12*
G04 #@! TO.C,R27*
G36*
X7897691Y-36368053D02*
X7918926Y-36371203D01*
X7939750Y-36376419D01*
X7959962Y-36383651D01*
X7979368Y-36392830D01*
X7997781Y-36403866D01*
X8015024Y-36416654D01*
X8030930Y-36431070D01*
X8045346Y-36446976D01*
X8058134Y-36464219D01*
X8069170Y-36482632D01*
X8078349Y-36502038D01*
X8085581Y-36522250D01*
X8090797Y-36543074D01*
X8093947Y-36564309D01*
X8095000Y-36585750D01*
X8095000Y-37023250D01*
X8093947Y-37044691D01*
X8090797Y-37065926D01*
X8085581Y-37086750D01*
X8078349Y-37106962D01*
X8069170Y-37126368D01*
X8058134Y-37144781D01*
X8045346Y-37162024D01*
X8030930Y-37177930D01*
X8015024Y-37192346D01*
X7997781Y-37205134D01*
X7979368Y-37216170D01*
X7959962Y-37225349D01*
X7939750Y-37232581D01*
X7918926Y-37237797D01*
X7897691Y-37240947D01*
X7876250Y-37242000D01*
X7363750Y-37242000D01*
X7342309Y-37240947D01*
X7321074Y-37237797D01*
X7300250Y-37232581D01*
X7280038Y-37225349D01*
X7260632Y-37216170D01*
X7242219Y-37205134D01*
X7224976Y-37192346D01*
X7209070Y-37177930D01*
X7194654Y-37162024D01*
X7181866Y-37144781D01*
X7170830Y-37126368D01*
X7161651Y-37106962D01*
X7154419Y-37086750D01*
X7149203Y-37065926D01*
X7146053Y-37044691D01*
X7145000Y-37023250D01*
X7145000Y-36585750D01*
X7146053Y-36564309D01*
X7149203Y-36543074D01*
X7154419Y-36522250D01*
X7161651Y-36502038D01*
X7170830Y-36482632D01*
X7181866Y-36464219D01*
X7194654Y-36446976D01*
X7209070Y-36431070D01*
X7224976Y-36416654D01*
X7242219Y-36403866D01*
X7260632Y-36392830D01*
X7280038Y-36383651D01*
X7300250Y-36376419D01*
X7321074Y-36371203D01*
X7342309Y-36368053D01*
X7363750Y-36367000D01*
X7876250Y-36367000D01*
X7897691Y-36368053D01*
X7897691Y-36368053D01*
G37*
D13*
X7620000Y-36804500D03*
D12*
G36*
X7897691Y-37943053D02*
X7918926Y-37946203D01*
X7939750Y-37951419D01*
X7959962Y-37958651D01*
X7979368Y-37967830D01*
X7997781Y-37978866D01*
X8015024Y-37991654D01*
X8030930Y-38006070D01*
X8045346Y-38021976D01*
X8058134Y-38039219D01*
X8069170Y-38057632D01*
X8078349Y-38077038D01*
X8085581Y-38097250D01*
X8090797Y-38118074D01*
X8093947Y-38139309D01*
X8095000Y-38160750D01*
X8095000Y-38598250D01*
X8093947Y-38619691D01*
X8090797Y-38640926D01*
X8085581Y-38661750D01*
X8078349Y-38681962D01*
X8069170Y-38701368D01*
X8058134Y-38719781D01*
X8045346Y-38737024D01*
X8030930Y-38752930D01*
X8015024Y-38767346D01*
X7997781Y-38780134D01*
X7979368Y-38791170D01*
X7959962Y-38800349D01*
X7939750Y-38807581D01*
X7918926Y-38812797D01*
X7897691Y-38815947D01*
X7876250Y-38817000D01*
X7363750Y-38817000D01*
X7342309Y-38815947D01*
X7321074Y-38812797D01*
X7300250Y-38807581D01*
X7280038Y-38800349D01*
X7260632Y-38791170D01*
X7242219Y-38780134D01*
X7224976Y-38767346D01*
X7209070Y-38752930D01*
X7194654Y-38737024D01*
X7181866Y-38719781D01*
X7170830Y-38701368D01*
X7161651Y-38681962D01*
X7154419Y-38661750D01*
X7149203Y-38640926D01*
X7146053Y-38619691D01*
X7145000Y-38598250D01*
X7145000Y-38160750D01*
X7146053Y-38139309D01*
X7149203Y-38118074D01*
X7154419Y-38097250D01*
X7161651Y-38077038D01*
X7170830Y-38057632D01*
X7181866Y-38039219D01*
X7194654Y-38021976D01*
X7209070Y-38006070D01*
X7224976Y-37991654D01*
X7242219Y-37978866D01*
X7260632Y-37967830D01*
X7280038Y-37958651D01*
X7300250Y-37951419D01*
X7321074Y-37946203D01*
X7342309Y-37943053D01*
X7363750Y-37942000D01*
X7876250Y-37942000D01*
X7897691Y-37943053D01*
X7897691Y-37943053D01*
G37*
D13*
X7620000Y-38379500D03*
G04 #@! TD*
D12*
G04 #@! TO.C,R28*
G36*
X5865691Y-41499053D02*
X5886926Y-41502203D01*
X5907750Y-41507419D01*
X5927962Y-41514651D01*
X5947368Y-41523830D01*
X5965781Y-41534866D01*
X5983024Y-41547654D01*
X5998930Y-41562070D01*
X6013346Y-41577976D01*
X6026134Y-41595219D01*
X6037170Y-41613632D01*
X6046349Y-41633038D01*
X6053581Y-41653250D01*
X6058797Y-41674074D01*
X6061947Y-41695309D01*
X6063000Y-41716750D01*
X6063000Y-42154250D01*
X6061947Y-42175691D01*
X6058797Y-42196926D01*
X6053581Y-42217750D01*
X6046349Y-42237962D01*
X6037170Y-42257368D01*
X6026134Y-42275781D01*
X6013346Y-42293024D01*
X5998930Y-42308930D01*
X5983024Y-42323346D01*
X5965781Y-42336134D01*
X5947368Y-42347170D01*
X5927962Y-42356349D01*
X5907750Y-42363581D01*
X5886926Y-42368797D01*
X5865691Y-42371947D01*
X5844250Y-42373000D01*
X5331750Y-42373000D01*
X5310309Y-42371947D01*
X5289074Y-42368797D01*
X5268250Y-42363581D01*
X5248038Y-42356349D01*
X5228632Y-42347170D01*
X5210219Y-42336134D01*
X5192976Y-42323346D01*
X5177070Y-42308930D01*
X5162654Y-42293024D01*
X5149866Y-42275781D01*
X5138830Y-42257368D01*
X5129651Y-42237962D01*
X5122419Y-42217750D01*
X5117203Y-42196926D01*
X5114053Y-42175691D01*
X5113000Y-42154250D01*
X5113000Y-41716750D01*
X5114053Y-41695309D01*
X5117203Y-41674074D01*
X5122419Y-41653250D01*
X5129651Y-41633038D01*
X5138830Y-41613632D01*
X5149866Y-41595219D01*
X5162654Y-41577976D01*
X5177070Y-41562070D01*
X5192976Y-41547654D01*
X5210219Y-41534866D01*
X5228632Y-41523830D01*
X5248038Y-41514651D01*
X5268250Y-41507419D01*
X5289074Y-41502203D01*
X5310309Y-41499053D01*
X5331750Y-41498000D01*
X5844250Y-41498000D01*
X5865691Y-41499053D01*
X5865691Y-41499053D01*
G37*
D13*
X5588000Y-41935500D03*
D12*
G36*
X5865691Y-39924053D02*
X5886926Y-39927203D01*
X5907750Y-39932419D01*
X5927962Y-39939651D01*
X5947368Y-39948830D01*
X5965781Y-39959866D01*
X5983024Y-39972654D01*
X5998930Y-39987070D01*
X6013346Y-40002976D01*
X6026134Y-40020219D01*
X6037170Y-40038632D01*
X6046349Y-40058038D01*
X6053581Y-40078250D01*
X6058797Y-40099074D01*
X6061947Y-40120309D01*
X6063000Y-40141750D01*
X6063000Y-40579250D01*
X6061947Y-40600691D01*
X6058797Y-40621926D01*
X6053581Y-40642750D01*
X6046349Y-40662962D01*
X6037170Y-40682368D01*
X6026134Y-40700781D01*
X6013346Y-40718024D01*
X5998930Y-40733930D01*
X5983024Y-40748346D01*
X5965781Y-40761134D01*
X5947368Y-40772170D01*
X5927962Y-40781349D01*
X5907750Y-40788581D01*
X5886926Y-40793797D01*
X5865691Y-40796947D01*
X5844250Y-40798000D01*
X5331750Y-40798000D01*
X5310309Y-40796947D01*
X5289074Y-40793797D01*
X5268250Y-40788581D01*
X5248038Y-40781349D01*
X5228632Y-40772170D01*
X5210219Y-40761134D01*
X5192976Y-40748346D01*
X5177070Y-40733930D01*
X5162654Y-40718024D01*
X5149866Y-40700781D01*
X5138830Y-40682368D01*
X5129651Y-40662962D01*
X5122419Y-40642750D01*
X5117203Y-40621926D01*
X5114053Y-40600691D01*
X5113000Y-40579250D01*
X5113000Y-40141750D01*
X5114053Y-40120309D01*
X5117203Y-40099074D01*
X5122419Y-40078250D01*
X5129651Y-40058038D01*
X5138830Y-40038632D01*
X5149866Y-40020219D01*
X5162654Y-40002976D01*
X5177070Y-39987070D01*
X5192976Y-39972654D01*
X5210219Y-39959866D01*
X5228632Y-39948830D01*
X5248038Y-39939651D01*
X5268250Y-39932419D01*
X5289074Y-39927203D01*
X5310309Y-39924053D01*
X5331750Y-39923000D01*
X5844250Y-39923000D01*
X5865691Y-39924053D01*
X5865691Y-39924053D01*
G37*
D13*
X5588000Y-40360500D03*
G04 #@! TD*
D12*
G04 #@! TO.C,R29*
G36*
X9929691Y-39924053D02*
X9950926Y-39927203D01*
X9971750Y-39932419D01*
X9991962Y-39939651D01*
X10011368Y-39948830D01*
X10029781Y-39959866D01*
X10047024Y-39972654D01*
X10062930Y-39987070D01*
X10077346Y-40002976D01*
X10090134Y-40020219D01*
X10101170Y-40038632D01*
X10110349Y-40058038D01*
X10117581Y-40078250D01*
X10122797Y-40099074D01*
X10125947Y-40120309D01*
X10127000Y-40141750D01*
X10127000Y-40579250D01*
X10125947Y-40600691D01*
X10122797Y-40621926D01*
X10117581Y-40642750D01*
X10110349Y-40662962D01*
X10101170Y-40682368D01*
X10090134Y-40700781D01*
X10077346Y-40718024D01*
X10062930Y-40733930D01*
X10047024Y-40748346D01*
X10029781Y-40761134D01*
X10011368Y-40772170D01*
X9991962Y-40781349D01*
X9971750Y-40788581D01*
X9950926Y-40793797D01*
X9929691Y-40796947D01*
X9908250Y-40798000D01*
X9395750Y-40798000D01*
X9374309Y-40796947D01*
X9353074Y-40793797D01*
X9332250Y-40788581D01*
X9312038Y-40781349D01*
X9292632Y-40772170D01*
X9274219Y-40761134D01*
X9256976Y-40748346D01*
X9241070Y-40733930D01*
X9226654Y-40718024D01*
X9213866Y-40700781D01*
X9202830Y-40682368D01*
X9193651Y-40662962D01*
X9186419Y-40642750D01*
X9181203Y-40621926D01*
X9178053Y-40600691D01*
X9177000Y-40579250D01*
X9177000Y-40141750D01*
X9178053Y-40120309D01*
X9181203Y-40099074D01*
X9186419Y-40078250D01*
X9193651Y-40058038D01*
X9202830Y-40038632D01*
X9213866Y-40020219D01*
X9226654Y-40002976D01*
X9241070Y-39987070D01*
X9256976Y-39972654D01*
X9274219Y-39959866D01*
X9292632Y-39948830D01*
X9312038Y-39939651D01*
X9332250Y-39932419D01*
X9353074Y-39927203D01*
X9374309Y-39924053D01*
X9395750Y-39923000D01*
X9908250Y-39923000D01*
X9929691Y-39924053D01*
X9929691Y-39924053D01*
G37*
D13*
X9652000Y-40360500D03*
D12*
G36*
X9929691Y-41499053D02*
X9950926Y-41502203D01*
X9971750Y-41507419D01*
X9991962Y-41514651D01*
X10011368Y-41523830D01*
X10029781Y-41534866D01*
X10047024Y-41547654D01*
X10062930Y-41562070D01*
X10077346Y-41577976D01*
X10090134Y-41595219D01*
X10101170Y-41613632D01*
X10110349Y-41633038D01*
X10117581Y-41653250D01*
X10122797Y-41674074D01*
X10125947Y-41695309D01*
X10127000Y-41716750D01*
X10127000Y-42154250D01*
X10125947Y-42175691D01*
X10122797Y-42196926D01*
X10117581Y-42217750D01*
X10110349Y-42237962D01*
X10101170Y-42257368D01*
X10090134Y-42275781D01*
X10077346Y-42293024D01*
X10062930Y-42308930D01*
X10047024Y-42323346D01*
X10029781Y-42336134D01*
X10011368Y-42347170D01*
X9991962Y-42356349D01*
X9971750Y-42363581D01*
X9950926Y-42368797D01*
X9929691Y-42371947D01*
X9908250Y-42373000D01*
X9395750Y-42373000D01*
X9374309Y-42371947D01*
X9353074Y-42368797D01*
X9332250Y-42363581D01*
X9312038Y-42356349D01*
X9292632Y-42347170D01*
X9274219Y-42336134D01*
X9256976Y-42323346D01*
X9241070Y-42308930D01*
X9226654Y-42293024D01*
X9213866Y-42275781D01*
X9202830Y-42257368D01*
X9193651Y-42237962D01*
X9186419Y-42217750D01*
X9181203Y-42196926D01*
X9178053Y-42175691D01*
X9177000Y-42154250D01*
X9177000Y-41716750D01*
X9178053Y-41695309D01*
X9181203Y-41674074D01*
X9186419Y-41653250D01*
X9193651Y-41633038D01*
X9202830Y-41613632D01*
X9213866Y-41595219D01*
X9226654Y-41577976D01*
X9241070Y-41562070D01*
X9256976Y-41547654D01*
X9274219Y-41534866D01*
X9292632Y-41523830D01*
X9312038Y-41514651D01*
X9332250Y-41507419D01*
X9353074Y-41502203D01*
X9374309Y-41499053D01*
X9395750Y-41498000D01*
X9908250Y-41498000D01*
X9929691Y-41499053D01*
X9929691Y-41499053D01*
G37*
D13*
X9652000Y-41935500D03*
G04 #@! TD*
D12*
G04 #@! TO.C,R15*
G36*
X2817691Y10875947D02*
X2838926Y10872797D01*
X2859750Y10867581D01*
X2879962Y10860349D01*
X2899368Y10851170D01*
X2917781Y10840134D01*
X2935024Y10827346D01*
X2950930Y10812930D01*
X2965346Y10797024D01*
X2978134Y10779781D01*
X2989170Y10761368D01*
X2998349Y10741962D01*
X3005581Y10721750D01*
X3010797Y10700926D01*
X3013947Y10679691D01*
X3015000Y10658250D01*
X3015000Y10220750D01*
X3013947Y10199309D01*
X3010797Y10178074D01*
X3005581Y10157250D01*
X2998349Y10137038D01*
X2989170Y10117632D01*
X2978134Y10099219D01*
X2965346Y10081976D01*
X2950930Y10066070D01*
X2935024Y10051654D01*
X2917781Y10038866D01*
X2899368Y10027830D01*
X2879962Y10018651D01*
X2859750Y10011419D01*
X2838926Y10006203D01*
X2817691Y10003053D01*
X2796250Y10002000D01*
X2283750Y10002000D01*
X2262309Y10003053D01*
X2241074Y10006203D01*
X2220250Y10011419D01*
X2200038Y10018651D01*
X2180632Y10027830D01*
X2162219Y10038866D01*
X2144976Y10051654D01*
X2129070Y10066070D01*
X2114654Y10081976D01*
X2101866Y10099219D01*
X2090830Y10117632D01*
X2081651Y10137038D01*
X2074419Y10157250D01*
X2069203Y10178074D01*
X2066053Y10199309D01*
X2065000Y10220750D01*
X2065000Y10658250D01*
X2066053Y10679691D01*
X2069203Y10700926D01*
X2074419Y10721750D01*
X2081651Y10741962D01*
X2090830Y10761368D01*
X2101866Y10779781D01*
X2114654Y10797024D01*
X2129070Y10812930D01*
X2144976Y10827346D01*
X2162219Y10840134D01*
X2180632Y10851170D01*
X2200038Y10860349D01*
X2220250Y10867581D01*
X2241074Y10872797D01*
X2262309Y10875947D01*
X2283750Y10877000D01*
X2796250Y10877000D01*
X2817691Y10875947D01*
X2817691Y10875947D01*
G37*
D13*
X2540000Y10439500D03*
D12*
G36*
X2817691Y9300947D02*
X2838926Y9297797D01*
X2859750Y9292581D01*
X2879962Y9285349D01*
X2899368Y9276170D01*
X2917781Y9265134D01*
X2935024Y9252346D01*
X2950930Y9237930D01*
X2965346Y9222024D01*
X2978134Y9204781D01*
X2989170Y9186368D01*
X2998349Y9166962D01*
X3005581Y9146750D01*
X3010797Y9125926D01*
X3013947Y9104691D01*
X3015000Y9083250D01*
X3015000Y8645750D01*
X3013947Y8624309D01*
X3010797Y8603074D01*
X3005581Y8582250D01*
X2998349Y8562038D01*
X2989170Y8542632D01*
X2978134Y8524219D01*
X2965346Y8506976D01*
X2950930Y8491070D01*
X2935024Y8476654D01*
X2917781Y8463866D01*
X2899368Y8452830D01*
X2879962Y8443651D01*
X2859750Y8436419D01*
X2838926Y8431203D01*
X2817691Y8428053D01*
X2796250Y8427000D01*
X2283750Y8427000D01*
X2262309Y8428053D01*
X2241074Y8431203D01*
X2220250Y8436419D01*
X2200038Y8443651D01*
X2180632Y8452830D01*
X2162219Y8463866D01*
X2144976Y8476654D01*
X2129070Y8491070D01*
X2114654Y8506976D01*
X2101866Y8524219D01*
X2090830Y8542632D01*
X2081651Y8562038D01*
X2074419Y8582250D01*
X2069203Y8603074D01*
X2066053Y8624309D01*
X2065000Y8645750D01*
X2065000Y9083250D01*
X2066053Y9104691D01*
X2069203Y9125926D01*
X2074419Y9146750D01*
X2081651Y9166962D01*
X2090830Y9186368D01*
X2101866Y9204781D01*
X2114654Y9222024D01*
X2129070Y9237930D01*
X2144976Y9252346D01*
X2162219Y9265134D01*
X2180632Y9276170D01*
X2200038Y9285349D01*
X2220250Y9292581D01*
X2241074Y9297797D01*
X2262309Y9300947D01*
X2283750Y9302000D01*
X2796250Y9302000D01*
X2817691Y9300947D01*
X2817691Y9300947D01*
G37*
D13*
X2540000Y8864500D03*
G04 #@! TD*
M02*
